<svg xmlns="http://www.w3.org/2000/svg" viewBox="0 0 100 30" enable-background="new 0 0 100 30"><g fill="#EE4F80"><path d="M15.02 16.242v7.78h-.365V15.65h.435l5.132 8.372h-.42l-4.783-7.78zm.363 1.036l.364.616v6.127h-.364V17.28zm.126-1.628h.424l5.147 8.372h-.423L15.51 15.65zm.6 2.836l.365.612v4.924h-.364v-5.536zm.26-2.836h.43l5.14 8.372h-.433L16.37 15.65zm.47 4.03l.363.6v3.74h-.364v-4.34zm.383-4.03h.425l4.773 7.78v-7.78h.365v8.372h-.43l-5.132-8.372zm3.378 4.342l-.363-.6V15.65h.364v4.342zm.73 1.194l-.365-.612V15.65h.364v5.536zm.727 1.207l-.364-.616V15.65h.364v6.743zM23.745 15.65h.364v8.372h-.365V15.65zm.73 0h.363v8.372h-.364V15.65zm.727 0h.364v8.372h-.364V15.65zm.728 0h.364v8.372h-.364V15.65zM35.38 17.278l-.304.197c-.384-.563-.88-1.007-1.49-1.335-.608-.326-1.264-.49-1.968-.49-.566 0-1.108.11-1.625.33-.518.222-.963.52-1.337.893-.374.374-.672.82-.892 1.337-.22.517-.33 1.06-.33 1.625s.11 1.108.33 1.625c.22.518.518.963.892 1.337s.82.672 1.337.892c.517.22 1.06.33 1.625.33.705 0 1.36-.165 1.972-.495.61-.33 1.107-.777 1.49-1.34l.294.222c-.418.607-.958 1.088-1.618 1.443-.66.356-1.374.534-2.14.534-.616 0-1.205-.12-1.766-.36-.56-.242-1.045-.566-1.45-.972-.407-.406-.73-.89-.972-1.45-.24-.562-.36-1.15-.36-1.768 0-.617.12-1.206.36-1.767.24-.562.564-1.045.97-1.45.407-.407.89-.73 1.452-.972.56-.24 1.15-.362 1.767-.362.77 0 1.483.18 2.144.536.662.36 1.2.844 1.62 1.458m-.597.414l-.304.197c-.318-.466-.728-.834-1.232-1.105-.504-.27-1.047-.407-1.63-.407-.47 0-.917.09-1.345.273-.428.183-.796.428-1.105.737-.31.308-.554.676-.736 1.104-.182.43-.273.878-.273 1.346 0 .47.09.917.272 1.345.182.43.427.797.736 1.105.31.31.677.554 1.105.736.428.183.876.274 1.345.274.586 0 1.13-.136 1.633-.41.503-.272.913-.64 1.23-1.106l.293.217c-.35.512-.803.917-1.357 1.216-.555.3-1.154.448-1.798.448-.69 0-1.33-.17-1.916-.513-.586-.342-1.05-.806-1.393-1.393-.343-.586-.514-1.225-.514-1.916 0-.69.17-1.33.513-1.916.34-.587.805-1.05 1.392-1.393.587-.342 1.225-.513 1.916-.513.647 0 1.25.15 1.805.452.556.302 1.01.71 1.36 1.226m-.607.405l-.304.197c-.25-.364-.572-.653-.968-.867-.396-.214-.825-.32-1.287-.32-.496 0-.952.122-1.37.366-.418.244-.75.575-.993.993-.244.418-.367.875-.367 1.37 0 .496.122.952.367 1.37.244.417.575.75.993.993.418.243.875.365 1.37.365.462 0 .89-.108 1.29-.323.397-.215.72-.507.97-.875l.298.207c-.283.418-.65.748-1.1.99-.45.244-.936.365-1.458.365-.56 0-1.077-.14-1.552-.416-.475-.276-.85-.653-1.128-1.127-.276-.475-.415-.992-.415-1.552s.138-1.077.415-1.552c.277-.475.653-.85 1.128-1.127.475-.276.992-.415 1.552-.415.522 0 1.01.123 1.458.365.45.243.818.574 1.1.992m-.6.414l-.3.198c-.18-.27-.418-.483-.71-.64-.29-.156-.606-.234-.947-.234-.553 0-1.025.195-1.416.586-.39.39-.587.862-.587 1.415s.196 1.025.587 1.416c.39.392.863.587 1.416.587.34 0 .657-.08.948-.237.29-.158.528-.373.71-.642l.293.212c-.217.317-.497.568-.84.753-.344.186-.714.28-1.112.28-.32 0-.626-.063-.917-.188-.29-.125-.543-.293-.755-.506-.212-.213-.38-.465-.506-.757s-.188-.597-.188-.918c0-.32.062-.626.187-.918.124-.29.293-.543.505-.756.212-.21.464-.38.756-.505.292-.124.598-.187.918-.187.4 0 .774.094 1.118.28.343.19.623.443.838.763"/><path d="M36.44 24.02h-.363v-8.37h.364v8.37zm.73 0h-.365v-8.37h.364v8.37zm.727 0h-.364v-8.37h.364v8.37zm.73 0h-.365v-8.37h.364v8.37zm.21-4.184l2.145-4.186h.405l-2.144 4.186 2.144 4.186h-.405l-2.144-4.186zm.82 0l2.14-4.186h.403l-2.14 4.186 2.14 4.186h-.404l-2.14-4.186zm.814 0l2.14-4.186h.404l-2.14 4.186 2.14 4.186h-.405l-2.14-4.186zm.815 0l2.14-4.186h.403l-2.14 4.186 2.14 4.186h-.404l-2.14-4.186zM44.526 15.65h.364v8.372h-.364V15.65zm.728 0h.364v8.372h-.364V15.65zm.728 0h.364v8.372h-.364V15.65zm.728 0h.364v8.372h-.364V15.65z"/></g></svg>