<svg xmlns="http://www.w3.org/2000/svg" viewBox="0 0 100 30" enable-background="new 0 0 100 30"><g fill="#EE4F80"><path d="M5.703 10.18h-.636L.565 1.643v11.933H0V.565h.636l5.067 9.616zM1.13 3.52l.566 1.076v8.98H1.13V3.518zm5.854 6.66H6.34L1.28.566h.645l5.06 9.616zm-4.72-4.508l.564 1.07v6.834h-.565V5.672zm10.494-4.03l-4.502 8.54h-.643L2.56.564h.637l4.745 9.02L12.68.564h.643v13.01h-.566V1.642zM3.394 7.824l.565 1.068v4.683h-.566v-5.75zM7.18 7.33l-.33-.597L10.118.566h.644L7.18 7.33zm.653 1.233l-.323-.59L11.407.567h.636l-4.21 7.997zm1.53.267l.567-1.068v5.813h-.566V8.83zm1.133-2.168l.566-1.07v7.983h-.566V6.662zm1.13-2.137l.566-1.076v10.126h-.565v-9.05zM14.816.565h.566v13.01h-.566V.565zm1.132 0h.565v13.01h-.565V.565zm1.13 0h.566v13.01h-.565V.565zm1.132 0h.565v13.01h-.565V.565zM20.834 1.485v12.09h-.565V.565h.674l7.974 13.01h-.652l-7.432-12.09zm.566 1.61l.565.96v9.52H21.4V3.095zm.196-2.53h.66l7.997 13.01h-.66L21.596.564zm.935 4.408l.566.95v7.652h-.565V4.973zm.402-4.408h.668l7.99 13.01h-.676L22.932.564zm.73 6.262l.566.935v5.813h-.565V6.827zM24.26.565h.66l7.416 12.09V.565h.565v13.01h-.667L24.26.564zm5.247 6.75l-.566-.936V.564h.567v6.75zm1.132 1.853l-.566-.95V.564h.565v8.603zm1.13 1.877l-.565-.958V.565h.565v10.48zM34.535 13.575h-.613L39.068.565h.613l5.14 13.01h-.606l-4.84-12.248-4.84 12.248zm4.91-10.904l.322.724-4.022 10.182h-.605L39.445 2.67zm.63 1.494l.298.778-3.402 8.634h-.612l3.716-9.412zm.596 1.555l.3.792-2.79 7.063h-.604L40.67 5.72zm-1.54 6.3l.22-.566h3.708l.236.566H39.13zm.44-1.132l.22-.566h2.82l.245.566H39.57zm.44-1.13l.23-.566h1.932l.228.565h-2.39zm.88-9.193l5.147 13.01h-.613L40.286.565h.605zm1.218 0l5.146 13.01h-.605L41.502.565h.605zm6.364 13.01h-.612L42.722.565h.605l5.145 13.01zM50.067 14.14H49.1v-.565h.966c.597 0 1.165-.12 1.705-.36.54-.242 1.005-.566 1.396-.972.39-.405.7-.89.93-1.45.23-.56.347-1.146.347-1.76V.566h.566v8.47c0 .69-.13 1.35-.39 1.98-.26.627-.61 1.17-1.053 1.63-.443.457-.97.82-1.58 1.09-.61.27-1.25.406-1.92.406m0-1.13H49.1v-.566h.966c.9 0 1.667-.332 2.298-.998.63-.665.947-1.47.947-2.412V.564h.566v8.47c0 .718-.17 1.38-.506 1.99-.338.612-.8 1.095-1.386 1.45-.587.357-1.226.536-1.917.536m0-1.132H49.1v-.566h.966c.586 0 1.085-.223 1.497-.668.41-.445.617-.982.617-1.61V.564h.566v8.47c0 .786-.26 1.456-.782 2.01-.52.557-1.154.834-1.897.834m0-1.13H49.1v-.566h.966c.277 0 .51-.105.7-.315.188-.21.282-.487.282-.833V.564h.566v8.47c0 .498-.15.908-.448 1.23-.298.322-.664.483-1.1.483"/><path d="M57.02 13.575h-.566V.565h.566v13.01zm1.13 0h-.565V.565h.566v13.01zm1.132 0h-.566V.565h.566v13.01zm1.13-2.828h6.02v.565h-6.02v.566h6.02v.565h-6.02v.566h6.02v.565h-6.584V.565h6.583v.566h-6.017v.566h6.018v.566h-6.017v.565h6.018v.566h-6.017v2.263H63.5v.565h-3.087v.566H63.5v.566h-3.087v.566H63.5v.566h-3.087v2.263zM73.077 5.656h-.95c-.403 0-.694-.103-.872-.31-.178-.207-.267-.48-.267-.82 0-.755.563-1.132 1.69-1.132 1.057 0 1.853.157 2.387.47l-.456.347c-.368-.167-1.012-.25-1.934-.25-.45 0-.753.05-.908.148-.154.1-.232.238-.232.416s.042.317.126.417c.083.1.238.15.463.15h.974c.706 0 1.344.12 1.912.36.568.242 1.035.57 1.402.987.367.416.647.895.84 1.438.194.542.29 1.122.29 1.74 0 .503-.07.98-.21 1.43-.143.45-.356.864-.64 1.24-.287.378-.63.705-1.03.98-.4.274-.877.49-1.43.643-.553.154-1.15.232-1.795.232-1.012 0-1.958-.153-2.84-.46-.884-.306-1.618-.734-2.205-1.284l.456-.337c.535.48 1.204.854 2.008 1.118.804.264 1.664.397 2.58.397.72 0 1.367-.103 1.945-.31.58-.208 1.056-.492 1.43-.853.374-.36.663-.78.864-1.257.2-.476.302-.99.302-1.54 0-.728-.148-1.387-.44-1.976-.294-.59-.74-1.068-1.34-1.435-.597-.365-1.306-.55-2.123-.55m-.95 2.83h.864c.404 0 .695.104.873.313.178.21.267.482.267.817 0 .754-.563 1.13-1.69 1.13-1.062 0-1.86-.156-2.395-.47l.455-.345c.367.168 1.013.25 1.94.25.45 0 .753-.05.908-.148.154-.1.232-.238.232-.416 0-.173-.043-.31-.13-.413-.086-.102-.245-.153-.475-.153h-.848c-.723 0-1.376-.118-1.96-.353-.584-.236-1.063-.56-1.438-.974-.375-.414-.662-.893-.86-1.437-.2-.546-.3-1.133-.3-1.76 0-.504.07-.98.212-1.43.14-.45.355-.864.64-1.24.286-.378.63-.704 1.03-.98.4-.274.876-.49 1.43-.643C71.433.077 72.03 0 72.676 0c1.01 0 1.956.153 2.836.46.88.306 1.613.734 2.2 1.284l-.457.337c-.534-.48-1.202-.854-2.004-1.12-.8-.263-1.66-.396-2.576-.396-.718 0-1.366.103-1.944.31-.58.207-1.056.49-1.43.853-.374.36-.663.78-.864 1.257-.2.476-.302.99-.302 1.54 0 .737.15 1.403.448 1.995.3.59.754 1.066 1.367 1.425.613.36 1.34.54 2.177.54m0-2.263h.896c1.063 0 1.895.325 2.494.974.6.65.9 1.456.9 2.42 0 .98-.35 1.79-1.045 2.43-.697.643-1.673.963-2.93.963-.84 0-1.622-.116-2.35-.346-.728-.23-1.333-.555-1.815-.974l.44-.353c.43.35.97.623 1.622.817.65.194 1.352.29 2.1.29 1.105 0 1.95-.263 2.534-.792.584-.53.876-1.207.876-2.035 0-.817-.245-1.493-.735-2.027s-1.19-.8-2.1-.8h-.89c-.764 0-1.337-.21-1.72-.63-.382-.418-.573-.962-.573-1.633 0-.67.237-1.215.71-1.634.475-.42 1.186-.628 2.134-.628.665 0 1.283.077 1.854.23.57.156 1.042.377 1.414.665l-.448.345c-.655-.45-1.595-.675-2.82-.675-.79 0-1.37.156-1.732.467-.364.312-.546.722-.546 1.23 0 .513.135.924.405 1.233.27.307.71.462 1.324.462m0 1.13h.864c.766 0 1.34.213 1.722.637.382.423.573.965.573 1.625 0 .67-.237 1.215-.71 1.634-.475.418-1.186.627-2.134.627-.664 0-1.283-.078-1.857-.232-.574-.155-1.046-.376-1.418-.664l.448-.344c.655.45 1.597.675 2.828.675.792 0 1.37-.155 1.733-.466.364-.312.546-.722.546-1.23s-.137-.918-.41-1.23c-.272-.31-.715-.467-1.328-.467h-.856c-1.074 0-1.913-.32-2.518-.963-.605-.64-.908-1.452-.908-2.43 0-.98.348-1.79 1.045-2.432.696-.64 1.673-.962 2.93-.962.838 0 1.62.115 2.345.345.725.23 1.33.555 1.81.974l-.44.352c-.43-.35-.968-.623-1.618-.817-.65-.194-1.35-.29-2.097-.29-1.105 0-1.95.265-2.534.793-.583.53-.875 1.207-.875 2.035 0 .823.246 1.5.74 2.03.493.535 1.2.8 2.122.8"/><path d="M78.545.565h8.485v.566h-8.485V.566zm0 1.132h8.485v.565h-8.485v-.565zm0 1.697v-.566h8.485v.565h-2.263v10.182H84.2V3.395h-.565v10.18h-.565V3.396h-.566v10.18h-.566V3.396h-.566v10.18h-.566V3.396h-2.26zM92.23 8.595l3.81-8.03h.566l-4.093 8.627v4.384h-.566V9.19L87.854.566h.566l3.81 8.03zm.432-1.564l-.283.62L88.984.566h.566l3.112 6.466zm.566-1.24l-.29.62-2.82-5.845h.566l2.544 5.225zm.566-1.234l-.283.62-2.26-4.61h.565l1.98 3.99zM93.08 9.19L97.17.566h.566L93.645 9.19v4.385h-.566V9.19zm1.13 0L98.303.566h.566L94.775 9.19v4.385h-.566V9.19zm1.13 0L99.435.566H100L95.907 9.19v4.385h-.566V9.19z"/></g></svg>