<?xml version="1.0" encoding="iso-8859-1"?>
<!-- Generator: Adobe Illustrator 19.2.1, SVG Export Plug-In . SVG Version: 6.00 Build 0)  -->
<svg version="1.1" xmlns="http://www.w3.org/2000/svg" xmlns:xlink="http://www.w3.org/1999/xlink" x="0px" y="0px"
	 viewBox="0 0 160 20" style="enable-background:new 0 0 160 20;" xml:space="preserve">
<g id="cta_x5F_sp">
	<rect style="fill:#FFFFFF;" width="160" height="20"/>
	<g>
		<path style="fill:#E471AC;" d="M12.729,14.096l1.131-7.901h0.128l3.212,6.483l3.181-6.483h0.126l1.137,7.901H20.87l-0.78-5.65
			l-2.794,5.65h-0.202l-2.827-5.693l-0.776,5.693H12.729z"/>
		<path style="fill:#E471AC;" d="M26.37,6.195l3.685,7.901h-0.853l-1.243-2.6h-3.403l-1.231,2.6h-0.881l3.733-7.901H26.37z
			 M26.27,7.874l-1.354,2.86h2.701L26.27,7.874z"/>
		<path style="fill:#E471AC;" d="M30.408,12.624l0.671-0.403c0.473,0.871,1.019,1.306,1.638,1.306c0.265,0,0.514-0.062,0.747-0.186
			c0.233-0.123,0.41-0.289,0.532-0.497c0.122-0.207,0.183-0.428,0.183-0.66c0-0.265-0.089-0.524-0.269-0.779
			c-0.247-0.351-0.698-0.773-1.354-1.267c-0.659-0.498-1.069-0.857-1.23-1.08c-0.279-0.373-0.419-0.775-0.419-1.208
			c0-0.344,0.083-0.657,0.247-0.94s0.396-0.506,0.695-0.669c0.299-0.163,0.624-0.244,0.975-0.244c0.373,0,0.721,0.092,1.044,0.276
			c0.324,0.185,0.667,0.524,1.029,1.018l-0.645,0.489c-0.297-0.394-0.55-0.653-0.76-0.779c-0.209-0.125-0.438-0.188-0.685-0.188
			c-0.319,0-0.579,0.097-0.781,0.29c-0.203,0.193-0.304,0.432-0.304,0.714c0,0.172,0.036,0.338,0.107,0.5s0.202,0.336,0.392,0.526
			c0.104,0.1,0.444,0.363,1.021,0.79c0.684,0.505,1.153,0.954,1.407,1.348c0.254,0.394,0.381,0.789,0.381,1.188
			c0,0.572-0.218,1.07-0.652,1.492c-0.436,0.423-0.964,0.635-1.587,0.635c-0.48,0-0.915-0.129-1.305-0.385
			S30.737,13.226,30.408,12.624z"/>
		<path style="fill:#E471AC;" d="M39.525,6.195h0.79v7.901h-0.79V6.195z"/>
		<path style="fill:#E471AC;" d="M42.075,14.096V6.195h0.172l5.258,6.056V6.195h0.779v7.901h-0.177l-5.215-5.983v5.983H42.075z"/>
		<path style="fill:#E471AC;" d="M50.152,6.195h3.958v0.773h-3.169v2.476h3.169v0.773h-3.169v3.878h-0.79V6.195z"/>
		<path style="fill:#E471AC;" d="M59.193,5.996c1.197,0,2.198,0.399,3.004,1.198s1.209,1.781,1.209,2.949
			c0,1.156-0.402,2.138-1.207,2.943c-0.805,0.806-1.785,1.209-2.943,1.209c-1.171,0-2.16-0.401-2.966-1.203
			c-0.806-0.803-1.209-1.773-1.209-2.912c0-0.759,0.184-1.463,0.551-2.111s0.868-1.156,1.502-1.522
			C57.769,6.18,58.455,5.996,59.193,5.996z M59.228,6.764c-0.584,0-1.139,0.152-1.662,0.457c-0.524,0.305-0.933,0.715-1.227,1.231
			c-0.294,0.516-0.441,1.091-0.441,1.726c0,0.938,0.326,1.731,0.977,2.378c0.651,0.647,1.436,0.971,2.354,0.971
			c0.613,0,1.181-0.148,1.703-0.446c0.522-0.297,0.929-0.704,1.221-1.22c0.292-0.517,0.438-1.09,0.438-1.721
			c0-0.627-0.146-1.194-0.438-1.701c-0.292-0.507-0.704-0.913-1.234-1.217C60.386,6.917,59.823,6.764,59.228,6.764z"/>
		<path style="fill:#E471AC;" d="M64.979,6.195h1.574c0.877,0,1.472,0.036,1.783,0.107c0.469,0.108,0.851,0.338,1.144,0.691
			c0.293,0.353,0.44,0.788,0.44,1.304c0,0.43-0.101,0.808-0.303,1.134c-0.203,0.327-0.492,0.573-0.868,0.74
			c-0.376,0.167-0.895,0.252-1.558,0.255l2.841,3.668h-0.977l-2.842-3.668h-0.446v3.668h-0.79V6.195z M65.769,6.968v2.686
			l1.361,0.011c0.527,0,0.917-0.05,1.17-0.15c0.253-0.1,0.45-0.26,0.592-0.48s0.212-0.466,0.212-0.739
			c0-0.265-0.072-0.506-0.215-0.723c-0.144-0.216-0.332-0.371-0.565-0.464c-0.233-0.093-0.62-0.14-1.162-0.14H65.769z"/>
		<path style="fill:#E471AC;" d="M71.197,14.096l1.131-7.901h0.128l3.212,6.483l3.181-6.483h0.126l1.137,7.901h-0.774l-0.78-5.65
			l-2.794,5.65h-0.202l-2.827-5.693l-0.776,5.693H71.197z"/>
		<path style="fill:#E471AC;" d="M84.839,6.195l3.685,7.901h-0.853l-1.243-2.6h-3.403l-1.23,2.6h-0.881l3.733-7.901H84.839z
			 M84.739,7.874l-1.354,2.86h2.701L84.739,7.874z"/>
		<path style="fill:#E471AC;" d="M97.051,7.661l-0.623,0.478c-0.344-0.448-0.757-0.787-1.238-1.018
			c-0.481-0.23-1.011-0.346-1.588-0.346c-0.63,0-1.213,0.151-1.75,0.454c-0.537,0.303-0.954,0.709-1.249,1.22
			c-0.296,0.51-0.443,1.084-0.443,1.721c0,0.963,0.33,1.767,0.991,2.412c0.66,0.645,1.494,0.967,2.5,0.967
			c1.106,0,2.032-0.434,2.777-1.3l0.623,0.473c-0.395,0.501-0.886,0.889-1.475,1.163c-0.589,0.273-1.247,0.411-1.975,0.411
			c-1.382,0-2.472-0.461-3.271-1.381c-0.67-0.777-1.005-1.715-1.005-2.814c0-1.157,0.406-2.13,1.217-2.919
			c0.812-0.79,1.827-1.185,3.049-1.185c0.737,0,1.403,0.146,1.998,0.438C96.184,6.726,96.671,7.135,97.051,7.661z"/>
		<path style="fill:#E471AC;" d="M98.468,6.195h0.79v7.901h-0.79V6.195z"/>
		<path style="fill:#E471AC;" d="M104.774,5.996c1.197,0,2.198,0.399,3.005,1.198c0.806,0.798,1.209,1.781,1.209,2.949
			c0,1.156-0.402,2.138-1.207,2.943c-0.804,0.806-1.785,1.209-2.942,1.209c-1.172,0-2.16-0.401-2.967-1.203
			c-0.806-0.803-1.209-1.773-1.209-2.912c0-0.759,0.184-1.463,0.551-2.111s0.868-1.156,1.502-1.522
			C103.351,6.18,104.036,5.996,104.774,5.996z M104.81,6.764c-0.585,0-1.139,0.152-1.662,0.457
			c-0.524,0.305-0.933,0.715-1.227,1.231s-0.441,1.091-0.441,1.726c0,0.938,0.325,1.731,0.977,2.378
			c0.65,0.647,1.436,0.971,2.354,0.971c0.613,0,1.181-0.148,1.702-0.446c0.522-0.297,0.93-0.704,1.222-1.22
			c0.292-0.517,0.438-1.09,0.438-1.721c0-0.627-0.146-1.194-0.438-1.701c-0.292-0.507-0.704-0.913-1.234-1.217
			C105.968,6.917,105.405,6.764,104.81,6.764z"/>
		<path style="fill:#E471AC;" d="M110.523,14.096V6.195h0.172l5.258,6.056V6.195h0.779v7.901h-0.178l-5.215-5.983v5.983H110.523z"/>
		<path style="fill:#E471AC;" d="M124.817,6.195l3.685,7.901h-0.853l-1.243-2.6h-3.403l-1.23,2.6h-0.881l3.732-7.901H124.817z
			 M124.718,7.874l-1.354,2.86h2.701L124.718,7.874z"/>
		<path style="fill:#E471AC;" d="M136.293,13.237l1.172,1.481h-0.972l-0.805-1.021c-0.646,0.398-1.372,0.598-2.181,0.598
			c-1.17,0-2.157-0.401-2.962-1.203c-0.805-0.803-1.207-1.773-1.207-2.912c0-0.759,0.184-1.463,0.553-2.114
			c0.368-0.649,0.87-1.157,1.505-1.522c0.636-0.365,1.332-0.548,2.091-0.548c1.17,0,2.157,0.4,2.961,1.2
			c0.803,0.801,1.205,1.784,1.205,2.952c0,0.609-0.11,1.166-0.331,1.67C137.103,12.323,136.759,12.796,136.293,13.237z
			 M135.804,12.619c0.688-0.67,1.033-1.496,1.033-2.478c0-0.627-0.146-1.195-0.438-1.702s-0.702-0.913-1.232-1.218
			s-1.089-0.457-1.676-0.457c-0.591,0-1.147,0.151-1.671,0.454c-0.522,0.303-0.931,0.713-1.225,1.231
			c-0.293,0.518-0.439,1.094-0.439,1.729c0,0.938,0.323,1.731,0.972,2.378c0.648,0.647,1.431,0.971,2.347,0.971
			c0.627,0,1.2-0.152,1.72-0.457l-1.759-2.234h0.958L135.804,12.619z"/>
		<path style="fill:#E471AC;" d="M139.225,6.195h0.789v4.77c0,0.566,0.012,0.918,0.033,1.058c0.039,0.312,0.13,0.572,0.273,0.781
			c0.144,0.21,0.363,0.385,0.66,0.526c0.298,0.142,0.597,0.213,0.897,0.213c0.262,0,0.512-0.056,0.752-0.167s0.44-0.265,0.602-0.462
			s0.279-0.436,0.354-0.715c0.054-0.2,0.08-0.611,0.08-1.235v-4.77h0.79v4.77c0,0.706-0.069,1.276-0.207,1.71
			c-0.138,0.436-0.413,0.813-0.827,1.136c-0.413,0.322-0.914,0.484-1.501,0.484c-0.638,0-1.184-0.152-1.638-0.457
			c-0.455-0.305-0.76-0.707-0.914-1.209c-0.096-0.308-0.145-0.862-0.145-1.665V6.195z"/>
		<path style="fill:#E471AC;" d="M146.996,3.917h1.154l-1.584,1.654h-0.741L146.996,3.917z M146.233,6.195h0.79v7.901h-0.79V6.195z"
			/>
	</g>
</g>
<g id="Layer_1">
</g>
</svg>
