<svg xmlns="http://www.w3.org/2000/svg" viewBox="0 0 140 20" enable-background="new 0 0 140 20"><g><path fill="#FF4F84" d="M0 0h140v20H0z"/><path d="M17.562 8.212c-.23-.65-.82-1.21-2.55-1.21-.958 0-1.928.24-1.928.91 0 .31.18.64 1.63.82l1.718.26c1.63.25 2.588.88 2.588 2.1 0 1.718-1.64 2.357-3.578 2.357-3.118 0-3.878-1.54-4.048-2.09l1.37-.43c.26.53.8 1.3 2.718 1.3 1.16 0 2.12-.38 2.12-1.01 0-.47-.54-.78-1.58-.91l-1.74-.24c-1.678-.23-2.618-.96-2.618-2.07 0-2.178 2.83-2.178 3.388-2.178 3.128 0 3.668 1.45 3.848 1.95l-1.338.44zM20.335 6.003h1.42V8.88h4.876V6.004h1.42v7.266h-1.42v-3.13h-4.876v3.13h-1.42V6.002zM33.733 5.824c3.198 0 4.328 1.88 4.328 3.868 0 1.51-.89 3.758-4.327 3.758s-4.328-2.25-4.328-3.758c0-1.99 1.13-3.868 4.328-3.868zm2.91 3.787c0-1.748-1.25-2.567-2.91-2.567s-2.908.82-2.908 2.568c0 2.06 1.55 2.62 2.908 2.62 1.36 0 2.91-.56 2.91-2.62zM39.415 6.003h4.048c1.23 0 3.25 0 3.25 2.23 0 2.218-2.02 2.218-3.25 2.218h-2.628v2.82h-1.42V6.002zm4.357 3.23c.81 0 1.52-.07 1.52-1.01 0-.93-.71-1-1.52-1h-2.938V9.23h2.938zM50.885 6.003h1.42L53.702 11h.02l1.39-4.997h1.358l1.41 4.987h.02l1.39-4.987h1.388l-2.12 7.266H57.2L55.82 8.11h-.02l-1.39 5.157h-1.388l-2.137-7.267zM64.133 6.003h1.62l3.527 7.266h-1.5l-.76-1.67h-4.187l-.77 1.67h-1.51l3.58-7.267zm2.33 4.378l-1.52-3.237-1.52 3.238h3.04zM70.325 6.003h1.42v6.006h5.266v1.26h-6.685V6.002zM85.7 9.542v3.808h-.86l-.28-.75c-.55.36-1.308.85-2.718.85-1.858 0-4.107-.91-4.107-3.798 0-1.94 1.17-3.828 4.068-3.828 1.67 0 3.498.62 3.848 2.45h-1.448c-.17-.37-.56-1.23-2.23-1.23-2.278 0-2.818 1.54-2.818 2.55 0 1.718 1.16 2.598 2.7 2.598 1.398 0 2.178-.49 2.518-1.51h-2.55v-1.14H85.7zM87.194 6.003h4.368c1.72 0 2.958.39 2.958 2.17 0 1.338-.96 2.078-2.03 2.138l2.23 2.96h-1.75l-2.108-2.86h-2.25v2.86h-1.418V6.002zm4.16 3.23c1.158 0 1.748-.17 1.748-1.03 0-.85-.59-1.02-1.75-1.02h-2.738v2.05h2.74zM96.184 6.003h6.517v1.22h-5.097V8.91h4.388v1.22h-4.387v1.918h5.218v1.22h-6.636V6.003zM104.063 6.003h6.517v1.22h-5.098V8.91h4.388v1.22h-4.388v1.918h5.218v1.22h-6.637V6.003zM111.944 6.003h1.5l4.856 5.248V6.004h1.36v7.266h-1.3l-5.058-5.438v5.437h-1.36V6.002zM127.14 8.212c-.23-.65-.818-1.21-2.548-1.21-.96 0-1.93.24-1.93.91 0 .31.18.64 1.63.82l1.72.26c1.63.25 2.588.88 2.588 2.1 0 1.718-1.64 2.357-3.578 2.357-3.118 0-3.878-1.54-4.048-2.09l1.37-.43c.26.53.8 1.3 2.718 1.3 1.16 0 2.12-.38 2.12-1.01 0-.47-.54-.78-1.58-.91l-1.74-.24c-1.678-.23-2.617-.96-2.617-2.07 0-2.178 2.828-2.178 3.388-2.178 3.128 0 3.668 1.45 3.848 1.95l-1.34.44z" fill="#fff"/></g></svg>