<?xml version="1.0" encoding="iso-8859-1"?>
<!-- Generator: Adobe Illustrator 19.2.1, SVG Export Plug-In . SVG Version: 6.00 Build 0)  -->
<svg version="1.1" xmlns="http://www.w3.org/2000/svg" xmlns:xlink="http://www.w3.org/1999/xlink" x="0px" y="0px"
	 viewBox="0 0 150 20" style="enable-background:new 0 0 150 20;" xml:space="preserve">
<g id="cta_x5F_sp">
	<rect style="fill:#FF0088;" width="150" height="20"/>
	<g>
		<path style="fill:#FFFFFF;" d="M13.711,7.946h-0.016v4.198h-0.863V6.147h0.863l2.047,3.726l2.047-3.726h0.864v5.997h-0.864V7.946
			h-0.016l-2.031,3.686L13.711,7.946z"/>
		<path style="fill:#FFFFFF;" d="M26.397,12.144h-0.976l-0.855-1.975h-2.679L21,12.144h-0.943l2.71-5.997h0.959L26.397,12.144z
			 M23.23,7.218l-0.943,2.087h1.887L23.23,7.218z"/>
		<path style="fill:#FFFFFF;" d="M27.536,10.473c0.399,0.271,0.983,0.936,2.422,0.936c0.808,0,1.911-0.288,1.911-1.023
			c0-0.984-1.127-0.984-1.879-0.984h-0.896c-0.815,0-1.775-0.448-1.775-1.535c0-1.271,1.439-1.847,2.542-1.847
			c1.351,0,2.215,0.64,2.455,0.815L31.83,7.53c-0.512-0.304-0.936-0.648-1.943-0.648c-0.751,0-1.703,0.28-1.703,0.983
			c0,0.464,0.336,0.688,1.023,0.688h0.792c1.407,0,2.735,0.352,2.735,1.839c0,1.255-1.335,1.879-2.831,1.879
			c-1.807,0-2.607-0.855-2.975-1.215L27.536,10.473z"/>
		<path style="fill:#FFFFFF;" d="M38.167,6.147v5.997h-0.864V6.147H38.167z"/>
		<path style="fill:#FFFFFF;" d="M41.367,6.147l3.566,4.557h0.016V6.147h0.864v5.997h-0.864l-3.566-4.558h-0.016v4.558h-0.863V6.147
			H41.367z"/>
		<path style="fill:#FFFFFF;" d="M49.071,12.144h-0.863V6.147h4.909V7.01h-4.046v1.575h2.455v0.864h-2.455V12.144z"/>
		<path style="fill:#FFFFFF;" d="M54.448,9.145c0-1.879,1.495-3.126,3.214-3.126c1.719,0,3.214,1.239,3.214,3.126
			c0,1.879-1.495,3.126-3.214,3.126C55.943,12.271,54.448,11.032,54.448,9.145z M60.013,9.145c0-1.239-0.992-2.263-2.351-2.263
			c-1.359,0-2.351,1.023-2.351,2.263c0,1.24,0.992,2.263,2.351,2.263C59.021,11.408,60.013,10.385,60.013,9.145z"/>
		<path style="fill:#FFFFFF;" d="M66.374,6.147c0.959,0,1.879,0.488,1.879,1.711c0,1.303-0.872,1.711-1.375,1.751l1.239,2.535
			h-0.983l-1.2-2.502h-2.23v2.502H62.84V6.147H66.374z M63.704,7.01v1.767h2.67c0.647,0,1.016-0.336,1.016-0.919
			c0-0.68-0.52-0.848-1.016-0.848H63.704z"/>
		<path style="fill:#FFFFFF;" d="M70.887,7.946h-0.016v4.198h-0.863V6.147h0.863l2.047,3.726l2.047-3.726h0.864v5.997h-0.864V7.946
			h-0.016l-2.031,3.686L70.887,7.946z"/>
		<path style="fill:#FFFFFF;" d="M83.572,12.144h-0.975l-0.855-1.975h-2.679l-0.887,1.975h-0.943l2.71-5.997h0.959L83.572,12.144z
			 M80.406,7.218l-0.943,2.087h1.887L80.406,7.218z"/>
		<path style="fill:#FFFFFF;" d="M90.564,11.072c-0.567,0.615-1.279,1.199-2.998,1.199c-1.623,0-3.158-1.239-3.158-3.078
			c0-1.767,1.367-3.174,3.142-3.174c1.64,0,2.631,0.943,2.919,1.223l-0.647,0.552c-0.272-0.224-1.032-0.912-2.263-0.912
			c-1.12,0-2.287,0.816-2.287,2.311c0,1.071,0.863,2.215,2.503,2.215c1.279,0,1.95-0.648,2.215-0.96L90.564,11.072z"/>
		<path style="fill:#FFFFFF;" d="M93.127,6.147v5.997h-0.863V6.147H93.127z"/>
		<path style="fill:#FFFFFF;" d="M95.04,9.145c0-1.879,1.495-3.126,3.215-3.126c1.719,0,3.214,1.239,3.214,3.126
			c0,1.879-1.495,3.126-3.214,3.126C96.535,12.271,95.04,11.032,95.04,9.145z M100.605,9.145c0-1.239-0.991-2.263-2.351-2.263
			s-2.351,1.023-2.351,2.263c0,1.24,0.991,2.263,2.351,2.263S100.605,10.385,100.605,9.145z"/>
		<path style="fill:#FFFFFF;" d="M104.328,6.147l3.565,4.557h0.017V6.147h0.863v5.997h-0.863l-3.566-4.558h-0.016v4.558h-0.864
			V6.147H104.328z"/>
		<path style="fill:#FFFFFF;" d="M119.421,12.144h-0.975l-0.856-1.975h-2.678l-0.888,1.975h-0.943l2.71-5.997h0.96L119.421,12.144z
			 M116.255,7.218l-0.943,2.087h1.887L116.255,7.218z"/>
		<path style="fill:#FFFFFF;" d="M126.333,12.367l-0.735,0.512l-0.792-0.823c-0.271,0.128-0.799,0.216-1.223,0.216
			c-1.72,0-3.215-1.239-3.215-3.126c0-1.879,1.495-3.126,3.215-3.126c1.719,0,3.214,1.239,3.214,3.126
			c0,1.127-0.487,1.912-1.207,2.462L126.333,12.367z M124.966,10.968c0.576-0.344,0.968-1.087,0.968-1.823
			c0-1.239-0.991-2.263-2.351-2.263s-2.351,1.023-2.351,2.263c0,1.24,0.991,2.263,2.351,2.263c0.184,0,0.367-0.017,0.544-0.057
			l-0.217-0.231l0.76-0.464L124.966,10.968z"/>
		<path style="fill:#FFFFFF;" d="M134.062,9.881c0,1.136-0.432,2.391-2.631,2.391c-2.198,0-2.63-1.255-2.63-2.391V6.147h0.863v3.734
			c0,0.879,0.367,1.527,1.767,1.527s1.768-0.648,1.768-1.527V6.147h0.863V9.881z"/>
		<path style="fill:#FFFFFF;" d="M137.271,6.147v5.997h-0.863V6.147H137.271z M137.304,4.652h0.936l-0.848,1h-0.728L137.304,4.652z"
			/>
	</g>
</g>
<g id="Layer_1">
</g>
</svg>
