<svg xmlns="http://www.w3.org/2000/svg" viewBox="0 0 160 20" enable-background="new 0 0 160 20"><g><path fill="#fff" d="M0 0h160v20H0z"/><g fill="#E471AC"><path d="M12.73 14.096l1.13-7.9h.128l3.212 6.482 3.18-6.483h.127l1.137 7.9h-.774l-.78-5.65-2.794 5.65h-.202l-2.827-5.692-.776 5.693h-.76zM26.37 6.195l3.685 7.9h-.853l-1.243-2.6h-3.404l-1.23 2.6h-.882l3.733-7.9h.193zm-.1 1.68l-1.354 2.86h2.7l-1.346-2.86zM30.408 12.624l.67-.403c.474.872 1.02 1.307 1.64 1.307.264 0 .513-.062.746-.186.233-.122.41-.288.532-.496.122-.207.183-.428.183-.66 0-.265-.09-.524-.27-.78-.247-.35-.698-.772-1.354-1.266-.66-.498-1.07-.857-1.23-1.08-.28-.373-.42-.775-.42-1.208 0-.344.084-.657.248-.94s.396-.506.695-.67c.298-.162.623-.243.974-.243.373 0 .72.092 1.044.276.324.185.667.524 1.03 1.018l-.646.49c-.297-.394-.55-.653-.76-.78-.21-.124-.438-.187-.685-.187-.32 0-.58.097-.78.29-.204.193-.305.432-.305.714 0 .172.036.338.107.5s.2.336.39.526c.105.1.445.363 1.022.79.684.505 1.153.954 1.407 1.348.253.395.38.79.38 1.19 0 .57-.218 1.07-.652 1.49-.436.424-.964.636-1.587.636-.48 0-.914-.13-1.304-.385s-.75-.684-1.078-1.286zM39.525 6.195h.79v7.9h-.79v-7.9zM42.075 14.096v-7.9h.172l5.258 6.055V6.196h.78v7.9h-.178l-5.215-5.982v5.983h-.817zM50.152 6.195h3.958v.773h-3.17v2.476h3.17v.773h-3.17v3.878h-.79v-7.9zM59.193 5.996c1.197 0 2.198.4 3.004 1.198s1.21 1.78 1.21 2.95c0 1.155-.403 2.137-1.208 2.942-.806.806-1.786 1.21-2.944 1.21-1.17 0-2.16-.402-2.966-1.204-.806-.803-1.21-1.773-1.21-2.912 0-.76.185-1.463.552-2.11s.868-1.157 1.502-1.523c.635-.367 1.32-.55 2.06-.55zm.035.768c-.584 0-1.14.152-1.662.457-.524.306-.933.716-1.227 1.232-.295.516-.442 1.09-.442 1.726 0 .938.326 1.73.977 2.378.65.647 1.436.97 2.354.97.612 0 1.18-.147 1.702-.445.522-.296.93-.703 1.22-1.22.293-.516.44-1.09.44-1.72 0-.627-.147-1.194-.44-1.7-.29-.508-.703-.914-1.233-1.218-.534-.305-1.097-.458-1.692-.458zM64.98 6.195h1.573c.877 0 1.472.036 1.783.107.47.108.85.338 1.144.69.293.354.44.79.44 1.305 0 .43-.1.808-.303 1.134-.203.328-.492.574-.868.74-.377.168-.896.253-1.56.256l2.842 3.668h-.977l-2.842-3.668h-.446v3.668h-.79v-7.9zm.79.773v2.686l1.36.01c.527 0 .917-.05 1.17-.15.253-.1.45-.26.592-.48s.212-.465.212-.738c0-.265-.072-.506-.215-.723-.145-.216-.333-.37-.566-.464-.233-.094-.62-.14-1.162-.14H65.77zM71.197 14.096l1.13-7.9h.13l3.21 6.482 3.182-6.483h.125l1.137 7.9h-.774l-.78-5.65-2.794 5.65h-.202l-2.827-5.692-.776 5.693h-.763zM84.84 6.195l3.684 7.9h-.853l-1.242-2.6h-3.403l-1.23 2.6h-.88l3.732-7.9h.192zm-.1 1.68l-1.355 2.86h2.7l-1.346-2.86zM97.05 7.66l-.622.48c-.344-.45-.757-.788-1.238-1.02-.48-.23-1.01-.345-1.588-.345-.63 0-1.213.15-1.75.454-.537.302-.954.708-1.25 1.22-.295.51-.442 1.083-.442 1.72 0 .963.33 1.767.99 2.412.66.645 1.495.967 2.5.967 1.107 0 2.033-.435 2.778-1.3l.623.472c-.394.5-.885.89-1.474 1.163-.59.273-1.247.41-1.975.41-1.38 0-2.47-.46-3.27-1.38-.67-.777-1.005-1.715-1.005-2.814 0-1.156.406-2.13 1.217-2.918.812-.79 1.827-1.185 3.05-1.185.736 0 1.402.146 1.997.438.594.29 1.08.7 1.46 1.226zM98.468 6.195h.79v7.9h-.79v-7.9zM104.774 5.996c1.197 0 2.198.4 3.005 1.198.805.798 1.208 1.78 1.208 2.95 0 1.155-.402 2.137-1.207 2.942-.803.806-1.784 1.21-2.94 1.21-1.173 0-2.16-.402-2.968-1.204-.806-.803-1.21-1.773-1.21-2.912 0-.76.185-1.463.552-2.11s.868-1.157 1.502-1.523c.635-.367 1.32-.55 2.058-.55zm.036.768c-.585 0-1.14.152-1.662.457-.524.306-.933.716-1.227 1.232s-.44 1.09-.44 1.726c0 .938.325 1.73.977 2.378.65.647 1.436.97 2.354.97.614 0 1.182-.147 1.703-.445.522-.296.93-.703 1.222-1.22.292-.516.438-1.09.438-1.72 0-.627-.146-1.194-.438-1.7-.292-.508-.704-.914-1.234-1.218-.532-.305-1.095-.458-1.69-.458zM110.523 14.096v-7.9h.172l5.258 6.055V6.196h.78v7.9h-.18l-5.214-5.982v5.983h-.817zM124.817 6.195l3.685 7.9h-.853l-1.244-2.6h-3.403l-1.23 2.6h-.88l3.73-7.9h.194zm-.1 1.68l-1.353 2.86h2.7l-1.346-2.86zM136.293 13.237l1.172 1.48h-.972l-.805-1.02c-.646.398-1.372.598-2.18.598-1.17 0-2.158-.4-2.963-1.203-.805-.803-1.207-1.773-1.207-2.912 0-.76.184-1.463.553-2.114.37-.65.87-1.157 1.506-1.522s1.332-.548 2.09-.548c1.17 0 2.158.4 2.962 1.2.803.8 1.205 1.784 1.205 2.952 0 .61-.11 1.166-.33 1.67-.22.505-.564.978-1.03 1.42zm-.49-.618c.69-.67 1.034-1.497 1.034-2.48 0-.626-.146-1.194-.438-1.7s-.703-.914-1.233-1.22-1.09-.456-1.676-.456c-.59 0-1.146.15-1.67.454-.522.303-.93.713-1.225 1.23-.293.52-.44 1.095-.44 1.73 0 .938.324 1.73.973 2.378.648.647 1.43.97 2.347.97.627 0 1.2-.15 1.72-.456l-1.76-2.234h.96l1.41 1.783zM139.225 6.195h.79v4.77c0 .566.01.918.032 1.058.04.312.13.572.273.78.144.21.363.386.66.527.298.142.597.213.897.213.262 0 .512-.056.752-.167s.44-.265.6-.462.28-.436.355-.715c.054-.2.08-.612.08-1.236v-4.77h.79v4.77c0 .706-.07 1.276-.207 1.71-.138.436-.413.813-.827 1.136-.412.322-.913.484-1.5.484-.638 0-1.184-.152-1.638-.457-.455-.305-.76-.707-.914-1.21-.096-.307-.145-.86-.145-1.664V6.195zM146.996 3.917h1.154l-1.584 1.654h-.74l1.17-1.653zm-.763 2.278h.79v7.9h-.79v-7.9z"/></g></g></svg>