<svg xmlns="http://www.w3.org/2000/svg" viewBox="0 0 110 30" enable-background="new 0 0 110 30"><g><path fill="#EA118C" d="M0 0h110v30H0z"/><g fill="#fff"><path d="M26.563 11.982c0-.52-.5-.84-1.1-.84-.75 0-1.2.33-1.2.83 0 .52.5.77.87.89l1.38.44c1 .32 1.71.898 1.71 2.058 0 .92-.66 2.3-2.74 2.3-2.607 0-2.848-1.69-2.848-2.36l1.5-.03c0 .8.63 1.11 1.36 1.11.51 0 1.228-.25 1.228-.83 0-.4-.17-.608-.91-.88l-1.64-.59c-.828-.3-1.408-1.028-1.408-1.878 0-.96.66-2.34 2.61-2.34 2.318 0 2.687 1.54 2.687 2.09l-1.5.03zM35.362 14.392h-3.118v3.128h-1.5v-7.516h1.5v3.048h3.118v-3.048h1.5v7.516h-1.5v-3.128zM43.002 9.863c2.34 0 3.658 1.88 3.658 3.898s-1.32 3.898-3.658 3.898-3.658-1.88-3.658-3.897 1.32-3.897 3.658-3.897zm0 1.34c-1.4 0-2.1 1.21-2.1 2.56s.7 2.558 2.1 2.558 2.1-1.208 2.1-2.558-.7-2.56-2.1-2.56zM49.145 10.004h2.45c1.178 0 2.607.54 2.607 2.39 0 1.728-1.29 2.378-2.49 2.378h-1.068v2.748h-1.5v-7.516zm2.338 3.488c.99 0 1.22-.6 1.22-1.1 0-.51-.35-1.11-1.21-1.11h-.85v2.21h.84zM61.793 12.393h-.02v5.127h-1.44v-7.516h1.61l3.048 5.047h.022v-5.046h1.438v7.516H64.9l-3.107-5.127zM72.592 9.863c2.34 0 3.658 1.88 3.658 3.898s-1.32 3.898-3.658 3.898-3.657-1.88-3.657-3.897 1.32-3.897 3.657-3.897zm0 1.34c-1.398 0-2.1 1.21-2.1 2.56s.7 2.558 2.1 2.558c1.4 0 2.1-1.208 2.1-2.558s-.7-2.56-2.1-2.56zM82.932 12.282h-.02l-1.24 5.237h-1.59l-1.937-7.517h1.6l1.17 5.526h.02l1.18-5.527h1.618l1.23 5.526h.02l1.09-5.527h1.59L85.74 17.52h-1.59l-1.218-5.238z"/></g></g></svg>