<?xml version="1.0" encoding="iso-8859-1"?>
<!-- Generator: Adobe Illustrator 19.2.1, SVG Export Plug-In . SVG Version: 6.00 Build 0)  -->
<svg version="1.1" xmlns="http://www.w3.org/2000/svg" xmlns:xlink="http://www.w3.org/1999/xlink" x="0px" y="0px"
	 viewBox="0 0 100 40" style="enable-background:new 0 0 100 40;" xml:space="preserve">
<g id="LOGO_x5F_BSPS_x5F_spears_x5F_ko">
	<g>
		<path style="fill:#FFFFFF;" d="M57.631,22.166c-0.59-0.438-0.945-0.703-1.05-0.811c-0.19-0.207-0.324-0.379-0.4-0.547
			c-0.067-0.165-0.103-0.336-0.103-0.508c0-0.296,0.099-0.534,0.307-0.731c0.202-0.195,0.476-0.3,0.798-0.3
			c0.263,0,0.493,0.071,0.709,0.197c0.215,0.118,0.477,0.389,0.785,0.796l0.662-0.503c-0.382-0.5-0.723-0.854-1.056-1.035
			c-0.34-0.201-0.698-0.297-1.075-0.297c-0.364,0-0.698,0.091-1.001,0.257c-0.306,0.165-0.541,0.394-0.715,0.691
			c-0.167,0.279-0.257,0.601-0.257,0.955c0,0.442,0.145,0.851,0.431,1.246c0.165,0.228,0.592,0.596,1.255,1.105
			c0.685,0.508,1.139,0.945,1.398,1.302c0.181,0.258,0.266,0.522,0.266,0.789c0,0.244-0.06,0.467-0.18,0.667
			c-0.123,0.22-0.309,0.385-0.554,0.519c-0.236,0.125-0.491,0.194-0.754,0.194c-0.642,0-1.196-0.446-1.685-1.341l-0.686,0.416
			c0.339,0.611,0.708,1.06,1.112,1.323c0.401,0.256,0.837,0.394,1.332,0.394c0.639,0,1.171-0.216,1.624-0.653
			c0.442-0.439,0.674-0.954,0.674-1.534c0-0.412-0.13-0.803-0.388-1.207C58.808,23.144,58.326,22.681,57.631,22.166"/>
		<path style="fill:#FFFFFF;" d="M64.84,18.755c-0.316-0.079-0.95-0.119-1.873-0.119h-1.61v8.114h0.802v-3.779h0.576
			c1.007,0,1.699-0.051,2.074-0.133c0.49-0.126,0.884-0.358,1.172-0.709c0.284-0.355,0.431-0.805,0.431-1.343
			c0-0.528-0.146-0.975-0.437-1.329C65.675,19.101,65.301,18.863,64.84,18.755 M65.351,21.555c-0.149,0.225-0.335,0.393-0.597,0.487
			c-0.256,0.105-0.662,0.155-1.228,0.155l-1.366-0.014v-2.761h1.428c0.552,0,0.949,0.049,1.187,0.139
			c0.243,0.093,0.427,0.26,0.576,0.479c0.154,0.231,0.227,0.476,0.227,0.746C65.578,21.072,65.505,21.324,65.351,21.555"/>
		<polygon style="fill:#FFFFFF;" points="67.752,26.75 72.363,26.75 72.363,25.952 68.559,25.952 68.559,22.751 72.363,22.751 
			72.363,21.962 68.559,21.962 68.559,19.422 72.4,19.422 72.4,18.636 67.752,18.636 		"/>
		<path style="fill:#FFFFFF;" d="M77.065,18.636l-3.824,8.112h0.914l1.252-2.658h3.51l1.256,2.658h0.873l-3.778-8.112H77.065z
			 M75.775,23.303l1.396-2.973l1.399,2.973H75.775z"/>
		<path style="fill:#FFFFFF;" d="M86.428,22.707c0.377-0.173,0.681-0.416,0.898-0.756c0.213-0.336,0.32-0.726,0.32-1.167
			c0-0.526-0.157-0.973-0.461-1.34c-0.303-0.356-0.698-0.594-1.187-0.703c-0.32-0.076-0.931-0.105-1.829-0.105h-1.62v8.114h0.814
			v-3.778h0.46l2.92,3.778h1.004l-2.925-3.778C85.495,22.967,86.041,22.875,86.428,22.707 M83.362,22.183v-2.761h1.434
			c0.556,0,0.955,0.049,1.196,0.139c0.242,0.093,0.436,0.26,0.583,0.479c0.144,0.223,0.224,0.472,0.224,0.741
			c0,0.27-0.08,0.528-0.224,0.765c-0.147,0.228-0.347,0.387-0.601,0.493c-0.269,0.1-0.673,0.148-1.211,0.148L83.362,22.183z"/>
		<path style="fill:#FFFFFF;" d="M91.812,22.166c-0.586-0.438-0.931-0.703-1.039-0.811c-0.204-0.207-0.341-0.379-0.408-0.547
			c-0.079-0.165-0.109-0.336-0.109-0.508c0-0.296,0.109-0.534,0.309-0.731c0.208-0.195,0.472-0.3,0.799-0.3
			c0.254,0,0.495,0.071,0.718,0.197c0.215,0.118,0.476,0.389,0.783,0.796l0.656-0.503c-0.372-0.5-0.718-0.854-1.057-1.035
			c-0.331-0.201-0.698-0.297-1.085-0.297c-0.347,0-0.687,0.091-0.991,0.257c-0.312,0.165-0.548,0.394-0.709,0.691
			c-0.179,0.279-0.266,0.601-0.266,0.955c0,0.442,0.143,0.851,0.438,1.246c0.16,0.228,0.582,0.596,1.256,1.105
			c0.68,0.508,1.137,0.945,1.403,1.302c0.179,0.258,0.271,0.522,0.271,0.789c0,0.244-0.058,0.467-0.195,0.667
			c-0.122,0.22-0.298,0.385-0.541,0.519c-0.239,0.125-0.5,0.194-0.771,0.194c-0.636,0-1.198-0.446-1.675-1.341l-0.691,0.416
			c0.329,0.611,0.702,1.06,1.103,1.323c0.393,0.256,0.857,0.394,1.34,0.394c0.646,0,1.192-0.216,1.641-0.653
			c0.436-0.439,0.666-0.954,0.666-1.534c0-0.412-0.136-0.803-0.396-1.207C92.999,23.144,92.521,22.681,91.812,22.166"/>
		<path style="fill:#FFFFFF;" d="M98.349,18.763v1.852h-0.322v-1.526l-0.686,1.526h-0.212l-0.668-1.526v1.526H96.14v-1.852h0.53
			l0.565,1.282l0.596-1.282H98.349z M95.781,18.763v0.293H95.13v1.558h-0.322v-1.558h-0.651v-0.293H95.781"/>
	</g>
</g>
<g id="Layer_1">
</g>
</svg>
