<?xml version="1.0" encoding="iso-8859-1"?>
<!-- Generator: Adobe Illustrator 19.0.0, SVG Export Plug-In . SVG Version: 6.00 Build 0)  -->
<svg version="1.1" xmlns="http://www.w3.org/2000/svg" xmlns:xlink="http://www.w3.org/1999/xlink" x="0px" y="0px"
	 viewBox="0 0 100 65" style="enable-background:new 0 0 100 65;" xml:space="preserve">
<g id="LOGO_x5F_RED_x5F_red_x5F_r">
	<g>
		<path style="fill:#C32033;" d="M29.445,55.875c3.798,0,5.32-1.657,5.32-4.5c0-2.869-1.577-4.532-5.32-4.532h-1.69v9.033H29.445z
			 M38.029,63.361h-3.434l-3.434-5.035c-0.535,0.059-1.069,0.113-1.604,0.113h-1.802v4.922h-2.981V44.226h4.783
			c5.292,0,8.247,2.758,8.247,7.149c0,2.955-1.323,4.98-3.828,6.076L38.029,63.361z"/>
		<polygon style="fill:#C32033;" points="42.887,44.227 42.887,63.363 55.437,63.363 55.437,60.747 45.866,60.747 45.866,56.836 
			54.004,56.836 54.004,54.272 45.866,54.272 45.866,46.846 55.042,46.846 55.042,44.227 		"/>
		<path style="fill:#C32033;" d="M65.034,60.744c4.978,0,7.311-2.869,7.311-6.949c0-4.08-2.333-6.951-7.311-6.951h-2.084v13.901
			H65.034z M59.968,44.227h5.26c6.137,0,10.217,3.827,10.217,9.568c0,5.742-4.053,9.566-10.217,9.566h-5.26V44.227z"/>
	</g>
</g>
<g id="Layer_1">
</g>
</svg>
