<?xml version="1.0" encoding="iso-8859-1"?>
<!-- Generator: Adobe Illustrator 19.2.1, SVG Export Plug-In . SVG Version: 6.00 Build 0)  -->
<svg version="1.1" xmlns="http://www.w3.org/2000/svg" xmlns:xlink="http://www.w3.org/1999/xlink" x="0px" y="0px"
	 viewBox="0 0 100 40" style="enable-background:new 0 0 100 40;" xml:space="preserve">
<g id="LOGO_x5F_BSPS_x5F_show">
	<g>
		<g>
			
				<linearGradient id="SVGID_1_" gradientUnits="userSpaceOnUse" x1="-344.6937" y1="327.3926" x2="-344.3709" y2="327.3926" gradientTransform="matrix(0 -46.4834 -46.4834 0 15280.8809 -16007.5283)">
				<stop  offset="0" style="stop-color:#DFD09D"/>
				<stop  offset="0.0017" style="stop-color:#DFD09D"/>
				<stop  offset="0.5188" style="stop-color:#8B774D"/>
				<stop  offset="0.5384" style="stop-color:#8F7C51"/>
				<stop  offset="0.6767" style="stop-color:#AC9A6E"/>
				<stop  offset="0.8043" style="stop-color:#C3B385"/>
				<stop  offset="0.9161" style="stop-color:#D2C395"/>
				<stop  offset="1" style="stop-color:#D8CA9B"/>
			</linearGradient>
			<path style="fill:url(#SVGID_1_);" d="M63.308,5.632c-0.73-0.219-1.704-0.644-2.104-1.044c-0.336-0.365-0.404-0.8-0.404-1.384
				c0-0.45,0.415-1.437,1.646-1.437c0.719,0,1.204,0.192,1.627,0.648c0.588,0.62,0.874,1.281,1.072,1.835
				c0.092,0.279,0.322,0.453,0.601,0.453c0.055,0,0.111-0.007,0.194-0.029l0.293-0.092c0.283-0.077,0.465-0.309,0.465-0.598
				c0-0.095-0.029-0.385-0.128-1.333c-0.07-0.668-0.176-1.677-0.176-1.825c0-0.75-0.53-0.788-0.636-0.788
				c-0.238,0-0.437,0.083-0.609,0.256l-0.176,0.176C64.555,0.305,63.739,0,62.446,0c-1.249,0-2.178,0.317-3.001,1.018
				c-1.02,0.807-1.515,1.802-1.515,3.042c0,1.331,0.382,2.394,1.108,3.077c0.955,0.876,2.248,1.438,2.933,1.694
				c2.057,0.777,2.502,1.244,2.502,2.629c0,1.428-1.435,1.741-1.988,1.741c-0.856,0-1.661-0.438-2.103-1.145
				c-0.524-0.824-0.62-1.5-0.647-1.908c0-0.422-0.289-0.622-0.569-0.636l-0.404-0.037l-0.045-0.002
				c-0.149,0-0.507,0.054-0.592,0.558c-0.019,0.117-0.069,0.654-0.172,1.769c-0.068,0.737-0.152,1.653-0.17,1.768l-0.006,0.08
				c0,0.542,0.37,0.788,0.713,0.788c0.422,0,0.62-0.234,0.758-0.465l0.004-0.007c0.017,0.011,0.034,0.023,0.049,0.033
				c0.944,0.708,1.998,1.01,3.525,1.01c2.617,0,4.517-1.98,4.517-4.707c0-1.315-0.334-2.256-1.084-3.053
				C65.48,6.425,64.517,6.008,63.308,5.632z"/>
		</g>
		<g>
			
				<linearGradient id="SVGID_2_" gradientUnits="userSpaceOnUse" x1="-344.6995" y1="327.9023" x2="-344.3766" y2="327.9023" gradientTransform="matrix(0 -45.7744 -45.7744 0 15079.0586 -15763.6377)">
				<stop  offset="0" style="stop-color:#DFD09D"/>
				<stop  offset="0.0017" style="stop-color:#DFD09D"/>
				<stop  offset="0.5188" style="stop-color:#8B774D"/>
				<stop  offset="0.5384" style="stop-color:#8F7C51"/>
				<stop  offset="0.6767" style="stop-color:#AC9A6E"/>
				<stop  offset="0.8043" style="stop-color:#C3B385"/>
				<stop  offset="0.9161" style="stop-color:#D2C395"/>
				<stop  offset="1" style="stop-color:#D8CA9B"/>
			</linearGradient>
			<path style="fill:url(#SVGID_2_);" d="M69.558,14.721c-0.855,0-1.465,0.03-1.792,0.046c-0.129,0.006-0.218,0.011-0.262,0.011
				h4.033c-0.047,0-0.152-0.005-0.303-0.012C70.869,14.75,70.258,14.721,69.558,14.721z"/>
			
				<linearGradient id="SVGID_3_" gradientUnits="userSpaceOnUse" x1="-344.6995" y1="327.8427" x2="-344.3766" y2="327.8427" gradientTransform="matrix(0 -45.7744 -45.7744 0 15079.0586 -15763.6377)">
				<stop  offset="0" style="stop-color:#DFD09D"/>
				<stop  offset="0.0017" style="stop-color:#DFD09D"/>
				<stop  offset="0.5188" style="stop-color:#8B774D"/>
				<stop  offset="0.5384" style="stop-color:#8F7C51"/>
				<stop  offset="0.6767" style="stop-color:#AC9A6E"/>
				<stop  offset="0.8043" style="stop-color:#C3B385"/>
				<stop  offset="0.9161" style="stop-color:#D2C395"/>
				<stop  offset="1" style="stop-color:#D8CA9B"/>
			</linearGradient>
			<path style="fill:url(#SVGID_3_);" d="M76.996,13.106h-0.342c-0.069,0-0.122-0.003-0.163-0.006V9.504
				c0.002-1.06,0.003-2.157-1.004-3.033c-0.609-0.528-1.22-0.879-2.219-0.879c-0.74,0-1.491,0.24-2.084,0.638V6.058
				c0-4.27,0.024-4.963,0.034-5.057c0.033-0.265,0.04-0.567-0.159-0.792C70.941,0.074,70.772,0,70.586,0
				c-0.226,0-0.388,0.064-0.532,0.12c-0.045,0.017-0.095,0.037-0.154,0.057l-0.064,0.026c-0.507,0.254-1.852,0.928-2.381,1.069
				l-0.092,0.035c-0.212,0.107-0.534,0.267-0.534,0.661v0.19c0,0.169,0.063,0.473,0.483,0.611l0.326,0.109
				c0.368,0.153,0.56,0.29,0.56,1.26l0.038,6.788c0,1.049-0.027,1.846-0.068,2.164c-0.035,0.007-0.089,0.014-0.17,0.014h-0.475
				c-0.374,0-0.655,0.265-0.655,0.618v0.418c0,0.375,0.262,0.636,0.636,0.636c0.044,0,0.133-0.004,0.262-0.011
				c0.327-0.016,0.937-0.046,1.792-0.046c0.7,0,1.311,0.028,1.676,0.045c0.151,0.007,0.257,0.012,0.303,0.012
				c0.307,0,0.636-0.211,0.636-0.674v-0.343c0-0.386-0.277-0.656-0.675-0.656h-0.303c-0.006-0.067-0.011-0.166-0.011-0.314V8.683
				c0-0.22,0.125-0.48,0.221-0.61C71.749,7.735,72.12,7.55,72.45,7.55c0.301,0,0.49,0.083,0.723,0.314
				c0.353,0.354,0.353,1.381,0.353,2.208v1.274c0,0.478,0,1.443-0.029,1.757c-0.015,0.002-0.034,0.003-0.057,0.003h-0.324
				c-0.357,0-0.617,0.252-0.617,0.599v0.456c0,0.369,0.256,0.617,0.636,0.617c0.06,0,0.165-0.005,0.313-0.012
				c0.338-0.017,0.905-0.045,1.703-0.045c0.87,0,1.423,0.032,1.688,0.048c0.098,0.005,0.163,0.009,0.195,0.009
				c0.375,0,0.637-0.262,0.637-0.636v-0.418C77.671,13.439,77.494,13.106,76.996,13.106z"/>
			
				<linearGradient id="SVGID_4_" gradientUnits="userSpaceOnUse" x1="-344.6995" y1="327.7808" x2="-344.3766" y2="327.7808" gradientTransform="matrix(0 -45.7744 -45.7744 0 15079.0586 -15763.6377)">
				<stop  offset="0" style="stop-color:#DFD09D"/>
				<stop  offset="0.0017" style="stop-color:#DFD09D"/>
				<stop  offset="0.5188" style="stop-color:#8B774D"/>
				<stop  offset="0.5384" style="stop-color:#8F7C51"/>
				<stop  offset="0.6767" style="stop-color:#AC9A6E"/>
				<stop  offset="0.8043" style="stop-color:#C3B385"/>
				<stop  offset="0.9161" style="stop-color:#D2C395"/>
				<stop  offset="1" style="stop-color:#D8CA9B"/>
			</linearGradient>
			<path style="fill:url(#SVGID_4_);" d="M75.151,14.721c-0.798,0-1.365,0.028-1.703,0.045c-0.149,0.007-0.253,0.012-0.313,0.012
				h3.899c-0.032,0-0.096-0.003-0.195-0.009C76.574,14.753,76.021,14.721,75.151,14.721z"/>
		</g>
		<g>
			
				<linearGradient id="SVGID_5_" gradientUnits="userSpaceOnUse" x1="-344.5118" y1="329.5015" x2="-344.1889" y2="329.5015" gradientTransform="matrix(0 -29.1602 -29.1602 0 9696.9502 -10031.0098)">
				<stop  offset="0" style="stop-color:#DFD09D"/>
				<stop  offset="0.0017" style="stop-color:#DFD09D"/>
				<stop  offset="0.5188" style="stop-color:#8B774D"/>
				<stop  offset="0.5384" style="stop-color:#8F7C51"/>
				<stop  offset="0.6767" style="stop-color:#AC9A6E"/>
				<stop  offset="0.8043" style="stop-color:#C3B385"/>
				<stop  offset="0.9161" style="stop-color:#D2C395"/>
				<stop  offset="1" style="stop-color:#D8CA9B"/>
			</linearGradient>
			<path style="fill:url(#SVGID_5_);" d="M99.363,5.764c-0.07,0-0.16,0.006-0.279,0.016c-0.215,0.016-0.541,0.041-1.09,0.041
				c-0.659,0-1.133-0.03-1.387-0.046c-0.105-0.007-0.176-0.011-0.211-0.011c-0.375,0-0.637,0.262-0.637,0.636v0.418
				c0,0.352,0.257,0.618,0.599,0.618h0.266c0.011,0,0.02,0,0.028,0.001c0.011,0.054,0.024,0.218-0.102,0.566l-0.826,2.263
				L94.793,7.55h0.043c0.375,0,0.637-0.262,0.637-0.636V6.514c0-0.317-0.208-0.636-0.674-0.636c-0.052,0-0.132,0.005-0.244,0.013
				c-0.225,0.017-0.603,0.044-1.202,0.044c-0.901,0-1.469-0.032-1.742-0.047c-0.108-0.006-0.179-0.009-0.217-0.009
				c-0.386,0-0.656,0.261-0.656,0.636v0.418c0,0.364,0.254,0.617,0.617,0.617h0.21c0.03,0,0.054,0.002,0.071,0.003
				c0.026,0.002,0.039,0.004,0.041,0.001c0.086,0.12,0.119,0.298,0.085,0.379l-1.04,2.613l-0.96-3.121
				c0.304-0.053,0.499-0.283,0.499-0.606V6.4c0-0.38-0.256-0.636-0.637-0.636c-0.101,0-0.227,0.007-0.391,0.017
				c-0.281,0.017-0.667,0.04-1.245,0.04c-0.958,0-1.417-0.028-1.691-0.045c-0.125-0.007-0.213-0.012-0.286-0.012
				c-0.381,0-0.636,0.256-0.636,0.636v0.418c0,0.065,0.012,0.124,0.028,0.182c-0.046-0.05-0.088-0.1-0.137-0.149
				c-0.592-0.574-1.629-1.258-3.21-1.258c-1.181,0-2.165,0.334-3.003,1.019c-1.314,1.052-1.78,2.562-1.78,3.536
				c0,1.21,0.187,2.132,1.139,3.258c0.877,1.053,1.975,1.544,3.454,1.544c1.413,0,2.676-0.544,3.554-1.528
				c0.841-0.93,1.304-2.072,1.304-3.216c0-1.051-0.329-1.978-0.994-2.824c0.079,0.035,0.166,0.056,0.262,0.056h0.323
				c0.148,0,0.209,0.027,0.272,0.186l2.605,6.675c0.182,0.471,0.456,0.71,0.813,0.71c0.281,0,0.665-0.105,0.903-0.619l1.791-4.232
				l1.536,4.147c0.098,0.246,0.282,0.704,0.83,0.704c0.494,0,0.729-0.289,0.842-0.536c0.113-0.256,0.546-1.31,1.047-2.532
				c0.687-1.674,1.725-4.203,1.84-4.423c0.019-0.021,0.128-0.079,0.303-0.079h0.285C99.74,7.436,100,7.169,100,6.8V6.381
				C100,6.023,99.732,5.764,99.363,5.764z M82.017,13.182c-0.6,0-0.863-0.227-1.093-0.591c-0.441-0.703-0.516-1.304-0.516-2.386
				c0-1.273,0.189-1.959,0.695-2.531c0.223-0.25,0.466-0.352,0.837-0.352c0.536,0,1.494,0.944,1.494,2.826
				C83.435,11.658,82.996,13.182,82.017,13.182z"/>
		</g>
	</g>
	<g>
		<path d="M59.136,9.915c0.076,0,0.114,0.038,0.114,0.152c0.038,0.609,0.19,1.332,0.723,2.168c0.571,0.914,1.56,1.37,2.511,1.37
			c1.027,0,2.472-0.646,2.472-2.225c0-1.75-0.799-2.32-2.815-3.082c-0.609-0.228-1.864-0.761-2.777-1.597
			c-0.647-0.609-0.952-1.56-0.952-2.72c0-1.065,0.419-1.941,1.332-2.663c0.761-0.647,1.598-0.913,2.701-0.913
			c1.256,0,2.017,0.305,2.397,0.457c0.19,0.076,0.305,0.038,0.4-0.057l0.247-0.248c0.076-0.076,0.152-0.114,0.266-0.114
			c0.114,0,0.152,0.114,0.152,0.304c0,0.305,0.305,2.968,0.305,3.158c0,0.076-0.038,0.115-0.115,0.133l-0.304,0.095
			c-0.077,0.019-0.153,0-0.19-0.114c-0.19-0.533-0.495-1.294-1.18-2.017c-0.494-0.533-1.103-0.799-1.978-0.799
			c-1.521,0-2.13,1.217-2.13,1.921c0,0.646,0.076,1.217,0.532,1.712c0.495,0.495,1.56,0.951,2.321,1.18
			c1.103,0.342,2.016,0.722,2.739,1.484c0.609,0.646,0.951,1.445,0.951,2.72c0,2.321-1.522,4.223-4.032,4.223
			c-1.56,0-2.473-0.343-3.234-0.913c-0.228-0.152-0.343-0.228-0.457-0.228c-0.114,0-0.19,0.152-0.304,0.343
			c-0.114,0.19-0.19,0.228-0.342,0.228c-0.153,0-0.229-0.114-0.229-0.304c0.038-0.229,0.304-3.31,0.342-3.538
			c0.019-0.114,0.038-0.152,0.114-0.152L59.136,9.915z"/>
		<path d="M74.01,9.991c0-0.99,0-2.054-0.494-2.549c-0.305-0.304-0.609-0.457-1.065-0.457c-0.494,0-0.99,0.266-1.408,0.685
			C70.89,7.861,70.7,8.241,70.7,8.603v4.109c0,0.609,0.076,0.798,0.342,0.798h0.457c0.114,0,0.19,0.038,0.19,0.171v0.343
			c0,0.114-0.038,0.19-0.152,0.19c-0.153,0-0.99-0.057-1.979-0.057c-1.179,0-1.902,0.057-2.054,0.057
			c-0.095,0-0.152-0.038-0.152-0.152v-0.418c0-0.095,0.076-0.133,0.171-0.133h0.475c0.305,0,0.571-0.076,0.628-0.304
			c0.076-0.381,0.095-1.484,0.095-2.359l-0.038-6.791c0-1.065-0.228-1.445-0.875-1.712l-0.343-0.114
			c-0.114-0.038-0.152-0.076-0.152-0.152v-0.19c0-0.076,0.038-0.114,0.266-0.228c0.571-0.153,1.864-0.799,2.473-1.104
			c0.228-0.076,0.342-0.152,0.533-0.152c0.152,0,0.189,0.152,0.152,0.457C70.7,1.203,70.7,5.046,70.7,5.978v1.179h0.114
			c0.533-0.742,1.56-1.16,2.454-1.16c0.837,0,1.331,0.266,1.902,0.761c0.875,0.761,0.837,1.712,0.837,2.797v1.141v2.511
			c0,0.266,0.343,0.304,0.647,0.304h0.342c0.152,0,0.19,0.038,0.19,0.133v0.418c0,0.095-0.038,0.152-0.153,0.152
			c-0.114,0-0.723-0.057-1.883-0.057c-1.141,0-1.826,0.057-2.016,0.057c-0.114,0-0.152-0.038-0.152-0.133v-0.457
			c0-0.076,0.038-0.114,0.133-0.114h0.324c0.228,0,0.495-0.076,0.533-0.38c0.038-0.266,0.038-1.256,0.038-1.864V9.991z"/>
		<path d="M84.928,7.119c0.894,0.894,1.312,1.883,1.312,3.005c0,1.065-0.456,2.092-1.179,2.891c-0.78,0.875-1.921,1.37-3.195,1.37
			c-1.198,0-2.226-0.343-3.082-1.37c-0.837-0.989-1.027-1.788-1.027-2.948c0-0.913,0.457-2.244,1.598-3.158
			c0.932-0.761,1.921-0.913,2.701-0.913C83.33,5.997,84.281,6.491,84.928,7.119 M83.919,10.067c0-2.092-1.103-3.31-1.978-3.31
			c-0.494,0-0.875,0.152-1.198,0.514c-0.59,0.666-0.818,1.464-0.818,2.853c0,1.104,0.076,1.826,0.59,2.644
			c0.324,0.513,0.742,0.818,1.503,0.818C83.273,13.587,83.919,12.008,83.919,10.067"/>
		<path d="M89.643,14.043l-2.606-6.676c-0.152-0.381-0.418-0.494-0.723-0.494h-0.323c-0.095,0-0.133-0.057-0.133-0.134V6.32
			c0-0.114,0.038-0.152,0.152-0.152c0.228,0,0.609,0.057,1.978,0.057c0.913,0,1.37-0.057,1.636-0.057
			c0.114,0,0.153,0.037,0.153,0.152v0.418c0,0.095-0.038,0.134-0.153,0.134h-0.19c-0.19,0-0.285,0.152-0.19,0.437l1.369,4.451h0.114
			l1.484-3.729c0.114-0.265,0.018-0.627-0.153-0.856c-0.114-0.152-0.304-0.19-0.494-0.19h-0.21c-0.095,0-0.133-0.038-0.133-0.133
			V6.435c0-0.115,0.057-0.152,0.171-0.152c0.133,0,0.742,0.057,1.96,0.057c0.874,0,1.293-0.057,1.445-0.057
			c0.133,0,0.19,0.037,0.19,0.152v0.399c0,0.095-0.038,0.152-0.153,0.152h-0.304c-0.19,0-0.343,0.19-0.266,0.437l1.408,4.109h0.076
			l1.256-3.443c0.304-0.837,0.076-1.217-0.381-1.217h-0.266c-0.076,0-0.114-0.057-0.114-0.134V6.32c0-0.114,0.057-0.152,0.153-0.152
			c0.114,0,0.684,0.057,1.597,0.057c0.837,0,1.18-0.057,1.37-0.057c0.114,0,0.153,0.057,0.153,0.133V6.72
			c0,0.095-0.038,0.152-0.134,0.152h-0.285c-0.304,0-0.609,0.114-0.722,0.323c-0.19,0.342-2.625,6.353-2.911,7
			c-0.095,0.209-0.247,0.247-0.399,0.247c-0.19,0-0.266-0.115-0.381-0.4l-1.902-5.136h-0.114l-2.206,5.212
			c-0.114,0.248-0.266,0.324-0.457,0.324C89.853,14.443,89.738,14.29,89.643,14.043"/>
	</g>
</g>
<g id="Layer_1">
</g>
</svg>
