<?xml version="1.0" encoding="iso-8859-1"?>
<!-- Generator: Adobe Illustrator 19.2.1, SVG Export Plug-In . SVG Version: 6.00 Build 0)  -->
<svg version="1.1" xmlns="http://www.w3.org/2000/svg" xmlns:xlink="http://www.w3.org/1999/xlink" x="0px" y="0px"
	 viewBox="0 0 100 16.987" style="enable-background:new 0 0 100 16.987;" xml:space="preserve">
<g id="LOGO_x5F_JC">
	<g>
		<path d="M29.491,12.886l-1.909-0.838V6.023l1.889,1.047l0.991-1.44l-2.488-1.402c-0.757,0.724-1.524,1.258-2.302,1.607v5.444
			c0,0.532-0.05,0.918-0.153,1.169c-0.072,0.178-0.22,0.344-0.445,0.497v0.188c0.623,0.125,1.149,0.266,1.577,0.423
			c0.426,0.157,0.944,0.403,1.548,0.735l2.339-1.72l-0.069-0.404L29.491,12.886z M34.159,6.548V6.335
			c0-0.481-0.081-0.858-0.241-1.135c-0.162-0.276-0.516-0.6-1.059-0.972l-1.993,1.646l0.263,0.298
			c0.057-0.052,0.098-0.092,0.122-0.117c0.17-0.172,0.309-0.256,0.416-0.256c0.133,0,0.254,0.088,0.369,0.266
			c0.144,0.228,0.215,0.657,0.215,1.289v4.531c0,0.374-0.025,0.663-0.078,0.868c-0.052,0.208-0.152,0.428-0.295,0.669
			c-0.053,0.089-0.188,0.24-0.405,0.456c-0.454,0.442-0.68,0.897-0.68,1.365c0,0.472,0.198,0.883,0.589,1.228
			c0.393,0.343,0.954,0.517,1.684,0.517c0.698,0,1.275-0.152,1.731-0.454c0.298-0.186,0.447-0.376,0.447-0.569
			c0-0.109-0.038-0.197-0.112-0.262c-0.077-0.067-0.178-0.1-0.304-0.1c-0.114,0-0.214,0.03-0.294,0.091
			c-0.082,0.06-0.181,0.188-0.294,0.384c-0.115,0.195-0.231,0.323-0.351,0.383c-0.247,0.126-0.561,0.19-0.94,0.19
			c-0.524,0-0.947-0.136-1.266-0.409c-0.319-0.275-0.478-0.572-0.478-0.892c0-0.189,0.044-0.359,0.133-0.509
			c0.12-0.208,0.323-0.421,0.608-0.642c0.132-0.106,0.534-0.361,1.206-0.764c1.539-0.908,2.653-1.642,3.343-2.203
			c0.691-0.561,1.198-1.155,1.52-1.787c0.325-0.631,0.484-1.263,0.484-1.896c0-1.181-0.492-2.286-1.478-3.318L34.159,6.548z
			 M36.063,10.331c-0.377,0.697-1.011,1.365-1.904,2.005V7.018l1.452-1.176c0.677,0.813,1.018,1.645,1.018,2.497
			C36.629,8.97,36.44,9.633,36.063,10.331 M24.266,1.01H23.07l-0.485,2.02h0.41L24.266,1.01z M23.901,12.747
			c-0.058,0.033-0.12,0.049-0.188,0.049c-0.098,0-0.191-0.082-0.282-0.246c-0.091-0.165-0.137-0.52-0.137-1.063V6.323l0.711-0.73
			L22.34,4.229l-1.665,1.365l0.711,0.73v5.281c0,0.795,0.074,1.352,0.221,1.67c0.148,0.318,0.479,0.657,0.995,1.017l2.039-1.646
			l-0.244-0.298C24.146,12.566,23.98,12.7,23.901,12.747 M5.669,8.803c0.151,1.351,0.466,3.537,0.466,4.236
			c0,0.509-0.153,0.923-0.457,1.235c-0.306,0.311-0.702,0.467-1.193,0.467c-0.25,0-0.638-0.088-1.159-0.264
			c-0.365-0.124-0.695-0.186-0.99-0.186c-0.704,0-1.27,0.233-1.697,0.7C0.376,15.286,0.162,15.745,0,16.368l0.353,0.169
			c0.108-0.268,0.222-0.445,0.341-0.529c0.178-0.121,0.405-0.182,0.682-0.182c0.328,0,0.755,0.106,1.279,0.323
			c0.384,0.148,0.665,0.245,0.838,0.287C3.667,16.478,3.867,16.5,4.095,16.5c0.821,0,1.77-0.356,2.85-1.067
			c1.27-0.856,2.186-1.851,2.746-2.984c0.423-0.863,0.635-2.166,0.635-3.91c0-0.566-0.005-1.114-0.012-1.643
			c-0.017-1.001-0.026-1.698-0.026-2.088c0-0.78,0.151-1.502,0.452-2.167c0.302-0.664,0.862-1.44,1.681-2.328L12.064,0
			c-0.456,0.325-0.888,0.556-1.299,0.692C10.357,0.83,9.86,0.897,9.28,0.897c-0.62,0-1.471-0.117-2.559-0.353
			C5.363,0.256,4.4,0.112,3.833,0.112c-0.908,0-1.671,0.285-2.297,0.857C0.91,1.54,0.598,2.169,0.598,2.852
			c0,0.469,0.126,0.85,0.377,1.134C1.229,4.272,1.52,4.415,1.851,4.415c0.256,0,0.467-0.084,0.631-0.253
			C2.646,3.992,2.73,3.781,2.73,3.53c0-0.224-0.076-0.415-0.227-0.569c-0.15-0.153-0.331-0.23-0.544-0.23
			c-0.1,0-0.214,0.032-0.343,0.094C1.486,2.886,1.391,2.917,1.328,2.917c-0.069,0-0.127-0.025-0.172-0.076
			C1.107,2.791,1.083,2.722,1.083,2.64c0-0.268,0.154-0.533,0.462-0.79c0.307-0.26,0.727-0.39,1.259-0.39
			c0.407,0,0.99,0.131,1.749,0.394C5.311,2.115,6,2.244,6.62,2.244c0.602,0,1.351-0.142,2.248-0.426
			C7.891,2.459,7.184,3.01,6.75,3.469c-0.436,0.46-0.735,0.904-0.896,1.333c-0.162,0.427-0.256,1-0.28,1.722L5.669,8.803z
			 M9.061,3.514C8.631,4.498,8.416,5.633,8.416,6.918l0.04,4.293c0,0.818-0.121,1.495-0.363,2.028
			c-0.242,0.532-0.571,0.965-0.991,1.3c-0.305,0.24-0.798,0.504-1.484,0.793c0.585-0.471,0.969-0.915,1.148-1.332
			c0.253-0.573,0.38-1.374,0.38-2.402L7.107,7.411c0-1.248,0.141-2.234,0.419-2.954C7.808,3.733,8.223,3.098,8.779,2.55
			c0.417-0.403,1.066-0.823,1.95-1.258C9.909,2.094,9.353,2.835,9.061,3.514 M19.767,12.72c-0.123,0-0.237-0.084-0.339-0.254
			c-0.162-0.246-0.243-0.653-0.243-1.226V6.286l0.749-0.693l-1.703-1.365l-1.665,1.365l0.712,0.693v5.154l-1.711,1.285
			c-0.365-0.262-0.598-0.479-0.69-0.651c-0.095-0.171-0.144-0.443-0.144-0.811V6.286l0.711-0.693l-1.74-1.365l-2.226,1.832
			l0.243,0.299c0.265-0.225,0.464-0.337,0.596-0.337c0.177,0,0.316,0.088,0.42,0.266c0.058,0.1,0.088,0.314,0.088,0.641V11.6
			c0,0.592,0.094,1.07,0.282,1.431c0.189,0.363,0.587,0.784,1.196,1.261c1.015-0.885,2.006-1.658,2.975-2.319
			c0.011,0.62,0.094,1.071,0.245,1.356c0.152,0.284,0.475,0.606,0.971,0.962l2.039-1.534l-0.245-0.3
			C20.03,12.634,19.856,12.72,19.767,12.72 M55.873,5.835v5.208c0,0.512-0.042,0.875-0.131,1.09
			c-0.064,0.165-0.213,0.349-0.449,0.55l0.092,0.188c0.573,0,1.085,0.083,1.536,0.25c0.597,0.218,1.352,0.608,2.263,1.171
			c0.296-0.267,0.604-0.492,0.925-0.672c0.421-0.244,1.105-0.556,2.049-0.936V5.649c-1.32-0.337-2.423-0.812-3.311-1.42
			C58.023,4.919,57.032,5.456,55.873,5.835 M60.251,12.757l-2.471-1.01V5.835c0.323,0.06,0.597,0.129,0.824,0.213
			c0.32,0.116,0.87,0.356,1.647,0.723V12.757z M85.427,12.72c-0.123,0-0.236-0.084-0.34-0.254c-0.16-0.246-0.242-0.653-0.242-1.226
			V6.286l0.749-0.693l-1.702-1.365l-1.666,1.365l0.713,0.693v5.154l-1.712,1.285c-0.365-0.262-0.597-0.479-0.691-0.651
			c-0.096-0.171-0.143-0.443-0.143-0.811V6.286l0.711-0.693l-1.739-1.365l-2.228,1.832l0.244,0.299
			c0.265-0.225,0.463-0.337,0.597-0.337c0.178,0,0.316,0.088,0.42,0.266c0.058,0.1,0.086,0.314,0.086,0.641V11.6
			c0,0.592,0.094,1.07,0.282,1.431c0.188,0.363,0.586,0.784,1.195,1.261c1.015-0.885,2.008-1.658,2.978-2.319
			c0.009,0.62,0.092,1.071,0.243,1.356c0.151,0.284,0.475,0.606,0.972,0.962l2.038-1.534l-0.243-0.3
			C85.692,12.634,85.517,12.72,85.427,12.72 M90.399,5.731l1.178,1.453l1.439-1.254l-1.439-1.702l-2.115,1.832
			c0-0.33-0.064-0.589-0.19-0.777c-0.196-0.299-0.563-0.651-1.101-1.056l-1.964,1.72l0.245,0.3c0.246-0.3,0.441-0.449,0.583-0.449
			c0.129,0,0.249,0.082,0.356,0.245c0.109,0.162,0.164,0.49,0.164,0.98v3.907c0,0.568-0.042,0.953-0.127,1.153
			c-0.085,0.202-0.268,0.401-0.544,0.598v0.188c0.414,0.108,0.797,0.263,1.147,0.458c0.349,0.196,0.784,0.516,1.3,0.962l2.453-1.943
			l-0.227-0.301l-0.972,0.786l-1.123-0.786V6.542L90.399,5.731z M100,7.311l-2.658-3.082c-1.058,0.541-1.733,0.88-2.021,1.013
			c-0.398,0.179-0.896,0.378-1.495,0.594v5.43c0,0.62-0.035,1.024-0.105,1.21c-0.071,0.188-0.211,0.344-0.419,0.47v0.188
			c0.737,0.149,1.309,0.297,1.708,0.44c0.399,0.145,0.909,0.384,1.528,0.718l3.087-2.17L99.4,11.824l-1.479,1.047l-2.186-0.823
			v-1.759L100,7.311z M95.735,5.371l0.132-0.042l2.382,2.575l-2.514,1.755V5.371z M74.9,2.021h-0.271l-2.61,3.25v0.416h0.9v5.446
			c0,0.445-0.056,0.784-0.164,1.019c-0.085,0.184-0.254,0.361-0.509,0.531v0.188c0.911,0.25,1.729,0.723,2.45,1.421l2.002-1.646
			l-0.225-0.298l-0.599,0.485l-1.048-0.824V5.687h1.91V4.64h-1.91L74.9,2.021z M70.926,12.72c-0.124,0-0.237-0.084-0.34-0.254
			c-0.162-0.246-0.242-0.653-0.242-1.226V6.286l0.749-0.693l-1.703-1.365l-1.665,1.365l0.71,0.693v5.154l-1.709,1.285
			c-0.367-0.262-0.6-0.479-0.692-0.651c-0.096-0.171-0.144-0.443-0.144-0.811V6.286l0.712-0.693l-1.741-1.365l-2.226,1.832
			l0.243,0.299c0.267-0.225,0.465-0.337,0.596-0.337c0.178,0,0.317,0.088,0.421,0.266c0.058,0.1,0.087,0.314,0.087,0.641V11.6
			c0,0.592,0.093,1.07,0.283,1.431c0.188,0.363,0.586,0.784,1.196,1.261c1.014-0.885,2.006-1.658,2.974-2.319
			c0.011,0.62,0.094,1.071,0.246,1.356c0.151,0.284,0.475,0.606,0.97,0.962l2.04-1.534l-0.245-0.3
			C71.192,12.634,71.016,12.72,70.926,12.72 M52.452,12.18c-0.745,0.31-1.569,0.466-2.473,0.466l-0.357-0.009L49.509,1.901
			c1.304,0.641,2.478,1.018,3.518,1.129l1.57-1.441l-0.167-0.357h-0.215c-0.723,0-1.35-0.057-1.886-0.172
			C51.792,0.945,51.06,0.69,50.125,0.3l-4.059,3.33v4.239c0,0.945-0.039,1.526-0.113,1.736c-0.076,0.212-0.302,0.472-0.677,0.78
			c-0.871-1.123-1.306-2.349-1.306-3.673c0-1.092,0.297-2.102,0.89-3.032c0.46-0.722,1.162-1.4,2.103-2.035l-0.243-0.261
			c-1.429,0.859-2.462,1.747-3.099,2.656c-0.815,1.164-1.223,2.425-1.223,3.789c0,1.105,0.289,2.179,0.867,3.221
			c0.58,1.044,1.378,1.845,2.4,2.404c1.022,0.559,2.11,0.837,3.269,0.837c0.778,0,1.564-0.132,2.357-0.399
			c0.791-0.267,1.469-0.625,2.033-1.073c0.562-0.444,1.135-1.07,1.721-1.875l-0.283-0.28C53.967,11.362,53.194,11.868,52.452,12.18
			 M47.147,11.975c-0.576-0.297-1.115-0.724-1.619-1.279c0.825-0.683,1.468-1.292,1.926-1.825c0.227-0.263,0.372-0.511,0.435-0.742
			c0.056-0.177,0.085-0.531,0.085-1.064V2.777l1.086-0.891l0.111,10.685C48.397,12.471,47.721,12.273,47.147,11.975"/>
	</g>
</g>
<g id="Layer_1">
</g>
</svg>
