<?xml version="1.0" encoding="iso-8859-1"?>
<!-- Generator: Adobe Illustrator 19.0.0, SVG Export Plug-In . SVG Version: 6.00 Build 0)  -->
<svg version="1.1" xmlns="http://www.w3.org/2000/svg" xmlns:xlink="http://www.w3.org/1999/xlink" x="0px" y="0px"
	 viewBox="0 0 100 65" style="enable-background:new 0 0 100 65;" xml:space="preserve">
<g id="LOGO_x5F_RED_x5F_ea_x5F_w">
	<g id="EA_x5F_WHITE_1_">
		<path style="fill:#FFFFFF;" d="M86.752,7.724h0.55H86.752z M89.965,7.475L89.965,7.475h-0.151H89.965z M86.762,7.475
			c0.062-1.308,0.225-1.875,0.644-2.235c0.284-0.228,0.647-0.336,1.123-0.336c0.387,0,0.673,0.112,0.89,0.336
			c0.371,0.354,0.499,0.913,0.546,2.186v0.037l-3.093,0.012H86.762z M86.752,7.475V7.413V7.475z M88.529,4.637
			c-1.784,0-3.18,1.513-3.18,3.443c0,1.93,1.396,3.439,3.18,3.439c1.037,0,1.991-0.543,2.625-1.489l-0.01-0.033
			c-0.028-0.045-0.108-0.104-0.149-0.103c-0.589,0.876-1.464,1.355-2.465,1.355c-0.475,0-0.838-0.107-1.123-0.338
			c-0.484-0.406-0.629-1.073-0.629-2.832c0-0.118,0-0.239-0.025-0.332v-0.01l4.481-0.006c0.041,0,0.059-0.02,0.059-0.06
			C91.292,6.721,90.594,4.637,88.529,4.637"/>
		<path style="fill:#FFFFFF;" d="M94.553,5.832c-0.006,0.008-0.006,0.01-0.009,0.021V5.358L94.553,5.832z M99.812,11.111H98.96
			c-0.077,0-0.077-0.014-0.077-0.048V7.227c0-1.619-0.96-2.59-2.56-2.59c-0.631,0-1.15,0.239-1.481,0.66v0.002
			c-0.042,0.054-0.08,0.112-0.114,0.17c-0.07,0.11-0.128,0.229-0.176,0.362V4.832c0-0.035-0.006-0.057-0.061-0.057h-2.225
			c-0.024,0-0.033,0.073-0.033,0.135c0,0.06,0.009,0.134,0.033,0.134h0.864c0.096,0,0.096,0.04,0.096,0.052v5.968
			c0,0.012,0,0.048-0.096,0.048h-0.864c-0.024,0-0.033,0.074-0.033,0.135c0,0.064,0.009,0.134,0.033,0.134h3.236
			c0.022,0,0.031-0.07,0.031-0.134c0-0.062-0.009-0.135-0.031-0.135H94.65c-0.097,0-0.097-0.037-0.097-0.048V6.363
			c0.342-1.023,0.867-1.46,1.771-1.46c0.463,0,1.207,0.424,1.207,1.568v4.591c0,0.029-0.015,0.048-0.084,0.048h-0.85
			c-0.015,0-0.02,0.025-0.027,0.051c-0.002,0.021-0.005,0.053-0.005,0.084c0,0.064,0.005,0.134,0.032,0.134h3.216
			c0.044,0,0.044-0.11,0.044-0.134C99.856,11.225,99.856,11.111,99.812,11.111"/>
		<path style="fill:#FFFFFF;" d="M9.071,8.105c-0.045,0-0.118,0.006-0.118,0.035c0,1.111-0.422,2.971-3.265,2.971h-1.69
			c-0.079,0-0.095-0.015-0.095-0.048L3.891,5.878h0.573c1.131,0,1.83,0.671,1.83,1.752c0,0.065,0.219,0.065,0.219,0V3.859
			c0-0.028-0.068-0.029-0.113-0.029c-0.04,0-0.106,0.002-0.106,0.029c0,1.098-0.684,1.751-1.83,1.751L3.903,5.62V0.721
			c0-0.031,0.016-0.048,0.095-0.048H5.64c2.289,0,2.539,1.862,2.539,2.66c0,0.046,0.106,0.046,0.122,0.046
			c0.026,0,0.132,0,0.132-0.046v-2.87c0-0.024-0.023-0.06-0.055-0.06H0.829c-0.023,0-0.03,0.074-0.03,0.135
			c0,0.064,0.007,0.135,0.03,0.135h1.285C2.183,0.672,2.2,0.69,2.2,0.721v10.342c0,0.029-0.017,0.048-0.085,0.048H0.829
			c-0.023,0-0.03,0.073-0.03,0.135c0,0.064,0.007,0.134,0.03,0.134h8.298c0.038,0,0.062-0.021,0.062-0.058V8.14
			C9.189,8.111,9.113,8.105,9.071,8.105"/>
		<path style="fill:#FFFFFF;" d="M13.598,11.111h-0.849c-0.084,0-0.097-0.015-0.097-0.048V0.056C12.652,0.04,12.633,0,12.593,0
			h-2.228c-0.039,0-0.042,0.104-0.042,0.135c0,0.031,0.003,0.134,0.042,0.134h0.852c0.084,0,0.097,0.019,0.097,0.05v10.744
			c0,0.033-0.013,0.048-0.097,0.048h-0.852c-0.039,0-0.042,0.104-0.042,0.135c0,0.033,0.003,0.134,0.042,0.134h3.233
			c0.03,0,0.035-0.07,0.035-0.134C13.632,11.185,13.628,11.111,13.598,11.111"/>
		<path style="fill:#FFFFFF;" d="M17.972,11.111h-0.863c-0.073,0-0.088-0.019-0.088-0.048V4.832c0-0.038-0.018-0.057-0.054-0.057
			h-2.238c-0.031,0-0.031,0.073-0.031,0.135c0,0.062,0,0.134,0.031,0.134h0.845c0.098,0,0.099,0.015,0.099,0.052v5.968
			c0,0.035-0.001,0.048-0.099,0.048h-0.845c-0.031,0-0.031,0.074-0.031,0.135c0,0.064,0,0.134,0.031,0.134h3.243
			c0.023,0,0.032-0.07,0.032-0.134C18.004,11.185,17.995,11.111,17.972,11.111"/>
		<path style="fill:#FFFFFF;" d="M16.349,1.923c0.482,0,0.876-0.408,0.876-0.909c0-0.506-0.394-0.922-0.876-0.922
			c-0.474,0-0.863,0.416-0.863,0.922C15.486,1.525,15.865,1.923,16.349,1.923"/>
		<path style="fill:#FFFFFF;" d="M24.571,9.159c-0.045,0-0.119,0-0.119,0.033c0,1.363-0.609,1.92-2.11,1.92h-1.586
			c-0.06,0-0.075-0.006-0.075-0.029l3.912-6.184c0.015-0.056,0.015-0.094,0-0.111h-0.021h-0.001h-0.698l-4.188-0.013
			c-0.032,0-0.057,0.019-0.057,0.057v1.933c0,0.055,0.252,0.055,0.252,0c0-1.27,0.491-1.722,1.875-1.722h1.24
			c0.069,0,0.076,0.016,0.066,0.033l-3.878,6.18c-0.022,0.035-0.032,0.063-0.017,0.091c0.009,0.019,0.03,0.033,0.056,0.033h5.412
			c0.052,0,0.053-0.021,0.053-0.056V9.191C24.689,9.159,24.617,9.159,24.571,9.159"/>
		<path style="fill:#FFFFFF;" d="M29.995,10.367c0.021,0.11,0.054,0.223,0.094,0.325c-0.039-0.101-0.076-0.202-0.102-0.313
			C29.99,10.371,29.995,10.369,29.995,10.367 M29.922,7.866v1.821c0,0.711-0.579,1.502-1.414,1.502
			c-0.699,0-1.054-0.436-1.054-1.301c0-1.399,0.471-1.614,0.997-1.72c0.126-0.021,0.264-0.037,0.413-0.053
			C29.237,8.073,29.662,8.026,29.922,7.866 M32.127,10.767c-0.005-0.004-0.008-0.004-0.01,0c0,0-0.008-0.004-0.015-0.004
			c-0.064,0.16-0.247,0.334-0.499,0.334c-0.222,0-0.349-0.187-0.349-0.516V7.444c0-1.862-0.834-2.807-2.481-2.807
			c-1.224,0-1.877,0.706-1.877,1.216c0,0.349,0.193,0.705,0.63,0.705c0.507,0,0.689-0.309,0.689-0.568
			c0-0.114-0.036-0.187-0.071-0.269c-0.033-0.081-0.07-0.169-0.07-0.3c0-0.356,0.225-0.518,0.699-0.518
			c0.571,0,1.149,0.167,1.149,1.382v1.172c0,0.297-0.819,0.369-1.611,0.437l-0.156,0.019c-0.75,0.076-2.021,0.437-2.021,1.974
			c0,1.023,0.787,1.632,2.098,1.632c0.76,0,1.32-0.393,1.602-0.851c0.059-0.089,0.115-0.19,0.152-0.288
			c0.125,0.694,0.601,1.139,1.213,1.139c0.579,0,0.976-0.313,1.06-0.609c0.005-0.008,0-0.023-0.007-0.037
			C32.228,10.834,32.171,10.779,32.127,10.767"/>
		<path style="fill:#FFFFFF;" d="M35.308,10.784c0.067,0.066,0.138,0.129,0.216,0.193c-0.072-0.058-0.149-0.122-0.216-0.185V10.784z
			 M35.32,5.275c0,0.003-0.007,0.003-0.012,0.005V3.058L35.32,5.275z M36.749,4.904c0.286,0,0.824,0.045,1.149,0.323
			c0.483,0.404,0.724,1.378,0.724,2.894c0,1.502-0.23,2.393-0.724,2.807c-0.279,0.236-0.543,0.323-0.983,0.323
			c-0.571,0-1.316-0.308-1.591-0.981L35.32,5.718C35.557,5.184,36.216,4.904,36.749,4.904 M36.749,4.637
			c-0.495,0-0.91,0.155-1.256,0.468c-0.06,0.056-0.118,0.106-0.168,0.164V0.056c0-0.014,0-0.056-0.057-0.056H33.04
			c-0.029,0-0.036,0.075-0.036,0.135c0,0.058,0.006,0.134,0.036,0.134h0.867c0.061,0,0.094,0.019,0.094,0.05v10.744
			c0,0.012,0,0.048-0.094,0.048H33.04c-0.029,0-0.036,0.074-0.036,0.135c0,0.064,0.006,0.134,0.036,0.134h2.228
			c0.052,0,0.057-0.021,0.057-0.058l-0.017-0.309v-0.214c0.407,0.427,1.051,0.721,1.608,0.721c1.84,0,3.075-1.755,3.075-3.399
			S38.604,4.637,36.749,4.637"/>
		<path style="fill:#FFFFFF;" d="M42.451,7.724h0.546H42.451z M45.661,7.475L45.661,7.475h-0.153H45.661z M42.458,7.475
			c0.061-1.308,0.226-1.875,0.645-2.235c0.288-0.228,0.643-0.336,1.121-0.336c0.388,0,0.678,0.112,0.894,0.336
			c0.363,0.354,0.501,0.913,0.544,2.186v0.037l-3.088,0.012H42.458z M42.451,7.475c0-0.021,0-0.038,0.001-0.062
			C42.451,7.436,42.451,7.454,42.451,7.475 M44.224,4.637c-1.783,0-3.179,1.513-3.179,3.443c0,1.93,1.396,3.439,3.179,3.439
			c1.035,0,1.991-0.543,2.626-1.489l-0.014-0.033c-0.022-0.043-0.107-0.106-0.146-0.103c-0.586,0.876-1.467,1.355-2.467,1.355
			c-0.478,0-0.834-0.107-1.118-0.338c-0.484-0.406-0.632-1.073-0.632-2.832c0-0.118,0-0.239-0.023-0.332v-0.01l4.478-0.006
			c0.038,0,0.059-0.02,0.059-0.06C46.987,6.721,46.293,4.637,44.224,4.637"/>
		<path style="fill:#FFFFFF;" d="M51.386,10.034c-0.175,0.656-0.526,1.05-0.932,1.05c-0.265,0-0.423-0.162-0.423-0.443V5.096
			c0-0.031,0.009-0.052,0.08-0.052h1.283c0.028,0,0.035-0.071,0.035-0.133c0-0.062-0.007-0.135-0.035-0.135h-1.283
			c-0.071,0-0.08-0.02-0.08-0.052V2.129c0-0.029-0.128-0.029-0.15-0.029c-0.087,0-0.103,0.016-0.103,0.027
			c-0.191,0.562-0.56,0.886-1.094,0.976v1.621c0,0.041-0.007,0.052-0.101,0.052h-1.065c-0.029,0-0.029,0.074-0.029,0.135
			c0,0.062,0,0.133,0.029,0.133h1.065c0.094,0,0.101,0.016,0.101,0.052v4.9c0,1.011,0.443,1.523,1.322,1.523
			c0.798,0,1.325-0.463,1.561-1.371C51.566,10.114,51.442,10.027,51.386,10.034"/>
		<path style="fill:#FFFFFF;" d="M54.51,5.832c-0.002,0.005-0.006,0.01-0.007,0.021V3.048L54.51,5.832z M59.774,11.111h-0.849
			c-0.082,0-0.083-0.014-0.083-0.048V7.227c0-1.619-0.962-2.59-2.578-2.59c-0.508,0-1.098,0.192-1.481,0.691
			c-0.112,0.145-0.2,0.307-0.272,0.503V0.056c0-0.014,0-0.056-0.057-0.056h-2.22c-0.031,0-0.037,0.075-0.037,0.135
			c0,0.058,0.006,0.134,0.037,0.134h0.859c0.072,0,0.102,0.019,0.102,0.05v10.744c0,0.012,0,0.048-0.102,0.048h-0.859
			c-0.031,0-0.037,0.074-0.037,0.135c0,0.064,0.006,0.134,0.037,0.134h3.226c0.03,0,0.035-0.07,0.035-0.134
			c0-0.062-0.005-0.135-0.035-0.135h-0.849c-0.099,0-0.099-0.037-0.099-0.048V6.363c0.343-1.023,0.864-1.46,1.752-1.46
			c0.467,0,1.211,0.424,1.211,1.568v4.591c0,0.035-0.022,0.048-0.066,0.048h-0.852c-0.044,0-0.044,0.104-0.044,0.135
			c0,0.033,0,0.134,0.044,0.134h3.217c0.027,0,0.03-0.07,0.03-0.134C59.803,11.185,59.801,11.111,59.774,11.111"/>
		<path style="fill:#FFFFFF;" d="M68.258,11.088c0,0-0.003,0.009-0.008,0.011C68.255,11.097,68.255,11.092,68.258,11.088
			 M63.661,7.506l1.705-4.96l1.279,3.769l0.402,1.183l-2.482,0.007H63.661z M63.649,7.506l0.433-1.255l-0.429,1.255H63.649z
			 M67.051,7.506h-0.77l0.77-0.004V7.506z M71.471,11.111h-1.285c-0.058,0-0.094-0.025-0.094-0.037L66.179,0.192
			c-0.016-0.037-0.134-0.039-0.171-0.039c-0.035,0-0.156,0.002-0.17,0.039L62.3,10.47c-0.185,0.605-0.216,0.641-0.348,0.641h-1.05
			c-0.012,0-0.024,0-0.024,0.135c0,0.134,0.012,0.134,0.024,0.134h2.887c0.028,0,0.034-0.07,0.034-0.134
			c0-0.062-0.006-0.135-0.034-0.135h-1.283c-0.016,0-0.022-0.004-0.026-0.01c-0.031-0.036,0.026-0.224,0.159-0.626l0.934-2.712
			l3.529-0.004l1.148,3.329c-0.007,0.009-0.027,0.023-0.056,0.023h-1.326c-0.031,0-0.035,0.074-0.035,0.135
			c0,0.064,0.004,0.134,0.035,0.134h4.603c0.028,0,0.032-0.07,0.032-0.134C71.503,11.185,71.499,11.111,71.471,11.111"/>
		<path style="fill:#FFFFFF;" d="M74.153,5.83c0,0.007-0.006,0.012-0.006,0.023V5.358L74.153,5.83z M75.722,4.637
			c-0.689,0-1.119,0.239-1.398,0.793c-0.061,0.118-0.119,0.248-0.171,0.395V4.832c0-0.035,0-0.058-0.055-0.058h-2.224
			c-0.03,0-0.031,0.074-0.031,0.135c0,0.062,0.001,0.134,0.031,0.134h0.852c0.079,0,0.092,0.021,0.092,0.052v5.968
			c0,0.033-0.012,0.048-0.092,0.048h-0.852c-0.03,0-0.031,0.074-0.031,0.135c0,0.064,0.001,0.134,0.031,0.134h3.225
			c0.033,0,0.039-0.07,0.039-0.134c0-0.062-0.006-0.135-0.039-0.135h-0.862c-0.068,0-0.084-0.019-0.084-0.048V6.487
			c0.245-0.997,0.602-1.444,1.135-1.444c0.242,0,0.391,0.149,0.391,0.39c0,0.12-0.036,0.193-0.081,0.267
			c-0.047,0.089-0.104,0.19-0.104,0.387c0,0.316,0.298,0.549,0.704,0.549c0.345,0,0.695-0.267,0.695-0.859
			C76.892,5.21,76.529,4.637,75.722,4.637"/>
		<path style="fill:#FFFFFF;" d="M82.411,10.641v0.325l-0.009-0.305C82.405,10.655,82.41,10.651,82.411,10.641 M82.411,5.27v0.01
			c-0.059-0.068-0.123-0.126-0.187-0.184C82.288,5.15,82.35,5.209,82.411,5.27 M79.117,8.121c0-1.541,0.24-2.488,0.736-2.894
			c0.316-0.267,0.787-0.323,1.121-0.323c0.556,0,1.225,0.28,1.428,0.812v4.247c0,0.641-0.487,1.288-1.581,1.288
			c-0.437,0-0.686-0.085-0.968-0.323C79.352,10.518,79.117,9.627,79.117,8.121 M84.683,11.111h-0.851
			c-0.084,0-0.094-0.015-0.094-0.048V0.056C83.739,0.04,83.719,0,83.696,0h-2.23c-0.024,0-0.029,0.075-0.029,0.135
			c0,0.058,0.005,0.134,0.029,0.134h0.856c0.066,0,0.08,0.019,0.08,0.05l0.009,2.768v2.178c-0.376-0.422-0.844-0.627-1.436-0.627
			c-1.856,0-3.24,1.841-3.24,3.484s1.242,3.399,3.087,3.399c0.769,0,1.289-0.383,1.489-0.692c0.04-0.056,0.073-0.112,0.092-0.162
			v0.657c0,0.037,0.02,0.058,0.056,0.058h2.225c0.039,0,0.048-0.11,0.048-0.134C84.731,11.223,84.722,11.111,84.683,11.111"/>
	</g>
</g>
<g id="Layer_1">
</g>
</svg>
