<svg xmlns="http://www.w3.org/2000/svg" viewBox="0 0 100 100" enable-background="new 0 0 100 100"><path d="M253.37-406.77L50.003 49.997 300-383.013zm168.203 122.207L50.003 50 454.51-243.89zM550 50.005L547.26-2.26 50.01 50.005h-.005L539.075-53.95l-13.546-50.554L50 50.003h.002l456.77-203.368-23.76-46.632-433.01 250 .002-.003-.002.002L384.566-321.57l-40.672-32.936L50.002 50 204.51-425.527l-50.553-13.546L50.002 50l52.264-497.26L50-450V50.002h-.004V50L-2.268-447.26l-51.693 8.188L49.992 49.998l-154.506-475.524-48.86 18.756L49.993 49.994-200.002-383.01l-43.892 28.504L49.994 49.998V50v-.002V50L-354.51-243.89l-28.503 43.893L49.994 50l-456.768-203.366-18.756 48.86L49.996 50v.002l-489.07-103.955-8.187 51.692L49.993 50v.002H-450l2.74 52.265L49.993 50.005-439.073 153.96l13.546 50.552L49.996 50.006-406.77 253.372l23.76 46.63L49.995 50.007l-404.503 293.89 32.936 40.672L49.996 50.006l-334.56 371.567 40.672 32.935L49.996 50.007H50h-.002l-249.996 433.006 46.632 23.76L49.998 50.01v.003l-154.504 475.515 50.552 13.546L49.998 50.017v.01L-2.26 547.26 50 550V50.048l52.26 497.215 51.69-8.187L50 50.026v-.01L204.504 525.53l48.86-18.754L50 50.013v-.004l249.997 433.004 43.893-28.504L50.002 50.008l334.56 371.567 37.01-37.007L50 50.008v-.003l404.504 293.89 28.505-43.893L50.002 50.005l456.77 203.366 18.755-48.86L50.004 50.007h-.002.004L539.073 153.96l8.188-51.69L50.018 50.002H550zm-500.002-.003zm.003 0zm0 .002zm0 0zm0 0zm0 0zm0 0zm0 0L50 50zM49.998 50zm0 0v.002V50zm0 .004zm.003 0v.003l-.003-.002H50zm0-.002zm0 0zm0 0zm0 0zM49.996 50zm0 .002v.002-.002zm0 .005zm0 0l.002-.002h-.003zm0 .004H50l-.002.004zm.002.01l-.003-.003v-.004l.002.004v.006zm0-.006v-.005.004zm0-.006zm.002-.002zm-371.577-334.568l371.57 334.56-334.56-371.567z" fill="#fff"/></svg>