<svg xmlns="http://www.w3.org/2000/svg" viewBox="0 0 100 10" enable-background="new 0 0 100 10"><g fill="#00f"><path d="M-.03 1.777h.15l.005-.023c.098-.348.215-.624.348-.82C.606.74.745.594.89.504c.143-.09.286-.145.426-.165.144-.02.273-.03.386-.03h.473v5.877H1.21v.184h2.86V6.19h-.965V.31h.473c.113 0 .243.01.387.03.14.02.282.075.426.165.144.09.284.235.418.43.133.196.25.472.347.82l.006.023h.15V.125H-.03v1.652zM10.062 3.683c0-.413-.125-.72-.373-.91-.245-.19-.565-.286-.953-.286-.24 0-.45.038-.624.11-.174.075-.322.164-.443.267-.12.104-.218.214-.29.33-.042.07-.078.134-.106.19V.047H5.796V.23h.67V6.19h-.67v.184h2.147v-.184h-.67V4.256c0-.227.037-.44.107-.632.07-.193.17-.362.294-.503.124-.14.27-.25.433-.33.163-.08.336-.12.516-.12.217 0 .373.068.475.206.103.14.154.32.154.537v2.774h-.668v.184h2.147V6.19h-.668V3.683zM14.32 2.846c-.16-.13-.338-.23-.527-.288-.19-.058-.368-.088-.53-.088-.277 0-.54.058-.778.172-.24.114-.452.267-.63.454s-.32.405-.423.647c-.103.244-.154.498-.154.755 0 .3.05.574.15.815.1.243.242.456.424.63.182.177.4.313.65.408.248.094.522.142.813.142.293 0 .536-.046.722-.138.185-.09.334-.198.444-.32.11-.12.19-.243.24-.364.05-.118.084-.212.103-.278l.01-.032-.19-.038-.013.027c-.02.063-.054.148-.103.266-.045.106-.115.213-.208.316-.094.104-.222.194-.382.267s-.367.11-.616.11c-.248 0-.447-.055-.594-.16-.064-.046-.12-.1-.17-.157l-.044-.053c-.047-.06-.09-.124-.123-.194-.076-.164-.125-.35-.148-.555-.023-.207-.035-.407-.035-.595 0-.092 0-.17.004-.23.003-.05.005-.1.005-.147h2.675v-.03c0-.323-.055-.596-.164-.814-.107-.217-.244-.395-.406-.528zm-2.093 1.188c.012-.177.036-.348.07-.51.038-.17.094-.322.168-.45.073-.13.168-.23.292-.306.122-.075.28-.113.47-.113.105 0 .206.016.3.046.088.03.166.082.228.153.063.07.114.17.15.292.036.124.055.285.055.478v.217c0 .062-.004.127-.013.195h-1.72zm-.58-.565l.044-.067c-.014.022-.03.044-.042.066zM21.944.047h-1.48V.23h.67v2.963c-.086-.186-.214-.347-.383-.482-.2-.16-.468-.24-.79-.24-.253 0-.495.055-.718.164-.223.108-.42.253-.59.432-.17.18-.308.392-.407.63-.1.242-.15.497-.15.76 0 .27.052.53.155.772.102.243.243.46.418.647.176.188.382.34.613.45.232.11.48.168.74.168.2 0 .374-.035.513-.103s.256-.15.347-.245c.092-.095.163-.194.21-.295.024-.05.044-.097.062-.14v.662h1.46v-.184h-.667V.048zm-.81 4.59c0 .19-.015.386-.043.587-.027.198-.082.38-.16.542-.08.16-.192.292-.334.392-.142.1-.333.15-.568.15-.23 0-.415-.045-.548-.134-.132-.088-.233-.218-.3-.385-.068-.17-.112-.38-.13-.62-.016-.248-.025-.523-.025-.82 0-.262.015-.502.043-.712.028-.207.08-.386.15-.533.068-.145.166-.257.29-.335.126-.077.288-.117.483-.117.21 0 .382.037.516.11.135.073.246.166.33.276.056.08.105.166.143.254.04.09.07.198.092.323.023.125.04.267.047.434.01.167.014.364.014.588zm-2.112 1.46c-.02-.013-.04-.028-.06-.043l.06.044zM26.888 6.124c-.06.044-.125.078-.19.1-.066.022-.13.033-.19.033-.09 0-.158-.025-.204-.077-.046-.05-.07-.158-.07-.317V3.7c0-.16-.024-.313-.07-.457-.05-.146-.13-.28-.243-.395s-.262-.208-.445-.276c-.18-.068-.41-.102-.68-.102-.222 0-.422.027-.595.08-.173.053-.32.126-.436.218-.117.093-.206.2-.264.318-.06.12-.09.248-.09.38 0 .115.025.21.075.286.053.08.178.118.382.118.118 0 .21-.03.273-.09.064-.062.097-.138.097-.228 0-.048-.01-.12-.026-.218-.016-.093-.024-.186-.024-.286 0-.14.056-.237.17-.298.12-.064.274-.096.458-.096.14 0 .252.02.334.058.08.038.144.094.186.166.044.074.075.165.092.27.017.11.025.234.025.37 0 .17-.012.306-.037.405-.024.096-.068.173-.134.237-.068.063-.162.118-.28.163-.126.046-.285.102-.473.165-.188.06-.34.106-.48.147-.162.047-.31.107-.442.18-.134.075-.245.177-.328.302-.084.126-.126.295-.126.504 0 .092.015.19.04.29.028.107.085.204.17.29s.2.155.35.21c.148.056.348.084.592.084.217 0 .4-.025.54-.076.142-.05.258-.113.345-.188.087-.076.152-.155.194-.235.027-.05.05-.097.07-.14.05.19.135.342.25.453.13.124.34.187.626.187.157 0 .286-.022.394-.068.105-.043.2-.096.276-.155l.024-.02-.105-.145-.027.017zm-1.463-1.82v.777c0 .115-.01.243-.03.383-.02.138-.06.268-.12.386-.057.115-.144.213-.258.29-.113.078-.264.117-.447.117-.127 0-.232-.022-.31-.065-.08-.043-.142-.1-.185-.167-.044-.07-.074-.147-.09-.237-.018-.09-.026-.18-.026-.264 0-.195.047-.36.14-.49.095-.13.233-.233.413-.307l.652-.26c.125-.052.21-.106.26-.162zM30.403 2.728c-.067-.07-.152-.128-.253-.173-.103-.045-.224-.068-.36-.068-.19 0-.354.037-.488.108-.133.07-.25.16-.343.263-.095.102-.17.212-.224.325-.027.057-.05.113-.07.166v-.767h-1.46v.184h.668v3.42h-.67v.184h2.235V6.19h-.757V4.23c0-.24.03-.454.09-.637.06-.184.134-.343.222-.475.087-.13.183-.23.283-.295.098-.065.19-.1.278-.1.186 0 .273.08.273.247 0 .072-.006.127-.018.165-.01.037-.022.072-.037.104s-.028.064-.04.097c-.013.036-.02.08-.02.137 0 .182.14.274.414.274.12 0 .23-.034.32-.1.096-.07.145-.208.145-.41 0-.09-.015-.18-.045-.27-.03-.09-.08-.172-.147-.24zM31.805 1.083c.135 0 .252-.048.348-.144.096-.097.144-.214.144-.35s-.048-.25-.144-.347C32.058.147 31.94.1 31.805.1c-.136 0-.253.047-.348.143-.096.095-.144.212-.144.348s.048.254.144.35c.095.094.212.143.348.143zM32.227 2.583H30.75v.184h.667v3.42h-.668v.185h2.146v-.184h-.67zM37.56 3.683c0-.413-.125-.72-.373-.91-.245-.19-.565-.286-.953-.286-.253 0-.47.04-.646.12-.177.08-.327.177-.443.29-.117.11-.21.227-.28.344l-.11.205v-.862h-1.46v.184h.668v3.42h-.668v.184h2.146V6.19h-.667V4.256c0-.227.036-.44.106-.632.07-.193.17-.362.293-.503.124-.14.27-.25.433-.33.163-.08.336-.12.516-.12.217 0 .373.068.475.206.103.14.154.32.154.537v2.774h-.667v.184h2.146V6.19h-.67V3.683zM42.496 2.47c-.19 0-.354.05-.483.146-.115.085-.206.18-.27.28-.09-.082-.22-.17-.39-.266-.193-.106-.425-.16-.69-.16-.168 0-.348.03-.534.088-.186.06-.357.147-.51.26-.152.115-.28.257-.38.422-.102.167-.153.356-.153.563 0 .385.16.7.474.933-.063.03-.133.067-.208.108-.098.052-.19.123-.277.21-.087.086-.16.188-.22.302-.06.116-.09.256-.09.418 0 .31.098.534.288.664.168.115.42.18.752.19-.09.04-.18.083-.268.134-.124.07-.236.156-.332.253-.098.097-.178.21-.24.338-.063.127-.095.27-.095.426 0 .16.04.31.122.44.08.13.193.244.335.336.142.09.31.164.5.216.19.052.4.08.63.08.25 0 .5-.044.74-.13.24-.084.454-.206.638-.36s.334-.34.447-.552c.112-.212.168-.45.168-.71 0-.423-.125-.74-.373-.94-.245-.197-.577-.297-.988-.297h-1.373c-.073 0-.145-.006-.212-.017-.066-.01-.126-.03-.177-.058-.05-.027-.09-.065-.123-.12-.032-.05-.048-.12-.048-.2 0-.086.02-.164.057-.232.037-.067.086-.127.145-.18.057-.05.122-.09.192-.124l.19-.09c.08.04.19.085.337.14.152.055.333.083.54.083.2 0 .397-.03.587-.093.192-.062.362-.15.505-.26.145-.113.262-.245.35-.392.09-.15.136-.315.136-.494 0-.212-.042-.393-.126-.537-.073-.127-.136-.22-.187-.282.042-.054.09-.102.14-.144.056-.045.108-.067.16-.067.047 0 .08.018.104.055.028.047.056.096.08.145.027.055.06.106.094.152.04.054.107.082.2.082.075 0 .15-.028.222-.085.075-.058.112-.145.112-.26 0-.173-.056-.29-.165-.344-.105-.047-.218-.073-.337-.073zm-1.02 1.308c0 .374-.063.656-.187.838-.12.178-.33.27-.618.27-.175 0-.32-.026-.43-.076-.11-.05-.2-.124-.265-.22-.067-.097-.113-.214-.138-.348-.027-.135-.04-.29-.04-.464 0-.402.073-.694.218-.866.144-.17.36-.258.645-.258.185 0 .333.033.44.1s.187.153.24.26c.053.11.09.23.105.364.018.135.027.27.027.4zm-1.963 4.066c-.017-.082-.026-.172-.026-.27 0-.147.02-.27.055-.367.036-.097.084-.183.143-.256.058-.07.125-.132.2-.18l.223-.137h.93c.298 0 .536.066.706.198.167.13.252.354.252.667 0 .145-.033.286-.097.42-.065.134-.16.255-.28.36-.122.103-.268.188-.434.25-.167.062-.355.094-.558.094-.13 0-.264-.016-.4-.05-.134-.034-.257-.092-.367-.173-.107-.08-.198-.188-.268-.32-.034-.064-.06-.137-.076-.218 0-.007-.002-.012-.003-.016zM49.788 3.683c0-.413-.125-.72-.373-.91-.245-.19-.565-.286-.953-.286-.253 0-.47.04-.647.12-.177.08-.326.177-.443.29-.12.112-.212.228-.28.344-.042.076-.08.144-.11.204v-.86h-1.46v.183h.668v3.42h-.67v.184h2.148V6.19H47V4.256c0-.226.036-.438.107-.632.07-.192.17-.362.293-.503.124-.14.27-.25.433-.33.163-.08.336-.12.517-.12.217 0 .373.068.474.206.103.14.154.32.154.537v2.774h-.668v.184h2.147V6.19h-.67V3.683zM54.045 2.846c-.16-.132-.34-.23-.527-.288-.19-.058-.367-.088-.53-.088-.276 0-.538.058-.778.172-.24.114-.45.267-.63.454-.18.188-.32.405-.423.647-.103.244-.155.498-.155.755 0 .298.05.573.15.815.1.242.24.454.424.63.182.177.4.314.65.408.248.094.52.142.813.142.292 0 .535-.046.72-.138.185-.09.334-.198.444-.32.108-.12.19-.243.24-.364.05-.12.083-.212.1-.277l.01-.032-.19-.037-.01.026c-.02.064-.055.152-.103.266-.044.106-.113.213-.206.316-.092.104-.22.193-.38.267-.16.072-.368.11-.617.11-.247 0-.447-.055-.594-.16-.065-.047-.12-.102-.172-.16-.013-.015-.027-.03-.04-.048-.048-.06-.09-.125-.124-.196-.076-.164-.126-.35-.15-.555-.022-.204-.033-.404-.033-.595 0-.103 0-.173.004-.23.003-.05.004-.1.004-.147h2.676v-.03c0-.323-.055-.597-.165-.814-.106-.218-.243-.395-.405-.528zm-2.093 1.188c.012-.176.037-.347.072-.51.037-.17.093-.322.166-.45.073-.13.168-.23.293-.306.122-.075.28-.113.47-.113.106 0 .207.016.3.046.09.03.166.082.228.152.063.07.114.17.15.292.037.125.056.287.056.478v.217c0 .06-.004.124-.014.194h-1.72zM59.922 2.767h.8l-1.037 2.575-.963-2.575h.568v-.184H57.5v.184h.374l.204.533-.867 2.06-.93-2.593h.708v-.184h-2.155v.184h.6l1.39 3.87.028.076 1.322-3.154 1.18 3.153 1.578-3.946h.47v-.184h-1.478zM67.344 1.13c.067-.1.1-.207.1-.322 0-.08-.02-.17-.063-.27-.04-.098-.107-.19-.197-.275-.09-.083-.205-.154-.344-.21-.14-.057-.31-.085-.503-.085-.26 0-.507.073-.738.218-.23.144-.42.314-.573.506-.06.07-.113.15-.16.235-.048.086-.09.188-.124.3-.035.113-.063.246-.084.397-.022.15-.032.328-.032.53v.43h-.668v.183h.67v3.42h-.67v.184h2.27V6.19h-.792v-3.42h1.077v-.185h-1.077V1.407c0-.43.085-.75.253-.953.168-.2.367-.302.594-.302.105 0 .21.02.31.063.092.038.137.112.137.228 0 .09-.025.174-.076.247-.06.083-.088.178-.088.283 0 .13.055.215.164.255.1.036.188.054.267.054.16 0 .277-.05.347-.153zM65.334.46l-.014.012.014-.012zM70.042 2.728c-.067-.07-.152-.128-.253-.172-.103-.045-.224-.068-.36-.068-.19 0-.354.037-.488.108-.135.072-.25.16-.343.263-.096.102-.17.21-.224.324-.027.057-.05.113-.07.166v-.767h-1.46v.184h.668v3.42h-.67v.184h2.235V6.19h-.757V4.23c0-.24.03-.454.09-.637.06-.185.135-.345.222-.475.088-.13.183-.23.283-.295.097-.065.19-.1.278-.1.186 0 .273.08.273.247 0 .072-.006.127-.018.166-.01.035-.02.068-.037.104-.015.033-.028.065-.04.098-.013.037-.02.083-.02.136 0 .182.14.274.414.274.12 0 .23-.034.322-.1.095-.07.143-.208.143-.41 0-.09-.015-.18-.045-.27-.032-.09-.082-.172-.148-.24zM74.24 6.124c-.062.045-.125.078-.192.1-.064.022-.128.033-.19.033-.09 0-.155-.025-.202-.077-.046-.05-.07-.158-.07-.317V3.7c0-.158-.024-.312-.07-.457-.05-.146-.13-.28-.243-.395-.114-.116-.264-.21-.446-.276-.182-.068-.41-.102-.68-.102-.223 0-.423.027-.595.08-.174.053-.32.126-.436.218-.116.092-.205.2-.264.32-.06.12-.09.247-.09.378 0 .116.025.212.075.286.052.08.177.118.38.118.12 0 .21-.03.275-.09.064-.062.096-.138.096-.228 0-.05-.01-.123-.026-.218-.018-.098-.026-.19-.026-.286 0-.14.056-.236.17-.298.12-.064.275-.096.46-.096.138 0 .25.02.333.058.08.038.143.093.185.165.044.075.075.167.092.27.017.112.026.236.026.37 0 .168-.013.305-.04.405-.023.097-.067.174-.133.238-.067.063-.16.118-.28.163-.13.048-.29.104-.473.165-.178.057-.335.105-.48.147-.162.047-.31.108-.44.18-.136.076-.246.177-.33.302-.083.126-.125.296-.125.503 0 .09.013.188.04.29.027.106.084.203.17.288.082.084.2.155.35.21.147.057.346.085.592.085.217 0 .4-.025.54-.076.142-.05.258-.113.346-.188.087-.077.152-.156.194-.236l.07-.14c.05.19.133.342.25.452.13.124.34.187.624.187.155 0 .288-.023.394-.068.104-.043.198-.095.277-.155l.023-.02-.105-.145-.028.02zm-2.93-.6c0-.195.048-.36.142-.49.095-.13.234-.233.413-.306l.65-.26c.127-.053.213-.106.262-.162v.775c0 .114-.01.242-.03.383-.02.138-.06.268-.12.386-.057.114-.144.213-.258.29-.114.078-.265.117-.448.117-.128 0-.232-.022-.31-.065-.082-.044-.142-.1-.186-.167-.044-.07-.075-.15-.09-.237-.017-.09-.025-.178-.025-.264zM78.436 2.47c-.192 0-.354.05-.483.146-.115.085-.206.18-.27.28-.09-.083-.22-.17-.39-.266-.193-.106-.425-.16-.69-.16-.168 0-.348.03-.533.088s-.356.146-.51.26-.28.257-.38.422c-.1.166-.152.355-.152.563 0 .385.16.7.474.933-.064.03-.134.067-.21.108-.095.052-.188.122-.276.21-.086.085-.16.187-.218.302-.06.116-.09.257-.09.418 0 .31.097.534.287.664.168.115.42.18.752.19-.087.038-.176.083-.268.134-.124.07-.236.155-.333.253-.097.097-.178.21-.24.338-.063.128-.095.27-.095.426 0 .16.04.31.12.44.08.13.193.243.337.336.14.09.308.163.5.216.187.052.4.08.628.08.25 0 .5-.044.74-.13.24-.083.455-.205.64-.36.184-.155.334-.34.446-.552.11-.21.168-.45.168-.71 0-.424-.125-.74-.372-.94-.245-.197-.578-.297-.988-.297H75.66c-.073 0-.145-.006-.212-.017-.067-.01-.126-.03-.177-.058-.05-.027-.09-.065-.122-.12-.032-.05-.048-.12-.048-.2 0-.087.02-.165.057-.232.04-.07.086-.128.145-.18.058-.05.123-.09.193-.124l.19-.09c.08.04.19.085.336.14.154.055.335.083.542.083.2 0 .397-.03.588-.093.192-.062.362-.15.504-.26.145-.113.263-.244.35-.392.09-.15.135-.316.135-.494 0-.213-.043-.394-.127-.537-.075-.13-.136-.222-.186-.282.04-.054.088-.102.14-.144.055-.044.108-.067.158-.067.047 0 .08.018.104.055.024.04.05.086.08.145.027.055.06.106.094.152.04.054.107.082.198.082.076 0 .15-.028.223-.085.075-.058.112-.145.112-.26 0-.173-.056-.29-.165-.344-.105-.047-.217-.073-.336-.073zm-1.022 1.308c0 .374-.062.656-.186.838-.12.178-.328.27-.617.27-.174 0-.318-.026-.43-.076-.11-.05-.198-.124-.264-.22-.066-.097-.113-.214-.138-.348-.025-.137-.04-.292-.04-.463 0-.402.074-.693.22-.867.143-.17.36-.258.644-.258.185 0 .333.034.44.1.107.066.188.154.24.26.053.11.09.232.106.364.017.134.026.268.026.398zm-1.933 3.43c.038-.1.085-.186.144-.257.06-.073.125-.13.2-.18l.223-.137h.93c.298 0 .536.066.706.198.167.13.252.354.252.667 0 .145-.033.287-.097.42s-.158.254-.278.358c-.12.104-.267.188-.433.25-.275.103-.61.13-.96.043-.133-.033-.257-.09-.367-.172-.11-.082-.2-.19-.27-.32s-.104-.3-.104-.502c0-.147.02-.27.055-.367zM82.262 2.728c-.067-.07-.152-.128-.253-.172-.103-.045-.224-.068-.36-.068-.19 0-.354.037-.49.108-.134.072-.25.16-.34.263-.096.102-.17.21-.224.324-.027.058-.05.113-.07.165v-.767h-1.46v.184h.667v3.42h-.668v.184H81.3V6.19h-.757V4.23c0-.24.03-.454.09-.637.06-.186.134-.345.22-.475.09-.13.184-.23.284-.295.097-.065.19-.1.278-.1.186 0 .273.08.273.247 0 .072-.005.127-.017.166-.008.035-.02.068-.036.104-.015.033-.028.065-.04.098-.013.037-.02.083-.02.136 0 .182.14.274.414.274.122 0 .23-.034.323-.1.096-.07.144-.208.144-.41 0-.09-.015-.18-.045-.27-.033-.09-.08-.17-.148-.24zM86.46 6.124c-.062.044-.126.078-.192.1-.064.022-.128.033-.19.033-.09 0-.155-.025-.202-.077-.046-.05-.07-.158-.07-.317V3.7c0-.158-.024-.312-.07-.457-.05-.146-.13-.28-.243-.395-.114-.116-.264-.21-.446-.276-.18-.068-.41-.102-.68-.102-.222 0-.422.027-.594.08-.175.054-.322.127-.436.218-.116.092-.205.2-.265.32-.06.12-.09.247-.09.378 0 .116.025.212.075.286.052.08.177.118.38.118.12 0 .21-.03.275-.09.064-.062.096-.138.096-.228 0-.05-.01-.123-.026-.218-.018-.098-.026-.19-.026-.286 0-.14.056-.236.17-.298.12-.064.275-.096.46-.096.138 0 .25.02.333.058.08.038.143.093.185.165.044.075.075.167.092.27.017.11.025.234.025.37 0 .17-.013.306-.038.405-.025.096-.07.173-.134.237-.067.062-.16.117-.28.162-.13.048-.288.104-.473.165-.178.057-.335.105-.48.147-.162.047-.31.107-.44.18-.136.076-.246.177-.33.302-.083.126-.125.296-.125.503 0 .09.013.187.04.29.027.105.084.202.17.287.082.084.2.155.35.21.147.057.346.085.592.085.217 0 .4-.025.54-.076.142-.05.258-.113.346-.188.087-.076.152-.155.194-.235l.07-.14c.05.19.134.342.25.453.13.124.34.187.624.187.155 0 .288-.023.394-.068.105-.043.198-.096.277-.155l.023-.02-.106-.145-.028.02zm-1.464-1.818v.775c0 .114-.01.242-.03.383-.02.138-.06.268-.12.386-.057.114-.144.213-.258.29-.113.078-.264.117-.447.117-.127 0-.23-.022-.31-.065-.08-.044-.14-.1-.185-.167-.044-.07-.075-.15-.09-.237-.016-.09-.025-.178-.025-.264 0-.195.047-.36.14-.49.095-.13.234-.233.413-.306l.652-.26c.126-.053.213-.107.26-.162zM91.025 3.683c0-.413-.125-.72-.373-.91-.245-.19-.566-.286-.953-.286-.254 0-.47.04-.648.12-.177.08-.326.178-.443.29-.12.11-.213.227-.28.344l-.112.205v-.862h-1.46v.184h.668v3.42h-.67v.184h2.148V6.19h-.67V4.256c0-.226.037-.438.107-.632.072-.192.17-.36.295-.503.124-.14.27-.25.433-.33.163-.08.336-.12.517-.12.214 0 .374.07.474.206.102.138.153.32.153.537v2.774h-.67v.184h2.148V6.19h-.668V3.683zM95.593 5.35c-.022.064-.056.152-.104.267-.045.105-.115.212-.208.316-.092.104-.22.193-.38.267-.16.073-.368.11-.617.11-.23 0-.42-.046-.56-.138-.142-.092-.256-.22-.337-.38-.082-.162-.14-.353-.17-.567-.03-.215-.047-.45-.047-.7 0-.436.037-.784.108-1.033.07-.25.16-.437.27-.56.11-.123.23-.2.357-.23.318-.075.612-.063.833.058.124.067.184.16.184.28 0 .072-.02.165-.06.277-.042.122-.062.222-.062.306 0 .117.05.2.152.25.095.045.194.068.296.068.153 0 .273-.04.356-.125.084-.084.127-.192.127-.322 0-.186-.046-.345-.14-.475-.093-.127-.21-.232-.348-.312-.137-.08-.292-.14-.46-.178-.467-.106-.9-.062-1.288.097-.25.103-.468.247-.653.428-.183.18-.33.397-.44.644-.108.246-.163.516-.163.803 0 .368.064.682.19.935.126.252.292.458.49.614s.423.27.663.338c.238.07.473.106.695.106.292 0 .535-.046.72-.138.186-.09.335-.198.444-.32.108-.12.19-.242.24-.364.05-.12.083-.212.1-.277l.01-.032-.19-.038-.007.024zM92.62 3.432l.06-.088-.06.088zM97.356 4.218h2.675v-.03c0-.323-.054-.597-.164-.814-.11-.218-.247-.396-.407-.527-.162-.132-.34-.23-.528-.288-.19-.06-.367-.09-.53-.09-.276 0-.54.058-.778.172-.24.114-.45.267-.63.454-.18.188-.32.405-.423.647-.102.243-.154.497-.154.755 0 .298.05.573.15.815.1.243.242.455.424.63.182.177.4.314.65.408.248.094.522.142.813.142.292 0 .535-.046.72-.138.186-.09.335-.198.444-.32.11-.12.19-.242.24-.364.05-.12.084-.212.102-.277l.008-.032-.19-.037-.01.026c-.02.064-.055.152-.103.267-.044.105-.114.212-.207.316-.092.104-.22.193-.38.267-.16.073-.368.11-.617.11-.246 0-.446-.054-.593-.16-.065-.046-.12-.1-.172-.16-.014-.015-.028-.03-.04-.048-.048-.06-.09-.125-.124-.197-.076-.165-.126-.352-.148-.555-.023-.208-.035-.408-.035-.596 0-.092 0-.17.004-.23.004-.05.005-.098.006-.146zm.01-.184c.012-.176.037-.347.072-.51.037-.17.093-.322.166-.45.073-.13.168-.23.293-.307.12-.074.28-.112.47-.112.105 0 .206.016.297.046.09.03.167.082.23.152s.113.17.15.292c.038.125.056.286.056.478v.217c0 .057-.004.12-.014.194h-1.72z"/></g></svg>