<svg xmlns="http://www.w3.org/2000/svg" viewBox="0 0 100 15" enable-background="new 0 0 100 15"><g fill="#00f"><path d="M7.422 6.147c-.03 0-.054.02-.06.048-.188.77-.487 1.385-.89 1.828-.397.438-.956.66-1.66.66h-2.14V.347h1.31c.036 0 .063-.028.063-.062V.11c0-.034-.028-.06-.062-.06H0c-.035 0-.062.027-.062.06v.174c0 .035.028.062.062.062h1.31v8.336H0c-.035 0-.062.028-.062.062v.173c0 .035.028.062.062.062h7.558c.035 0 .062-.03.062-.063V6.21c0-.036-.028-.063-.062-.063h-.136zM9.908 1.448c.2 0 .37-.07.508-.21.14-.14.21-.31.21-.507s-.07-.368-.21-.507c-.14-.14-.31-.21-.508-.21s-.37.07-.508.21c-.14.14-.21.31-.21.507s.07.368.21.508c.14.14.31.21.508.21zM10.527 8.683v-5.07c0-.036-.028-.063-.062-.063H8.45c-.036 0-.063.028-.063.062v.173c0 .035.028.062.062.062h.89v4.835h-.89c-.036 0-.063.028-.063.062v.173c0 .035.028.062.062.062h2.968c.035 0 .062-.03.062-.063v-.17c0-.036-.028-.063-.062-.063h-.89zM17.578 3.39c-.276 0-.512.07-.7.21-.157.117-.284.246-.376.384-.128-.113-.31-.236-.545-.365-.276-.154-.61-.23-.99-.23-.243 0-.5.04-.767.126-.265.084-.51.21-.73.375-.22.165-.403.37-.547.606-.146.24-.22.513-.22.812 0 .545.22.99.66 1.325-.086.042-.178.09-.274.142-.14.076-.275.178-.4.3-.123.126-.228.272-.313.437-.087.168-.13.372-.13.604 0 .45.14.772.416.96.23.157.566.248 1.004.272-.104.048-.21.102-.313.16-.178.103-.338.225-.477.364-.14.142-.258.306-.346.487-.09.185-.135.39-.135.614 0 .233.06.448.176.64.117.187.28.35.484.483.204.13.444.235.716.31.27.076.575.114.9.114.36 0 .716-.06 1.06-.182.345-.123.653-.297.917-.52.264-.22.48-.487.64-.79.16-.306.242-.648.242-1.02 0-.61-.182-1.066-.538-1.354-.352-.284-.83-.428-1.418-.428H13.62c-.104 0-.205-.008-.3-.024-.09-.015-.173-.042-.246-.08-.068-.036-.124-.09-.167-.163-.043-.073-.065-.167-.065-.278 0-.122.026-.227.08-.322.053-.096.12-.18.202-.25.083-.07.173-.13.27-.176.093-.044.18-.085.264-.123.117.057.276.122.474.194.22.08.482.122.776.122.286 0 .57-.045.842-.133.274-.088.518-.215.724-.375.207-.16.376-.35.504-.562.13-.215.194-.455.194-.712 0-.306-.06-.566-.182-.774-.102-.175-.188-.304-.258-.39.056-.07.12-.135.188-.19.143-.118.283-.125.347-.023.04.062.078.13.115.205.038.076.083.15.136.22.062.082.162.124.297.124.113 0 .224-.042.33-.125.11-.086.166-.215.166-.382 0-.255-.082-.426-.244-.507-.15-.074-.314-.11-.488-.11zm-1.473 1.88c0 .53-.088.927-.26 1.183-.17.252-.454.375-.865.375-.246 0-.45-.036-.605-.106-.153-.07-.278-.172-.37-.306-.094-.138-.16-.303-.194-.49-.036-.194-.054-.416-.054-.656 0-.567.104-.98.307-1.222.2-.24.505-.36.905-.36.26 0 .467.046.617.138.15.092.263.214.335.364.075.154.125.327.15.512.023.19.035.38.035.568zM13.588 9.8c.082-.103.176-.188.282-.253.105-.067.21-.13.312-.194H15.5c.42 0 .756.093.995.277.234.18.353.495.353.934 0 .204-.046.403-.136.59-.09.19-.222.36-.393.506-.172.147-.378.266-.613.354-.39.144-.866.18-1.355.06-.19-.048-.363-.13-.516-.244-.152-.113-.28-.264-.378-.448-.098-.184-.147-.422-.147-.708 0-.206.026-.38.077-.516.05-.136.118-.257.2-.36zM24.543 8.683v-3.55c0-.594-.18-1.035-.538-1.31-.352-.272-.812-.41-1.368-.41-.344 0-.646.054-.896.16-.248.105-.46.233-.634.38-.173.147-.312.307-.415.473-.044.074-.084.143-.118.206V0c0-.035-.028-.062-.062-.062h-2.017c-.035 0-.062.028-.062.062v.173c0 .035.03.062.063.062h.89v8.447h-.89c-.035 0-.062.028-.062.062v.173c0 .035.03.062.063.062h2.97c.034 0 .06-.03.06-.063v-.17c0-.036-.027-.063-.06-.063h-.89V5.95c0-.322.05-.623.15-.894.1-.27.24-.51.415-.71.174-.2.38-.356.61-.468.23-.11.475-.167.73-.167.302 0 .52.094.66.285.144.194.217.448.217.754V8.68h-.89c-.035 0-.062.028-.062.062v.173c0 .035.028.062.062.062h2.97c.034 0 .06-.03.06-.063v-.17c0-.036-.027-.063-.06-.063h-.892zM29.77 7.82c-.017-.005-.035-.002-.05.006-.017.01-.028.025-.03.043-.048.26-.158.492-.328.693-.167.197-.38.293-.65.293-.077 0-.156-.012-.238-.035-.076-.02-.147-.067-.212-.137-.067-.07-.123-.175-.166-.31-.043-.136-.065-.32-.065-.543V3.848h1.695c.035 0 .062-.028.062-.062v-.174c0-.035-.028-.062-.062-.062H28.03V1.917c0-.024-.013-.046-.035-.056-.02-.01-.047-.006-.066.008-.076.062-.157.106-.24.132-.083.027-.185.04-.303.04-.167 0-.244-.01-.28-.02-.056-.017-.116-.037-.18-.062-.02-.007-.04-.004-.06.007-.016.012-.026.03-.026.05V3.55h-.89c-.034 0-.06.027-.06.06v.174c0 .035.027.062.06.062h.89v3.87c0 .453.13.81.384 1.06.255.25.705.376 1.337.376.255 0 .473-.042.647-.124.172-.082.314-.187.422-.312.106-.124.187-.257.24-.396.05-.137.087-.257.113-.367.007-.03-.01-.062-.04-.073l-.172-.06zM39.45 8.683v-5.07c0-.036-.03-.063-.063-.063h-2.004c-.035 0-.062.028-.062.062v.173c0 .035.03.062.063.062h.877v2.807c0 .337-.053.644-.156.912-.105.27-.237.503-.392.694-.156.19-.33.34-.514.442-.185.102-.364.153-.533.153-.2 0-.365-.037-.487-.11-.124-.073-.222-.17-.3-.3-.078-.127-.13-.28-.16-.453-.027-.178-.04-.375-.04-.584V3.612c0-.035-.03-.062-.063-.062H33.6c-.036 0-.063.028-.063.062v.173c0 .035.028.062.062.062h.89v3.45c0 .253.02.468.063.64.042.174.094.32.154.43.062.114.13.205.206.27.072.065.14.12.197.16.12.086.283.166.498.243.212.076.49.115.825.115.28 0 .526-.045.736-.135.206-.088.39-.205.548-.345.157-.14.29-.3.395-.472.063-.103.122-.207.175-.31v1.026c0 .034.028.06.062.06h1.992c.035 0 .062-.027.062-.06v-.174c0-.035-.028-.062-.062-.062h-.893zM46.594 4.243c-.243-.255-.527-.463-.847-.62-.32-.155-.667-.234-1.03-.234-.465 0-.85.118-1.145.353-.228.182-.407.403-.535.66v-.79c0-.036-.028-.063-.062-.063h-1.992c-.035 0-.062.028-.062.062v.173c0 .035.03.062.063.062h.89v8.3h-.89c-.035 0-.062.027-.062.06v.175c0 .035.03.062.063.062h2.97c.034 0 .06-.028.06-.062v-.174c0-.035-.027-.062-.06-.062h-.89V8.158l.04.09c.07.14.17.28.296.41.128.135.294.25.493.348.2.1.45.148.738.148.372 0 .73-.08 1.06-.24.332-.16.627-.376.88-.645.25-.27.452-.58.6-.93.146-.348.22-.72.22-1.106 0-.376-.072-.743-.215-1.088-.143-.344-.34-.648-.58-.903zm-.566 1.843c0 .42-.012.812-.037 1.165-.023.343-.084.638-.18.88-.094.234-.236.416-.422.54-.186.125-.445.188-.77.188-.33 0-.6-.07-.798-.212-.2-.14-.358-.326-.47-.55-.11-.23-.188-.488-.228-.768-.04-.283-.062-.563-.062-.833 0-.315.006-.595.02-.832.01-.23.034-.438.066-.617.032-.176.074-.33.126-.458.05-.125.12-.245.208-.357.117-.155.272-.287.462-.39.188-.102.432-.153.725-.153.275 0 .504.055.678.164s.312.267.41.47c.1.207.17.46.21.754.043.296.063.636.063 1.012zM55.438 7.82c-.017-.005-.036-.002-.052.006-.016.01-.027.025-.03.043-.047.26-.157.492-.327.693-.168.197-.38.293-.652.293-.076 0-.155-.012-.236-.035-.076-.02-.147-.067-.213-.137-.07-.07-.124-.175-.166-.31-.043-.137-.065-.32-.065-.543V3.848h1.693c.035 0 .062-.028.062-.062v-.174c0-.035-.028-.062-.062-.062H53.7V1.917c0-.024-.015-.046-.037-.056-.02-.01-.047-.006-.066.008-.076.062-.157.106-.24.132-.083.027-.185.04-.302.04-.134 0-.228-.006-.28-.02-.056-.017-.116-.037-.18-.062-.02-.007-.042-.004-.06.007s-.025.03-.025.05V3.55h-.89c-.035 0-.062.027-.062.06v.174c0 .035.028.062.062.062h.89v3.87c0 .453.13.81.384 1.06s.704.376 1.337.376c.255 0 .473-.042.646-.124.172-.082.314-.187.423-.313.106-.125.187-.258.24-.396.05-.138.088-.258.113-.368.007-.03-.01-.062-.04-.073l-.175-.06zM61.888 8.683v-3.55c0-.594-.18-1.036-.538-1.31-.35-.272-.812-.41-1.368-.41-.345 0-.646.054-.896.16-.25.105-.462.233-.635.38-.172.147-.31.306-.414.473-.045.074-.085.143-.12.206V0c0-.035-.027-.062-.06-.062h-2.018c-.035 0-.062.028-.062.062v.173c0 .035.028.062.062.062h.89v8.447h-.89c-.035 0-.062.028-.062.062v.173c0 .035.028.062.062.062h2.97c.034 0 .06-.03.06-.063v-.17c0-.036-.027-.063-.06-.063h-.89V5.95c0-.323.05-.624.15-.894.1-.272.24-.51.414-.71.174-.2.38-.356.61-.468.23-.11.475-.167.728-.167.303 0 .52.094.66.285.145.194.218.448.218.754V8.68h-.89c-.035 0-.062.028-.062.062v.173c0 .035.028.062.062.062h2.97c.034 0 .06-.03.06-.063v-.17c0-.036-.027-.063-.06-.063h-.89zM67.944 3.93c-.232-.19-.487-.33-.757-.414-.27-.084-.525-.127-.76-.127-.396 0-.77.082-1.116.246-.343.164-.647.383-.902.65-.256.27-.46.582-.606.93-.147.347-.22.71-.22 1.08 0 .428.07.82.214 1.168.142.348.347.652.608.906.26.253.575.45.93.583.357.134.75.202 1.168.202.42 0 .77-.066 1.036-.198s.48-.286.637-.46c.157-.173.272-.35.345-.524.07-.17.12-.303.145-.397.005-.017.002-.035-.007-.05s-.025-.026-.042-.03l-.186-.036c-.033-.005-.062.012-.07.042-.035.1-.084.228-.148.38-.062.148-.16.298-.292.446-.13.146-.31.27-.536.375-.227.103-.52.155-.87.155s-.63-.075-.836-.224c-.21-.15-.37-.34-.475-.57-.108-.23-.18-.494-.21-.783-.033-.294-.05-.58-.05-.846 0-.13.002-.24.006-.325l.005-.195h3.748c.035 0 .062-.028.062-.062 0-.46-.08-.854-.235-1.166-.156-.313-.353-.568-.586-.758zm-2.972 1.685c.018-.244.05-.48.1-.704.05-.238.13-.453.234-.637.102-.18.24-.324.412-.43.17-.103.393-.157.66-.157.148 0 .29.022.42.064.125.042.23.11.318.21.088.1.16.238.21.41.052.176.078.403.078.675v.31c0 .08-.006.166-.017.258h-2.415zM76.74 7.82c-.018-.005-.036-.002-.052.006-.016.01-.027.025-.03.043-.047.26-.157.492-.327.693-.166.197-.378.293-.65.293-.076 0-.155-.012-.236-.035-.077-.02-.147-.065-.214-.136-.067-.07-.123-.175-.165-.31-.043-.138-.065-.32-.065-.544V3.848h1.694c.035 0 .062-.028.062-.062v-.174c0-.035-.028-.062-.062-.062H75V1.917c0-.024-.014-.046-.036-.056-.02-.01-.047-.006-.066.008-.076.062-.156.106-.24.132-.082.027-.184.04-.3.04-.135 0-.23-.006-.28-.02-.057-.017-.117-.037-.182-.062-.02-.007-.04-.004-.058.007s-.027.03-.027.05V3.55h-.89c-.034 0-.06.027-.06.06v.174c0 .035.027.062.06.062h.89v3.87c0 .453.13.81.385 1.06.254.25.704.376 1.336.376.256 0 .473-.042.647-.124.173-.082.315-.188.422-.312.107-.125.187-.258.24-.396.05-.14.09-.26.113-.367.007-.03-.01-.062-.04-.073l-.173-.06zM82.247 4.203c-.28-.255-.6-.457-.946-.6-.695-.285-1.366-.285-2.062 0-.347.143-.666.344-.946.6-.28.256-.515.564-.694.915-.18.354-.273.742-.273 1.154 0 .395.085.772.254 1.122.167.35.39.656.66.914.272.26.588.467.94.62.354.15.72.227 1.09.227.37 0 .735-.077 1.087-.228.353-.15.668-.36.94-.62.27-.257.494-.565.663-.914s.253-.727.253-1.122c0-.41-.092-.8-.273-1.153-.178-.35-.412-.658-.693-.914zm-.395 2.068c0 .578-.045 1.043-.134 1.383-.088.337-.205.597-.347.775-.14.175-.304.29-.488.344-.38.112-.845.112-1.227 0-.185-.054-.35-.17-.488-.344-.143-.178-.26-.438-.347-.774-.09-.34-.134-.805-.134-1.382 0-.49.033-.904.098-1.23.063-.325.162-.592.293-.795.128-.198.292-.342.486-.428.197-.088.435-.132.705-.132s.507.044.705.13c.195.087.358.23.486.43.13.203.23.47.293.794.066.328.1.742.1 1.23zM90.784 3.55c-.035 0-.062.027-.062.06v.174c0 .035.028.062.062.062h1.07l-1.452 3.6-1.347-3.6h.74c.034 0 .06-.028.06-.062v-.172c0-.035-.027-.062-.06-.062H87.33c-.035 0-.062.028-.062.062v.173c0 .035.028.062.062.062h.477l.284.74-1.215 2.885-1.302-3.625h.938c.035 0 .062-.028.062-.062v-.173c0-.035-.028-.062-.062-.062h-2.98c-.036 0-.063.028-.063.062v.173c0 .035.028.062.062.062h.797l1.977 5.5c.007.025.028.035.058.042.025 0 .048-.016.058-.04l1.82-4.345 1.626 4.343c.01.024.032.04.058.04.025 0 .048-.015.058-.04l2.198-5.5h.614c.035 0 .062-.03.062-.063v-.173c0-.035-.028-.062-.062-.062h-2.016zM100 8.683h-.89v-3.55c0-.594-.182-1.035-.538-1.31-.352-.272-.812-.41-1.368-.41-.362 0-.674.058-.93.172-.252.115-.466.254-.634.415-.168.16-.303.327-.4.497-.047.08-.09.156-.126.224V3.613c0-.035-.028-.062-.062-.062H93.06c-.035 0-.062.028-.062.062v.173c0 .035.028.062.062.062h.89v4.835h-.89c-.035 0-.062.028-.062.062v.173c0 .035.028.062.062.062h2.97c.034 0 .06-.03.06-.063v-.17c0-.036-.027-.063-.06-.063h-.89V5.95c0-.322.05-.623.15-.894.1-.272.24-.51.415-.71.175-.2.38-.356.612-.468.23-.11.474-.167.727-.167.303 0 .52.094.66.285.145.194.218.448.218.754V8.68h-.89c-.035 0-.062.028-.062.062v.173c0 .035.028.062.062.062H100c.035 0 .062-.03.062-.063v-.17c0-.036-.027-.064-.062-.064z"/></g></svg>