<svg xmlns="http://www.w3.org/2000/svg" viewBox="0 0 100 30" enable-background="new 0 0 100 30"><g fill="#fff"><path d="M15.625 25.9h-1.098v-.21h2.435v.21h-1.098v2.15h-.24V25.9zM18.365 25.69h.24v1.01h1.92v-1.012h.24v2.362h-.24v-1.14h-1.92v1.14h-.24v-2.36zM22.366 25.69h2.075v.21h-1.834v.81h1.532v.204h-1.532v.93h1.867v.206h-2.106v-2.36zM27.444 27.422l.214-.054c.096.306.47.53 1.072.53.654 0 .967-.16.967-.46 0-.38-.434-.425-.996-.49-.57-.07-1.123-.15-1.123-.668 0-.39.37-.638 1.11-.638.744 0 1.083.29 1.19.57l-.222.078c-.092-.236-.393-.44-.967-.44-.597 0-.874.162-.874.414 0 .345.395.405.91.47.606.07 1.206.136 1.206.688 0 .405-.357.676-1.194.676-.77 0-1.174-.303-1.292-.676zM31.394 27.237V25.69h.24v1.544c0 .434.382.65.96.65s.97-.213.97-.634v-1.56h.233v1.563c0 .54-.466.843-1.203.843-.74 0-1.2-.304-1.2-.86zM35.373 25.69h.24v2.153h1.802v.207h-2.043v-2.36zM39.16 25.9h-1.098v-.21h2.436v.21H39.4v2.15h-.24V25.9zM41.9 25.69h1.538c.55 0 .843.238.843.656 0 .335-.203.562-.605.62l.622 1.084h-.258l-.608-1.053H42.14v1.053h-.24v-2.36zm1.535 1.103c.405 0 .61-.166.61-.44 0-.278-.204-.456-.61-.456H42.14v.897h1.295zM46.706 27.004l-1.232-1.315h.27l1.086 1.148 1.092-1.15h.265l-1.242 1.316v1.047h-.24v-1.046zM51.238 25.69h2.04v.21h-1.8v.842h1.496v.198h-1.497v1.11h-.24v-2.36zM54.696 25.69h1.538c.55 0 .843.238.843.656 0 .335-.204.562-.606.62l.623 1.084h-.258l-.607-1.053h-1.292v1.053h-.24v-2.36zm1.535 1.103c.407 0 .61-.166.61-.44 0-.278-.203-.456-.61-.456h-1.294v.897h1.295zM59.604 25.663h.265l1.247 2.387h-.26l-.375-.715h-1.51l-.377.715h-.24l1.25-2.387zm.775 1.47l-.655-1.24-.65 1.24h1.304zM62.16 26.854c0-.718.503-1.213 1.39-1.213.72 0 1.15.32 1.294.72l-.227.07c-.116-.32-.515-.58-1.066-.58-.7 0-1.148.378-1.148.997 0 .635.367 1.047 1.165 1.047.61 0 1.05-.293 1.073-.753h-.99v-.197h1.22v1.107h-.202v-.51c-.077.204-.41.558-1.124.558-.983 0-1.385-.533-1.385-1.244zM66.432 25.69h1.538c.55 0 .843.238.843.656 0 .335-.204.562-.607.62l.622 1.084h-.258l-.606-1.053H66.67v1.053h-.238v-2.36zm1.535 1.103c.406 0 .61-.166.61-.44 0-.278-.204-.456-.61-.456H66.67v.897h1.297zM71.34 25.663h.265l1.248 2.387h-.26l-.376-.715h-1.51l-.377.715h-.24l1.25-2.387zm.776 1.47l-.655-1.24-.65 1.24h1.306zM74.26 25.69h.264l1.93 2.042V25.69h.23v2.36h-.232l-1.96-2.08v2.08h-.232v-2.36zM78.168 26.857c0-.754.542-1.216 1.395-1.216.724 0 1.136.346 1.276.725l-.224.074c-.118-.314-.47-.59-1.053-.59-.747 0-1.152.41-1.152 1.007 0 .6.355 1.034 1.15 1.034.68 0 .976-.357 1.074-.618l.22.076c-.13.335-.507.75-1.295.75-.92 0-1.392-.48-1.392-1.24zM82.325 25.69H84.4v.21h-1.834v.81h1.53v.204h-1.53v.93h1.867v.206h-2.107v-2.36z"/></g></svg>