<?xml version="1.0" standalone="no"?>
<!DOCTYPE svg PUBLIC "-//W3C//DTD SVG 1.1//EN" "http://www.w3.org/Graphics/SVG/1.1/DTD/svg11.dtd" >
<svg xmlns="http://www.w3.org/2000/svg" xmlns:xlink="http://www.w3.org/1999/xlink" version="1.1">
<metadata></metadata>
<defs>
<font id="at_sackers_english_scriptRg" horiz-adv-x="909" >
<font-face units-per-em="2048" ascent="1638" descent="-410" />
<missing-glyph horiz-adv-x="493" />
<glyph horiz-adv-x="0" />
<glyph unicode="&#xd;" horiz-adv-x="681" />
<glyph unicode=" "  horiz-adv-x="493" />
<glyph unicode="&#x09;" horiz-adv-x="493" />
<glyph unicode="&#xa0;" horiz-adv-x="493" />
<glyph unicode="!" horiz-adv-x="569" d="M344 53.5q0 20.5 16.5 36.5t37 16t37 -16t16.5 -36.5t-16.5 -37t-37 -16.5t-37 16.5t-16.5 37zM510 244q0 8 39 57l653 887q41 57 68 57q20 0 38.5 -13t18.5 -30q0 -33 -37 -74l-715 -849q-39 -49 -49 -50q-16 0 -16 15z" />
<glyph unicode="#" horiz-adv-x="1138" d="M397 293l27 41h229l217 321h-229l29 41h227l166 244h53l-166 -244h248l166 244h53l-166 -244h262l-28 -41h-260l-217 -321h260l-27 -41h-262l-197 -293h-53l197 293h-248l-197 -293h-53l197 293h-228zM707 334h247l217 321h-247z" />
<glyph unicode="$" d="M238 186q0 45 23.5 79t55.5 34q27 0 46.5 -17.5t19.5 -43.5q0 -25 -17.5 -43.5t-39.5 -18.5q-43 0 -60 37h-4q0 -8 -2 -21.5t-2 -19.5q0 -88 115 -135l354 422q-14 129 -14 168q0 143 98 229t246 86q37 0 63 -8l58 63q2 2 6 2t4 -4t-2 -6l-49 -59q115 -51 114 -148 q0 -37 -20.5 -61.5t-48.5 -24.5q-27 0 -45.5 17.5t-18.5 44.5q0 23 18.5 40t43.5 17q33 0 47 -31h4v11q0 49 -34 78.5t-71 41.5l-317 -378q37 -178 37 -232q0 -106 -61.5 -179t-138.5 -99.5t-157 -26.5q-47 0 -108 16l-80 -92q-6 -6 -12 -6t-6 6l79 99q-125 63 -124 163z M389 31q45 -14 96 -15q111 0 190 54.5t79 177.5q0 40 -25 192zM795 690q0 -22 10 -131l305 361q-25 6 -51 6q-102 0 -183 -60.5t-81 -175.5z" />
<glyph unicode="&#x26;" horiz-adv-x="1478" d="M707 174q0 106 94 212t319 269q10 231 115 336q74 74 156 74q35 0 56 -22.5t21 -57.5q0 -57 -53 -113.5t-213 -183.5q16 -211 74 -407q125 174 178 225q41 39 89 62.5t77 23.5q23 0 38 -16.5t15 -38.5q0 -25 -17.5 -41.5t-40 -16.5t-35.5 12.5t-13 32.5q0 6 3 16.5 t3 16.5t-4 6q-33 0 -99 -61q-39 -35 -182 -248q43 -100 99.5 -151.5t142.5 -51.5q59 0 144 37t120 80q14 20 27 20q10 0 10 -8q0 -23 -53.5 -66.5t-94.5 -66.5q-92 -47 -192 -47q-182 0 -272 160q-82 -88 -153 -130t-155 -42q-82 0 -143 53t-61 133zM799 193q0 -61 42 -97.5 t120 -36.5q66 0 113.5 26t131.5 99q-37 94 -52 182.5t-32 268.5q-162 -117 -242.5 -220.5t-80.5 -221.5zM1200 709q109 86 149 119.5t71.5 75.5t31.5 79q0 29 -19.5 47.5t-46.5 18.5q-68 0 -127 -94.5t-59 -200.5v-45z" />
<glyph unicode="(" horiz-adv-x="720" d="M256 -172q0 203 91 412t211 358.5t285 299t264 220t198 133.5l172 109q4 2 6 2q4 0 4 -6l-6 -6l-86 -62q-115 -82 -245 -193.5t-290 -282.5t-284.5 -348t-209.5 -393t-85 -413v-39q0 -8 -6.5 -8t-6.5 8l-6 64q-6 53 -6 145z" />
<glyph unicode=")" horiz-adv-x="720" d="M-176 -383l6 6l86 62q115 82 245 193.5t289.5 282.5t284.5 348t210 393t85 413v39q0 8 6 8t6 -8l7 -64q6 -53 6 -145q0 -203 -91.5 -412t-211 -358.5t-284.5 -299t-264.5 -220.5t-197.5 -134l-172 -108q-4 -2 -6 -2q-4 0 -4 6z" />
<glyph unicode="*" d="M993 1243q0 10 9.5 24.5t23.5 14.5q8 0 35 -20l53 -41q18 -16 18.5 -22.5t-7 -14.5t-11.5 -8t-29 8l-65 28q-27 12 -27 31zM995 1087q0 19 27 31l65 29q25 8 29 8t11.5 -8t7.5 -14.5t-19 -22.5l-53 -41q-27 -20 -35 -20q-14 0 -23.5 14t-9.5 24zM1130 1323 q0 16 10.5 27.5t25 11.5t24.5 -11.5t10 -27.5l-12 -82q-8 -35 -17 -35h-10q-12 0 -16 35zM1133 1006l14 86q4 35 16 34h11q8 1 16 -34l12 -86q0 -16 -10 -27.5t-24.5 -11.5t-24.5 11t-10 28zM1202 1200q0 4 19 23l45 45q20 20 34 20q18 0 29.5 -14t11.5 -25q1 -20 -28 -30 l-66 -29q-23 -10 -28 -10q-4 0 -10.5 7t-6.5 13zM1204.5 1132.5q-0.5 6.5 7 14.5t11 8t28.5 -8l66 -29q27 -12 26 -31q0 -10 -9 -24t-23 -14q-8 0 -35 20l-53 41q-18 16 -18.5 22.5z" />
<glyph unicode="," horiz-adv-x="493" d="M156 -133q0 8 8 8l39 14q102 39 114 113q-12 -6 -26 -6q-51 0 -51 53q0 23 15 40t37.5 17t38 -19t15.5 -46q0 -53 -30.5 -96.5t-73.5 -57.5l-60 -20q-8 -2 -14 -4q-4 -2 -6 -2q-6 0 -6 6z" />
<glyph unicode="-" horiz-adv-x="454" d="M172 209l31 37h313l-31 -37h-313z" />
<glyph unicode="." horiz-adv-x="493" d="M223 53.5q0 20.5 15.5 36.5t38 16t38 -16t15.5 -36.5t-15.5 -37t-38 -16.5t-38 16.5t-15.5 37z" />
<glyph unicode="/" horiz-adv-x="454" d="M86 -123l872 1231h35l-872 -1231h-35z" />
<glyph unicode="0" d="M340 156q0 129 137 313t321.5 318.5t307.5 134.5q61 0 106 -41t45 -103q0 -111 -141 -299t-327.5 -333.5t-299.5 -145.5q-66 0 -107.5 43t-41.5 113zM397 96q0 -37 27 -58.5t72 -21.5q121 0 296 157t300 347.5t125 288.5q0 45 -30 68.5t-67 23.5q-96 0 -273 -167 t-313.5 -361.5t-136.5 -276.5z" />
<glyph unicode="1" d="M379 360q0 2 4 7l51 26q80 41 203 116t188 126q70 53 163 133t106 88l75 53q2 2 7 2q6 0 6 -4q0 -2 -6 -8l-31 -25q-92 -74 -162 -176q-39 -59 -111.5 -192t-113.5 -201q-84 -139 -232 -305h-94q6 23 23.5 46.5t52.5 68.5t67 94q61 94 148.5 230t122.5 188l-4 4 q-180 -135 -332 -211l-123 -64q-8 0 -8 4z" />
<glyph unicode="2" d="M180 4q0 4 4 8l41 54q63 84 161.5 147t183.5 94t171 70t125 78q123 119 184.5 217t61.5 137q0 35 -28.5 60.5t-73.5 25.5q-88 0 -199 -116.5t-111 -182.5q0 -43 48 -43q72 0 133 68.5t86 140.5l12 37q0 6 6 6q4 0 4 -4t-2 -10l-10 -33q-25 -76 -89.5 -147.5t-142.5 -71.5 q-41 0 -71.5 23.5t-30.5 70.5q0 104 114.5 191t237.5 87q72 0 125.5 -44t53.5 -115q0 -252 -355 -373l-203 -70q-207 -72 -329 -196l4 -4q74 39 123 38q53 0 155 -36q94 -39 131 -39q90 0 174 78l44 38h2q2 2 4 2q4 0 4 -4t-6 -10l-39 -39q-61 -61 -136 -102t-137 -41 q-57 0 -147 43q-94 41 -135 41q-49 0 -109 -49l-29 -25q-4 -4 -6 -4q-4 0 -4 4z" />
<glyph unicode="3" d="M262 150q0 49 37 90t78 41q23 0 39 -14.5t16 -37.5q0 -20 -15.5 -34.5t-36 -14.5t-34.5 15.5t-14 33.5q0 4 4 21q-59 -35 -60 -103q0 -61 43 -95t119 -34q109 0 223.5 92.5t181 194t66.5 150.5q0 20 -17.5 33.5t-41.5 13.5q-39 -2 -73 -19.5t-36 -17.5q-6 0 -6 6 q0 14 62 35l65 22q43 12 103 62q61 51 107 116.5t46 106.5q0 80 -114 80q-98 0 -192.5 -99.5t-94.5 -156.5q0 -14 14 -24.5t31 -10.5q66 0 127 61.5t86 116.5l10 25q6 6 8 6q4 0 4 -6q0 -4 -2 -4l-8 -25q-20 -55 -89 -122.5t-146 -67.5q-39 0 -68 26.5t-29 65.5 q0 92 103.5 162.5t224.5 70.5q82 0 139.5 -41t57.5 -112q0 -35 -9.5 -65.5t-32 -53.5t-41 -39t-53 -31.5t-51 -22.5t-54.5 -19.5t-44 -14.5q27 -18 38 -27.5t27.5 -37t16.5 -62.5q0 -139 -171 -262t-347 -123q-88 0 -142.5 39t-54.5 111z" />
<glyph unicode="4" d="M193 172q0 55 184 115l108 180q92 154 213 307q78 92 111 115q61 12 81.5 12t20.5 -10l-2 -2v-6q-131 -164 -141 -176l-147 -203q-27 -37 -51.5 -66.5t-37 -43t-49.5 -51.5t-51 -54q84 0 139 -6q74 -8 134 -21l151 219q180 260 381 389l53 35l13 6q6 0 6 -4l-6 -6 l-52 -43q-68 -57 -136 -152.5t-136 -211t-88 -146.5l-76 -108q37 -4 55 -4q82 0 150 30l14 6q6 2 8 2t2 -4q0 -2 -6 -8l-30 -14q-49 -27 -136 -27q-24 0 -65 4l-154 -184q-37 -41 -51 -41h-51q-16 0 -16 10q0 14 49 80l110 158q-82 18 -125 22q-45 4 -147 4 q-160 -131 -194.5 -131t-34.5 29zM207 176q0 -16 20 -16q43 0 129 98q-41 -4 -95 -33.5t-54 -48.5z" />
<glyph unicode="5" d="M246 137q0 39 26.5 71t71.5 32q23 0 39 -14.5t16 -35.5q0 -23 -14 -38t-37 -15q-20 0 -35.5 16.5t-15.5 36.5q0 10 4 19l-4 4q-2 -2 -10 -12.5t-12.5 -17.5t-9.5 -20t-5 -28q0 -47 46 -83t118 -36q131 0 299 187q178 201 178 289q0 100 -125 100q-86 0 -166 -49 q-4 -6 -19.5 -32t-30.5 -44t-29.5 -18t-14.5 16t17.5 35.5t39 37t23.5 21.5l178 248q43 61 81 88t93 27q47 0 129 -13q68 -10 150 -10q23 0 39 5t23 9.5t9 4.5q4 0 5 -7q0 -12 -23 -30l-47 -45q-29 -23 -84 -23q-31 0 -137.5 9t-130.5 9q-74 1 -119 -65l-139 -195l4 -4 q70 37 147 37q88 0 141.5 -47t53.5 -123q0 -162 -170 -298t-342 -136q-94 0 -152.5 36t-58.5 101z" />
<glyph unicode="6" d="M350 170q0 131 137.5 308t333 305t346.5 128q61 0 105.5 -31.5t44.5 -86.5q0 -41 -28.5 -70t-67.5 -29q-25 0 -41.5 15.5t-16.5 38.5q0 20 14.5 33.5t34.5 13.5q18 0 33 -13.5t15 -31.5q0 -12 -5 -29q45 18 45 72q0 45 -37.5 73.5t-93.5 28.5q-150 0 -389 -244 q-147 -152 -263 -316.5t-116 -225.5q0 -37 29 -63t80 -26q113 0 282 177.5t169 263.5q0 37 -26 57.5t-69 20.5q-115 0 -223 -105l-43 -41q-12 -8 -14 -8q-6 0 -6 4t2 6l39 37q127 123 258 123q59 0 98 -40t39 -95q0 -143 -159 -281.5t-320 -138.5q-90 0 -138.5 47t-48.5 123 z" />
<glyph unicode="7" d="M502 12q0 2 27.5 37t89 115t124.5 168l125 174q76 104 187 229l-4 4q-68 -41 -115 -41q-74 0 -74 60q0 20 21 45l53 63l10 11q8 12 8 16q0 12 -18 12q-43 0 -156 -76q-8 -53 -49 -109t-98 -56q-23 0 -23 10q0 6 11 20l79 103q29 35 43.5 69.5t17.5 50t7 15.5q14 0 14 -55 v-31q98 74 164 74q23 0 41.5 -13.5t18.5 -36.5q0 -18 -27 -55l-35 -41q-27 -27 -26 -41q0 -18 26 -18q53 0 199 100q55 37 117 74l32 18q8 4 12.5 4t4.5 -6q0 -4 -4 -8l-33 -25q-68 -51 -139.5 -144t-144.5 -213t-81 -132l-90 -129q-180 -254 -246 -254h-47q-23 0 -22 12z " />
<glyph unicode="8" d="M291 188q0 123 121 200.5t256 100.5l77 13q-51 94 -51 157q0 104 88 178t207 74q84 0 143.5 -41t59.5 -110q0 -51 -28.5 -95t-66.5 -71t-91.5 -49.5t-85 -31.5t-66.5 -15q68 -127 68 -185q0 -145 -122 -229t-274 -84q-98 0 -166.5 52t-68.5 136zM338 152q0 -66 56 -102 t134 -36q119 0 210 75t91 192q0 74 -77 206q-139 -20 -197 -53q-70 -41 -143.5 -134t-73.5 -148zM774 713q0 -20 3 -40t14.5 -45.5t15.5 -35.5t21.5 -44t19.5 -36q106 18 202.5 116.5t96.5 170.5q0 41 -44 70.5t-110 29.5q-86 0 -152.5 -44t-66.5 -142z" />
<glyph unicode="9" d="M240 119q0 51 28.5 85t67.5 34q25 0 41 -15.5t16 -38.5q0 -20 -14 -33.5t-35 -13.5q-18 0 -32.5 13.5t-14.5 31.5q0 12 4 29q-45 -27 -45 -92q0 -45 38 -74t93 -29q150 0 389 244q147 152 263 316.5t116 226.5q0 37 -26.5 62.5t-71.5 25.5q-76 0 -188.5 -88 t-192.5 -193.5t-80 -158.5q0 -88 100 -89q115 0 224 105l43 41q12 8 14 8q6 0 6 -4t-2 -6l-39 -37q-127 -123 -258 -123q-63 0 -103 42t-40 104q0 143 163.5 281t325.5 138q82 0 129 -48t47 -122q0 -131 -137 -308t-332.5 -305t-347.5 -128q-61 0 -105 31.5t-44 87.5z" />
<glyph unicode=":" horiz-adv-x="493" d="M164 53.5q0 20.5 16.5 36.5t37 16t36.5 -16t16 -36.5t-16 -37t-36.5 -16.5t-37 16.5t-16.5 37zM440 387.5q0 22.5 15.5 37.5t38 15t38 -15t15.5 -37.5t-15.5 -38t-38 -15.5t-38 15.5t-15.5 38z" />
<glyph unicode=";" horiz-adv-x="493" d="M100 -133q0 8 9 8l38 14q102 39 115 113q-12 -6 -26 -6q-51 0 -52 53q0 23 15.5 40t38.5 17q25 0 39 -19t14 -46q0 -53 -31 -96.5t-74 -57.5l-59 -20q-8 -2 -14 -4l-7 -2q-6 0 -6 6zM455 387.5q0 22.5 16 37.5t36.5 15t37 -15t16.5 -37.5t-16.5 -38t-37 -15.5t-36.5 15.5 t-16 38z" />
<glyph unicode="?" horiz-adv-x="833" d="M504 53.5q0 20.5 16.5 36.5t37 16t36.5 -16t16 -36.5t-16 -37t-36.5 -16.5t-37 16.5t-16.5 37zM563 668q0 160 165 319.5t359 159.5q100 0 155.5 -60.5t55.5 -156.5q0 -86 -29.5 -163t-70.5 -129t-109.5 -105.5t-117.5 -82t-127 -71.5t-109 -62q-27 -16 -47 -38.5 t-29.5 -35t-15.5 -12.5q-12 0 -12 13q0 38 94 104l154 107q35 23 87 73t113.5 121.5t104.5 160.5t43 167q0 61 -38 101t-97 40q-186 0 -343 -154.5t-157 -301.5q0 -47 36 -85t87 -38q94 0 174 80.5t121 183.5q27 68 34 121q4 33 18.5 32.5t14.5 -22.5q0 -55 -42 -152.5 t-130 -187.5t-190 -90q-68 0 -110 45t-42 119z" />
<glyph unicode="A" horiz-adv-x="1366" d="M147 137q0 45 30 81t69 36q27 0 43 -16.5t16 -42.5q0 -23 -17.5 -40.5t-41.5 -17.5q-39 0 -72 37q-10 -31 -10 -43q0 -51 43 -85t119 -34q143 0 340 156q-141 156 -142 332q0 141 84 236t213 95q92 0 176 -62t109 -148q6 6 84 84.5t108.5 108.5t108.5 103.5t128 115.5 t119.5 97.5t129.5 94.5q152 96 252 127l35 10q8 0 8 -4q0 -6 -11 -10l-22 -15q-123 -80 -238 -264q-18 -31 -123.5 -204t-164.5 -259q-125 -180 -230 -307l-239 -287h47q109 0 205 58q86 49 159 123l23 22l8 -6l-39 -39q-53 -53 -147 -111q-98 -59 -230 -59q-229 0 -399 156 q-197 -156 -352 -156q-80 0 -129.5 37t-49.5 100zM559 436q0 -59 23.5 -116.5t41 -81t52.5 -62.5q53 37 91 74t136 143q66 70 191 213q-72 143 -226 144q-127 0 -218 -90.5t-91 -223.5zM688 166q74 -61 125.5 -86.5t149.5 -54.5q163 173 163 408q0 91 -28 159 q-258 -289 -287 -316q-37 -37 -123 -110zM1090 190l4 -4l170 224q37 47 82 111.5t103 150.5t93 137q174 246 277 352q70 74 163 150l-4 4q-98 -41 -223 -127q-111 -76 -303 -246q-170 -150 -340 -338q31 -92 31 -166q0 -121 -53 -248z" />
<glyph unicode="B" horiz-adv-x="1820" d="M428 150q0 47 27.5 78.5t60.5 31.5q66 0 66 -59q0 -63 -70 -64q-25 0 -59 27q-2 -10 -2 -27q0 -57 57 -91t121 -34q90 0 172 36t145.5 90.5t134 142.5t121.5 164.5t126 185t130 182.5q119 164 221.5 260t239.5 195q-45 27 -70.5 39t-83 25.5t-127.5 13.5 q-219 0 -449.5 -98.5t-384 -259.5t-153.5 -324q0 -37 35 -68t98 -31q57 0 153.5 66.5t197.5 169.5q164 164 217 289l16 38l4 5q6 0 6 -7l-2 -16q-8 -111 -75.5 -220.5t-158.5 -184t-182.5 -121.5t-152.5 -47q-68 0 -118 36.5t-50 92.5q0 156 145.5 318.5t382 270 t473.5 107.5q143 0 295 -84q88 55 111 63l29 13q8 0 14 4v-4q-2 0 -4 -5.5t-4 -5.5l-21 -10l-110 -67q116 -108 116 -232q0 -80 -24.5 -144.5t-69.5 -111.5t-81 -75.5t-87 -57.5q2 -2 12.5 -14.5t12.5 -15.5t10 -14t10 -18.5t7.5 -18.5t6.5 -22.5t1 -25.5 q0 -96 -49.5 -193.5t-122 -167t-153.5 -112.5t-144 -43q-57 0 -96 27.5t-39 76.5q0 102 100 221t199 164l24 13q6 0 6 -2v-6l-12 -9q-303 -197 -303 -379q0 -39 27.5 -62.5t68.5 -23.5q80 0 187.5 124t178 254t70.5 169q0 33 -24 62q-113 -47 -158 -47q-41 0 -41 34 q0 25 31 41.5t67 16.5q31 0 88 -8q61 61 160 208.5t99 225.5q0 84 -93 155q-43 -27 -79.5 -59.5t-61.5 -57t-59.5 -72.5t-49 -69.5t-57.5 -89t-59 -94.5l-146 -229q-57 -88 -104 -155t-125 -154t-154.5 -142t-180 -94t-212.5 -39q-92 0 -155.5 41t-63.5 109zM1599 616 q0 -18 39 -18q55 0 115 53q-4 0 -17.5 4t-19.5 4q-117 0 -117 -43z" />
<glyph unicode="C" horiz-adv-x="1517" d="M487 616q0 2 7 7l73 12q172 27 357 76q100 125 254.5 280.5t302.5 255.5q172 115 274 115q41 0 72 -24.5t31 -67.5q0 -145 -359 -359q-172 -104 -420 -172q0 -2 -28.5 -42t-45 -63.5t-50 -74.5t-56 -88t-51.5 -87t-45.5 -88t-28.5 -76t-12 -64q0 -63 64.5 -101.5 t136.5 -38.5q121 0 241.5 89.5t188 191.5t67.5 160q0 86 -104 86q-92 0 -209 -113q-61 -61 -137 -180l-21 -33q-4 -8 -8 -8t-4 6l18 35q61 113 150 199q111 106 217 106q66 0 108.5 -40t42.5 -109q0 -154 -168.5 -280t-357.5 -126q-125 0 -201.5 65.5t-76.5 180.5 q0 184 198 440l-4 4q-150 -45 -332 -67l-71 -11q-12 0 -13 4zM1094 758v4l4 -4q248 66 440 200q121 84 200 179.5t79 154.5q0 23 -18.5 38.5t-49.5 15.5q-147 0 -389 -256q-47 -49 -99.5 -115t-107.5 -138.5t-59 -78.5z" />
<glyph unicode="D" horiz-adv-x="1857" d="M416 33q0 57 198 57q57 0 114.5 -7t139.5 -23.5t84 -16.5q121 43 223.5 134t162 180t151.5 231.5t158 226.5q129 166 358 336q-119 195 -397 195q-154 0 -314.5 -83t-273.5 -198t-185.5 -231.5t-72.5 -188.5q0 -59 46 -98t124 -39q207 0 426 248q113 129 147 254l6 20 l2 4q2 4 5 4q4 0 4 -10l-4 -16q-14 -68 -70.5 -157t-135.5 -171t-181.5 -137t-196.5 -55q-102 0 -168 60t-66 165q0 170 145.5 322.5t349.5 237.5t386 85q98 0 176 -18.5t128 -53.5t77 -60.5t55 -64.5q14 8 71.5 44t90.5 55l29 16q8 0 8 -2q0 -6 -4 -10l-29 -17 q-94 -59 -160 -104q53 -106 54 -236q0 -154 -61.5 -303t-155.5 -260q-156 -180 -307.5 -264t-352.5 -84q-49 0 -246 25q-236 -37 -348 -37q-190 0 -190 45zM432 35q0 -35 186 -35q102 0 300 31v4q-182 43 -300 43q-186 0 -186 -43zM987 35q152 -19 209 -19q276 0 508 191 q160 137 258 326.5t98 375.5q0 135 -49 228q-119 -92 -184 -189q-55 -80 -117.5 -201.5t-112 -209.5t-125 -185.5t-196.5 -176.5t-289 -136v-4z" />
<glyph unicode="E" horiz-adv-x="1214" d="M373 240q0 336 481 522q-41 47 -41 106q0 125 108.5 244t252 184.5t258.5 65.5q233 0 233 -186q0 -117 -108.5 -218.5t-239.5 -150.5l-53 -21q-8 0 -9 7q0 4 5 8l83 53q115 74 198 173t83 206q0 39 -38 73.5t-113 34.5q-104 0 -186.5 -46t-192.5 -156 q-94 -94 -161 -193.5t-67 -130.5q0 -25 11 -49q88 18 122 18q66 0 66 -39q0 -40 -67 -40h-3q-49 0 -110 30q-100 -43 -281.5 -253t-181.5 -316q0 -68 65.5 -109t153.5 -41q86 0 187.5 59.5t179 139.5t130 159t52.5 118q0 92 -111 92q-121 0 -239.5 -122t-165.5 -241l-10 -28 q-4 -10 -8.5 -10t-4.5 10l13 34q37 113 164.5 243t248.5 130q72 0 116 -40t44 -109q0 -164 -191.5 -307.5t-379.5 -143.5q-123 0 -208 62.5t-85 177.5zM903 745q49 -26 92 -26q55 0 56 26q0 23 -50 23q-35 0 -98 -23z" />
<glyph unicode="F" horiz-adv-x="1554" d="M444 182q0 49 27 80t68 31q25 0 45 -17.5t20 -44.5q0 -20 -17.5 -38.5t-43.5 -18.5q-20 0 -34.5 9.5t-19 15.5t-14.5 22q-14 -39 -14 -49q0 -63 61.5 -109.5t161.5 -46.5q94 0 191.5 46.5t166 102.5t152.5 157.5t123 157t104 153.5q20 29 29 43q-221 -61 -381 -150 l-59 -34q-6 0 -6 2q0 4 2 6l43 30q109 74 419 166q242 346 465 480l64 36h6q0 -6 -2 -8l-59 -49q-152 -125 -334 -424q152 41 245 100l45 27q0 2 5 2v-8l-23 -21q-80 -70 -106.5 -111.5t-44.5 -117.5l-101 -29q4 6 21.5 34t20.5 33t17.5 25.5t24.5 31t26.5 28.5t37.5 39 l-4 4q-80 -29 -177 -55q-78 -129 -137 -216t-147 -189.5t-173 -163t-199 -102.5t-239 -42q-113 0 -184.5 47t-71.5 135zM881 991q0 125 112.5 212t269 123t332.5 36q115 0 367 -17.5t328 -17.5q125 0 270 29l25 6q4 0 4 -4q0 -6 -4 -6l-23 -15q-53 -33 -159.5 -51 t-174.5 -18q-86 0 -315 39q-207 39 -332 39q-248 0 -447.5 -135.5t-199.5 -276.5q0 -51 38 -81t101 -30q209 0 369 236q27 39 41 78l12 30l4 4q6 0 6 -6l-6 -18q-31 -117 -162 -228.5t-260 -111.5q-86 0 -141 49t-55 135z" />
<glyph unicode="G" horiz-adv-x="1593" d="M553 209q0 55 32.5 100t82.5 45q27 0 46 -17.5t19 -41.5q0 -27 -17.5 -43t-45.5 -16q-45 0 -70 55q-31 -39 -31 -86q0 -90 85 -139.5t194 -49.5q43 0 85 8.5t75.5 17.5t71.5 33.5t62.5 40t61.5 52.5l54.5 54.5t55.5 64.5t50 63.5t52 70.5t50 68l133 173l-4 4 q-2 -2 -27.5 -21.5t-34.5 -27t-37 -26t-45 -27.5t-45 -24.5t-48.5 -21.5t-46 -12t-47.5 -6q-86 0 -132.5 49t-46.5 125q0 10 11 71q-170 -18 -238 -18h-174q-12 0 -32.5 5t-24.5 5q-12 0 -13 2q0 4 7 4q4 0 33.5 -2t52.5 -2h137q143 0 258 25q27 76 111.5 185.5t164.5 172.5 q305 240 475 240q41 0 72 -24.5t31 -67.5q0 -82 -97.5 -175.5t-261.5 -183.5q-137 -76 -383 -141q-55 -106 -55 -158q0 -41 29 -68.5t80 -27.5q168 0 475 299q121 117 149 139l45 35h9l-2 -10l-62 -72q-72 -88 -158 -237.5t-155 -243.5q-162 -221 -330 -323.5t-371 -102.5 q-123 0 -219 52t-96 157zM1229 788q219 53 407 185q125 86 202 173t77 146q0 23 -18.5 38.5t-49.5 15.5q-150 0 -389 -265q-104 -121 -229 -293z" />
<glyph unicode="H" horiz-adv-x="1857" d="M537 133q0 229 680 442l163 52q254 358 312 432l-4 4q-246 -207 -375 -207q-53 0 -84 28.5t-31 71.5q0 51 82 146q63 72 63 104q0 23 -23.5 40.5t-59.5 17.5q-98 0 -289 -127q-102 -78 -191 -172l-61 -66q-8 -8 -10 -8q-4 0 -4 6l18 21q104 115 151 157q78 70 194 137.5 t194 67.5q63 0 103 -31.5t40 -85.5q0 -51 -47 -108q-12 -16 -41 -45t-43 -49.5t-14 -38.5q0 -49 55 -50q123 0 338 181q170 139 334 272l47 37q8 0 8 -6t-10 -13q-39 -31 -75 -65.5t-59.5 -62t-59.5 -76.5t-52.5 -75t-58 -90.5t-60.5 -92.5l-143 -222q135 33 327 76 q66 76 151 165t211 207t251 194.5t211 76.5q55 0 81.5 -26.5t26.5 -63.5q0 -111 -164 -248q-231 -190 -630 -290q-70 -90 -145 -194.5t-164 -255t-89 -208.5q0 -76 66 -76q41 0 129 51.5t127 88.5l47 43l6 2l4 -4l-8 -13q-74 -74 -169 -129t-151 -55q-57 0 -90.5 37 t-33.5 104q0 39 20.5 95.5t48 108.5t69.5 117.5t69.5 104.5t65.5 90.5t42 57.5q-147 -29 -320 -72q-422 -643 -802 -643q-80 0 -127 34t-47 99zM590 109q0 -92 112 -93q262 0 580 467l84 121l-4 4l-168 -55q-137 -45 -268 -109.5t-233.5 -156.5t-102.5 -178zM2005 772v4 l4 -4q360 86 598 279q160 129 160 237q0 70 -78 70q-186 0 -684 -586z" />
<glyph unicode="I" horiz-adv-x="1214" d="M156 180q0 61 41 111.5t98 50.5q29 0 49.5 -17.5t20.5 -48.5q0 -25 -16.5 -41t-43.5 -16q-59 0 -72 82q-61 -47 -61 -117q0 -78 62.5 -123t168.5 -45q94 0 186.5 44t180.5 131.5t129 135.5t107 136q10 12 14 18q-39 23 -63.5 41.5t-52 66.5t-27.5 111q0 121 93 235 t240 195q293 168 625 183l53 10q90 39 172 39q43 0 43 -25q0 -34 -98 -34h-6q-2 0 -94 6q-98 -31 -195 -92q-61 -41 -164.5 -170t-195.5 -269l-209 -311q145 0 256 94q129 113 178 266l20 64q0 6 4.5 6t4.5 -6l-9 -41q-16 -74 -61 -150.5t-109 -134.5q-125 -113 -301 -119 q-334 -446 -725 -446q-106 0 -174.5 48t-68.5 132zM926 633q0 -94 104 -137l109 155q205 297 345 431.5t345 211.5l-4 4q-285 -10 -465 -137q-154 -106 -294 -267t-140 -261z" />
<glyph unicode="J" horiz-adv-x="872" d="M-221 -500q0 78 58.5 152t135 123t185 94t175 66.5t138.5 39.5l385 582l-10 8q-10 8 -14.5 10.5t-14.5 11.5t-15 15t-15.5 18.5t-14.5 21.5t-11 24.5t-11.5 31t-6.5 34t-2 38.5q0 106 51.5 196.5t140.5 153t189.5 109.5t218 77.5t204.5 48t173 31t101 17.5q70 14 108 14 q33 0 33 -26q0 -31 -80 -31q-16 0 -47 3t-45 3q-326 0 -827 -829q164 2 292.5 110.5t169.5 276.5l9 34q0 8 4 9q6 0 6 -9l-2 -20q0 -119 -137.5 -266.5t-309.5 -147.5h-39q-215 -346 -331 -514q209 51 323 160l35 33h6v-6l-37 -37q-115 -115 -336 -166q-4 -6 -37.5 -54.5 t-50 -71t-57.5 -76.5t-68.5 -86t-71.5 -82t-78 -81.5t-79 -68.5t-83 -58.5t-80 -36t-79 -14.5q-68 0 -109.5 34t-41.5 101zM-174 -532q0 -86 94 -86q33 0 73 21.5t78 54t83 82.5t79.5 94t75.5 101.5t64.5 92.5t53.5 80l34 51q-72 -18 -145.5 -46t-165 -74t-161 -98 t-116.5 -124t-47 -149zM786 696q0 -92 82 -125q96 139 144.5 204t132.5 167t151.5 160.5t165 126t211.5 123.5l-4 4q-326 -45 -604.5 -245t-278.5 -415z" />
<glyph unicode="K" horiz-adv-x="1857" d="M510 178q0 41 25.5 71t64.5 30q27 0 46.5 -17.5t19.5 -42.5q0 -27 -17.5 -43t-46.5 -16q-23 0 -38 4t-27 12l-11 6q0 -80 62.5 -123t146.5 -43q279 0 551 441l98 157l70 107q68 109 119 183.5t92 121.5l-4 4q-225 -188 -348 -188q-55 0 -87 28.5t-32 73.5q0 10 2 21.5 t8 23.5t10.5 20.5t15.5 21.5t15 18.5t18.5 20.5t16.5 20q8 10 22.5 24t21.5 22.5t13 19.5t6 22q0 23 -23.5 40t-59.5 17q-104 0 -289 -123q-102 -78 -191 -172l-61 -66q-8 -8 -10 -8q-4 0 -4 6l18 21q104 115 151 158q222 200 386 200h2q63 0 103 -31.5t40 -84.5 q0 -12 -2 -22.5t-7 -21t-9.5 -15.5t-14.5 -16t-14 -18q-14 -16 -43 -44.5t-44.5 -49t-15.5 -39.5q0 -51 60 -51q123 0 338 189q43 39 116.5 108.5t125 113.5t102.5 72l69 41q8 0 9 -4q0 -2 -13 -8q-76 -39 -223 -203q-20 -23 -47 -66.5t-67 -122.5t-58 -110l-154 -272 q-41 -74 -105.5 -159t-165.5 -191.5t-233 -176t-266 -69.5q-82 0 -157.5 46t-75.5 132zM1542 141q0 59 68 152l137 184q59 76 59 113q0 35 -20 59q-64 -26 -117 -26h-4q-59 0 -59 32q0 18 22.5 34t54.5 16q76 0 111 -29q23 12 56.5 36.5t63.5 50t70.5 64.5t65.5 61.5 t62.5 60.5t46.5 46q170 166 305 254q106 70 239 107t191 37h18q8 0 8 -4q0 -8 -6 -9h-18q-184 -12 -332 -116q-59 -43 -260 -233.5t-334 -282.5q-51 -37 -158 -86q45 -57 46 -113q0 -94 -84 -209l-105 -139q-61 -82 -61 -121q0 -63 73 -64q39 0 118 51.5t116 88.5l45 43l6 2 l4 -4l-10 -13q-82 -80 -163 -132t-130 -52q-57 0 -91 37t-34 104zM1620 659q0 -24 39 -24q20 0 58 10t57 23q-43 22 -87 22h-4q-25 0 -44 -9t-19 -22z" />
<glyph unicode="L" horiz-adv-x="1175" d="M6 51q0 59 164 60h82q94 0 334 -33q100 37 217 149q133 131 352 488l-117 -21q-262 -47 -327 -47l-23 4q-10 0 -10 6q0 4 8 5l68 6q147 10 280 39l133 26q57 86 126 171t176.5 200t226.5 186.5t221 71.5q51 0 83 -28.5t32 -80.5q0 -68 -60.5 -139.5t-151.5 -129.5 t-158 -93t-122 -57q-49 -20 -237 -84q-106 -178 -199 -306q-201 -270 -465 -376v-5q4 0 62.5 -13t129 -24.5t111.5 -11.5q135 0 268 121l70 66l12 4l4 -4l-47 -45q-88 -82 -164.5 -122t-195.5 -40q-45 0 -99.5 7t-124 19.5t-104.5 16.5q-240 -37 -360 -37q-195 0 -195 51z M27 53q0 -37 204 -37q96 0 261 29v4q-211 31 -289 31h-41q-135 0 -135 -27zM1315 772q92 23 217 74q166 68 310.5 202t144.5 222q0 35 -22.5 55.5t-57.5 20.5q-256 -1 -592 -574z" />
<glyph unicode="M" horiz-adv-x="1744" d="M150 143q0 45 27.5 79t64.5 34q27 0 46 -18.5t19 -47.5q0 -27 -19.5 -45t-47.5 -18q-31 0 -74 29q0 -139 172 -140q213 2 500 273q164 156 423 449.5t322 357.5q240 240 285 266q8 0 8 -8l-53 -90q-12 -18 -51 -73.5t-98.5 -138.5t-100.5 -145q-160 -236 -339 -520.5 t-179 -341.5q0 -25 26 -25q43 0 172 156q53 61 183.5 219t189.5 226q276 315 448.5 491t272.5 250q8 0 8 -8l-352 -500q-483 -682 -483 -778q0 -55 65 -56q72 0 223 142l52 49l6 2l4 -4l-8 -12l-43 -39q-61 -55 -93 -81t-80.5 -51.5t-86.5 -25.5q-121 0 -121 115 q0 70 114.5 246t238.5 332.5t276.5 340t162.5 195.5l43 51l-4 4q-223 -205 -606 -641q-82 -94 -227.5 -272t-206.5 -244q-61 -74 -97 -100.5t-71 -26.5t-56.5 25.5t-21.5 72.5q0 80 113.5 264.5t236.5 342t274.5 341t157.5 191.5l43 51l-4 4q-61 -53 -134 -127.5t-118 -123 t-157.5 -173.5t-159.5 -178q-25 -27 -112 -124t-126 -139t-103.5 -107.5t-115.5 -108.5q-248 -211 -442 -211q-78 0 -132 39t-54 104z" />
<glyph unicode="N" horiz-adv-x="1705" d="M152 150q0 47 27.5 82.5t70.5 35.5q29 0 46 -17.5t17 -41.5q0 -27 -18.5 -44.5t-46.5 -17.5q-37 0 -66 46q-14 -29 -14 -56q0 -51 49 -86t127 -35q164 0 358 172q166 145 488 574q180 238 301 381q16 18 176 192l25 27l6 -4l-41 -88q-51 -111 -76 -228.5t-38 -248.5 t-30 -203q-14 -61 -29.5 -115.5t-32.5 -99.5t-29.5 -73t-31 -66.5t-22.5 -49.5l4 -4l287 393q117 160 287 343q229 248 462 372q117 61 224 82l57 10v-10l-84 -20q-145 -39 -227 -92q-125 -72 -215 -149t-201 -196q-162 -174 -418 -518l-293 -397h-16l31 63q43 90 72.5 210 t59 307.5t34.5 207.5q27 141 53.5 213t77.5 170l36 68l-4 4q-94 -98 -438 -543q-14 -18 -57 -75.5t-75 -98.5t-84 -104.5t-105 -118.5q-137 -145 -252 -224t-240 -79q-86 0 -139 40t-53 110z" />
<glyph unicode="O" horiz-adv-x="1214" d="M350 225q0 143 131 345t311.5 374t376 295t316.5 123q86 0 138 -47t52 -135q0 -78 -56 -154t-124 -125q-16 -109 -121 -275.5t-211 -279.5q-145 -156 -304 -251t-281 -95q-102 0 -165 58.5t-63 166.5zM403 170q0 -72 46.5 -113t125.5 -41q131 0 285 93.5t291 240.5 q92 100 199.5 266t126.5 275q-70 -43 -99 -55l-69 -29q-33 -14 -49 -14l-5 2q0 2 19 14l59 33q59 31 152 112q0 37 -26.5 73t-80.5 36q-84 0 -229 -131t-248.5 -259t-148.5 -198q-25 -39 -54.5 -88t-35.5 -57l-21 -29q-4 -8 -10 -8q-4 0 -4 6l39 96q49 123 162.5 279.5 t266 282.5t271.5 126q102 0 133 -110q135 139 135 250q0 57 -39 90t-100 33q-49 0 -106.5 -25t-101.5 -53.5t-115.5 -95t-106.5 -101.5t-119 -123q-215 -225 -379 -450.5t-164 -327.5z" />
<glyph unicode="P" horiz-adv-x="1517" d="M508 158q0 45 26.5 78.5t65.5 33.5q25 0 45.5 -16t20.5 -45q0 -27 -17.5 -43t-44.5 -16q-8 0 -14 1t-11.5 3t-10.5 6t-8 5t-8 8t-6 8t-6 9.5t-8 10.5q-8 -23 -8 -51q0 -55 54.5 -94.5t142.5 -39.5q66 0 130 22.5t125.5 72t109 92.5t102.5 116.5t80.5 108.5t73 106.5 t49.5 75.5q-37 37 -37 82q0 88 80 152q39 29 77 41v-11q-37 -14 -69 -40q-76 -66 -76 -138q0 -43 35 -67q12 20 51 79.5t51.5 78t45 67.5t50 70.5t49 63.5t57.5 67.5t61.5 62.5t73.5 71t83 68q-121 88 -313 89q-266 0 -541 -150q-147 -82 -281.5 -230.5t-134.5 -269.5 q0 -66 36 -104.5t99 -38.5q113 0 287 166q193 174 262 334l19 43q4 10 10 10q4 0 4 -10l-16 -76q-35 -158 -204 -323t-337 -165q-80 0 -128 42t-48 118q0 115 118.5 259.5t297.5 250.5q121 72 271.5 116t287.5 44q211 0 327 -94q78 47 138 71l55 23l6 -8l-45 -21 q-82 -39 -133 -82l14 -14q14 -16 23.5 -28.5t25 -36t24.5 -46t16.5 -55.5t7.5 -65q0 -176 -151 -310.5t-353 -134.5q-41 0 -80 8q-360 -569 -754 -569q-106 0 -165.5 42t-59.5 116zM1493 582q20 -4 47 -4q94 2 189.5 69.5t157 157.5t100 171t38.5 118q0 86 -81 145 q-78 -74 -120 -128t-149 -224q-39 -63 -98 -163.5t-84 -141.5z" />
<glyph unicode="Q" horiz-adv-x="1593" d="M475 63q0 27 45 39.5t96 12.5q147 0 400 -47q162 68 358.5 263t331.5 414.5t135 352.5q0 111 -90 179.5t-241.5 68.5t-308.5 -69t-271.5 -169t-188 -218t-73.5 -212q0 -74 48 -125t115 -51q160 0 353 243q188 236 202 359l5 39l4 4q6 0 6 -6l2 -17q0 -127 -54.5 -248.5 t-133 -205.5t-170 -136.5t-164.5 -52.5q-111 0 -168.5 51.5t-57.5 145.5q0 98 75 218t191.5 223.5t276.5 173t315 69.5q172 0 272.5 -91t100.5 -253q0 -131 -61.5 -264t-154.5 -238.5t-207.5 -200t-217 -156t-188.5 -96.5v-4q250 -43 301 -43q76 0 134 28t163 114l37 30 q4 4 8 5l2 -5q0 -2 -4 -6l-62 -53q-2 -2 -16 -14.5t-22.5 -18.5t-26 -19.5t-31.5 -21.5t-34.5 -18t-40 -16.5t-43 -10.5t-48.5 -4q-100 0 -336 43q-137 -33 -197.5 -41t-172.5 -8q-193 0 -193 63zM668 12q193 0 321 45v4q-254 41 -332 41q-163 0 -163 -42q0 -48 174 -48z " />
<glyph unicode="R" horiz-adv-x="1781" d="M449 158q0 51 26.5 91t65.5 40q25 0 45 -16.5t20 -45.5q0 -27 -17.5 -43t-43.5 -16q-35 0 -72 20q-8 -23 -8 -38q0 -55 54 -94.5t143 -39.5q80 0 163.5 39t145 88.5t134.5 135.5t108.5 135t93 136t63.5 95q18 27 65.5 95.5t61.5 87t52 70.5t53.5 70.5t50.5 59.5 t58.5 61.5t61 55.5t77.5 64.5t87 64.5q-82 72 -309 72q-276 0 -541 -160q-150 -84 -283.5 -230.5t-133.5 -267.5q0 -53 40 -90t97 -37q117 0 291 166q176 166 274 334l25 43q4 10 10 10q4 0 4 -10l-18 -76q-39 -158 -219.5 -322.5t-348.5 -164.5q-76 0 -124 42t-48 101 q0 115 120 258t298 250q119 78 269.5 124t289.5 46q221 0 324 -78q74 43 112 62l37 16h6v-8l-28 -15q-74 -41 -115 -67q143 -109 143 -285q0 -88 -33.5 -157.5t-97 -117.5t-111.5 -75t-118 -55q31 -51 31 -82q0 -61 -20 -99t-77 -108l-96 -117q-51 -66 -51 -100 q0 -59 74 -60q39 0 114.5 50.5t114.5 89.5l49 43q2 2 6 2l2 -4q0 -4 -8 -13q-193 -184 -297 -184q-53 0 -87 33t-34 80q0 68 78 170l99 125q82 102 82 137q0 8 -5 28q-74 -16 -112 -16q-74 0 -74 43q0 18 28.5 30.5t65.5 12.5t94 -29q102 70 223.5 218.5t121.5 250.5 q0 51 -44.5 107.5t-74.5 73.5q-90 -68 -150.5 -136.5t-92.5 -117.5t-100.5 -170t-129.5 -217q-43 -70 -88 -135.5t-127 -160t-166 -162t-198 -116.5t-226 -49q-106 0 -165.5 42t-59.5 116zM1554 596q0 -21 43 -21q45 0 105 27q-49 25 -96 25q-51 0 -52 -31z" />
<glyph unicode="S" horiz-adv-x="1214" d="M154 178q0 53 28.5 90t69.5 37q63 0 63 -61q0 -27 -17 -43.5t-44 -16.5q-12 0 -21.5 2t-17.5 7.5t-11 7.5t-11.5 11t-10.5 11q-12 -20 -12 -53q0 -61 57.5 -107.5t153.5 -46.5q90 0 166 29t115.5 60.5t103.5 91.5q119 113 307 393l105 145l-115 -18q-262 -43 -336 -43 l-22 4q-10 0 -11 6q0 4 8 4l68 6q148 10 289 37l133 23q45 63 91 124.5t130 154.5t162 161t174 118t178 50q129 0 129 -109q0 -57 -44 -117.5t-111.5 -107.5t-115.5 -75.5t-91 -47.5q-150 -72 -373 -135q-86 -145 -223 -326q-207 -283 -451 -391q-55 -25 -103 -37t-77 -14 t-84 -2q-98 0 -163.5 51t-65.5 127zM1333 788q145 35 303 113q152 74 263.5 191.5t111.5 177.5q0 76 -94 76q-82 0 -177 -67t-181 -174.5t-134.5 -176t-91.5 -140.5z" />
<glyph unicode="T" horiz-adv-x="1554" d="M422 172q0 49 24.5 83t69.5 34q27 0 47.5 -15.5t20.5 -46.5q0 -27 -17.5 -43t-44.5 -16q-10 0 -18 2t-14.5 5t-12.5 8t-9 8.5l-9 10.5t-8 9q-12 -20 -13 -51q0 -47 62.5 -95.5t175.5 -48.5q92 0 177 37t131 75t128 118q33 33 110.5 134t180 240.5t133.5 178.5 q111 143 232.5 250.5t211.5 140.5l2 -10q-78 -47 -142 -110.5t-93 -105.5t-78 -125t-63 -106l-117 -178q-190 -285 -369 -401q-229 -154 -442 -154q-109 0 -182.5 50t-73.5 122zM874 991q0 150 196 260.5t439 110.5q123 0 410 -21q249 -22 356 -22h9q193 0 282 22l25 7 q4 0 4 -5q0 -6 -4 -6l-23 -14q-104 -66 -323 -66q-88 0 -347 46q-270 43 -384.5 43t-229.5 -45.5t-195.5 -111t-131 -135t-50.5 -120.5q0 -47 44 -80t116 -33q193 0 352 238q35 51 45 80l13 30l4 5q6 -1 6 -7l-6 -18q-41 -121 -163 -232.5t-247 -111.5q-197 0 -197 186z" />
<glyph unicode="U" horiz-adv-x="1820" d="M721 756q0 131 112.5 273t289.5 237.5t345 95.5q147 0 236.5 -74t89.5 -211q0 -98 -47 -187t-141 -214l-267 -354q-145 -190 -145 -256q0 -49 59 -50q82 0 300.5 217.5t369.5 409.5l246 311h84l-172 -217q-45 -57 -191.5 -257.5t-169.5 -233.5q-106 -150 -106 -183 q0 -18 16.5 -30.5t40.5 -12.5q51 0 195 125l65 58q2 2 6 2l5 -4l-5 -6l-20 -21q-102 -92 -164.5 -133t-116.5 -41q-37 0 -62.5 25.5t-25.5 68.5q0 53 127 238l-4 4q-12 -12 -47 -48t-51.5 -52.5t-50 -49t-52 -49t-49 -43t-52 -40t-46.5 -28t-46.5 -20.5t-39.5 -6 q-45 0 -74.5 28.5t-29.5 80.5q0 102 118 258l301 391q113 145 155 220t42 165q0 82 -75 142.5t-208 60.5q-164 0 -336 -94.5t-282.5 -233.5t-110.5 -264q0 -68 39 -110t103 -42q135 0 301 178t213 346l10 37q0 6 6 6t6 -10l-10 -92q-20 -174 -166.5 -333t-327.5 -159 q-84 0 -137 48.5t-53 132.5z" />
<glyph unicode="V" horiz-adv-x="1744" d="M713 891l18 20q125 139 148 158q72 61 109.5 91t121.5 72t156 42q63 0 104 -32t41 -85q0 -70 -65 -131q-82 -76 -82 -113q0 -47 61 -47q59 0 174 64.5t242 167.5q123 154 172 194l57 47q6 6 29 17l16 6q4 0 4 -4t-4 -8l-43 -35q-16 -14 -84.5 -102.5t-105.5 -153.5 l-129 -223q-178 -301 -232 -371q-176 -229 -405 -430l4 -4q188 80 412 256q57 45 177 162.5t257 258t188 189.5q129 125 313.5 250t342.5 188l67 27q10 0 10 -4t-8 -8l-61 -25q-78 -33 -254 -131q-88 -51 -221.5 -157.5t-245.5 -215.5q-53 -51 -229.5 -235.5t-266.5 -259.5 q-129 -111 -270 -199t-215 -115l-33 -12q-8 0 -8 2l4 8l37 53q8 12 62.5 78t70.5 88q137 195 237 357q180 295 289 434l-4 4q-76 -55 -181.5 -114.5t-166.5 -59.5q-51 0 -82 28.5t-31 71.5q0 53 88 146q66 70 66 104q0 23 -26.5 40t-73.5 17q-23 0 -43.5 -3t-41 -9t-37 -11 t-37 -15.5t-31.5 -16.5t-29.5 -19.5t-25.5 -17.5t-24.5 -17t-19.5 -15q-113 -88 -191 -177l-55 -63q-8 -8 -10 -8q-6 0 -6 6z" />
<glyph unicode="W" horiz-adv-x="1820" d="M393 891l19 20q125 139 147 158q223 190 373 191q72 0 115 -31t43 -82q0 -39 -17.5 -65.5t-60.5 -65.5q-82 -76 -82 -113q0 -47 61 -47q117 0 391 223q119 129 224 213l57 47q6 6 29 17l16 6q4 0 4 -4t-4 -8l-43 -35q-14 -12 -88 -107.5t-113 -160.5l-129 -211 q-164 -264 -252 -371q-164 -219 -385 -414l4 -4q162 102 330 260q193 182 598 615q227 244 484 419q4 2 8 4.5t10 5.5l10 5l17 6q4 0 4 -4t-4 -8l-43 -35q-16 -14 -85 -102.5t-106 -153.5l-129 -223q-29 -49 -75 -132t-79.5 -139.5t-66.5 -99.5q-133 -197 -350 -414l4 -4 q150 96 358 313q53 55 449 451q367 367 571 461l68 31q10 0 10 -4.5t-8 -8.5l-62 -28q-63 -31 -192 -123q-205 -147 -445 -404q-31 -33 -160.5 -161t-172.5 -175q-119 -129 -251 -244.5t-190 -138.5l-33 -16q-8 0 -8 2l4 8l37 53q115 180 119 187q45 68 207 336 q176 291 289 438q20 25 215 238l-4 4q-184 -145 -453 -424q-401 -422 -481 -496q-303 -279 -418 -330l-33 -16q-8 0 -8 2l4 8l37 53q6 8 127 170q141 201 235 353q172 283 299 434l-4 4q-68 -63 -174 -123.5t-172 -60.5q-51 0 -81.5 28.5t-30.5 71.5q0 53 88 145 q65 65 65 100q0 24 -26.5 41t-73.5 17q-125 0 -275 -110q-113 -88 -190 -177l-55 -63q-8 -8 -11 -8q-6 0 -6 6z" />
<glyph unicode="X" horiz-adv-x="1705" d="M520 172q0 63 39 112.5t90 49.5q29 0 51.5 -17.5t22.5 -46.5q0 -63 -70 -63q-53 0 -53 88q-23 -20 -31 -29.5t-20 -36t-12 -61.5q0 -63 49 -107.5t125 -44.5q119 0 251 114t289 314l355 445q145 176 145 278q0 84 -66.5 131.5t-185.5 47.5q-197 0 -414 -119 q-125 -68 -221 -186.5t-96 -221.5q0 -66 40 -108.5t112 -42.5q125 0 285.5 153.5t232.5 288.5l37 72q4 8 8 8q2 0 2 -6v-21q0 -94 -74 -217t-201 -216t-254 -93q-90 0 -145 48t-55 136q0 111 92 221.5t239 200.5q199 119 429 119q121 0 204.5 -58.5t83.5 -173.5 q0 -76 -45 -169l4 -5q344 406 525 406q63 0 97 -27.5t34 -75t-31 -82t-76 -34.5q-33 0 -51 19.5t-18 41.5q0 27 18 46.5t43 19.5q53 0 68 -70q30 26 30 60q0 41 -29.5 63.5t-78.5 22.5q-213 0 -629 -529l-299 -379q-174 -221 -174 -305q0 -53 35 -83t94 -30q125 0 269.5 126 t144.5 229q0 41 -21.5 62.5t-52.5 21.5q-74 0 -157 -79t-120 -149l-22 -43q0 -8 -8 -8q-4 0 -4 8l14 37q25 66 120 158t175 92q43 0 67.5 -25.5t24.5 -70.5q0 -113 -155.5 -246t-290.5 -133q-78 0 -123 47t-45 127q0 45 37 145l-5 5q-66 -74 -103.5 -113t-103 -97.5 t-127 -86t-122.5 -27.5q-82 0 -137.5 48t-55.5 124z" />
<glyph unicode="Y" horiz-adv-x="1896" d="M764 823q0 104 91 214t235 194q188 131 428 131q127 0 215 -67.5t88 -190.5q0 -84 -53.5 -178.5t-118 -161t-117.5 -140t-53 -122.5t67 -49q33 0 76 23.5t114.5 85t110.5 97t138 129.5q309 297 368 345q35 29 92 65l41 25h8l-2 -9l-34 -26q-123 -96 -199 -197 q-61 -78 -178 -260t-195 -285q-168 -219 -339 -332.5t-382 -113.5q-125 0 -195.5 41t-70.5 115q0 55 28.5 87.5t67.5 32.5q27 0 43.5 -17t16.5 -46q0 -23 -17.5 -38t-46.5 -15q-35 0 -53 45q-18 -18 -18 -68q0 -51 67.5 -86t161.5 -35q86 0 170 33t145.5 76t137 126 t118.5 138t117 158l184 250l-4 4l-166 -154q-16 -14 -56 -50t-58.5 -51.5t-51 -42t-54 -37.5t-49.5 -20.5t-52 -9.5q-47 0 -80 31t-33 76q0 70 56.5 160t123 161.5t123 151.5t56.5 133q0 86 -73 141.5t-202 55.5q-211 0 -414 -132q-119 -66 -215 -181t-96 -212 q0 -66 42 -108.5t122 -42.5q123 0 278.5 144t223.5 282l37 73q4 8 8 9q2 0 2 -7v-20q0 -68 -41 -155t-107.5 -166.5t-165 -135t-198.5 -55.5q-98 0 -155.5 48t-57.5 136z" />
<glyph unicode="Z" horiz-adv-x="1478" d="M461 -444q0 221 643 436q-8 104 -57 127q-123 -35 -216 -35q-94 0 -94 59q0 29 39 44.5t92 15.5q43 0 78 -9.5t51.5 -17.5t57.5 -33q266 102 571 418q104 109 197.5 258.5t93.5 257.5q0 119 -96.5 194t-241.5 75q-240 0 -494 -156q-135 -82 -248.5 -223.5t-113.5 -257.5 q0 -66 41 -109t115 -43q100 0 229 94t223 212t125 206l25 72q4 8 8 8q2 0 2 -6v-31q0 -106 -72.5 -240.5t-211 -240t-292.5 -105.5q-92 0 -148 48.5t-56 136.5q0 127 103.5 257t268.5 234q254 160 490 160q182 0 285.5 -93t103.5 -268q0 -141 -73.5 -275t-184.5 -237 q-145 -135 -290.5 -215.5t-342.5 -148.5q43 -43 62 -121q186 41 299 88q61 27 127 84l26 27h6v-8l-28 -29q-53 -53 -133 -86q-53 -25 -157 -54.5t-134 -35.5q6 -47 6 -82q0 -186 -175 -340t-337 -154q-74 0 -123 38t-49 104zM508 -494q0 -29 24.5 -48t57.5 -19q59 0 173 81 t219.5 210.5t121.5 242.5l-80 -24q-211 -63 -328 -162q-188 -160 -188 -281zM750 135q0 -37 100 -37q76 0 182 37q-68 53 -176 53q-43 0 -74.5 -13t-31.5 -40z" />
<glyph unicode="[" horiz-adv-x="645" d="M301 -252l924 1641h288l-30 -27h-195l-893 -1587h221l-30 -27h-285z" />
<glyph unicode="]" horiz-adv-x="645" d="M121 -252l31 27h194l893 1587h-221l31 27h284l-923 -1641h-289z" />
<glyph unicode="`" horiz-adv-x="409" d="M158 741h131l178 -155q20 -14 20 -27q0 -16 -14 -16q-2 0 -39 18z" />
<glyph unicode="a" horiz-adv-x="645" d="M78 164l2 6l117 115q59 57 147 106t143 49q33 0 57.5 -21.5t24.5 -43.5v-39h4l74 94h80l-195 -287q-51 -76 -51 -96q0 -23 29 -22q47 0 184 125l64 59q6 4 8 4l4 -4q0 -2 -4 -6l-61 -62q-141 -141 -220 -141q-35 0 -54 23.5t-19 54.5q0 16 10 53l-4 4l-64 -57 q-88 -78 -159 -78q-100 0 -101 94q0 41 21 90l-4 4l-25 -24l-4 -2zM164 57q0 -41 47 -41q72 0 209 144.5t137 208.5q0 23 -20.5 39t-44.5 16q-76 0 -202 -153.5t-126 -213.5z" />
<glyph unicode="b" horiz-adv-x="645" d="M66 154q0 4 2 6l270 256q57 61 139 159l381 490h72l-500 -692q-203 -276 -203 -316q0 -12 12.5 -24.5t36.5 -12.5q43 0 113 45.5t131 102.5q2 66 58 190q20 49 59 58l49 8q25 0 25 -20.5t-24.5 -58.5t-49.5 -68.5t-60.5 -71.5t-37.5 -43q6 -59 55 -60q55 0 113 58l45 43 l10 2l2 -4l-4 -6l-47 -43q-72 -63 -117 -64q-35 0 -53.5 19.5t-18.5 42.5q-168 -150 -274 -150q-41 0 -68.5 25.5t-27.5 66.5q0 61 61 148l84 112l-4 4l-221 -204q-2 -2 -4 -2zM539 186q35 31 94 110t59 101q0 11 -16 11l-41 -9q-33 -6 -61.5 -79.5t-34.5 -133.5z" />
<glyph unicode="c" horiz-adv-x="493" d="M92 180q0 4 2 6l31 33q68 70 102.5 102.5t110.5 75.5t145 43q41 0 69 -21.5t28 -53.5q0 -29 -17.5 -44.5t-40.5 -15.5q-20 0 -34.5 14.5t-14.5 30.5q0 45 43 45q29 0 39 -24l4 4q-4 49 -63 49q-76 0 -174.5 -129t-98.5 -199q0 -33 21.5 -53t58.5 -20q43 0 122 45t130 92 l45 43l10 2l2 -4l-4 -6l-47 -43q-166 -152 -285 -152q-61 0 -103 40t-42 101q0 37 14 72l-4 4l-39 -39q-2 -2 -6 -2t-4 4z" />
<glyph unicode="d" horiz-adv-x="720" d="M80 166q0 4 2 6l102 96q180 172 348 172q33 0 53.5 -7t30 -27.5t11.5 -33t4 -42.5l557 735h76l-660 -905q-55 -72 -55 -109q0 -27 33 -26q47 0 200 135l45 43l11 2l2 -4l-4 -6l-45 -43q-135 -123 -191 -144q-18 -8 -35 -8q-39 0 -61.5 22.5t-22.5 45t4 55.5 q-150 -123 -252 -123q-53 0 -85.5 28.5t-32.5 82.5q0 33 28 94l-4 4l-51 -45q-2 -2 -6 -2q-2 2 -2 4zM188 68q1 -56 52 -56q100 0 237 125t137 217q0 66 -65 66q-78 0 -219.5 -144.5t-141.5 -207.5z" />
<glyph unicode="e" horiz-adv-x="454" d="M74 164q0 4 2 6l24 25q111 115 213.5 180t157.5 65q61 0 61 -49q0 -61 -76.5 -115.5t-172.5 -80.5l-52 -15q-45 -59 -45 -102q0 -27 21.5 -44.5t58.5 -17.5q92 0 250 144l45 43l10 2l2 -4l-4 -6l-45 -43l-16 -15q-14 -14 -19.5 -18t-21.5 -18.5t-25.5 -20.5t-28 -19.5 t-30.5 -19.5t-30.5 -15.5t-35 -14.5t-35 -8t-36.5 -3q-61 0 -103.5 34t-42.5 85q0 41 19 71l-4 5l-31 -33q-2 -2 -6 -2t-4 4zM244 199q88 14 182 74.5t94 117.5q0 16 -13 26.5t-30 10.5q-33 0 -83 -44t-97 -110z" />
<glyph unicode="f" horiz-adv-x="454" d="M-311 -506q184 227 399 516q-49 14 -49 51q0 20 16.5 37t35 17t54.5 -23q174 246 189 266l-4 4q-98 -66 -211 -169l-25 -23q-2 -2 -6 -2t-4 4q0 2 6 8l29 27q109 102 243 196l125 172q152 205 324 373t258 168q33 0 53.5 -16.5t20.5 -44.5q0 -70 -67.5 -151t-188.5 -187 q-147 -129 -379 -248l-277 -418q29 -8 43 -8q111 0 267 139l20 21l10 2l2 -4l-6 -8l-100 -91q-121 -102 -256 -102h-21q-172 -248 -389 -506h-112zM526 502l4 -4q225 106 431 307q165 165 165 247q0 21 -14 34.5t-35 13.5q-84 0 -221.5 -150.5t-239.5 -310.5z" />
<glyph unicode="g" horiz-adv-x="720" d="M-301 -580q0 115 219 291q76 59 157 109.5t128 74t147 70.5l72 90l-4 4q-119 -59 -189 -59q-53 0 -84.5 28.5t-31.5 77.5q0 31 28 99l-4 4l-49 -45q-2 -2 -6 -2q-2 2 -2 4q0 4 2 6l100 96q205 172 336 172q47 0 75 -21.5t33 -42t7 -48.5l80 100h80l-308 -424 q184 41 297 156l45 43l11 2l2 -4l-4 -6l-45 -43q-72 -74 -144 -108t-178 -62q-186 -262 -301 -385q-238 -252 -385 -252q-35 0 -59.5 19.5t-24.5 55.5zM-285 -580q0 -27 17.5 -43t46.5 -16q51 0 108.5 37t138 133t122.5 151.5t145 198.5q29 39 43 60l-4 4 q-256 -115 -438 -271q-178 -152 -179 -254zM190 61q0 -47 60 -47q104 0 235 121t131 211q0 37 -25.5 57.5t-60.5 20.5q-82 0 -211 -151.5t-129 -211.5z" />
<glyph unicode="h" horiz-adv-x="757" d="M57 0l330 432l-4 4l-281 -258q-4 -4 -8 -4l-2 2q0 4 4 8l29 31l244 223q76 70 163 180l347 447h71l-612 -827l4 -5q4 4 37 34t50 46.5t54 44t63.5 43t62.5 27.5t67 12q39 0 64.5 -25.5t25.5 -66.5t-55 -110l-90 -113q-43 -57 -43 -74q0 -14 8 -22.5t14 -8.5q27 0 89.5 38 t129.5 102l45 43l10 2l3 -4l-5 -6l-45 -43q-76 -72 -144.5 -112t-94.5 -40q-29 0 -52.5 23.5t-23.5 60.5q0 55 76 145l76 93q36 46 36 66q0 32 -43 32q-63 0 -186 -93.5t-203 -193.5l-106 -133h-105z" />
<glyph unicode="i" horiz-adv-x="378" d="M70 158q0 4 4 8l135 123q47 43 135 131h100l-192 -248q-70 -86 -70 -111q0 -37 35 -36q29 0 100.5 43t124.5 92l45 43l11 2l2 -4l-4 -6l-45 -43q-57 -55 -134 -103.5t-127 -48.5q-81 0 -81 74q0 53 49 147l-4 4l-74 -65q-4 -4 -8 -4zM535 659.5q0 20.5 14 34t33 13.5 q20 0 33.5 -13.5t13.5 -34t-13.5 -34t-33.5 -13.5q-18 0 -32.5 13.5t-14.5 34z" />
<glyph unicode="j" horiz-adv-x="417" d="M-477 -586q0 117 221 330q156 147 315 223l306 420l-5 4q-33 -18 -57 -36.5t-42.5 -34t-88.5 -78.5l-82 -76q-4 -4 -10 -4l-2 2q0 4 4 8l70 66q164 156 247 182h95l-299 -416q162 37 286 156l45 43l11 2l2 -4l-4 -6l-46 -43q-84 -80 -152.5 -113t-156.5 -55l-258 -351 q-218 -288 -320 -288h-1q-78 0 -78 69zM-461 -586q0 -23 14.5 -38t36.5 -15q61 0 170 156l279 415l-4 5q-113 -45 -279 -199q-92 -86 -154.5 -176t-62.5 -148zM561 659.5q0 20.5 14.5 34t32.5 13.5q20 0 33.5 -13.5t13.5 -34t-13 -34t-34 -13.5q-18 0 -32.5 13.5t-14.5 34z " />
<glyph unicode="k" horiz-adv-x="757" d="M47 0l395 504l-4 4l-344 -338q-4 -4 -8 -4l-2 2q0 4 4 8l29 31l241 242q109 109 166 169l357 447h71l-583 -776l4 -4q72 53 105.5 75.5t100 51t128.5 28.5q88 0 88 -75q0 -18 -13.5 -28.5t-31.5 -10.5q-20 0 -35 14t-15 34.5t21 41.5q-16 10 -35 10q-90 0 -256 -115l4 -4 q45 19 84 19h1q39 0 65 -28t26 -65q0 -33 -26 -71l-41 -53q-27 -33 -27 -58q0 -14 15.5 -22.5t27.5 -8.5q39 0 111.5 34t148.5 106l45 43l10 2l3 -4l-5 -6l-47 -43q-80 -74 -153.5 -113t-118.5 -39q-37 0 -69.5 23.5t-32.5 60.5q0 41 24 78l47 65q20 29 21 45 q0 14 -15.5 23.5t-31.5 9.5q-55 0 -111.5 -37t-93.5 -86l-139 -182h-105z" />
<glyph unicode="l" horiz-adv-x="417" d="M86 170q0 6 4 10l33 31l246 242q27 27 139 161l366 451h72l-590 -784q-14 -18 -38.5 -49t-42 -53.5t-36 -47.5t-28.5 -42t-10 -28q0 -41 32 -41q98 0 246 140l45 43l8 2l5 -4l-5 -6l-47 -43q-168 -152 -264 -152q-37 0 -61.5 22.5t-24.5 57.5q0 63 96 184l140 170l-4 4 l-271 -266q-4 -4 -8 -4z" />
<glyph unicode="m" horiz-adv-x="1327" d="M86 172q0 4 4 8l96 94q12 10 43 41l42.5 42.5t37 32t41 28.5t38 15t42.5 7q82 0 82 -82q0 -23 -18 -69l4 -4q4 2 43 29.5t52 36.5t49 32t57.5 31t50 17t51.5 9q49 0 70.5 -20.5t21.5 -73.5q0 -10 -10 -55q74 55 106.5 78.5t89 47t105.5 23.5q39 0 68.5 -23.5t29.5 -64.5 q0 -45 -51 -112l-86 -117q-37 -51 -39 -70q0 -33 51 -33q78 0 207 117l68 62q6 4 8 4l4 -4q0 -2 -4 -6l-84 -80q-119 -113 -217 -113q-45 0 -75 23.5t-30 56.5q0 47 82 147l78 95q29 33 29 63q0 16 -21.5 25.5t-44.5 9.5q-137 0 -418 -316l-92 -104h-92l135 174 q141 174 141 215q0 31 -45 31q-141 0 -419 -291l-119 -129h-92l170 205q125 143 125 188q0 27 -43 27q-12 0 -25.5 -4t-30 -14.5t-29 -19.5t-32 -26.5t-29.5 -28t-33.5 -32t-31.5 -29.5l-99 -94q-6 -4 -8 -4z" />
<glyph unicode="n" d="M92 178q0 4 4 8l109 109q6 6 37.5 38t44 42t38 30.5t45 27.5t40.5 7q90 0 90 -92q0 -39 -33 -90l4 -4q61 66 147.5 126t157.5 60q39 0 65.5 -23.5t26.5 -58.5q0 -63 -59 -127l-92 -98q-35 -35 -35 -80q0 -33 53 -33q86 0 197 103l76 72q6 4 8 4l4 -4q0 -3 -4 -7l-82 -79 q-113 -109 -211 -109q-106 0 -107 100q0 45 68 121l84 101q33 43 33 67q0 31 -41 31q-119 0 -383 -293l-113 -127h-104l186 240q86 113 86 141q0 39 -26 39q-41 0 -85.5 -34t-113.5 -107l-103 -101q-6 -4 -8 -4z" />
<glyph unicode="o" horiz-adv-x="530" d="M57 150q0 2 6 8l56 51q74 66 117 102.5t126.5 82.5t151.5 46q37 0 57.5 -25.5t20.5 -52.5q0 -16 -5 -34.5t-12.5 -33.5t-21.5 -35.5t-23.5 -33t-27 -32t-23.5 -27.5t-24 -27l-17 -16q33 -18 54 -19q41 0 100 56l45 43l8 2l4 -4l-51 -49q-68 -63 -109 -64q-16 0 -61 23 q-8 -6 -31.5 -24.5t-35 -27t-34 -22.5t-38 -20.5t-37 -11.5t-41.5 -5q-45 0 -75 29.5t-30 81t19 82.5l-4 4l-51 -50q-4 -2 -8.5 -2t-4.5 5zM180 66q0 -49 58 -50q74 0 205.5 131.5t131.5 212.5q0 27 -19 45.5t-46 18.5q-86 0 -208 -149.5t-122 -208.5z" />
<glyph unicode="p" horiz-adv-x="757" d="M-356 -485l680 866l-5 4l-219 -209q-4 -4 -8 -4l-2 2q0 6 4 10l31 29l180 180q104 104 113 115l178 233h78l-336 -448l4 -4q10 6 56 38.5t78 53t81 40t90 19.5q39 0 64.5 -25.5t25.5 -66.5t-55 -110l-90 -113q-43 -57 -43 -74q0 -14 8 -22.5t14 -8.5q98 0 250 140l45 43 l11 2l2 -4l-5 -6l-45 -43q-166 -152 -270 -152q-29 0 -55.5 23.5t-26.5 60.5q0 47 82 145l76 93q37 47 37 67q0 31 -43 31q-66 0 -199 -92t-203 -187l-465 -626h-118z" />
<glyph unicode="q" horiz-adv-x="757" d="M84 -383l352 444l-4 5q-123 -66 -203 -66q-57 0 -90 33t-33 73q0 37 31 99l-4 4l-47 -45q-2 -2 -6 -2q-2 2 -2 4q0 4 2 6l98 96q61 61 166 116.5t182 55.5q47 0 75 -20.5t33 -37.5t11 -52l74 88h90l-676 -883q-78 -100 -78 -131q0 -16 21 -16q49 0 149.5 114.5 t192.5 264.5q70 117 114 235q123 4 289 158l45 43l11 2l2 -4l-5 -6l-45 -43q-158 -147 -288 -164q-27 -80 -105 -217q-94 -158 -201.5 -281t-179.5 -123q-67 0 -67 74q0 55 96 176zM188 70q0 -53 62 -54q49 0 117.5 34t117.5 77l113 141q31 51 31 62q0 94 -88 94 q-85 0 -181 -113l-94 -108q-78 -96 -78 -133z" />
<glyph unicode="r" horiz-adv-x="645" d="M86 172q0 4 2 6l102 103q12 12 40 41.5t44.5 45t40 35t45 28.5t43.5 9q35 0 60.5 -22.5t25.5 -63.5q0 -55 -49 -141l4 -4q82 94 123 133q43 41 88 82h68l-53 -70q-113 -143 -113 -221q0 -37 43 -37q39 0 109 64l45 43l10 2l2 -4l-4 -6l-45 -43q-45 -43 -69.5 -57.5 t-55.5 -14.5q-76 0 -76 86q0 53 47 147l-4 4q-25 -29 -74 -83t-73 -82l-131 -152h-105l152 221q6 10 27.5 40t36 50.5t26.5 44t12 35.5t-9 22.5t-22 10.5q-33 0 -65.5 -23.5t-86.5 -82t-83 -85.5l-68 -61q-4 -2 -6 -2z" />
<glyph unicode="s" horiz-adv-x="569" d="M37 131l61 55q152 139 308 301q8 10 18 40t22.5 48.5t29 18.5t16.5 -16q0 -10 -10.5 -24.5t-27 -35t-24.5 -31.5q0 -25 39 -100.5t39 -116.5q0 -133 -211 -235q33 -20 72 -21q106 0 262 146l45 43l10 2l2 -4l-4 -6l-47 -43q-170 -152 -266 -152q-33 0 -95 25 q-61 -25 -116 -25q-53 0 -86 24.5t-33 55.5t8 45h-8zM61 70q7 -47 70 -47q78 0 186.5 115.5t108.5 234.5q0 51 -14 98q-240 -233 -326 -313q2 0 11 1t16 1q14 0 29.5 -15.5t15.5 -38.5q0 -53 -54 -53q-29 0 -38 21z" />
<glyph unicode="t" horiz-adv-x="454" d="M86 170q0 6 4 10l33 31l289 235q70 61 110 111l78 92h-61q-8 0 -9 6q0 10 9 11h73l162 188h86l-151 -188h170q8 0 8 -8.5t-8 -8.5h-185l-348 -436q-106 -129 -106 -158q0 -14 11 -24.5t30 -10.5q80 0 235 140l45 43l10 2l2 -4l-4 -6l-45 -43q-166 -152 -260 -152 q-43 0 -68.5 23.5t-25.5 58.5q0 53 135 223l84 103l-4 4l-252 -207l-37 -33q-4 -4 -8 -4z" />
<glyph unicode="u" horiz-adv-x="757" d="M74 160q0 4 4 8l135 127q94 86 133 125h100l-192 -248q-70 -86 -70 -111q0 -41 49 -41q76 0 175.5 81t177.5 173q57 70 123 146h100l-184 -248q-80 -104 -80 -127q0 -25 34.5 -25t110.5 45.5t129 94.5l45 43l10 2l3 -4l-5 -6l-45 -43q-57 -53 -135 -102.5t-129 -49.5 q-82 0 -82 82l6 61q-6 -6 -28.5 -23.5t-30.5 -23.5t-28.5 -20.5t-31 -20.5t-27.5 -17t-29.5 -16.5t-28 -11.5t-29.5 -8t-29 -2q-41 0 -71.5 21.5t-30.5 66.5q0 43 43 141l-4 4l-78 -71q-4 -4 -8 -4z" />
<glyph unicode="v" horiz-adv-x="757" d="M78 164q0 6 2 8l162 150q70 68 105.5 88t78.5 20q96 0 96 -84q0 -37 -55 -110l-92 -123q-25 -33 -25 -54q0 -39 53 -39q90 0 215 136q8 86 50 159l37 66q12 25 38 31l62 8q16 0 16 -14q0 -25 -72.5 -118t-115.5 -134q0 -29 16.5 -49.5t46.5 -20.5q41 0 123 76l45 43l10 2 l3 -4l-5 -6l-47 -43q-53 -49 -76.5 -64.5t-54.5 -15.5q-39 0 -53 16t-23 45q-53 -47 -79.5 -67.5t-71.5 -43t-86 -22.5q-43 0 -72.5 24.5t-29.5 65.5q0 53 36 100l107 138q31 45 31 61q0 23 -35 23q-63 0 -146 -78l-184 -170q-4 -2 -6 -2q-4 0 -4 2zM635 174 q49 51 109.5 132t60.5 95q0 2 -14 2l-50 -6q-16 0 -61 -88q-43 -86 -45 -135z" />
<glyph unicode="w" horiz-adv-x="948" d="M74 158q0 4 4 8l96 100q12 12 64.5 66.5t78.5 87.5h101l-185 -248q-66 -85 -66 -119q0 -33 46 -33q29 0 69 23t97 74t81.5 75.5t82.5 81.5q98 98 139 146h92l-184 -248q-59 -78 -60 -106q0 -45 48 -46q102 0 249 142q0 86 47 170l35 59q12 27 39 33l56 6q16 0 16 -14 q0 -25 -62.5 -117t-107.5 -139q18 -51 68 -51q33 0 90 51l47 43l10 2l2 -4l-4 -6l-47 -43q-63 -55 -94 -56q-63 0 -86 49q-156 -145 -275 -145q-53 0 -79.5 29.5t-26.5 64.5q0 18 20 80l-4 4q-174 -178 -266 -178q-41 0 -72 21.5t-31 66.5q0 49 31 111l-4 4l-45 -43 q-4 -4 -8 -4zM846 184q45 41 101.5 125t56.5 101q-1 4 -15 4l-37 -4q-23 0 -65 -91q-41 -82 -41 -135z" />
<glyph unicode="x" horiz-adv-x="606" d="M66 66q0 23 18 42t38.5 19t36 -12.5t15.5 -32.5q0 -25 -14.5 -39t-32.5 -14t-23 4l-4 -4q20 -16 35 -17q53 0 131 78q74 76 138.5 165t64.5 124q0 41 -49 41q-43 0 -90 -34t-123 -110l-119 -114q-6 -4 -8 -4l-4 4q0 4 4 8l125 123q47 47 75.5 72.5t71.5 50t78 24.5 q43 0 72.5 -23.5t29.5 -68.5v-39q49 39 105 80q47 31 96 31q27 0 46.5 -15.5t19.5 -39.5q0 -47 -49 -48q-20 0 -35 14.5t-15 30.5q0 10 11 46q-70 -20 -152 -103q-61 -61 -110.5 -130t-49.5 -101q0 -53 39 -54q35 0 101 40.5t129 99.5l45 43l10 2l2 -4l-4 -6l-45 -43 q-164 -152 -260 -152q-41 0 -66.5 21.5t-25.5 60.5q0 8 1 24.5t1 24.5l-65.5 -65.5t-57.5 -43t-68 -22.5q-33 0 -51 18.5t-18 47.5z" />
<glyph unicode="y" d="M-131 -580q0 117 205 280t444 253l148 209l-4 4q-186 -166 -279 -166q-100 0 -100 96q0 47 55 115l78 98q41 45 41 74q0 37 -37 37q-43 0 -90 -34t-123 -110l-119 -114q-6 -4 -8 -4l-4 4q0 4 4 8l125 123q47 47 75.5 72.5t71.5 50t78 24.5q41 0 70.5 -23.5t29.5 -60.5 q0 -59 -45 -110l-82 -103q-47 -57 -47 -86q0 -14 10.5 -26.5t26.5 -12.5q68 0 175.5 85t201.5 196l113 127h90l-320 -430q70 8 157 51t161 113l45 43l10 2l2 -4l-4 -6l-45 -43q-150 -141 -342 -175q-193 -270 -299 -385q-239 -247 -384 -247h-1q-35 0 -59.5 19.5t-24.5 55.5 zM-115 -580q0 -59 72 -59q86 0 219 148.5t324 414.5l-4 4q-178 -59 -394.5 -222t-216.5 -286z" />
<glyph unicode="z" horiz-adv-x="645" d="M-262 -553q0 150 207 315q180 147 399 205q0 18 -20 39q-70 -37 -142 -37q-45 0 -45 35q0 47 82 47q55 0 111 -24q158 109 243 229l68 90l-4 4q-51 -18 -78 -18q-43 0 -111.5 20.5t-95.5 20.5q-12 0 -26.5 -6.5t-32 -19.5t-31.5 -26.5t-39.5 -38t-44.5 -40.5l-117 -103 q-2 -2 -4 -2l-4 4q0 4 2 6l172 166q74 72 116 99.5t93 27.5q41 0 111.5 -21.5t95.5 -21.5q29 0 64 31l55 49q12 12 29 12q8 0 8 -8q0 -25 -52.5 -57.5t-64.5 -48.5l-68 -88q-80 -104 -128 -152.5t-148 -118.5q20 -20 35 -43q94 18 174 62q63 32 137 104l45 43l8 2l4 -4 l-4 -6l-45 -43q-86 -82 -166 -121q-61 -31 -147 -49q8 -33 8 -59q0 -86 -94 -220.5t-221 -235.5t-209 -101q-59 0 -92 27.5t-33 74.5zM-246 -541q0 -43 24.5 -65.5t59.5 -22.5q74 0 199 126t216 263.5t91 178.5v14q-90 -27 -204.5 -83t-178.5 -112q-102 -88 -154.5 -155.5 t-52.5 -143.5zM152 6q0 -22 57 -22q31 0 96 34q-45 18 -82 19q-23 0 -47 -9.5t-24 -21.5z" />
<glyph unicode="{" horiz-adv-x="1062" d="M823 449v45q41 20 66.5 36.5t70 50t68 79t23.5 96.5q0 53 -29 180q-29 131 -29 184q0 90 42 159t114 108.5t136.5 60t139.5 33.5v-58q-106 -33 -163.5 -102.5t-57.5 -206.5q0 -12 15 -151q14 -100 14 -152q0 -70 -31 -128t-89 -100t-98 -63.5t-100 -48.5 q61 -27 99.5 -48.5t97.5 -63.5t90 -100t31 -128q0 -49 -14 -154q-14 -133 -15 -151q0 -137 57.5 -205.5t163.5 -101.5v-58q-74 10 -140 32t-137 60.5t-113 107.5t-42 161q0 55 29 182q29 131 29 182q0 145 -228 263z" />
<glyph unicode="}" horiz-adv-x="1062" d="M823 -481q106 33 163.5 102.5t57.5 206.5q0 47 -14 152q-14 133 -14 151q0 70 30.5 128t89 100t98.5 63.5t99 48.5q-61 27 -99 48.5t-97.5 63.5t-90 100t-30.5 128q0 20 14 154q14 100 14 151q0 137 -57 206t-164 101v58q74 -10 140.5 -32t137 -60.5t112.5 -107.5 t42 -161q0 -55 -28 -182q-29 -131 -29 -182q0 -145 227 -262v-45q-41 -20 -66.5 -37t-69.5 -50.5t-67.5 -78.5t-23.5 -97q0 -53 29 -180q29 -131 28 -184q0 -90 -42 -159t-113.5 -108.5t-136 -60t-140.5 -33.5v58z" />
<glyph unicode="&#xa2;" d="M461 88q2 4 6 8l131 158q-49 39 -49 108q0 92 115.5 192.5t236.5 100.5q4 0 14.5 -1t12.5 -1l80 95q8 8 10 8q6 0 6 -4q0 -2 -4 -7l-80 -94q25 -6 41 -27.5t16 -43.5q0 -27 -17 -43.5t-40 -16.5q-20 0 -34.5 14.5t-14.5 30.5q0 45 43 45q29 0 39 -24l4 4q-4 49 -64 49 q-76 0 -174 -126t-98 -196q0 -33 21.5 -53t58.5 -20q43 0 123 45t133 92l47 43l10 2q2 0 2 -4q0 -2 -4 -6l-47 -43q-55 -51 -138 -101.5t-153 -50.5q-51 0 -86 27l-131 -158q-2 -6 -10 -6q-6 0 -6 4z" />
<glyph unicode="&#xa3;" d="M-10 55q0 59 139 60q63 0 250 -33q123 80 192.5 135t126.5 127h-221v27h250l180 229q55 72 92 114t108 89t136 47q70 0 113 -43t43 -111q0 -94 -65.5 -157.5t-143.5 -63.5q-61 0 -62 17q0 8 7 8l6 -2q6 -2 18 -5.5t29 -3.5q63 0 126.5 59.5t63.5 145.5q0 61 -35.5 94 t-87.5 33q-35 0 -70.5 -19.5t-77.5 -65.5t-68.5 -78.5t-79 -105.5t-70.5 -97l-64 -84h187v-27h-217q-45 -55 -107.5 -108.5t-103.5 -82t-135 -87.5q186 -35 227 -35q121 0 239 104l29 25l39 33q4 0 4 -5t-35 -34l-43 -41q-39 -39 -116.5 -72t-161.5 -33q-88 0 -277 33 q-131 -41 -233 -41q-131 0 -131 55zM2 53q0 -37 125 -37q72 0 178 31v4q-158 31 -213 31q-90 0 -90 -29z" />
<glyph unicode="&#xa5;" d="M55 80q0 10 12.5 26.5t22.5 16.5q2 0 35 -26.5t105.5 -53.5t168.5 -27q51 0 101.5 9.5t88.5 22.5t66.5 26.5t44.5 23.5l19 11v4h-189q-27 0 -26 12q0 16 26 16h232q61 45 69 56h-219q-27 0 -26 12q0 16 26 16h252q37 31 105.5 104.5t138.5 152.5t84 93l94 95l-4 4 q-381 -354 -539 -355q-35 0 -73.5 28t-38.5 77q0 70 47 130t166 165q72 72 109.5 130t37.5 128q0 49 -38 84t-95 35q-92 0 -217 -71t-216 -173t-91 -182q0 -25 16.5 -43.5t42.5 -18.5q98 0 299 189q27 25 63 66.5t60 70.5l23 29q8 0 8 -9q0 -18 -44 -78.5t-107.5 -130 t-146.5 -124t-149 -54.5q-82 0 -82 95q0 90 94.5 197.5t223.5 180t227 72.5q74 0 117 -48t43 -136q0 -125 -129 -258q-25 -29 -69 -73t-67.5 -69.5t-44 -62.5t-20.5 -74q0 -23 22.5 -39t51.5 -16q57 0 181 84t261 203q27 25 105 101.5t137 131.5t68 55q6 0 6 -14 q0 -8 -22.5 -35.5t-72 -84t-86.5 -103.5l-231 -277q-80 -96 -166 -172h148q27 0 26.5 -14t-26.5 -14h-181q-49 -41 -73 -52v-4h172q27 0 27 -14t-27 -14h-215q-188 -113 -412 -113q-68 0 -147.5 15.5t-131 34t-51.5 30.5z" />
<glyph unicode="&#xa8;" horiz-adv-x="409" d="M262 591.5q0 20.5 14.5 35t35 14.5t34.5 -14.5t14 -35t-14 -34.5t-34.5 -14t-35 14t-14.5 34.5zM475 591.5q0 20.5 14.5 35t32.5 14.5q20 0 34.5 -14.5t14.5 -35t-14 -34.5t-35 -14q-18 0 -32.5 14t-14.5 34.5z" />
<glyph unicode="&#xab;" horiz-adv-x="645" d="M272 233l170 197h54l-170 -205l65 -225h-49zM399 233l170 197h54l-170 -205l65 -225h-49z" />
<glyph unicode="&#xad;" horiz-adv-x="454" d="M172 209l31 37h313l-31 -37h-313z" />
<glyph unicode="&#xb4;" horiz-adv-x="409" d="M324 559q0 10 20 27l178 155h131l-276 -180q-37 -18 -39 -18q-14 0 -14 16z" />
<glyph unicode="&#xbb;" horiz-adv-x="645" d="M217 0l162 203l-72 227h47l76 -235l-156 -195h-57zM352 0l162 203l-72 227h47l76 -235l-155 -195h-58z" />
<glyph unicode="&#xbc;" horiz-adv-x="1744" d="M338 -238l1456 1311l35 -18l-1428 -1293h-63zM449 575q0 6 10 13l102 51q41 20 119 67.5t96 63.5q31 23 67 51.5t60.5 47t38.5 26.5l29 16q6 0 6 -6q0 -4 -4 -8l-21 -14q-47 -35 -81.5 -74t-53 -68.5t-53.5 -90t-66 -107.5q-57 -88 -147 -178q-10 -7 -16 -7h-35 q-18 0 -19 7q0 8 94 122q18 20 86 119t84 121l-4 4q-41 -33 -149 -92q-80 -45 -115 -57l-26 -11q-2 2 -2 4zM1225 109q0 33 123 69l71 113q59 94 127 174q70 80 103 88l41 8q12 0 12 -6q0 -2 -2 -4q-72 -82 -141 -174q-98 -127 -175 -197h39q49 0 142 -16q113 162 174 225 q82 86 192 168l29 16q6 0 6 -6q0 -4 -4 -8l-20 -14q-43 -37 -77 -75t-52.5 -64.5t-63.5 -95t-82 -122.5q-4 -4 -14.5 -18t-16.5 -20q23 -2 39 -3q63 0 101 19l8 4q6 0 6 -2q0 -4 -4 -4l-19 -8q-43 -18 -92 -19q-14 0 -45 2q-25 -27 -56.5 -65.5t-53.5 -63.5q-8 -10 -17 -10 h-35q-18 0 -18 6t92 125l17 23q-76 16 -146 16h-37q-100 -80 -129 -80q-23 0 -22 19zM1233 109q0 -11 14 -11q31 0 86 62q-18 0 -59 -19.5t-41 -31.5z" />
<glyph unicode="&#xbd;" horiz-adv-x="1744" d="M379 -238l1456 1311l35 -18l-1428 -1293h-63zM489 575q0 6 11 13l102 51q41 20 119 67.5t96 63.5q31 23 67 51.5t60.5 47t38.5 26.5l29 16q6 0 6 -6q0 -4 -4 -8l-21 -14q-47 -35 -81.5 -74t-53 -68.5t-53.5 -90t-66 -107.5q-57 -88 -147 -178q-11 -7 -17 -7h-34 q-18 0 -19 7q0 8 94 122q18 20 86 119t84 121l-4 4q-41 -33 -149 -92q-80 -45 -115 -57l-26 -11q-2 2 -3 4zM1231 4v6l26 33q74 88 237 150.5t185 82.5q66 51 112 118t46 93q0 20 -17.5 35t-45.5 15q-55 0 -128 -69t-73 -106q0 -25 33 -24q45 0 87 46t52 77l6 22q0 4 4 4 q6 0 6 -8l-6 -22q-14 -45 -59 -89t-94 -44q-31 0 -50.5 16t-19.5 41q0 66 77 119t156 53q53 0 85 -29.5t32 -70.5q0 -51 -35 -99.5t-88 -81.5q-25 -16 -87 -36.5t-125.5 -40t-73.5 -23.5q-43 -16 -160 -92l4 -4q37 16 65 16q37 0 102.5 -20.5t88.5 -20.5q53 0 110 45l29 23 q4 4 6 4t2 -6t-2 -8l-26 -23q-104 -86 -176 -86q-33 0 -101 23q-55 23 -88 22.5t-70 -27.5l-18 -16q-2 -2 -6 -2q-2 0 -2 4z" />
<glyph unicode="&#xbe;" horiz-adv-x="1744" d="M317 -238l1457 1311l34 -18l-1427 -1293h-64zM449 451q0 31 23.5 56t53.5 25q16 0 27.5 -9t11.5 -23q0 -33 -39 -33q-31 0 -30 39q-33 -20 -33 -57q0 -33 26.5 -53.5t69.5 -20.5q100 0 206.5 104.5t106.5 155.5q0 25 -34 24q-20 0 -45 -10l-25 -10q-6 0 -6 8q0 6 47 25 l47 14q33 10 92.5 66.5t59.5 97.5q0 43 -72 43q-61 0 -121.5 -57.5t-60.5 -90.5q0 -20 30 -20q37 0 76 37t55 69l7 13l6 6q6 0 6 -10l-6 -13q-12 -35 -58.5 -76.5t-97.5 -41.5q-29 0 -47 18t-18 41q0 57 69.5 100t147.5 43q53 0 92 -25.5t39 -70.5q0 -18 -6.5 -35.5 t-14.5 -29t-23.5 -23.5t-26.5 -18.5t-30.5 -14.5t-29 -11t-30 -9t-22.5 -6q2 0 8.5 -4.5t9.5 -6.5t9 -7t9 -10t6.5 -12t5.5 -16.5t2 -19.5q0 -88 -116 -161t-233 -73q-59 0 -91.5 27t-32.5 66zM1204 109q0 33 123 69l72 113q59 94 127 174q70 80 102 88l41 8q12 0 12 -6 q0 -2 -2 -4q-72 -82 -141 -174q-98 -127 -174 -197h39q49 0 141 -16q113 162 174 225q82 86 193 168l28 16q6 0 7 -6q0 -4 -4 -8l-21 -14q-43 -37 -77 -75t-52 -64.5t-63.5 -95t-81.5 -122.5q-4 -4 -14.5 -18t-16.5 -20q23 -2 39 -3q63 0 100 19l8 4q6 0 6 -2q0 -4 -4 -4 l-18 -8q-43 -18 -92 -19q-14 0 -45 2q-25 -27 -56.5 -65.5t-54.5 -63.5q-8 -10 -16 -10h-35q-18 0 -18 6t92 125l16 23q-76 16 -145 16h-37q-100 -80 -129 -80q-23 0 -23 19zM1212 109q1 -11 15 -11q31 0 86 62q-18 0 -59.5 -19.5t-41.5 -31.5z" />
<glyph unicode="&#xc0;" horiz-adv-x="1366" d="M147 137q0 45 30 81t69 36q27 0 43 -16.5t16 -42.5q0 -23 -17.5 -40.5t-41.5 -17.5q-39 0 -72 37q-10 -31 -10 -43q0 -51 43 -85t119 -34q143 0 340 156q-141 156 -142 332q0 141 84 236t213 95q92 0 176 -62t109 -148q6 6 84 84.5t108.5 108.5t108.5 103.5t128 115.5 t119.5 97.5t129.5 94.5q152 96 252 127l35 10q8 0 8 -4q0 -6 -11 -10l-22 -15q-123 -80 -238 -264q-18 -31 -123.5 -204t-164.5 -259q-125 -180 -230 -307l-239 -287h47q109 0 205 58q86 49 159 123l23 22l8 -6l-39 -39q-53 -53 -147 -111q-98 -59 -230 -59q-229 0 -399 156 q-197 -156 -352 -156q-80 0 -129.5 37t-49.5 100zM559 436q0 -59 23.5 -116.5t41 -81t52.5 -62.5q53 37 91 74t136 143q66 70 191 213q-72 143 -226 144q-127 0 -218 -90.5t-91 -223.5zM688 166q74 -61 125.5 -86.5t149.5 -54.5q164 174 163 411q0 88 -28 156 q-258 -289 -287 -316q-37 -37 -123 -110zM1090 190l4 -4l170 224q37 47 82 111.5t103 150.5t93 137q174 246 277 352q70 74 163 150l-4 4q-98 -41 -223 -127q-111 -76 -303 -246q-170 -150 -340 -338q31 -92 31 -166q0 -121 -53 -248zM1702 1683h131l178 -155q20 -14 21 -27 q0 -16 -15 -16q-2 0 -39 18z" />
<glyph unicode="&#xc1;" horiz-adv-x="1366" d="M147 137q0 45 30 81t69 36q27 0 43 -16.5t16 -42.5q0 -23 -17.5 -40.5t-41.5 -17.5q-39 0 -72 37q-10 -31 -10 -43q0 -51 43 -85t119 -34q143 0 340 156q-141 156 -142 332q0 141 84 236t213 95q92 0 176 -62t109 -148q6 6 84 84.5t108.5 108.5t108.5 103.5t128 115.5 t119.5 97.5t129.5 94.5q152 96 252 127l35 10q8 0 8 -4q0 -6 -11 -10l-22 -15q-123 -80 -238 -264q-18 -31 -123.5 -204t-164.5 -259q-125 -180 -230 -307l-239 -287h47q109 0 205 58q86 49 159 123l23 22l8 -6l-39 -39q-53 -53 -147 -111q-98 -59 -230 -59q-229 0 -399 156 q-197 -156 -352 -156q-80 0 -129.5 37t-49.5 100zM559 436q0 -59 23.5 -116.5t41 -81t52.5 -62.5q53 37 91 74t136 143q66 70 191 213q-72 143 -226 144q-127 0 -218 -90.5t-91 -223.5zM688 166q74 -61 125.5 -86.5t149.5 -54.5q164 174 163 411q0 88 -28 156 q-258 -289 -287 -316q-37 -37 -123 -110zM1090 190l4 -4l170 224q37 47 82 111.5t103 150.5t93 137q174 246 277 352q70 74 163 150l-4 4q-98 -41 -223 -127q-111 -76 -303 -246q-170 -150 -340 -338q31 -92 31 -166q0 -121 -53 -248zM1950 1501q0 10 20 27l178 155h131 l-276 -180q-37 -18 -39 -18q-14 0 -14 16z" />
<glyph unicode="&#xc2;" horiz-adv-x="1366" d="M147 137q0 45 30 81t69 36q27 0 43 -16.5t16 -42.5q0 -23 -17.5 -40.5t-41.5 -17.5q-39 0 -72 37q-10 -31 -10 -43q0 -51 43 -85t119 -34q143 0 340 156q-141 156 -142 332q0 141 84 236t213 95q92 0 176 -62t109 -148q6 6 84 84.5t108.5 108.5t108.5 103.5t128 115.5 t119.5 97.5t129.5 94.5q152 96 252 127l35 10q8 0 8 -4q0 -6 -11 -10l-22 -15q-123 -80 -238 -264q-18 -31 -123.5 -204t-164.5 -259q-125 -180 -230 -307l-239 -287h47q109 0 205 58q86 49 159 123l23 22l8 -6l-39 -39q-53 -53 -147 -111q-98 -59 -230 -59q-229 0 -399 156 q-197 -156 -352 -156q-80 0 -129.5 37t-49.5 100zM559 436q0 -59 23.5 -116.5t41 -81t52.5 -62.5q53 37 91 74t136 143q66 70 191 213q-72 143 -226 144q-127 0 -218 -90.5t-91 -223.5zM688 166q74 -61 125.5 -86.5t149.5 -54.5q164 174 163 411q0 88 -28 156 q-258 -289 -287 -316q-37 -37 -123 -110zM1090 190l4 -4l170 224q37 47 82 111.5t103 150.5t93 137q174 246 277 352q70 74 163 150l-4 4q-98 -41 -223 -127q-111 -76 -303 -246q-170 -150 -340 -338q31 -92 31 -166q0 -121 -53 -248zM1815 1501q0 8 22 23l252 137 q31 18 43 18q2 1 14 -22l54 -117q2 -4 5 -12t5 -14.5t2 -10.5q0 -12 -12 -12q-18 0 -39 31l-58 69l-254 -100q-10 -6 -20 -6q-14 0 -14 16z" />
<glyph unicode="&#xc3;" horiz-adv-x="1366" d="M147 137q0 45 30 81t69 36q27 0 43 -16.5t16 -42.5q0 -23 -17.5 -40.5t-41.5 -17.5q-39 0 -72 37q-10 -31 -10 -43q0 -51 43 -85t119 -34q143 0 340 156q-141 156 -142 332q0 141 84 236t213 95q92 0 176 -62t109 -148q6 6 84 84.5t108.5 108.5t108.5 103.5t128 115.5 t119.5 97.5t129.5 94.5q152 96 252 127l35 10q8 0 8 -4q0 -6 -11 -10l-22 -15q-123 -80 -238 -264q-18 -31 -123.5 -204t-164.5 -259q-125 -180 -230 -307l-239 -287h47q109 0 205 58q86 49 159 123l23 22l8 -6l-39 -39q-53 -53 -147 -111q-98 -59 -230 -59q-229 0 -399 156 q-197 -156 -352 -156q-80 0 -129.5 37t-49.5 100zM559 436q0 -59 23.5 -116.5t41 -81t52.5 -62.5q53 37 91 74t136 143q66 70 191 213q-72 143 -226 144q-127 0 -218 -90.5t-91 -223.5zM688 166q74 -61 125.5 -86.5t149.5 -54.5q164 174 163 411q0 88 -28 156 q-258 -289 -287 -316q-37 -37 -123 -110zM1090 190l4 -4l170 224q37 47 82 111.5t103 150.5t93 137q174 246 277 352q70 74 163 150l-4 4q-98 -41 -223 -127q-111 -76 -303 -246q-170 -150 -340 -338q31 -92 31 -166q0 -121 -53 -248zM1825 1528q0 29 35.5 61.5t87.5 32.5 q31 0 106 -23q88 -27 100 -26q20 0 44 22.5t30 22.5q15 -1 15 -21q0 -29 -32 -56.5t-77 -27.5q-31 0 -111 25q-84 25 -96 25q-20 0 -51 -25t-37 -25q-14 0 -14 15z" />
<glyph unicode="&#xc4;" horiz-adv-x="1366" d="M147 137q0 45 30 81t69 36q27 0 43 -16.5t16 -42.5q0 -23 -17.5 -40.5t-41.5 -17.5q-39 0 -72 37q-10 -31 -10 -43q0 -51 43 -85t119 -34q143 0 340 156q-141 156 -142 332q0 141 84 236t213 95q92 0 176 -62t109 -148q6 6 84 84.5t108.5 108.5t108.5 103.5t128 115.5 t119.5 97.5t129.5 94.5q152 96 252 127l35 10q8 0 8 -4q0 -6 -11 -10l-22 -15q-123 -80 -238 -264q-18 -31 -123.5 -204t-164.5 -259q-125 -180 -230 -307l-239 -287h47q109 0 205 58q86 49 159 123l23 22l8 -6l-39 -39q-53 -53 -147 -111q-98 -59 -230 -59q-229 0 -399 156 q-197 -156 -352 -156q-80 0 -129.5 37t-49.5 100zM559 436q0 -59 23.5 -116.5t41 -81t52.5 -62.5q53 37 91 74t136 143q66 70 191 213q-72 143 -226 144q-127 0 -218 -90.5t-91 -223.5zM688 166q74 -61 125.5 -86.5t149.5 -54.5q164 174 163 411q0 88 -28 156 q-258 -289 -287 -316q-37 -37 -123 -110zM1090 190l4 -4l170 224q37 47 82 111.5t103 150.5t93 137q174 246 277 352q70 74 163 150l-4 4q-98 -41 -223 -127q-111 -76 -303 -246q-170 -150 -340 -338q31 -92 31 -166q0 -121 -53 -248zM1847 1533.5q0 20.5 14.5 35t35 14.5 t35 -14.5t14.5 -35t-14.5 -34.5t-35 -14t-35 14t-14.5 34.5zM2060 1533.5q0 20.5 14.5 35t32.5 14.5q20 0 35 -14.5t15 -35t-14.5 -34.5t-35.5 -14q-18 0 -32.5 14t-14.5 34.5z" />
<glyph unicode="&#xc5;" horiz-adv-x="1366" d="M147 137q0 45 30 81t69 36q27 0 43 -16.5t16 -42.5q0 -23 -17.5 -40.5t-41.5 -17.5q-39 0 -72 37q-10 -31 -10 -43q0 -51 43 -85t119 -34q143 0 340 156q-141 156 -142 332q0 141 84 236t213 95q92 0 176 -62t109 -148q6 6 84 84.5t108.5 108.5t108.5 103.5t128 115.5 t119.5 97.5t129.5 94.5q152 96 252 127l35 10q8 0 8 -4q0 -6 -11 -10l-22 -15q-123 -80 -238 -264q-18 -31 -123.5 -204t-164.5 -259q-125 -180 -230 -307l-239 -287h47q109 0 205 58q86 49 159 123l23 22l8 -6l-39 -39q-53 -53 -147 -111q-98 -59 -230 -59q-229 0 -399 156 q-197 -156 -352 -156q-80 0 -129.5 37t-49.5 100zM559 436q0 -59 23.5 -116.5t41 -81t52.5 -62.5q53 37 91 74t136 143q66 70 191 213q-72 143 -226 144q-127 0 -218 -90.5t-91 -223.5zM688 166q74 -61 125.5 -86.5t149.5 -54.5q164 174 163 411q0 88 -28 156 q-258 -289 -287 -316q-37 -37 -123 -110zM1090 190l4 -4l170 224q37 47 82 111.5t103 150.5t93 137q174 246 277 352q70 74 163 150l-4 4q-98 -41 -223 -127q-111 -76 -303 -246q-170 -150 -340 -338q31 -92 31 -166q0 -121 -53 -248zM1972 1612q0 53 37 90t90 37t90 -37 t37 -90q0 -51 -37 -89t-90 -38t-90 37t-37 90zM2019 1612q0 -33 23.5 -56.5t56.5 -23.5t56.5 22.5t23.5 57.5q0 33 -24.5 56.5t-57.5 23.5q-31 0 -54.5 -22.5t-23.5 -57.5z" />
<glyph unicode="&#xc7;" horiz-adv-x="1517" d="M487 616q0 2 7 7l73 12q172 27 357 76q100 125 254.5 280.5t302.5 255.5q172 115 274 115q41 0 72 -24.5t31 -67.5q0 -145 -359 -359q-172 -104 -420 -172q0 -2 -28.5 -42t-45 -63.5t-50 -74.5t-56 -88t-51.5 -87t-45.5 -88t-28.5 -76t-12 -64q0 -63 64.5 -101.5 t136.5 -38.5q121 0 241.5 89.5t188 191.5t67.5 160q0 86 -104 86q-92 0 -209 -113q-61 -61 -137 -180l-21 -33q-4 -8 -8 -8t-4 6l18 35q61 113 150 199q111 106 217 106q66 0 108.5 -40t42.5 -109q0 -154 -168 -280t-354 -126l-67 -84q72 -14 98.5 -32.5t26.5 -61.5t-40 -75 t-100 -32q-104 0 -184 35l29 37q92 -25 127 -25q100 0 100 58q0 45 -104 57l-29 4l100 119q-109 10 -174 74.5t-65 171.5q0 184 198 440l-4 4q-150 -45 -332 -67l-71 -11q-12 0 -13 4zM1094 758v4l4 -4q248 66 440 200q121 84 200 179.5t79 154.5q0 23 -18.5 38.5 t-49.5 15.5q-147 0 -389 -256q-47 -49 -99.5 -115t-107.5 -138.5t-59 -78.5z" />
<glyph unicode="&#xc8;" horiz-adv-x="1214" d="M373 240q0 336 481 522q-41 47 -41 106q0 125 108.5 244t252 184.5t258.5 65.5q233 0 233 -186q0 -117 -108.5 -218.5t-239.5 -150.5l-53 -21q-8 0 -9 7q0 4 5 8l83 53q115 74 198 173t83 206q0 39 -38 73.5t-113 34.5q-104 0 -186.5 -46t-192.5 -156 q-94 -94 -161 -193.5t-67 -130.5q0 -25 11 -49q88 18 122 18q66 0 66 -39q0 -41 -70 -40q-49 0 -110 30q-100 -43 -281.5 -253t-181.5 -316q0 -68 65.5 -109t153.5 -41q86 0 187.5 59.5t179 139.5t130 159t52.5 118q0 92 -111 92q-121 0 -239.5 -122t-165.5 -241l-10 -28 q-4 -10 -8.5 -10t-4.5 10l13 34q37 113 164.5 243t248.5 130q72 0 116 -40t44 -109q0 -164 -191.5 -307.5t-379.5 -143.5q-123 0 -208 62.5t-85 177.5zM903 745q49 -26 92 -26q55 0 56 26q0 23 -50 23q-35 0 -98 -23zM1217 1683h131l178 -155q20 -14 20 -27q0 -16 -14 -16 q-2 0 -39 18z" />
<glyph unicode="&#xc9;" horiz-adv-x="1214" d="M373 240q0 336 481 522q-41 47 -41 106q0 125 108.5 244t252 184.5t258.5 65.5q233 0 233 -186q0 -117 -108.5 -218.5t-239.5 -150.5l-53 -21q-8 0 -9 7q0 4 5 8l83 53q115 74 198 173t83 206q0 39 -38 73.5t-113 34.5q-104 0 -186.5 -46t-192.5 -156 q-94 -94 -161 -193.5t-67 -130.5q0 -25 11 -49q88 18 122 18q66 0 66 -39q0 -41 -70 -40q-49 0 -110 30q-100 -43 -281.5 -253t-181.5 -316q0 -68 65.5 -109t153.5 -41q86 0 187.5 59.5t179 139.5t130 159t52.5 118q0 92 -111 92q-121 0 -239.5 -122t-165.5 -241l-10 -28 q-4 -10 -8.5 -10t-4.5 10l13 34q37 113 164.5 243t248.5 130q72 0 116 -40t44 -109q0 -164 -191.5 -307.5t-379.5 -143.5q-123 0 -208 62.5t-85 177.5zM903 745q49 -26 92 -26q55 0 56 26q0 23 -50 23q-35 0 -98 -23zM1464 1501q0 10 21 27l178 155h131l-276 -180 q-37 -18 -39 -18q-14 0 -15 16z" />
<glyph unicode="&#xca;" horiz-adv-x="1214" d="M373 240q0 336 481 522q-41 47 -41 106q0 125 108.5 244t252 184.5t258.5 65.5q233 0 233 -186q0 -117 -108.5 -218.5t-239.5 -150.5l-53 -21q-8 0 -9 7q0 4 5 8l83 53q115 74 198 173t83 206q0 39 -38 73.5t-113 34.5q-104 0 -186.5 -46t-192.5 -156 q-94 -94 -161 -193.5t-67 -130.5q0 -25 11 -49q88 18 122 18q66 0 66 -39q0 -41 -70 -40q-49 0 -110 30q-100 -43 -281.5 -253t-181.5 -316q0 -68 65.5 -109t153.5 -41q86 0 187.5 59.5t179 139.5t130 159t52.5 118q0 92 -111 92q-121 0 -239.5 -122t-165.5 -241l-10 -28 q-4 -10 -8.5 -10t-4.5 10l13 34q37 113 164.5 243t248.5 130q72 0 116 -40t44 -109q0 -164 -191.5 -307.5t-379.5 -143.5q-123 0 -208 62.5t-85 177.5zM903 745q49 -26 92 -26q55 0 56 26q0 23 -50 23q-35 0 -98 -23zM1309 1501q0 8 22 23l252 137q31 18 43 18q4 1 14 -22 l54 -117q2 -4 5 -12t5 -14.5t2 -10.5q0 -12 -12 -12q-18 0 -39 31l-58 69l-254 -100q-8 -6 -20 -6q-14 0 -14 16z" />
<glyph unicode="&#xcb;" horiz-adv-x="1214" d="M373 240q0 336 481 522q-41 47 -41 106q0 125 108.5 244t252 184.5t258.5 65.5q233 0 233 -186q0 -117 -108.5 -218.5t-239.5 -150.5l-53 -21q-8 0 -9 7q0 4 5 8l83 53q115 74 198 173t83 206q0 39 -38 73.5t-113 34.5q-104 0 -186.5 -46t-192.5 -156 q-94 -94 -161 -193.5t-67 -130.5q0 -25 11 -49q88 18 122 18q66 0 66 -39q0 -41 -70 -40q-49 0 -110 30q-100 -43 -281.5 -253t-181.5 -316q0 -68 65.5 -109t153.5 -41q86 0 187.5 59.5t179 139.5t130 159t52.5 118q0 92 -111 92q-121 0 -239.5 -122t-165.5 -241l-10 -28 q-4 -10 -8.5 -10t-4.5 10l13 34q37 113 164.5 243t248.5 130q72 0 116 -40t44 -109q0 -164 -191.5 -307.5t-379.5 -143.5q-123 0 -208 62.5t-85 177.5zM903 745q49 -26 92 -26q55 0 56 26q0 23 -50 23q-35 0 -98 -23zM1423 1533.5q0 20.5 14.5 35t35 14.5t35 -14.5t14.5 -35 t-14.5 -34.5t-35 -14t-35 14t-14.5 34.5zM1636 1533.5q0 20.5 14.5 35t32.5 14.5q20 0 35 -14.5t15 -35t-14.5 -34.5t-35.5 -14q-18 0 -32.5 14t-14.5 34.5z" />
<glyph unicode="&#xcc;" horiz-adv-x="1214" d="M156 180q0 61 41 111.5t98 50.5q29 0 49.5 -17.5t20.5 -48.5q0 -25 -16.5 -41t-43.5 -16q-59 0 -72 82q-61 -47 -61 -117q0 -78 62.5 -123t168.5 -45q94 0 186.5 44t180.5 131.5t129 135.5t107 136q10 12 14 18q-39 23 -63.5 41.5t-52 66.5t-27.5 111q0 121 93 235 t240 195q293 168 625 183l53 10q90 39 172 39q43 0 43 -25q0 -35 -104 -34q-2 0 -94 6q-98 -31 -195 -92q-61 -41 -164.5 -170t-195.5 -269l-209 -311q145 0 256 94q129 113 178 266l20 64q0 6 4.5 6t4.5 -6l-9 -41q-16 -74 -61 -150.5t-109 -134.5q-125 -113 -301 -119 q-334 -446 -725 -446q-106 0 -174.5 48t-68.5 132zM926 633q0 -94 104 -137l109 155q205 297 345 431.5t345 211.5l-4 4q-285 -10 -465 -137q-154 -106 -294 -267t-140 -261zM1585 1683h131l178 -155q20 -14 21 -27q0 -16 -14 -16q-2 0 -39 18z" />
<glyph unicode="&#xcd;" horiz-adv-x="1214" d="M156 180q0 61 41 111.5t98 50.5q29 0 49.5 -17.5t20.5 -48.5q0 -25 -16.5 -41t-43.5 -16q-59 0 -72 82q-61 -47 -61 -117q0 -78 62.5 -123t168.5 -45q94 0 186.5 44t180.5 131.5t129 135.5t107 136q10 12 14 18q-39 23 -63.5 41.5t-52 66.5t-27.5 111q0 121 93 235 t240 195q293 168 625 183l53 10q90 39 172 39q43 0 43 -25q0 -35 -104 -34q-2 0 -94 6q-98 -31 -195 -92q-61 -41 -164.5 -170t-195.5 -269l-209 -311q145 0 256 94q129 113 178 266l20 64q0 6 4.5 6t4.5 -6l-9 -41q-16 -74 -61 -150.5t-109 -134.5q-125 -113 -301 -119 q-334 -446 -725 -446q-106 0 -174.5 48t-68.5 132zM926 633q0 -94 104 -137l109 155q205 297 345 431.5t345 211.5l-4 4q-285 -10 -465 -137q-154 -106 -294 -267t-140 -261zM1751 1501q0 10 21 27l178 155h131l-277 -180q-37 -18 -39 -18q-14 0 -14 16z" />
<glyph unicode="&#xce;" horiz-adv-x="1214" d="M156 180q0 61 41 111.5t98 50.5q29 0 49.5 -17.5t20.5 -48.5q0 -25 -16.5 -41t-43.5 -16q-59 0 -72 82q-61 -47 -61 -117q0 -78 62.5 -123t168.5 -45q94 0 186.5 44t180.5 131.5t129 135.5t107 136q10 12 14 18q-39 23 -63.5 41.5t-52 66.5t-27.5 111q0 121 93 235 t240 195q293 168 625 183l53 10q90 39 172 39q43 0 43 -25q0 -35 -104 -34q-2 0 -94 6q-98 -31 -195 -92q-61 -41 -164.5 -170t-195.5 -269l-209 -311q145 0 256 94q129 113 178 266l20 64q0 6 4.5 6t4.5 -6l-9 -41q-16 -74 -61 -150.5t-109 -134.5q-125 -113 -301 -119 q-334 -446 -725 -446q-106 0 -174.5 48t-68.5 132zM926 633q0 -94 104 -137l109 155q205 297 345 431.5t345 211.5l-4 4q-285 -10 -465 -137q-154 -106 -294 -267t-140 -261zM1698 1501q0 8 22 23l252 137q31 18 43 18q5 1 15 -22l53 -117q2 -4 5 -12t5 -14.5t2 -10.5 q0 -12 -12 -12q-18 0 -39 31l-57 69l-254 -100q-8 -6 -21 -6q-14 0 -14 16z" />
<glyph unicode="&#xcf;" horiz-adv-x="1214" d="M156 180q0 61 41 111.5t98 50.5q29 0 49.5 -17.5t20.5 -48.5q0 -25 -16.5 -41t-43.5 -16q-59 0 -72 82q-61 -47 -61 -117q0 -78 62.5 -123t168.5 -45q94 0 186.5 44t180.5 131.5t129 135.5t107 136q10 12 14 18q-39 23 -63.5 41.5t-52 66.5t-27.5 111q0 121 93 235 t240 195q293 168 625 183l53 10q90 39 172 39q43 0 43 -25q0 -35 -104 -34q-2 0 -94 6q-98 -31 -195 -92q-61 -41 -164.5 -170t-195.5 -269l-209 -311q145 0 256 94q129 113 178 266l20 64q0 6 4.5 6t4.5 -6l-9 -41q-16 -74 -61 -150.5t-109 -134.5q-125 -113 -301 -119 q-334 -446 -725 -446q-106 0 -174.5 48t-68.5 132zM926 633q0 -94 104 -137l109 155q205 297 345 431.5t345 211.5l-4 4q-285 -10 -465 -137q-154 -106 -294 -267t-140 -261zM1690 1533.5q0 20.5 14 35t34.5 14.5t35 -14.5t14.5 -35t-14.5 -34.5t-35 -14t-34.5 14t-14 34.5z M1903 1533.5q0 20.5 14 35t33 14.5q20 0 34.5 -14.5t14.5 -35t-14.5 -34.5t-34.5 -14q-18 0 -32.5 14t-14.5 34.5z" />
<glyph unicode="&#xd1;" horiz-adv-x="1705" d="M152 150q0 47 27.5 82.5t70.5 35.5q29 0 46 -17.5t17 -41.5q0 -27 -18.5 -44.5t-46.5 -17.5q-37 0 -66 46q-14 -29 -14 -56q0 -51 49 -86t127 -35q164 0 358 172q166 145 488 574q180 238 301 381q16 18 176 192l25 27l6 -4l-41 -88q-51 -111 -76 -228.5t-38 -248.5 t-30 -203q-14 -61 -29.5 -115.5t-32.5 -99.5t-29.5 -73t-31 -66.5t-22.5 -49.5l4 -4l287 393q117 160 287 343q229 248 462 372q117 61 224 82l57 10v-10l-84 -20q-145 -39 -227 -92q-125 -72 -215 -149t-201 -196q-162 -174 -418 -518l-293 -397h-16l31 63q43 90 72.5 210 t59 307.5t34.5 207.5q27 141 53.5 213t77.5 170l36 68l-4 4q-94 -98 -438 -543q-14 -18 -57 -75.5t-75 -98.5t-84 -104.5t-105 -118.5q-137 -145 -252 -224t-240 -79q-86 0 -139 40t-53 110zM1933 1528q0 29 36 61.5t87 32.5q31 0 107 -23q88 -27 100 -26q20 0 44 22.5 t30 22.5q14 -1 14 -21q0 -29 -31.5 -56.5t-76.5 -27.5q-31 0 -111 25q-82 25 -96 25q-20 0 -51 -25t-37 -25q-14 0 -15 15z" />
<glyph unicode="&#xd2;" horiz-adv-x="1214" d="M350 225q0 143 131 345t311.5 374t376 295t316.5 123q86 0 138 -47t52 -135q0 -78 -56 -154t-124 -125q-16 -109 -121 -275.5t-211 -279.5q-145 -156 -304 -251t-281 -95q-102 0 -165 58.5t-63 166.5zM403 170q0 -72 46.5 -113t125.5 -41q131 0 285 93.5t291 240.5 q92 100 199.5 266t126.5 275q-70 -43 -99 -55l-69 -29q-33 -14 -49 -14l-5 2q0 2 19 14l59 33q59 31 152 112q0 37 -26.5 73t-80.5 36q-84 0 -229 -131t-248.5 -259t-148.5 -198q-25 -39 -54.5 -88t-35.5 -57l-21 -29q-4 -8 -10 -8q-4 0 -4 6l39 96q49 123 162.5 279.5 t266 282.5t271.5 126q102 0 133 -110q135 139 135 250q0 57 -39 90t-100 33q-49 0 -106.5 -25t-101.5 -53.5t-115.5 -95t-106.5 -101.5t-119 -123q-215 -225 -379 -450.5t-164 -327.5zM1257 1683h132l178 -155q20 -14 20 -27q0 -16 -14 -16q-2 0 -39 18z" />
<glyph unicode="&#xd3;" horiz-adv-x="1214" d="M350 225q0 143 131 345t311.5 374t376 295t316.5 123q86 0 138 -47t52 -135q0 -78 -56 -154t-124 -125q-16 -109 -121 -275.5t-211 -279.5q-145 -156 -304 -251t-281 -95q-102 0 -165 58.5t-63 166.5zM403 170q0 -72 46.5 -113t125.5 -41q131 0 285 93.5t291 240.5 q92 100 199.5 266t126.5 275q-70 -43 -99 -55l-69 -29q-33 -14 -49 -14l-5 2q0 2 19 14l59 33q59 31 152 112q0 37 -26.5 73t-80.5 36q-84 0 -229 -131t-248.5 -259t-148.5 -198q-25 -39 -54.5 -88t-35.5 -57l-21 -29q-4 -8 -10 -8q-4 0 -4 6l39 96q49 123 162.5 279.5 t266 282.5t271.5 126q102 0 133 -110q135 139 135 250q0 57 -39 90t-100 33q-49 0 -106.5 -25t-101.5 -53.5t-115.5 -95t-106.5 -101.5t-119 -123q-215 -225 -379 -450.5t-164 -327.5zM1546 1501q0 10 21 27l178 155h131l-277 -180q-37 -18 -38 -18q-14 0 -15 16z" />
<glyph unicode="&#xd4;" horiz-adv-x="1214" d="M350 225q0 143 131 345t311.5 374t376 295t316.5 123q86 0 138 -47t52 -135q0 -78 -56 -154t-124 -125q-16 -109 -121 -275.5t-211 -279.5q-145 -156 -304 -251t-281 -95q-102 0 -165 58.5t-63 166.5zM403 170q0 -72 46.5 -113t125.5 -41q131 0 285 93.5t291 240.5 q92 100 199.5 266t126.5 275q-70 -43 -99 -55l-69 -29q-33 -14 -49 -14l-5 2q0 2 19 14l59 33q59 31 152 112q0 37 -26.5 73t-80.5 36q-84 0 -229 -131t-248.5 -259t-148.5 -198q-25 -39 -54.5 -88t-35.5 -57l-21 -29q-4 -8 -10 -8q-4 0 -4 6l39 96q49 123 162.5 279.5 t266 282.5t271.5 126q102 0 133 -110q135 139 135 250q0 57 -39 90t-100 33q-49 0 -106.5 -25t-101.5 -53.5t-115.5 -95t-106.5 -101.5t-119 -123q-215 -225 -379 -450.5t-164 -327.5zM1309 1501q0 8 22 23l252 137q31 18 43 18q4 1 14 -22l54 -117q2 -4 5 -12t5 -14.5 t2 -10.5q0 -12 -12 -12q-18 0 -39 31l-58 69l-254 -100q-8 -6 -20 -6q-14 0 -14 16z" />
<glyph unicode="&#xd5;" horiz-adv-x="1214" d="M350 225q0 143 131 345t311.5 374t376 295t316.5 123q86 0 138 -47t52 -135q0 -78 -56 -154t-124 -125q-16 -109 -121 -275.5t-211 -279.5q-145 -156 -304 -251t-281 -95q-102 0 -165 58.5t-63 166.5zM403 170q0 -72 46.5 -113t125.5 -41q131 0 285 93.5t291 240.5 q92 100 199.5 266t126.5 275q-70 -43 -99 -55l-69 -29q-33 -14 -49 -14l-5 2q0 2 19 14l59 33q59 31 152 112q0 37 -26.5 73t-80.5 36q-84 0 -229 -131t-248.5 -259t-148.5 -198q-25 -39 -54.5 -88t-35.5 -57l-21 -29q-4 -8 -10 -8q-4 0 -4 6l39 96q49 123 162.5 279.5 t266 282.5t271.5 126q102 0 133 -110q135 139 135 250q0 57 -39 90t-100 33q-49 0 -106.5 -25t-101.5 -53.5t-115.5 -95t-106.5 -101.5t-119 -123q-215 -225 -379 -450.5t-164 -327.5zM1442 1528q0 29 35.5 61.5t87.5 32.5q31 0 106 -23q88 -27 101 -26q20 0 43.5 22.5 t29.5 22.5q15 -1 15 -21q0 -29 -32 -56.5t-77 -27.5q-31 0 -111 25q-84 25 -96 25q-20 0 -51 -25t-37 -25q-14 0 -14 15z" />
<glyph unicode="&#xd6;" horiz-adv-x="1214" d="M350 225q0 143 131 345t311.5 374t376 295t316.5 123q86 0 138 -47t52 -135q0 -78 -56 -154t-124 -125q-16 -109 -121 -275.5t-211 -279.5q-145 -156 -304 -251t-281 -95q-102 0 -165 58.5t-63 166.5zM403 170q0 -72 46.5 -113t125.5 -41q131 0 285 93.5t291 240.5 q92 100 199.5 266t126.5 275q-70 -43 -99 -55l-69 -29q-33 -14 -49 -14l-5 2q0 2 19 14l59 33q59 31 152 112q0 37 -26.5 73t-80.5 36q-84 0 -229 -131t-248.5 -259t-148.5 -198q-25 -39 -54.5 -88t-35.5 -57l-21 -29q-4 -8 -10 -8q-4 0 -4 6l39 96q49 123 162.5 279.5 t266 282.5t271.5 126q102 0 133 -110q135 139 135 250q0 57 -39 90t-100 33q-49 0 -106.5 -25t-101.5 -53.5t-115.5 -95t-106.5 -101.5t-119 -123q-215 -225 -379 -450.5t-164 -327.5zM1423 1533.5q0 20.5 14.5 35t35 14.5t35 -14.5t14.5 -35t-14.5 -34.5t-35 -14t-35 14 t-14.5 34.5zM1636 1533.5q0 20.5 14.5 35t32.5 14.5q20 0 35 -14.5t15 -35t-14.5 -34.5t-35.5 -14q-18 0 -32.5 14t-14.5 34.5z" />
<glyph unicode="&#xd9;" horiz-adv-x="1820" d="M721 756q0 131 112.5 273t289.5 237.5t345 95.5q147 0 236.5 -74t89.5 -211q0 -98 -47 -187t-141 -214l-267 -354q-145 -190 -145 -256q0 -49 59 -50q82 0 300.5 217.5t369.5 409.5l246 311h84l-172 -217q-45 -57 -191.5 -257.5t-169.5 -233.5q-106 -150 -106 -183 q0 -18 16.5 -30.5t40.5 -12.5q51 0 195 125l65 58q2 2 6 2l5 -4l-5 -6l-20 -21q-102 -92 -164.5 -133t-116.5 -41q-37 0 -62.5 25.5t-25.5 68.5q0 53 127 238l-4 4q-12 -12 -47 -48t-51.5 -52.5t-50 -49t-52 -49t-49 -43t-52 -40t-46.5 -28t-46.5 -20.5t-39.5 -6 q-45 0 -74.5 28.5t-29.5 80.5q0 102 118 258l301 391q113 145 155 220t42 165q0 82 -75 142.5t-208 60.5q-164 0 -336 -94.5t-282.5 -233.5t-110.5 -264q0 -68 39 -110t103 -42q135 0 301 178t213 346l10 37q0 6 6 6t6 -10l-10 -92q-20 -174 -166.5 -333t-327.5 -159 q-84 0 -137 48.5t-53 132.5zM1745 1683h131l178 -155q20 -14 21 -27q0 -16 -15 -16q-2 0 -39 18z" />
<glyph unicode="&#xda;" horiz-adv-x="1820" d="M721 756q0 131 112.5 273t289.5 237.5t345 95.5q147 0 236.5 -74t89.5 -211q0 -98 -47 -187t-141 -214l-267 -354q-145 -190 -145 -256q0 -49 59 -50q82 0 300.5 217.5t369.5 409.5l246 311h84l-172 -217q-45 -57 -191.5 -257.5t-169.5 -233.5q-106 -150 -106 -183 q0 -18 16.5 -30.5t40.5 -12.5q51 0 195 125l65 58q2 2 6 2l5 -4l-5 -6l-20 -21q-102 -92 -164.5 -133t-116.5 -41q-37 0 -62.5 25.5t-25.5 68.5q0 53 127 238l-4 4q-12 -12 -47 -48t-51.5 -52.5t-50 -49t-52 -49t-49 -43t-52 -40t-46.5 -28t-46.5 -20.5t-39.5 -6 q-45 0 -74.5 28.5t-29.5 80.5q0 102 118 258l301 391q113 145 155 220t42 165q0 82 -75 142.5t-208 60.5q-164 0 -336 -94.5t-282.5 -233.5t-110.5 -264q0 -68 39 -110t103 -42q135 0 301 178t213 346l10 37q0 6 6 6t6 -10l-10 -92q-20 -174 -166.5 -333t-327.5 -159 q-84 0 -137 48.5t-53 132.5zM2054 1501q0 10 21 27l178 155h131l-277 -180q-37 -18 -39 -18q-14 0 -14 16z" />
<glyph unicode="&#xdb;" horiz-adv-x="1820" d="M721 756q0 131 112.5 273t289.5 237.5t345 95.5q147 0 236.5 -74t89.5 -211q0 -98 -47 -187t-141 -214l-267 -354q-145 -190 -145 -256q0 -49 59 -50q82 0 300.5 217.5t369.5 409.5l246 311h84l-172 -217q-45 -57 -191.5 -257.5t-169.5 -233.5q-106 -150 -106 -183 q0 -18 16.5 -30.5t40.5 -12.5q51 0 195 125l65 58q2 2 6 2l5 -4l-5 -6l-20 -21q-102 -92 -164.5 -133t-116.5 -41q-37 0 -62.5 25.5t-25.5 68.5q0 53 127 238l-4 4q-12 -12 -47 -48t-51.5 -52.5t-50 -49t-52 -49t-49 -43t-52 -40t-46.5 -28t-46.5 -20.5t-39.5 -6 q-45 0 -74.5 28.5t-29.5 80.5q0 102 118 258l301 391q113 145 155 220t42 165q0 82 -75 142.5t-208 60.5q-164 0 -336 -94.5t-282.5 -233.5t-110.5 -264q0 -68 39 -110t103 -42q135 0 301 178t213 346l10 37q0 6 6 6t6 -10l-10 -92q-20 -174 -166.5 -333t-327.5 -159 q-84 0 -137 48.5t-53 132.5zM1960 1501q0 8 22 23l252 137q31 18 43 18q5 1 15 -22l53 -117q2 -4 5 -12t5 -14.5t2 -10.5q0 -12 -12 -12q-18 0 -39 31l-57 69l-254 -100q-8 -6 -21 -6q-14 0 -14 16z" />
<glyph unicode="&#xdc;" horiz-adv-x="1820" d="M721 756q0 131 112.5 273t289.5 237.5t345 95.5q147 0 236.5 -74t89.5 -211q0 -98 -47 -187t-141 -214l-267 -354q-145 -190 -145 -256q0 -49 59 -50q82 0 300.5 217.5t369.5 409.5l246 311h84l-172 -217q-45 -57 -191.5 -257.5t-169.5 -233.5q-106 -150 -106 -183 q0 -18 16.5 -30.5t40.5 -12.5q51 0 195 125l65 58q2 2 6 2l5 -4l-5 -6l-20 -21q-102 -92 -164.5 -133t-116.5 -41q-37 0 -62.5 25.5t-25.5 68.5q0 53 127 238l-4 4q-12 -12 -47 -48t-51.5 -52.5t-50 -49t-52 -49t-49 -43t-52 -40t-46.5 -28t-46.5 -20.5t-39.5 -6 q-45 0 -74.5 28.5t-29.5 80.5q0 102 118 258l301 391q113 145 155 220t42 165q0 82 -75 142.5t-208 60.5q-164 0 -336 -94.5t-282.5 -233.5t-110.5 -264q0 -68 39 -110t103 -42q135 0 301 178t213 346l10 37q0 6 6 6t6 -10l-10 -92q-20 -174 -166.5 -333t-327.5 -159 q-84 0 -137 48.5t-53 132.5zM1993 1533.5q0 20.5 14 35t34.5 14.5t35 -14.5t14.5 -35t-14.5 -34.5t-35 -14t-34.5 14t-14 34.5zM2206 1533.5q0 20.5 14 35t33 14.5q20 0 34.5 -14.5t14.5 -35t-14.5 -34.5t-34.5 -14q-18 0 -32.5 14t-14.5 34.5z" />
<glyph unicode="&#xdd;" horiz-adv-x="1896" d="M764 823q0 104 91 214t235 194q188 131 428 131q127 0 215 -67.5t88 -190.5q0 -84 -53.5 -178.5t-118 -161t-117.5 -140t-53 -122.5t67 -49q33 0 76 23.5t114.5 85t110.5 97t138 129.5q309 297 368 345q35 29 92 65l41 25h8l-2 -9l-34 -26q-123 -96 -199 -197 q-61 -78 -178 -260t-195 -285q-168 -219 -339 -332.5t-382 -113.5q-125 0 -195.5 41t-70.5 115q0 55 28.5 87.5t67.5 32.5q27 0 43.5 -17t16.5 -46q0 -23 -17.5 -38t-46.5 -15q-35 0 -53 45q-18 -18 -18 -68q0 -51 67.5 -86t161.5 -35q86 0 170 33t145.5 76t137 126 t118.5 138t117 158l184 250l-4 4l-166 -154q-16 -14 -56 -50t-58.5 -51.5t-51 -42t-54 -37.5t-49.5 -20.5t-52 -9.5q-47 0 -80 31t-33 76q0 70 56.5 160t123 161.5t123 151.5t56.5 133q0 86 -73 141.5t-202 55.5q-211 0 -414 -132q-119 -66 -215 -181t-96 -212 q0 -66 42 -108.5t122 -42.5q123 0 278.5 144t223.5 282l37 73q4 8 8 9q2 0 2 -7v-20q0 -68 -41 -155t-107.5 -166.5t-165 -135t-198.5 -55.5q-98 0 -155.5 48t-57.5 136zM2091 1501q0 10 20 27l179 155h131l-277 -180q-37 -18 -39 -18q-14 0 -14 16z" />
<glyph unicode="&#xdf;" horiz-adv-x="872" d="M-311 -506q184 227 399 516q186 260 246 348l-4 4q-98 -66 -211 -169l-25 -23q-2 -2 -6 -2t-4 4q0 2 6 8l27 27q84 84 245 196l125 172q152 205 324 373t258 168q33 0 53.5 -17.5t20.5 -47.5q0 -100 -99.5 -241.5t-246.5 -281.5l-125 -112l4 -4q4 0 20.5 4t26.5 4 q43 0 72.5 -34t29.5 -89t-23.5 -103.5t-61.5 -79t-67.5 -49t-60.5 -30.5q45 -20 72 -21q94 0 250 146l45 43l10 2l2 -4l-4 -6l-45 -43q-162 -152 -254 -152q-37 0 -94 25q-68 -25 -121 -25q-47 0 -82 24.5t-35 67.5q0 29 18.5 48.5t45.5 19.5q20 0 36.5 -13.5t16.5 -42.5 q0 -23 -14.5 -37t-34.5 -14q-27 0 -47 21q0 -23 17.5 -38.5t47.5 -15.5q90 0 193.5 121t103.5 199q0 16 -12 27.5t-29 11.5q-10 0 -53 -17l-8 50l168 155q131 121 226 269.5t95 214.5q0 23 -14 36t-35 13q-84 0 -217 -146.5t-244 -314.5l-421 -639q-119 -178 -394 -506h-112 z" />
<glyph unicode="&#xe0;" horiz-adv-x="645" d="M78 164l2 6l117 115q59 57 147 106t143 49q33 0 57.5 -21.5t24.5 -43.5v-39h4l74 94h80l-195 -287q-51 -76 -51 -96q0 -23 29 -22q47 0 184 125l64 59q6 4 8 4l4 -4q0 -2 -4 -6l-61 -62q-141 -141 -220 -141q-35 0 -54 23.5t-19 54.5q0 16 10 53l-4 4l-64 -57 q-88 -78 -159 -78q-100 0 -101 94q0 41 21 90l-4 4l-25 -24l-4 -2zM164 57q0 -41 47 -41q72 0 209 144.5t137 208.5q0 23 -20.5 39t-44.5 16q-76 0 -202 -153.5t-126 -213.5zM317 741h132l178 -155q20 -14 20 -27q0 -16 -14 -16q-2 0 -39 18z" />
<glyph unicode="&#xe1;" horiz-adv-x="645" d="M78 164l2 6l117 115q59 57 147 106t143 49q33 0 57.5 -21.5t24.5 -43.5v-39h4l74 94h80l-195 -287q-51 -76 -51 -96q0 -23 29 -22q47 0 184 125l64 59q6 4 8 4l4 -4q0 -2 -4 -6l-61 -62q-141 -141 -220 -141q-35 0 -54 23.5t-19 54.5q0 16 10 53l-4 4l-64 -57 q-88 -78 -159 -78q-100 0 -101 94q0 41 21 90l-4 4l-25 -24l-4 -2zM164 57q0 -41 47 -41q72 0 209 144.5t137 208.5q0 23 -20.5 39t-44.5 16q-76 0 -202 -153.5t-126 -213.5zM463 559q0 10 20 27l179 155h131l-277 -180q-37 -18 -39 -18q-14 0 -14 16z" />
<glyph unicode="&#xe2;" horiz-adv-x="645" d="M78 164l2 6l117 115q59 57 147 106t143 49q33 0 57.5 -21.5t24.5 -43.5v-39h4l74 94h80l-195 -287q-51 -76 -51 -96q0 -23 29 -22q47 0 184 125l64 59q6 4 8 4l4 -4q0 -2 -4 -6l-61 -62q-141 -141 -220 -141q-35 0 -54 23.5t-19 54.5q0 16 10 53l-4 4l-64 -57 q-88 -78 -159 -78q-100 0 -101 94q0 41 21 90l-4 4l-25 -24l-4 -2zM164 57q0 -41 47 -41q72 0 209 144.5t137 208.5q0 23 -20.5 39t-44.5 16q-76 0 -202 -153.5t-126 -213.5zM369 559q0 8 22 23l252 137q31 18 43 18q2 1 14 -22l54 -117q2 -4 5 -12t5 -14.5t2 -10.5 q0 -12 -12 -12q-18 0 -39 31l-58 69l-254 -100q-8 -6 -20 -6q-14 0 -14 16z" />
<glyph unicode="&#xe3;" horiz-adv-x="645" d="M78 164l2 6l117 115q59 57 147 106t143 49q33 0 57.5 -21.5t24.5 -43.5v-39h4l74 94h80l-195 -287q-51 -76 -51 -96q0 -23 29 -22q47 0 184 125l64 59q6 4 8 4l4 -4q0 -2 -4 -6l-61 -62q-141 -141 -220 -141q-35 0 -54 23.5t-19 54.5q0 16 10 53l-4 4l-64 -57 q-88 -78 -159 -78q-100 0 -101 94q0 41 21 90l-4 4l-25 -24l-4 -2zM164 57q0 -41 47 -41q72 0 209 144.5t137 208.5q0 23 -20.5 39t-44.5 16q-76 0 -202 -153.5t-126 -213.5zM338 586q0 29 36 61.5t87 32.5q31 0 106 -23q88 -27 101 -26q20 0 43.5 22.5t29.5 22.5 q15 -1 15 -21q0 -29 -32 -56.5t-77 -27.5q-31 0 -110 25q-82 25 -97 25q-20 0 -51 -25t-37 -25q-14 0 -14 15z" />
<glyph unicode="&#xe4;" horiz-adv-x="645" d="M78 164l2 6l117 115q59 57 147 106t143 49q33 0 57.5 -21.5t24.5 -43.5v-39h4l74 94h80l-195 -287q-51 -76 -51 -96q0 -23 29 -22q47 0 184 125l64 59q6 4 8 4l4 -4q0 -2 -4 -6l-61 -62q-141 -141 -220 -141q-35 0 -54 23.5t-19 54.5q0 16 10 53l-4 4l-64 -57 q-88 -78 -159 -78q-100 0 -101 94q0 41 21 90l-4 4l-25 -24l-4 -2zM164 57q0 -41 47 -41q72 0 209 144.5t137 208.5q0 23 -20.5 39t-44.5 16q-76 0 -202 -153.5t-126 -213.5zM381 591.5q0 20.5 14.5 35t35 14.5t34.5 -14.5t14 -35t-14 -34.5t-34.5 -14t-35 14t-14.5 34.5z M594 591.5q0 20.5 14.5 35t32.5 14.5q20 0 34.5 -14.5t14.5 -35t-14 -34.5t-35 -14q-18 0 -32.5 14t-14.5 34.5z" />
<glyph unicode="&#xe5;" horiz-adv-x="645" d="M78 164l2 6l117 115q59 57 147 106t143 49q33 0 57.5 -21.5t24.5 -43.5v-39h4l74 94h80l-195 -287q-51 -76 -51 -96q0 -23 29 -22q47 0 184 125l64 59q6 4 8 4l4 -4q0 -2 -4 -6l-61 -62q-141 -141 -220 -141q-35 0 -54 23.5t-19 54.5q0 16 10 53l-4 4l-64 -57 q-88 -78 -159 -78q-100 0 -101 94q0 41 21 90l-4 4l-25 -24l-4 -2zM164 57q0 -41 47 -41q72 0 209 144.5t137 208.5q0 23 -20.5 39t-44.5 16q-76 0 -202 -153.5t-126 -213.5zM516 669.5q0 53.5 37 90.5t90 37t90 -37t37 -90q0 -51 -37 -89t-90 -38t-90 36.5t-37 90zM563 670 q0 -33 23.5 -56.5t56.5 -23.5t56.5 22.5t23.5 57.5q0 33 -24.5 56.5t-57.5 23.5q-31 0 -54.5 -22.5t-23.5 -57.5z" />
<glyph unicode="&#xe7;" horiz-adv-x="493" d="M39 -242l31 37q82 -25 125 -24q100 0 100 57q0 10 -4 18.5t-14.5 14.5t-19.5 10t-24.5 7t-23.5 5t-25.5 4t-21.5 2l92 111q-55 8 -89 47t-34 94q0 37 14 72l-4 4l-39 -39q-2 -2 -6 -2t-4 4t2 6l31 33q68 70 102.5 102.5t110.5 75.5t145 43q41 0 69 -21.5t28 -53.5 q0 -29 -17.5 -44.5t-40.5 -15.5q-20 0 -34.5 14.5t-14.5 30.5q0 45 43 45q29 0 39 -24l4 4q-4 49 -63 49q-76 0 -174.5 -129t-98.5 -199q0 -33 21.5 -53t58.5 -20q43 0 123 45t133 92l47 43l10 2q2 0 2 -4q0 -2 -4 -6l-47 -43q-151 -138 -270 -152l-57 -74q6 -2 27.5 -7 t29.5 -8t23.5 -11.5t22.5 -16.5t13 -21.5t6 -31.5q0 -45 -40.5 -75.5t-106.5 -30.5q-37 0 -73 7t-67.5 16t-35.5 11z" />
<glyph unicode="&#xe8;" horiz-adv-x="454" d="M74 164q0 4 2 6l24 25q111 115 213.5 180t157.5 65q61 0 61 -49q0 -61 -76.5 -115.5t-172.5 -80.5l-52 -15q-45 -59 -45 -102q0 -27 21.5 -44.5t58.5 -17.5q92 0 250 144l45 43l10 2l2 -4l-4 -6l-45 -43l-16 -15q-14 -14 -19.5 -18t-21.5 -18.5t-25.5 -20.5t-28 -19.5 t-30.5 -19.5t-30.5 -15.5t-35 -14.5t-35 -8t-36.5 -3q-61 0 -103.5 34t-42.5 85q0 41 19 71l-4 5l-31 -33q-2 -2 -6 -2t-4 4zM221 741h131l178 -155q20 -14 21 -27q0 -16 -14 -16q-2 0 -39 18zM244 199q88 14 182 74.5t94 117.5q0 16 -13 26.5t-30 10.5q-33 0 -83 -44 t-97 -110z" />
<glyph unicode="&#xe9;" horiz-adv-x="454" d="M74 164q0 4 2 6l24 25q111 115 213.5 180t157.5 65q61 0 61 -49q0 -61 -76.5 -115.5t-172.5 -80.5l-52 -15q-45 -59 -45 -102q0 -27 21.5 -44.5t58.5 -17.5q92 0 250 144l45 43l10 2l2 -4l-4 -6l-45 -43l-16 -15q-14 -14 -19.5 -18t-21.5 -18.5t-25.5 -20.5t-28 -19.5 t-30.5 -19.5t-30.5 -15.5t-35 -14.5t-35 -8t-36.5 -3q-61 0 -103.5 34t-42.5 85q0 41 19 71l-4 5l-31 -33q-2 -2 -6 -2t-4 4zM244 199q88 14 182 74.5t94 117.5q0 16 -13 26.5t-30 10.5q-33 0 -83 -44t-97 -110zM367 559q0 10 20 27l178 155h131l-276 -180q-37 -18 -39 -18 q-14 0 -14 16z" />
<glyph unicode="&#xea;" horiz-adv-x="454" d="M74 164q0 4 2 6l24 25q111 115 213.5 180t157.5 65q61 0 61 -49q0 -61 -76.5 -115.5t-172.5 -80.5l-52 -15q-45 -59 -45 -102q0 -27 21.5 -44.5t58.5 -17.5q92 0 250 144l45 43l10 2l2 -4l-4 -6l-45 -43l-16 -15q-14 -14 -19.5 -18t-21.5 -18.5t-25.5 -20.5t-28 -19.5 t-30.5 -19.5t-30.5 -15.5t-35 -14.5t-35 -8t-36.5 -3q-61 0 -103.5 34t-42.5 85q0 41 19 71l-4 5l-31 -33q-2 -2 -6 -2t-4 4zM244 199q88 14 182 74.5t94 117.5q0 16 -13 26.5t-30 10.5q-33 0 -83 -44t-97 -110zM272 559q0 8 23 23l252 137q31 18 43 18q4 1 14 -22l53 -117 q2 -4 5.5 -12t5.5 -14.5t2 -10.5q0 -12 -13 -12q-18 0 -39 31l-57 69l-254 -100q-8 -6 -20 -6q-14 0 -15 16z" />
<glyph unicode="&#xeb;" horiz-adv-x="454" d="M74 164q0 4 2 6l24 25q111 115 213.5 180t157.5 65q61 0 61 -49q0 -61 -76.5 -115.5t-172.5 -80.5l-52 -15q-45 -59 -45 -102q0 -27 21.5 -44.5t58.5 -17.5q92 0 250 144l45 43l10 2l2 -4l-4 -6l-45 -43l-16 -15q-14 -14 -19.5 -18t-21.5 -18.5t-25.5 -20.5t-28 -19.5 t-30.5 -19.5t-30.5 -15.5t-35 -14.5t-35 -8t-36.5 -3q-61 0 -103.5 34t-42.5 85q0 41 19 71l-4 5l-31 -33q-2 -2 -6 -2t-4 4zM244 199q88 14 182 74.5t94 117.5q0 16 -13 26.5t-30 10.5q-33 0 -83 -44t-97 -110zM305 591.5q0 20.5 14.5 35t35 14.5t34.5 -14.5t14 -35 t-14 -34.5t-34.5 -14t-35 14t-14.5 34.5zM518 591.5q0 20.5 14.5 35t32.5 14.5q20 0 34.5 -14.5t14.5 -35t-14 -34.5t-35 -14q-18 0 -32.5 14t-14.5 34.5z" />
<glyph unicode="&#xec;" horiz-adv-x="378" d="M70 154q0 4 4 8l135 127q47 43 135 131h100l-192 -248q-70 -86 -70 -111q0 -37 35 -36q29 0 99.5 42t127.5 93l48 43l10 2q2 0 2 -4q0 -2 -4 -6l-47 -43q-168 -152 -263 -152q-82 0 -81 76q0 49 49 143l-4 4l-74 -67q-4 -4 -8 -4zM184 741h131l179 -155q20 -14 20 -27 q0 -16 -14 -16q-2 0 -39 18z" />
<glyph unicode="&#xed;" horiz-adv-x="378" d="M70 154q0 4 4 8l135 127q47 43 135 131h100l-192 -248q-70 -86 -70 -111q0 -37 35 -36q29 0 99.5 42t127.5 93l48 43l10 2q2 0 2 -4q0 -2 -4 -6l-47 -43q-168 -152 -263 -152q-82 0 -81 76q0 49 49 143l-4 4l-74 -67q-4 -4 -8 -4zM330 559q0 10 20 27l178 155h131 l-276 -180q-37 -18 -39 -18q-14 0 -14 16z" />
<glyph unicode="&#xee;" horiz-adv-x="378" d="M70 154q0 4 4 8l135 127q47 43 135 131h100l-192 -248q-70 -86 -70 -111q0 -37 35 -36q29 0 99.5 42t127.5 93l48 43l10 2q2 0 2 -4q0 -2 -4 -6l-47 -43q-168 -152 -263 -152q-82 0 -81 76q0 49 49 143l-4 4l-74 -67q-4 -4 -8 -4zM233 559q0 8 23 23l252 137q31 18 43 18 q2 1 14 -22l53 -117q2 -4 5.5 -12t5.5 -14.5t2 -10.5q0 -12 -13 -12q-18 0 -38 31l-58 69l-254 -100q-8 -6 -20 -6q-14 0 -15 16z" />
<glyph unicode="&#xef;" horiz-adv-x="378" d="M70 154q0 4 4 8l135 127q47 43 135 131h100l-192 -248q-70 -86 -70 -111q0 -37 35 -36q29 0 99.5 42t127.5 93l48 43l10 2q2 0 2 -4q0 -2 -4 -6l-47 -43q-168 -152 -263 -152q-82 0 -81 76q0 49 49 143l-4 4l-74 -67q-4 -4 -8 -4zM268 591.5q0 20.5 14.5 35t35 14.5 t35 -14.5t14.5 -35t-14.5 -34.5t-35 -14t-35 14t-14.5 34.5zM481 591.5q0 20.5 14.5 35t32.5 14.5q20 0 35 -14.5t15 -35t-14.5 -34.5t-35.5 -14q-18 0 -32.5 14t-14.5 34.5z" />
<glyph unicode="&#xf1;" d="M92 178q0 4 4 8l109 109q6 6 37.5 38t44 42t38 30.5t45 27.5t40.5 7q90 0 90 -92q0 -39 -33 -90l4 -4q61 66 147.5 126t157.5 60q39 0 65.5 -23.5t26.5 -58.5q0 -63 -59 -127l-92 -98q-35 -35 -35 -80q0 -33 53 -33q86 0 197 103l76 72q6 4 8 4l4 -4q0 -3 -4 -7l-82 -79 q-113 -109 -211 -109q-106 0 -107 100q0 45 68 121l84 101q33 43 33 67q0 31 -41 31q-119 0 -383 -293l-113 -127h-104l186 240q86 113 86 141q0 39 -26 39q-41 0 -85.5 -34t-113.5 -107l-103 -101q-6 -4 -8 -4zM500 586q0 29 35.5 61.5t87.5 32.5q31 0 106 -23 q88 -27 100 -26q20 0 44 22.5t30 22.5q15 -1 15 -21q0 -29 -32 -56.5t-77 -27.5q-31 0 -111 25q-82 25 -96 25q-20 0 -51 -25t-37 -25q-14 0 -14 15z" />
<glyph unicode="&#xf2;" horiz-adv-x="530" d="M57 150q0 2 6 8l56 51q74 66 117 102.5t126.5 82.5t151.5 46q37 0 57.5 -25.5t20.5 -52.5q0 -16 -5 -34.5t-12.5 -33.5t-21.5 -35.5t-23.5 -33t-27 -32t-23.5 -27.5t-24 -27l-17 -16q33 -18 54 -19q41 0 100 56l45 43l8 2l4 -4l-51 -49q-68 -63 -109 -64q-16 0 -61 23 q-8 -6 -31.5 -24.5t-35 -27t-34 -22.5t-38 -20.5t-37 -11.5t-41.5 -5q-45 0 -75 29.5t-30 81t19 82.5l-4 4l-51 -50q-4 -2 -8.5 -2t-4.5 5zM180 66q0 -49 58 -50q74 0 205.5 131.5t131.5 212.5q0 27 -19 45.5t-46 18.5q-86 0 -208 -149.5t-122 -208.5zM260 741h131l178 -155 q20 -14 21 -27q0 -16 -15 -16q-2 0 -38 18z" />
<glyph unicode="&#xf3;" horiz-adv-x="530" d="M57 150q0 2 6 8l56 51q74 66 117 102.5t126.5 82.5t151.5 46q37 0 57.5 -25.5t20.5 -52.5q0 -16 -5 -34.5t-12.5 -33.5t-21.5 -35.5t-23.5 -33t-27 -32t-23.5 -27.5t-24 -27l-17 -16q33 -18 54 -19q41 0 100 56l45 43l8 2l4 -4l-51 -49q-68 -63 -109 -64q-16 0 -61 23 q-8 -6 -31.5 -24.5t-35 -27t-34 -22.5t-38 -20.5t-37 -11.5t-41.5 -5q-45 0 -75 29.5t-30 81t19 82.5l-4 4l-51 -50q-4 -2 -8.5 -2t-4.5 5zM180 66q0 -49 58 -50q74 0 205.5 131.5t131.5 212.5q0 27 -19 45.5t-46 18.5q-86 0 -208 -149.5t-122 -208.5zM406 559q0 10 20 27 l178 155h131l-276 -180q-37 -18 -39 -18q-14 0 -14 16z" />
<glyph unicode="&#xf4;" horiz-adv-x="530" d="M57 150q0 2 6 8l56 51q74 66 117 102.5t126.5 82.5t151.5 46q37 0 57.5 -25.5t20.5 -52.5q0 -16 -5 -34.5t-12.5 -33.5t-21.5 -35.5t-23.5 -33t-27 -32t-23.5 -27.5t-24 -27l-17 -16q33 -18 54 -19q41 0 100 56l45 43l8 2l4 -4l-51 -49q-68 -63 -109 -64q-16 0 -61 23 q-8 -6 -31.5 -24.5t-35 -27t-34 -22.5t-38 -20.5t-37 -11.5t-41.5 -5q-45 0 -75 29.5t-30 81t19 82.5l-4 4l-51 -50q-4 -2 -8.5 -2t-4.5 5zM180 66q0 -49 58 -50q74 0 205.5 131.5t131.5 212.5q0 27 -19 45.5t-46 18.5q-86 0 -208 -149.5t-122 -208.5zM332 559q0 8 22 23 l252 137q31 18 43 18q3 1 15 -22l53 -117q2 -4 5 -12t5 -14.5t2 -10.5q0 -12 -12 -12q-18 0 -39 31l-57 69l-254 -100q-8 -6 -21 -6q-14 0 -14 16z" />
<glyph unicode="&#xf5;" horiz-adv-x="530" d="M57 150q0 2 6 8l56 51q74 66 117 102.5t126.5 82.5t151.5 46q37 0 57.5 -25.5t20.5 -52.5q0 -16 -5 -34.5t-12.5 -33.5t-21.5 -35.5t-23.5 -33t-27 -32t-23.5 -27.5t-24 -27l-17 -16q33 -18 54 -19q41 0 100 56l45 43l8 2l4 -4l-51 -49q-68 -63 -109 -64q-16 0 -61 23 q-8 -6 -31.5 -24.5t-35 -27t-34 -22.5t-38 -20.5t-37 -11.5t-41.5 -5q-45 0 -75 29.5t-30 81t19 82.5l-4 4l-51 -50q-4 -2 -8.5 -2t-4.5 5zM180 66q0 -49 58 -50q74 0 205.5 131.5t131.5 212.5q0 27 -19 45.5t-46 18.5q-86 0 -208 -149.5t-122 -208.5zM301 586q0 29 36 61.5 t87 32.5q31 0 106 -23q88 -27 101 -26q20 0 43.5 22.5t30.5 22.5q14 -1 14 -21q0 -29 -32 -56.5t-77 -27.5q-31 0 -110 25q-82 25 -97 25q-20 0 -50.5 -25t-37.5 -25q-14 0 -14 15z" />
<glyph unicode="&#xf6;" horiz-adv-x="530" d="M57 150q0 2 6 8l56 51q74 66 117 102.5t126.5 82.5t151.5 46q37 0 57.5 -25.5t20.5 -52.5q0 -16 -5 -34.5t-12.5 -33.5t-21.5 -35.5t-23.5 -33t-27 -32t-23.5 -27.5t-24 -27l-17 -16q33 -18 54 -19q41 0 100 56l45 43l8 2l4 -4l-51 -49q-68 -63 -109 -64q-16 0 -61 23 q-8 -6 -31.5 -24.5t-35 -27t-34 -22.5t-38 -20.5t-37 -11.5t-41.5 -5q-45 0 -75 29.5t-30 81t19 82.5l-4 4l-51 -50q-4 -2 -8.5 -2t-4.5 5zM180 66q0 -49 58 -50q74 0 205.5 131.5t131.5 212.5q0 27 -19 45.5t-46 18.5q-86 0 -208 -149.5t-122 -208.5zM344 591.5 q0 20.5 14.5 35t35 14.5t34.5 -14.5t14 -35t-14 -34.5t-34.5 -14t-35 14t-14.5 34.5zM557 591.5q0 20.5 14.5 35t32.5 14.5q20 0 34.5 -14.5t14.5 -35t-14 -34.5t-35 -14q-18 0 -32.5 14t-14.5 34.5z" />
<glyph unicode="&#xf9;" horiz-adv-x="757" d="M74 160q0 4 4 8l135 127q94 86 133 125h100l-192 -248q-70 -86 -70 -111q0 -41 49 -41q76 0 175.5 81t177.5 173q57 70 123 146h100l-184 -248q-80 -104 -80 -127q0 -25 34.5 -25t110.5 45.5t129 94.5l45 43l10 2l3 -4l-5 -6l-45 -43q-57 -53 -135 -102.5t-129 -49.5 q-82 0 -82 82l6 61q-6 -6 -28.5 -23.5t-30.5 -23.5t-28.5 -20.5t-31 -20.5t-27.5 -17t-29.5 -16.5t-28 -11.5t-29.5 -8t-29 -2q-41 0 -71.5 21.5t-30.5 66.5q0 43 43 141l-4 4l-78 -71q-4 -4 -8 -4zM352 741h131l179 -155q20 -14 20 -27q0 -16 -14 -16q-2 0 -39 18z" />
<glyph unicode="&#xfa;" horiz-adv-x="757" d="M74 160q0 4 4 8l135 127q94 86 133 125h100l-192 -248q-70 -86 -70 -111q0 -41 49 -41q76 0 175.5 81t177.5 173q57 70 123 146h100l-184 -248q-80 -104 -80 -127q0 -25 34.5 -25t110.5 45.5t129 94.5l45 43l10 2l3 -4l-5 -6l-45 -43q-57 -53 -135 -102.5t-129 -49.5 q-82 0 -82 82l6 61q-6 -6 -28.5 -23.5t-30.5 -23.5t-28.5 -20.5t-31 -20.5t-27.5 -17t-29.5 -16.5t-28 -11.5t-29.5 -8t-29 -2q-41 0 -71.5 21.5t-30.5 66.5q0 43 43 141l-4 4l-78 -71q-4 -4 -8 -4zM518 559q0 10 21 27l178 155h131l-277 -180q-37 -18 -39 -18q-14 0 -14 16 z" />
<glyph unicode="&#xfb;" horiz-adv-x="757" d="M74 160q0 4 4 8l135 127q94 86 133 125h100l-192 -248q-70 -86 -70 -111q0 -41 49 -41q76 0 175.5 81t177.5 173q57 70 123 146h100l-184 -248q-80 -104 -80 -127q0 -25 34.5 -25t110.5 45.5t129 94.5l45 43l10 2l3 -4l-5 -6l-45 -43q-57 -53 -135 -102.5t-129 -49.5 q-82 0 -82 82l6 61q-6 -6 -28.5 -23.5t-30.5 -23.5t-28.5 -20.5t-31 -20.5t-27.5 -17t-29.5 -16.5t-28 -11.5t-29.5 -8t-29 -2q-41 0 -71.5 21.5t-30.5 66.5q0 43 43 141l-4 4l-78 -71q-4 -4 -8 -4zM424 559q0 8 22 23l252 137q31 18 43 18q5 1 15 -22l53 -117q2 -4 5 -12 t5 -14.5t2 -10.5q0 -12 -12 -12q-18 0 -39 31l-57 69l-254 -100q-8 -6 -21 -6q-14 0 -14 16z" />
<glyph unicode="&#xfc;" horiz-adv-x="757" d="M74 160q0 4 4 8l135 127q94 86 133 125h100l-192 -248q-70 -86 -70 -111q0 -41 49 -41q76 0 175.5 81t177.5 173q57 70 123 146h100l-184 -248q-80 -104 -80 -127q0 -25 34.5 -25t110.5 45.5t129 94.5l45 43l10 2l3 -4l-5 -6l-45 -43q-57 -53 -135 -102.5t-129 -49.5 q-82 0 -82 82l6 61q-6 -6 -28.5 -23.5t-30.5 -23.5t-28.5 -20.5t-31 -20.5t-27.5 -17t-29.5 -16.5t-28 -11.5t-29.5 -8t-29 -2q-41 0 -71.5 21.5t-30.5 66.5q0 43 43 141l-4 4l-78 -71q-4 -4 -8 -4zM457 591.5q0 20.5 14 35t34.5 14.5t35 -14.5t14.5 -35t-14.5 -34.5 t-35 -14t-34.5 14t-14 34.5zM670 591.5q0 20.5 14 35t33 14.5q20 0 34.5 -14.5t14.5 -35t-14.5 -34.5t-34.5 -14q-18 0 -32.5 14t-14.5 34.5z" />
<glyph unicode="&#xfd;" d="M-131 -580q0 117 205 280t444 253l148 209l-4 4q-186 -166 -279 -166q-100 0 -100 96q0 47 55 115l78 98q41 45 41 74q0 37 -37 37q-43 0 -90 -34t-123 -110l-119 -114q-6 -4 -8 -4l-4 4q0 4 4 8l125 123q47 47 75.5 72.5t71.5 50t78 24.5q41 0 70.5 -23.5t29.5 -60.5 q0 -59 -45 -110l-82 -103q-47 -57 -47 -86q0 -14 10.5 -26.5t26.5 -12.5q68 0 175.5 85t201.5 196l113 127h90l-320 -430q70 8 157 51t161 113l45 43l10 2l2 -4l-4 -6l-45 -43q-150 -141 -342 -175q-193 -270 -299 -385q-240 -248 -385 -247q-35 0 -59.5 19.5t-24.5 55.5z M-115 -580q0 -59 72 -59q86 0 219 148.5t324 414.5l-4 4q-178 -59 -394.5 -222t-216.5 -286zM614 559q0 10 21 27l178 155h131l-276 -180q-37 -18 -39 -18q-14 0 -15 16z" />
<glyph unicode="&#xff;" d="M-131 -580q0 117 205 280t444 253l148 209l-4 4q-186 -166 -279 -166q-100 0 -100 96q0 47 55 115l78 98q41 45 41 74q0 37 -37 37q-43 0 -90 -34t-123 -110l-119 -114q-6 -4 -8 -4l-4 4q0 4 4 8l125 123q47 47 75.5 72.5t71.5 50t78 24.5q41 0 70.5 -23.5t29.5 -60.5 q0 -59 -45 -110l-82 -103q-47 -57 -47 -86q0 -14 10.5 -26.5t26.5 -12.5q68 0 175.5 85t201.5 196l113 127h90l-320 -430q70 8 157 51t161 113l45 43l10 2l2 -4l-4 -6l-45 -43q-150 -141 -342 -175q-193 -270 -299 -385q-240 -248 -385 -247q-35 0 -59.5 19.5t-24.5 55.5z M-115 -580q0 -59 72 -59q86 0 219 148.5t324 414.5l-4 4q-178 -59 -394.5 -222t-216.5 -286zM532 591.5q0 20.5 14.5 35t35 14.5t35 -14.5t14.5 -35t-14.5 -34.5t-35 -14t-35 14t-14.5 34.5zM745 591.5q0 20.5 14.5 35t33.5 14.5q20 0 34.5 -14.5t14.5 -35t-14.5 -34.5 t-34.5 -14q-18 0 -33 14t-15 34.5z" />
<glyph unicode="&#x178;" horiz-adv-x="1896" d="M764 823q0 104 91 214t235 194q188 131 428 131q127 0 215 -67.5t88 -190.5q0 -84 -53.5 -178.5t-118 -161t-117.5 -140t-53 -122.5t67 -49q33 0 76 23.5t114.5 85t110.5 97t138 129.5q309 297 368 345q35 29 92 65l41 25h8l-2 -9l-34 -26q-123 -96 -199 -197 q-61 -78 -178 -260t-195 -285q-168 -219 -339 -332.5t-382 -113.5q-125 0 -195.5 41t-70.5 115q0 55 28.5 87.5t67.5 32.5q27 0 43.5 -17t16.5 -46q0 -23 -17.5 -38t-46.5 -15q-35 0 -53 45q-18 -18 -18 -68q0 -51 67.5 -86t161.5 -35q86 0 170 33t145.5 76t137 126 t118.5 138t117 158l184 250l-4 4l-166 -154q-16 -14 -56 -50t-58.5 -51.5t-51 -42t-54 -37.5t-49.5 -20.5t-52 -9.5q-47 0 -80 31t-33 76q0 70 56.5 160t123 161.5t123 151.5t56.5 133q0 86 -73 141.5t-202 55.5q-211 0 -414 -132q-119 -66 -215 -181t-96 -212 q0 -66 42 -108.5t122 -42.5q123 0 278.5 144t223.5 282l37 73q4 8 8 9q2 0 2 -7v-20q0 -68 -41 -155t-107.5 -166.5t-165 -135t-198.5 -55.5q-98 0 -155.5 48t-57.5 136zM1989 1533.5q0 20.5 14 35t34.5 14.5t35 -14.5t14.5 -35t-14.5 -34.5t-35 -14t-34.5 14t-14 34.5z M2202 1533.5q0 20.5 14 35t33 14.5q20 0 34.5 -14.5t14.5 -35t-14.5 -34.5t-34.5 -14q-18 0 -32.5 14t-14.5 34.5z" />
<glyph unicode="&#x2c6;" horiz-adv-x="409" d="M270 559q0 8 23 23l252 137q31 18 43 18q2 1 14 -22l53 -117q2 -4 5.5 -12t5.5 -14.5t2 -10.5q0 -12 -13 -12q-18 0 -39 31l-57 69l-254 -100q-8 -6 -20 -6q-14 0 -15 16z" />
<glyph unicode="&#x2dc;" horiz-adv-x="409" d="M219 586q0 29 36 61.5t87 32.5q31 0 107 -23q88 -27 100 -26q20 0 43.5 22.5t30.5 22.5q14 -1 14 -21q0 -29 -32 -56.5t-77 -27.5q-31 0 -110 25q-82 25 -96 25q-20 0 -51 -25t-38 -25q-14 0 -14 15z" />
<glyph unicode="&#x2000;" horiz-adv-x="869" />
<glyph unicode="&#x2001;" horiz-adv-x="1739" />
<glyph unicode="&#x2002;" horiz-adv-x="869" />
<glyph unicode="&#x2003;" horiz-adv-x="1739" />
<glyph unicode="&#x2004;" horiz-adv-x="579" />
<glyph unicode="&#x2005;" horiz-adv-x="434" />
<glyph unicode="&#x2006;" horiz-adv-x="289" />
<glyph unicode="&#x2007;" horiz-adv-x="289" />
<glyph unicode="&#x2008;" horiz-adv-x="217" />
<glyph unicode="&#x2009;" horiz-adv-x="347" />
<glyph unicode="&#x200a;" horiz-adv-x="96" />
<glyph unicode="&#x2010;" horiz-adv-x="454" d="M172 209l31 37h313l-31 -37h-313z" />
<glyph unicode="&#x2011;" horiz-adv-x="454" d="M172 209l31 37h313l-31 -37h-313z" />
<glyph unicode="&#x2012;" horiz-adv-x="454" d="M172 209l31 37h313l-31 -37h-313z" />
<glyph unicode="&#x2013;" horiz-adv-x="1134" d="M172 209l92 37h932l-92 -37h-932z" />
<glyph unicode="&#x2014;" horiz-adv-x="2048" d="M172 209l31 37h1904l-30 -37h-1905z" />
<glyph unicode="&#x2018;" horiz-adv-x="493" d="M922 856q0 66 42 117t89 51q25 0 42 -17.5t17 -40t-16.5 -39t-38.5 -16.5q-53 0 -53 66q-31 -12 -48.5 -53t-17.5 -82q0 -6 2 -20.5t2 -26.5l2 -13q0 -4 -6 -4t-6 4l-4 15q-6 18 -6 59z" />
<glyph unicode="&#x2019;" horiz-adv-x="493" d="M813 784q0 8 8 9l39 14q102 39 115 113q-12 -6 -27 -7q-51 0 -51 54q0 23 15.5 40t37.5 17q25 0 39.5 -19.5t14.5 -46.5q0 -53 -31 -96t-74 -57l-59 -21q-6 -2 -15 -4l-6 -2q-6 0 -6 6z" />
<glyph unicode="&#x201c;" horiz-adv-x="681" d="M809 856q0 66 42 117t89 51q25 0 42 -17.5t17 -40t-16 -39t-39 -16.5q-53 0 -53 66q-31 -12 -48.5 -53t-17.5 -82q0 -6 1 -20.5t3 -26.5l2 -13q0 -4 -6 -4t-6 4l-4 15q-6 18 -6 59zM1034 856q0 66 42 117t89 51q25 0 42.5 -17.5t17.5 -40t-16.5 -39t-39.5 -16.5 q-53 0 -53 66q-31 -12 -48 -53t-17 -82q0 -6 1 -20.5t3 -26.5l2 -13q0 -4 -6.5 -4t-6.5 4l-4 15q-6 18 -6 59z" />
<glyph unicode="&#x201d;" horiz-adv-x="681" d="M813 784q0 8 8 9l39 14q102 39 115 113q-12 -6 -27 -7q-51 0 -51 54q0 23 15.5 40t37.5 17q25 0 39.5 -19.5t14.5 -46.5q0 -53 -31 -96t-74 -57l-59 -21q-6 -2 -15 -4l-6 -2q-6 0 -6 6zM997 784q0 8 9 9l38 14q102 39 115 113q-12 -6 -26 -7q-51 0 -52 54q0 23 15.5 40 t38.5 17q25 0 39 -19.5t14 -46.5q0 -53 -31 -96t-74 -57l-59 -21q-8 -2 -14 -4l-6 -2q-6 0 -7 6z" />
<glyph unicode="&#x202f;" horiz-adv-x="347" />
<glyph unicode="&#x2039;" horiz-adv-x="493" d="M285 233l170 197h53l-170 -205l65 -225h-49z" />
<glyph unicode="&#x203a;" horiz-adv-x="493" d="M334 0l162 203l-72 227h47l76 -235l-156 -195h-57z" />
<glyph unicode="&#x205f;" horiz-adv-x="434" />
<glyph unicode="&#x25fc;" horiz-adv-x="440" d="M0 0v440h440v-440h-440z" />
</font>
</defs>
</svg>
