<svg xmlns="http://www.w3.org/2000/svg" viewBox="0 0 85 30" enable-background="new 0 0 85 30"><linearGradient id="a" gradientUnits="userSpaceOnUse" x1="42.5" y1="30" x2="42.5"><stop offset=".5" stop-color="#F2641C"/><stop offset=".5" stop-color="#F69428"/></linearGradient><path d="M80 30H5c-2.75 0-5-2.25-5-5V5c0-2.75 2.25-5 5-5h75c2.75 0 5 2.25 5 5v20c0 2.75-2.25 5-5 5z" fill="url(#a)"/><path d="M11.11 8.766c.68-.136 2.057-.238 3.35-.238 1.58 0 2.55.153 3.38.646.8.425 1.378 1.207 1.378 2.244 0 1.02-.595 1.972-1.887 2.448v.034c1.31.357 2.28 1.343 2.28 2.822 0 1.037-.475 1.853-1.19 2.43-.832.664-2.226 1.038-4.503 1.038-1.275 0-2.227-.085-2.805-.17V8.766zm2.566 4.385h.85c1.36 0 2.09-.56 2.09-1.41 0-.865-.662-1.324-1.835-1.324-.56 0-.88.034-1.102.068v2.67zm0 5.086c.255.034.56.034 1.003.034 1.17 0 2.21-.443 2.21-1.65 0-1.156-1.04-1.615-2.33-1.615h-.886v3.23zm15.452-.835c0 1.09.034 1.974.068 2.67h-2.244l-.12-1.172h-.05c-.323.51-1.105 1.36-2.6 1.36-1.684 0-2.925-1.054-2.925-3.62v-4.88h2.6v4.47c0 1.208.392 1.94 1.293 1.94.714 0 1.122-.494 1.292-.902.068-.153.085-.357.085-.56V11.76h2.6v5.64zm4.012-5.64l1.242 4.08c.136.492.306 1.104.408 1.546h.05c.12-.442.256-1.07.375-1.547l1.02-4.08h2.77l-1.935 5.47c-1.19 3.3-1.99 4.625-2.924 5.458-.9.782-1.853 1.054-2.5 1.14l-.543-2.194c.324-.05.732-.204 1.123-.442.39-.204.816-.612 1.07-1.037.086-.12.137-.255.137-.374 0-.082-.017-.22-.12-.422l-3.04-7.598h2.87zm10.388 2.65c0-1.037-.034-1.92-.068-2.65h2.244l.12 1.14h.05c.34-.53 1.19-1.328 2.566-1.328 1.7 0 2.975 1.124 2.975 3.57v4.93H48.83v-4.605c0-1.07-.373-1.802-1.308-1.802-.714 0-1.14.493-1.31.97-.067.152-.1.407-.1.645v4.793h-2.584v-5.66zM61.7 15.82c0 3.042-2.16 4.437-4.386 4.437-2.43 0-4.3-1.598-4.3-4.284s1.768-4.402 4.437-4.402c2.55 0 4.25 1.75 4.25 4.25zm-6.017.085c0 1.428.595 2.5 1.7 2.5 1.003 0 1.648-1.004 1.648-2.5 0-1.24-.473-2.5-1.645-2.5-1.24 0-1.7 1.276-1.7 2.5zm9.247-4.147l.664 3.4c.17.866.34 1.784.476 2.736h.034c.17-.952.408-1.904.612-2.72l.884-3.417h2.04l.833 3.314c.22.938.442 1.87.612 2.825h.034c.116-.952.286-1.887.473-2.84l.714-3.296h2.532l-2.55 8.31h-2.43l-.783-2.924c-.204-.816-.357-1.564-.527-2.583h-.032c-.153 1.037-.323 1.802-.544 2.583l-.833 2.924h-2.43L62.3 11.756h2.635z" fill="#fff"/></svg>