<?xml version="1.0" encoding="iso-8859-1"?>
<!-- Generator: Adobe Illustrator 19.0.0, SVG Export Plug-In . SVG Version: 6.00 Build 0)  -->
<svg version="1.1" xmlns="http://www.w3.org/2000/svg" xmlns:xlink="http://www.w3.org/1999/xlink" x="0px" y="0px"
	 viewBox="0 0 90 15" style="enable-background:new 0 0 90 15;" xml:space="preserve">
<g id="cta_x5F_shop">
	<rect y="0" style="fill:#C32033;" width="90" height="15"/>
	<g>
		<polygon style="fill:#FFFFFF;" points="80.353,4.146 79.646,4.853 82.081,7.288 79.647,9.722 80.354,10.429 83.495,7.288 		"/>
		<path style="fill:#FFFFFF;" d="M11.147,4.907c0.237-0.092,0.731-0.199,1.341-0.199c0.761,0,1.395,0.171,1.882,0.508
			c0.155,0.109,0.298,0.247,0.37,0.319l0.059,0.059l1.066-0.429l-0.113-0.132c-0.01-0.012-0.024-0.031-0.042-0.054
			c-0.074-0.097-0.212-0.276-0.383-0.417c-0.101-0.091-0.2-0.159-0.304-0.228C14.385,3.92,13.529,3.71,12.48,3.71
			c-1.195,0-1.865,0.269-2.156,0.429C9.969,4.328,9.375,4.781,9.375,5.69c0,0.174,0,0.705,0.49,1.154
			c0.496,0.457,1.113,0.526,2.352,0.627l0.232,0.02c0.528,0.042,1.412,0.114,1.799,0.286c0.212,0.092,0.465,0.282,0.465,0.668
			c0,0.109-0.028,0.485-0.383,0.755c-0.248,0.187-0.726,0.407-1.62,0.407c-0.299,0-1.105-0.02-1.786-0.298
			c-0.486-0.197-0.76-0.449-0.833-0.521c-0.047-0.047-0.08-0.086-0.126-0.144L9.907,8.573L8.984,8.951L8.855,9.03l0.088,0.128
			c0.099,0.144,0.266,0.386,0.608,0.646c0.08,0.061,0.323,0.243,0.692,0.403c0.311,0.133,0.535,0.188,0.703,0.23
			c0.755,0.191,1.632,0.193,1.669,0.193c0.288,0,0.602-0.021,0.933-0.064c0.874-0.099,1.57-0.452,1.959-0.996
			c0.159-0.216,0.348-0.588,0.348-1.135c0-0.152,0-0.614-0.361-1.078c-0.366-0.452-0.894-0.682-1.821-0.792
			C13.352,6.528,13.032,6.5,12.71,6.473c-0.375-0.032-0.762-0.065-1.143-0.114l-0.056-0.007c-0.335-0.04-0.715-0.085-0.897-0.376
			c-0.057-0.092-0.089-0.213-0.089-0.331C10.525,5.494,10.586,5.118,11.147,4.907z"/>
		<polygon style="fill:#FFFFFF;" points="23.255,6.465 18.634,6.465 18.634,3.873 17.475,3.873 17.475,10.478 18.643,10.478 
			18.643,7.472 23.264,7.472 23.264,10.478 24.423,10.478 24.423,3.873 23.255,3.873 		"/>
		<path style="fill:#FFFFFF;" d="M32.063,4.136c-0.785-0.362-1.605-0.417-2.024-0.417c-1.388,0-2.298,0.515-2.816,0.946
			c-0.263,0.216-0.385,0.358-0.477,0.479c-0.436,0.549-0.667,1.276-0.667,2.103c0,0.654,0.165,1.269,0.478,1.777
			c0.524,0.844,1.405,1.378,2.544,1.542c0.439,0.072,0.81,0.083,0.992,0.083c1.811,0,2.769-0.795,3.097-1.137
			c0.751-0.776,0.863-1.741,0.863-2.247c0-0.422-0.075-1.24-0.581-1.971C33.143,4.822,32.629,4.399,32.063,4.136z M31.151,9.494
			c-0.461,0.122-0.867,0.122-1.04,0.122c-0.814,0-1.478-0.177-1.971-0.525c-0.254-0.181-0.384-0.33-0.476-0.45
			c-0.378-0.512-0.435-1.115-0.435-1.429c0-0.314,0.049-0.629,0.137-0.887c0.105-0.308,0.273-0.58,0.501-0.807
			c0.657-0.657,1.665-0.76,2.066-0.774c0.032-0.001,0.067-0.001,0.104-0.001c0.673,0,2.064,0.157,2.634,1.379l0,0.001
			c0.101,0.213,0.222,0.568,0.222,1.054c0,0.324-0.057,0.586-0.078,0.682C32.619,8.683,32.027,9.264,31.151,9.494z"/>
		<path style="fill:#FFFFFF;" d="M40.255,3.896L40.174,3.89c-0.156-0.009-0.312-0.017-0.469-0.017h-4.014v6.606h1.168V7.931h2.927
			c0.63,0,1.282,0,1.876-0.458c0.623-0.469,0.716-1.161,0.716-1.531c0-0.423-0.123-0.835-0.347-1.161
			C41.488,4.003,40.593,3.925,40.255,3.896z M36.85,4.879h2.71c0.5,0,1.065,0,1.388,0.403c0.131,0.164,0.197,0.368,0.197,0.606
			c0,0.329-0.111,0.529-0.206,0.642c-0.295,0.365-0.754,0.395-1.28,0.395h-2.81V4.879z"/>
		<polygon style="fill:#FFFFFF;" points="53.224,8.93 48.462,3.873 47.355,3.873 47.355,10.478 48.47,10.478 48.453,5.411 
			53.251,10.478 54.312,10.478 54.312,3.873 53.198,3.873 		"/>
		<path style="fill:#FFFFFF;" d="M61.943,4.136c-0.785-0.362-1.605-0.417-2.024-0.417c-1.388,0-2.298,0.515-2.816,0.946
			c-0.263,0.216-0.385,0.358-0.477,0.479c-0.436,0.549-0.667,1.276-0.667,2.103c0,0.654,0.165,1.269,0.478,1.777
			c0.524,0.844,1.405,1.378,2.544,1.542c0.439,0.072,0.81,0.083,0.992,0.083c1.811,0,2.769-0.795,3.097-1.137
			c0.751-0.776,0.863-1.741,0.863-2.247c0-0.422-0.075-1.24-0.581-1.971C63.023,4.822,62.509,4.399,61.943,4.136z M61.031,9.494
			c-0.461,0.122-0.867,0.122-1.04,0.122c-0.814,0-1.478-0.177-1.971-0.525c-0.254-0.181-0.384-0.33-0.476-0.45
			c-0.378-0.512-0.435-1.115-0.435-1.429c0-0.314,0.049-0.629,0.137-0.887c0.105-0.308,0.273-0.58,0.501-0.807
			c0.657-0.657,1.665-0.76,2.066-0.774c0.032-0.001,0.067-0.001,0.104-0.001c0.673,0,2.064,0.157,2.634,1.379l0,0.001
			c0.101,0.213,0.222,0.568,0.222,1.054c0,0.324-0.057,0.586-0.078,0.682C62.498,8.683,61.907,9.264,61.031,9.494z"/>
		<polygon style="fill:#FFFFFF;" points="72.249,8.937 70.423,3.955 70.393,3.873 69.417,3.873 67.552,8.964 65.978,3.873 
			64.75,3.873 66.902,10.478 68.107,10.478 69.9,5.518 71.685,10.478 72.863,10.478 75.043,3.873 73.824,3.873 		"/>
	</g>
</g>
<g id="Layer_1">
</g>
</svg>
