<svg xmlns="http://www.w3.org/2000/svg" viewBox="0 0 100 30" enable-background="new 0 0 100 30"><g fill="#fff"><path d="M52.828 21.838h-.41l-2.896-5.495v7.68h-.364V15.65h.41l3.26 6.188zm-2.943-4.287l.364.693v5.778h-.365v-6.47zm3.767 4.288h-.415L49.98 15.65h.415l3.257 6.188zm-3.04-2.902l.365.688v4.398h-.364v-5.086zm6.756-2.593l-2.897 5.495h-.413l-3.25-6.188h.408l3.054 5.803 3.048-5.803h.415v8.372h-.364v-7.68zM51.34 20.32l.365.688v3.013h-.364v-3.7zm2.438-.317l-.212-.384 2.103-3.97h.414l-2.306 4.353zm.42.794l-.207-.38 2.51-4.767h.408l-2.71 5.147zm.986.17l.364-.687v3.74h-.364V20.97zm.728-1.394l.364-.688v5.136h-.364v-4.447zm.728-1.375l.364-.692v6.516h-.364v-5.824zM58.693 15.65h.364v8.372h-.364V15.65zm.728 0h.365v8.372h-.364V15.65zm.73 0h.363v8.372h-.364V15.65zm.727 0h.364v8.372h-.363V15.65zM62.565 16.242v7.78H62.2V15.65h.436l5.132 8.372h-.42l-4.783-7.78zm.364 1.036l.363.616v6.127h-.364V17.28zm.126-1.628h.425l5.148 8.372h-.424l-5.148-8.372zm.602 2.836l.364.612v4.924h-.364v-5.536zm.257-2.836h.43l5.142 8.372h-.435l-5.137-8.372zm.47 4.03l.365.6v3.74h-.364v-4.34zm.385-4.03h.425l4.773 7.78v-7.78h.364v8.372h-.43L64.77 15.65zm3.377 4.342l-.364-.6V15.65h.364v4.342zm.728 1.194l-.364-.612V15.65h.365v5.536zm.73 1.207l-.365-.616V15.65h.364v6.743zM71.383 24.02h-.394l3.31-8.37h.395l3.307 8.372h-.39L74.5 16.14l-3.115 7.88zm3.16-7.016l.207.465-2.59 6.55h-.388l2.77-7.016zm.405.962l.192.5-2.19 5.556h-.393l2.39-6.056zm.384 1l.192.51-1.795 4.545h-.39l1.992-5.054zm-.99 4.055l.14-.363h2.387l.15.364h-2.68zm.282-.727l.142-.364h1.815l.158.363h-2.114zm.284-.73l.147-.363H76.3l.146.364h-1.538zm.566-5.913l3.312 8.372h-.394l-3.307-8.372h.39zm.783 0l3.312 8.372h-.39l-3.312-8.372h.39zm4.096 8.37h-.395l-3.307-8.37h.39l3.313 8.37zM81.38 24.386h-.623v-.364h.622c.383 0 .75-.078 1.096-.233.347-.156.646-.364.897-.625.25-.26.45-.572.6-.932.147-.36.22-.738.22-1.133v-5.45h.365v5.45c0 .445-.083.87-.25 1.274-.167.404-.393.754-.678 1.05-.284.294-.623.528-1.016.7-.392.175-.804.262-1.235.262m0-.73h-.623v-.363h.622c.58 0 1.072-.214 1.478-.642.406-.427.61-.945.61-1.552v-5.45h.363v5.45c0 .462-.108.89-.325 1.282-.217.393-.515.704-.893.933-.377.23-.788.344-1.233.344m0-.727h-.623v-.364h.622c.377 0 .698-.143.962-.43.265-.286.398-.632.398-1.037v-5.45h.364v5.45c0 .505-.168.936-.503 1.293-.336.358-.742.537-1.22.537m0-.728h-.623v-.364h.622c.178 0 .328-.067.45-.202.12-.135.18-.314.18-.536v-5.45h.365v5.45c0 .32-.096.584-.29.792-.19.206-.426.31-.706.31"/></g></svg>