<svg xmlns="http://www.w3.org/2000/svg" viewBox="0 0 100 35" enable-background="new 0 0 100 35"><g><path d="M21.73 26.106h.432V30h1.658v.416h-2.09v-4.31zM27.61 27.23v3.187h-.403v-.548c-.172.208-.365.365-.58.47s-.447.16-.7.16c-.452 0-.837-.165-1.157-.492s-.48-.725-.48-1.194c0-.46.162-.852.484-1.178s.71-.49 1.163-.49c.262 0 .5.057.71.168s.398.278.558.5v-.585h.406zm-1.638.312c-.228 0-.44.056-.632.168-.193.112-.347.27-.46.473-.114.203-.17.417-.17.644 0 .225.057.44.172.644.115.206.27.365.463.48.194.113.402.17.625.17.224 0 .437-.057.638-.17.2-.113.355-.266.463-.46.11-.192.164-.41.164-.652 0-.37-.122-.677-.364-.925-.244-.247-.543-.37-.898-.37zM30.195 27.23h.41v.57c.164-.22.346-.382.545-.49s.416-.164.65-.164c.238 0 .45.06.634.182s.32.284.41.49.13.523.13.957v1.64h-.41v-1.52c0-.367-.014-.612-.044-.735-.048-.21-.14-.37-.274-.476s-.31-.16-.527-.16c-.25 0-.47.082-.668.246s-.326.367-.388.61c-.04.157-.06.446-.06.866v1.17h-.41v-3.187zM33.802 27.23h.41v1.487c0 .363.02.613.06.75.058.195.17.35.335.463.166.113.362.17.59.17s.424-.055.584-.166c.16-.11.27-.255.33-.435.042-.124.063-.385.063-.783V27.23h.42v1.563c0 .44-.052.77-.155.993s-.257.397-.463.523-.464.188-.775.188-.57-.063-.778-.19-.363-.3-.466-.526-.154-.565-.154-1.018V27.23zM40.186 29.358l.346.182c-.113.223-.244.402-.393.54-.15.136-.316.24-.502.31-.186.072-.396.108-.63.108-.52 0-.927-.17-1.22-.51-.293-.342-.44-.727-.44-1.157 0-.403.124-.764.373-1.08.315-.402.737-.604 1.265-.604.543 0 .978.206 1.302.618.23.29.348.654.352 1.09h-2.87c.01.37.127.674.356.91.23.238.51.356.848.356.162 0 .32-.028.474-.084.153-.057.284-.13.392-.225.104-.093.22-.244.346-.452zm0-.858c-.055-.22-.134-.394-.24-.524-.103-.13-.242-.236-.414-.316-.172-.08-.353-.12-.542-.12-.313 0-.582.1-.807.302-.165.146-.29.366-.373.66h2.376zM41.1 27.23h.437l1.07 2.323 1.057-2.324h.44l-1.46 3.187h-.076L41.1 27.23zM47.902 27.23v3.187h-.404v-.548c-.172.208-.365.365-.58.47s-.447.16-.7.16c-.452 0-.837-.165-1.157-.492s-.478-.725-.478-1.194c0-.46.16-.852.483-1.178s.71-.49 1.163-.49c.262 0 .5.057.71.168s.398.278.558.5v-.585h.406zm-1.64.312c-.227 0-.438.056-.63.168-.194.112-.348.27-.46.473-.115.203-.172.417-.172.644 0 .225.058.44.173.644.115.206.27.365.463.48.194.113.402.17.625.17.225 0 .438-.057.64-.17.2-.113.354-.266.462-.46.108-.192.163-.41.163-.652 0-.37-.122-.677-.364-.925-.243-.247-.542-.37-.897-.37zM51.8 25.998v.4c-.15-.063-.28-.096-.388-.096-.08 0-.146.016-.2.048s-.085.07-.1.11-.02.155-.02.336v.43h.666v.355h-.666l-.002 2.834h-.41V27.58h-.42v-.353h.42v-.497c0-.23.02-.392.063-.49s.113-.175.214-.235.222-.09.365-.09c.132 0 .29.028.477.083zM52.215 27.23h.42v.465c.124-.184.256-.32.395-.412s.283-.136.434-.136c.113 0 .234.036.363.108l-.214.346c-.086-.036-.158-.055-.217-.055-.137 0-.27.056-.396.168s-.224.287-.29.523c-.05.182-.076.55-.076 1.102v1.078h-.42V27.23zM57.35 27.23v3.187h-.403v-.548c-.172.208-.365.365-.58.47s-.447.16-.7.16c-.452 0-.837-.165-1.157-.492s-.48-.725-.48-1.194c0-.46.162-.852.484-1.178s.71-.49 1.163-.49c.262 0 .5.057.71.168s.398.278.558.5v-.585h.406zm-1.64.312c-.227 0-.438.056-.63.168-.194.112-.348.27-.46.473-.115.203-.172.417-.172.644 0 .225.058.44.173.644.116.206.27.365.464.48.194.113.402.17.625.17.223 0 .436-.057.637-.17.2-.113.355-.266.463-.46.108-.192.163-.41.163-.652 0-.37-.122-.677-.364-.925-.245-.247-.544-.37-.9-.37zM61.02 27.23h.41v2.54c0 .446-.038.773-.116.98-.107.293-.294.52-.56.677s-.585.237-.958.237c-.273 0-.52-.04-.737-.116-.22-.077-.396-.18-.533-.312-.137-.13-.263-.32-.378-.57h.444c.12.21.278.366.47.468.19.102.428.152.712.152.28 0 .516-.052.708-.156.192-.104.33-.235.412-.393s.123-.412.123-.764v-.163c-.155.195-.344.345-.567.45-.223.104-.46.157-.71.157-.293 0-.57-.073-.827-.218-.258-.147-.458-.342-.6-.588-.14-.246-.21-.517-.21-.812s.073-.57.22-.825c.147-.255.35-.457.61-.605.258-.148.53-.223.818-.223.24 0 .46.05.667.148.207.1.406.26.598.488v-.554zm-1.208.312c-.232 0-.448.056-.647.168s-.355.268-.47.466-.17.413-.17.643c0 .35.118.638.353.866s.538.343.91.343c.378 0 .68-.114.91-.34s.345-.525.345-.895c0-.24-.053-.455-.158-.643s-.255-.337-.448-.447-.403-.163-.625-.163zM65.486 27.23v3.187h-.404v-.548c-.172.208-.365.365-.58.47s-.447.16-.7.16c-.452 0-.837-.165-1.157-.492s-.48-.725-.48-1.194c0-.46.162-.852.484-1.178s.71-.49 1.162-.49c.262 0 .5.057.71.168s.398.278.558.5v-.585h.406zm-1.64.312c-.227 0-.438.056-.63.168-.194.112-.348.27-.46.473-.115.203-.172.417-.172.644 0 .225.058.44.173.644.115.206.27.365.463.48.194.113.402.17.625.17.224 0 .437-.057.638-.17.2-.113.355-.266.463-.46.108-.192.163-.41.163-.652 0-.37-.123-.677-.365-.925-.244-.247-.543-.37-.898-.37zM66.41 27.23h.41v.57c.163-.22.345-.382.544-.49s.416-.164.65-.164c.238 0 .45.06.634.182s.32.284.41.49.13.523.13.957v1.64h-.41v-1.52c0-.367-.014-.612-.044-.735-.048-.21-.14-.37-.274-.476s-.31-.16-.527-.16c-.248 0-.47.082-.667.246s-.326.367-.388.61c-.04.157-.06.446-.06.866v1.17h-.41v-3.187zM73.162 27.89l-.325.203c-.28-.373-.664-.56-1.15-.56-.388 0-.71.125-.967.375-.256.25-.385.553-.385.91 0 .232.06.45.177.656.118.205.28.364.485.477.206.114.437.17.692.17.467 0 .85-.186 1.146-.56l.325.215c-.15.23-.356.407-.613.534s-.55.19-.877.19c-.504 0-.922-.16-1.254-.48s-.498-.71-.498-1.17c0-.31.078-.595.233-.86s.37-.47.64-.62.576-.223.912-.223c.21 0 .415.032.61.097s.364.148.5.252.254.234.35.395zM74.092 25.916c.093 0 .173.033.24.1.065.066.098.146.098.24 0 .092-.033.17-.1.237-.065.066-.145.1-.238.1-.09 0-.17-.033-.236-.1s-.1-.146-.1-.237c0-.094.034-.174.1-.24s.145-.1.236-.1zm-.203 1.313h.41v3.187h-.41V27.23zM78.327 27.23v3.187h-.404v-.548c-.172.208-.365.365-.58.47s-.447.16-.7.16c-.452 0-.837-.165-1.157-.492s-.48-.725-.48-1.194c0-.46.162-.852.484-1.178s.71-.49 1.163-.49c.262 0 .5.057.71.168s.398.278.558.5v-.585h.407zm-1.64.312c-.227 0-.438.056-.63.168-.194.112-.348.27-.46.473-.115.203-.172.417-.172.644 0 .225.058.44.173.644.115.206.27.365.463.48.195.113.403.17.626.17.224 0 .437-.057.638-.17.2-.113.355-.266.463-.46.108-.192.163-.41.163-.652 0-.37-.122-.677-.364-.925-.244-.247-.543-.37-.898-.37z"/><g stroke="#000" stroke-width=".063" stroke-miterlimit="10"><path d="M26.777 20.944l-3.67-5.06-.037-.05h-.59v6.08h.546v-5.18l3.734 5.13.036.05h.537v-6.08h-.556z"/><path d="M31.358 15.834h.547v6.08h-.547z"/><path d="M11.683 19.15l-1.68-3.316h-.62l2.027 3.972v2.107h.547v-2.107l2.026-3.972h-.63z"/><path d="M38.75 16.27c.575 0 1.12.2 1.617.594.184.147.345.316.49.52l.036.05h.654l-.158-.248c-.284-.446-.665-.805-1.133-1.064-.468-.26-.972-.39-1.498-.39-.875 0-1.63.308-2.246.917-.616.61-.928 1.356-.928 2.22 0 .856.315 1.603.937 2.22.62.614 1.374.926 2.236.926.53 0 1.043-.13 1.52-.39.483-.26.854-.612 1.104-1.045l.14-.24h-.568l-.075.016-.035.05c-.088.126-.2.247-.33.363-.176.157-.327.276-.45.352-.387.236-.826.356-1.306.356-.724 0-1.348-.256-1.855-.76-.507-.504-.764-1.123-.764-1.84 0-.73.255-1.353.757-1.854.5-.5 1.125-.755 1.853-.755z"/><path d="M5.745 18.67c.383-.285.577-.695.577-1.225 0-.548-.182-.98-.54-1.288-.254-.214-.693-.323-1.304-.323H3.1v6.08h1.62c.29 0 .52-.016.676-.046.385-.07.704-.272.946-.597.227-.303.343-.658.343-1.054 0-.402-.117-.76-.348-1.065-.16-.21-.36-.37-.592-.48zm-2.098.335h.892c.39 0 .542.01.6.02.08.01.184.047.306.103.207.095.374.242.497.436.124.195.186.408.186.635 0 .405-.15.728-.448.96-.183.142-.504.215-.953.215H3.646v-2.37zm0-.53v-2.102h.83c.43 0 .618.033.7.06.164.056.305.18.42.364.118.192.178.404.178.63 0 .33-.106.588-.315.768-.216.186-.526.28-.92.28h-.893z"/><path d="M48.282 15.834l-2.71 3.573v-3.573h-.547v6.08h.547v-1.61l.777-1.01 1.93 2.62h.676L46.7 18.835l2.26-3.002z"/><path d="M88.364 15.834h-.506l-2.607 6.08h.602l.863-2.003h2.79l.833 1.93.032.073h.6l-2.565-5.982-.04-.096zm-1.415 3.538l1.162-2.746 1.156 2.746h-2.32z"/><path d="M96.31 15.834v4.295c0 .315-.012.465-.022.53-.03.164-.097.31-.2.44-.198.25-.472.378-.815.378-.562 0-.894-.274-1.044-.863l-.033-.12h-.564l.03.186c.064.396.245.72.54.966.292.245.646.37 1.052.37.545 0 .974-.195 1.274-.578.223-.28.336-.722.336-1.31v-4.294h-.555z"/><path d="M81.333 20.944l-3.71-5.11h-.588v6.08h.547v-5.18l3.734 5.13.036.05h.536v-6.08h-.555z"/><path d="M72.462 15.834h.547v6.08h-.548z"/><path d="M52.333 15.834h.547v6.08h-.547z"/><path d="M65.265 21.016l-2.55-5.182h-.633v6.08h.547v-4.99l2.442 4.923.034.066h.327l2.466-4.986v4.986h.546v-6.08h-.615z"/></g><g><path d="M70.05 6.04c-.155 0-.31.01-.464.017-.403.022-.816.007-1.22-.025-.26-.02-.528-.043-.796-.043-.377 0-1.524 0-1.524.663 0 .174.104.36.394.36.158 0 .306-.027.45-.053.136-.025.265-.048.394-.048.202 0 .355.056.47.173.3.308.283.988.27 1.484 0 .093-.003.18-.003.26 0 1.8-1.575 2.743-3.13 2.743-2.782 0-4.263-3.122-4.263-5.376 0-2.026 1.06-5.24 3.908-5.24 1.188 0 2.344.716 2.872 1.77l.02.054c.044.112.088.226.088.33 0 .04-.005.088-.01.14-.02.18-.04.4.095.55.076.083.185.126.325.126.53 0 .53-1.008.53-1.34 0-.153 0-.312-.018-.464C68.34.502 65.567 0 64.567 0c-3.584 0-5.725 3.23-5.725 6.35 0 3.37 2.69 6.113 5.995 6.113 1.863 0 3.695-.897 4.787-2.348.08-.12.162-.264.162-.425 0-.122-.03-.262-.067-.423-.05-.216-.103-.462-.103-.74v-.828c0-.374.068-.61.21-.72l.004-.005c.057-.048.158-.075.255-.1.19-.052.477-.13.477-.46 0-.375-.372-.375-.512-.375z"/><path d="M75.266 1.25c.072-.047.276-.105.455-.155.454-.128.882-.248.882-.55 0-.136-.058-.22-.107-.268-.142-.138-.37-.13-.538-.126l-.07.002c-.317 0-.637.022-.947.043-.6.04-1.226.043-1.826 0-.302-.02-.613-.043-.922-.043h-.073c-.166-.006-.39-.01-.53.126-.052.05-.112.14-.112.285 0 .273.395.386.852.516.184.052.412.117.476.166.487.365.468 2.697.46 3.463v.256c0 .144.003.36.008.626.023 1.292.093 5.224-.47 5.644-.067.052-.28.112-.467.165-.442.126-.86.244-.86.55 0 .102.037.19.103.255.112.108.28.126.43.126h.11l.072-.003c.31 0 .62-.022.922-.043.59-.04 1.176-.043 1.804 0 .31.02.632.042.952.042h.08c.178.006.4.01.54-.126.052-.05.112-.14.112-.285 0-.28-.414-.4-.892-.537-.178-.05-.38-.11-.442-.15-.466-.32-.446-2.648-.44-3.413l.003-.252c0-.147-.003-.374-.01-.657-.026-1.31-.104-5.297.446-5.655z"/><path d="M88.69 11.783c-.06-.054-.11-.1-.144-.134-1.218-1.13-2.815-2.818-3.644-4.545 1.724-.13 3.138-1.62 3.138-3.37C88.04 1.39 86.556.15 83.75.15c-.46 0-.92.023-1.366.044-.728.033-1.494.053-2.23 0-.288-.02-.585-.042-.876-.042h-.08c-.19-.007-.427-.012-.575.132-.05.05-.11.137-.11.28 0 .277.407.396.88.534.176.052.376.11.436.15.5.352.48 2.684.473 3.45l-.002.25c0 .14.004.344.008.595.02 1.306.082 5.282-.48 5.69-.067.046-.27.104-.448.155-.446.127-.867.248-.867.546 0 .14.058.225.107.272.14.135.36.127.52.123l.07-.002c.31 0 .62-.022.922-.043.58-.04 1.158-.044 1.777.008.302.025.615.052.928.052h.077c.19.004.452.01.608-.14.074-.074.114-.173.114-.288 0-.278-.412-.396-.888-.534-.172-.05-.386-.11-.448-.154-.304-.204-.457-1.146-.453-2.8l.014-1.296c.014-.002.03-.003.046-.003.167 0 .3.024.414.074.17.068.302.207.442.354.037.04.075.08.113.118l.543.545c2.453 2.476 4.826 4.765 5.573 4.765.192 0 .36-.176.36-.377 0-.183-.215-.412-.667-.825zm-6.85-6.68l.008-.355.02-2.216c.013-1.05.02-1.576 1.155-1.576 1.626 0 3.267.828 3.267 2.677 0 2.048-1.73 2.778-3.35 2.778-.49 0-.79-.07-.94-.225-.188-.195-.176-.567-.16-1.08z"/><path d="M99.522 9.01c-.21 0-.278.122-.32.247-.06.2-.1.365-.135.505-.135.553-.16.653-.96 1.016-.872.393-2.55.576-3.41.576-.394 0-.656-.072-.802-.22-.21-.217-.203-.613-.193-1.115.002-.113.005-.228.005-.348V3.414c0-1.253.14-1.98.42-2.163.072-.047.275-.105.454-.155.454-.128.882-.248.882-.55 0-.136-.058-.22-.107-.268-.142-.138-.37-.13-.538-.126l-.07.002c-.315 0-.634.02-.943.042-.59.04-1.186.046-1.826 0-.302-.02-.615-.042-.926-.042h-.08c-.166-.006-.373-.01-.507.12-.074.072-.11.17-.11.29 0 .274.39.387.84.518.182.052.406.117.473.168.485.35.465 2.64.46 3.394l-.003.257c0 .14.004.353.01.616.022 1.31.093 5.3-.468 5.717-.072.053-.275.11-.455.16-.422.116-.858.238-.858.558 0 .132.054.213.1.258.11.11.278.12.434.12.577 0 1.146-.025 1.705-.05.542-.026 1.1-.05 1.646-.05h1.23c.65 0 1.312.016 1.966.05.136.006.275.037.423.07.175.04.358.082.547.082.656 0 .884-.593 1.05-1.025l-.14-.077.147.06.094-.222c.198-.46.442-1.033.442-1.526 0-.314-.148-.63-.478-.63z"/></g><g><path d="M9.943.034c-.24 0-.468.03-.69.06-.178.025-.363.05-.546.058-1.38.034-2.78.05-4.163.05h-.432C3.246.206 2.352.21 1.51.137 1.46.13 1.412.12 1.364.108c-.088-.02-.18-.04-.278-.04C.362.067 0 2.217 0 2.485c0 .265.15.546.428.546.197 0 .31-.09.338-.25L.79 2.7c.18-.65.24-.867.862-1.223.407-.227.92-.35 1.442-.35.476 0 .796.087.976.268.268.268.267.774.266 1.415V9c0 .472 0 1.91-.44 2.232-.09.063-.347.124-.574.177-.497.116-.927.217-.927.524 0 .105.037.196.106.264.12.116.302.134.462.134.04 0 .076 0 .11-.002h.07c.337 0 .67-.023.994-.044.65-.042 1.326-.04 1.967 0 .338.022.688.044 1.04.044h.08c.172.006.385.01.523-.123.074-.072.11-.17.11-.288 0-.278-.42-.384-.954-.52-.222-.057-.473-.12-.548-.17-.5-.343-.468-2.91-.457-3.755 0-.134.003-.246.003-.332 0-.66.004-1.32.01-1.977.003-.654.007-1.306.007-1.954V3.06c-.002-.71-.003-1.27.303-1.576.195-.196.525-.29 1.006-.29.284 0 1.698.034 1.698.718 0 .168-.086.292-.178.424-.095.138-.194.28-.194.47 0 .2.184.377.394.377.646 0 1.54-2.284 1.54-2.688.003-.172-.068-.46-.543-.46z"/><path d="M22.17 11.783c-.058-.054-.108-.1-.142-.134-1.218-1.13-2.814-2.818-3.644-4.545 1.724-.13 3.138-1.62 3.138-3.37 0-2.345-1.484-3.584-4.29-3.584-.46 0-.92.023-1.366.044-.727.034-1.494.053-2.23 0-.288-.02-.585-.042-.876-.042h-.08c-.19-.006-.428-.01-.575.132-.05.05-.11.137-.11.28 0 .277.407.396.88.534.176.052.376.11.436.15.5.352.482 2.684.475 3.45v.25c0 .14.002.344.006.595.02 1.306.084 5.282-.48 5.69-.066.046-.268.104-.447.155-.446.127-.867.248-.867.546 0 .14.058.225.107.272.14.135.36.13.52.123l.07-.002c.31 0 .62-.022.922-.043.58-.04 1.158-.044 1.777.008.303.025.616.052.928.052h.077c.19.004.452.01.608-.14.075-.074.114-.173.114-.288 0-.278-.412-.396-.89-.534-.17-.05-.384-.11-.446-.154-.305-.204-.457-1.146-.453-2.8l.016-1.296c.014-.002.03-.003.046-.003.167 0 .3.024.414.074.17.068.302.207.442.354.037.04.075.08.114.118.122.12.31.31.544.545 2.453 2.476 4.826 4.765 5.573 4.765.19 0 .36-.176.36-.377-.003-.183-.217-.412-.67-.825zm-2.398-8.15c0 2.048-1.73 2.778-3.352 2.778-.49 0-.788-.07-.937-.225-.19-.194-.177-.566-.162-1.08.004-.113.008-.23.01-.357l.02-2.216c.012-1.05.02-1.576 1.155-1.576 1.626 0 3.267.83 3.267 2.677z"/><path d="M28.418 1.25c.072-.047.276-.105.455-.155.453-.128.88-.248.88-.55 0-.136-.057-.22-.106-.268-.142-.138-.37-.13-.538-.126l-.07.002c-.318 0-.638.022-.948.043-.6.04-1.225.042-1.826 0-.3-.02-.613-.043-.922-.043h-.073c-.163-.006-.388-.01-.53.126-.05.05-.11.138-.11.285 0 .273.395.386.852.516.184.052.412.117.476.166.487.365.468 2.697.46 3.463v.256c0 .144.004.36.01.626.022 1.292.092 5.224-.472 5.644-.066.052-.28.112-.466.165-.442.126-.86.244-.86.55 0 .102.036.19.103.255.112.108.28.126.43.126h.11l.072-.003c.31 0 .62-.022.922-.043.59-.04 1.177-.043 1.804 0 .312.02.633.042.953.042h.08c.178.006.4.01.54-.126.05-.05.112-.14.112-.285 0-.28-.413-.4-.892-.537-.177-.05-.38-.11-.442-.15-.465-.32-.445-2.648-.438-3.413l.002-.252c0-.147-.004-.374-.01-.657-.028-1.31-.106-5.297.444-5.655z"/><path d="M44.418.152c-.273-.002-.53.02-.783.043-.477.042-.98.04-1.47 0-.25-.022-.51-.043-.76-.043-.417 0-.63.138-.63.41 0 .378.46.446.763.49.09.013.19.028.228.044.633.273.57 2.186.54 3.106-.006.19-.01.353-.01.478 0 .826-.01 1.652-.018 2.478-.007.675-.014 1.35-.016 2.025l-5.81-7.434c-.084-.11-.166-.223-.248-.335-.45-.62-.918-1.262-1.85-1.262-.877 0-2.35.086-2.35.664 0 .135.062.36.478.36.127 0 .25-.018.372-.034.12-.017.236-.033.353-.033h.1c.475 0 .564.312.586 1.012.034.908.034 1.783.034 2.71 0 .858-.004 1.72-.01 2.585-.003.87-.008 1.74-.008 2.61 0 .577-.04 1.156-.496 1.358-.05.022-.155.038-.256.054-.3.045-.75.115-.75.512 0 .13.056.213.103.26.138.13.354.124.512.12l.066-.003c.31 0 .622-.02.924-.036.473-.026.964-.043 1.41 0 .173.018.35.035.534.035.43 0 .647-.14.647-.412 0-.355-.468-.435-.844-.5-.116-.02-.246-.043-.29-.063-.628-.313-.564-2.41-.533-3.42.006-.2.012-.375.012-.505 0-.868.008-1.732.016-2.596.007-.713.014-1.426.016-2.14l.452.582c7.216 9.307 7.372 9.307 7.523 9.307.284 0 .428-.2.428-.596 0-.694-.017-1.398-.034-2.08-.016-.678-.033-1.38-.033-2.07l.017-5.247c0-.594.06-1.233.504-1.462.055-.027.192-.05.313-.07.347-.057.82-.135.82-.51 0-.136-.056-.22-.103-.268-.117-.12-.29-.128-.45-.128z"/><path d="M51.21 1.25c.07-.047.275-.105.454-.155.453-.128.88-.248.88-.55 0-.136-.057-.22-.106-.268-.142-.138-.37-.13-.538-.126l-.07.002c-.317 0-.637.022-.947.043-.6.04-1.225.042-1.826 0-.3-.02-.613-.043-.922-.043h-.073c-.164-.006-.39-.01-.53.126-.05.05-.11.14-.11.285 0 .273.394.386.85.516.185.052.413.117.477.166.486.365.467 2.697.46 3.463v.256c0 .144.004.36.01.626.022 1.292.092 5.224-.472 5.644-.066.052-.28.112-.466.165-.442.126-.86.244-.86.55 0 .102.036.19.103.255.112.108.28.126.43.126h.11l.072-.003c.31 0 .62-.022.922-.043.59-.04 1.176-.043 1.803 0 .31.02.632.042.952.042h.08c.177.006.4.01.54-.126.05-.05.112-.14.112-.285 0-.28-.413-.4-.892-.537-.177-.05-.38-.11-.442-.15-.466-.32-.446-2.648-.44-3.413l.003-.252c0-.147-.004-.374-.01-.657-.028-1.31-.107-5.297.443-5.655z"/></g></g></svg>