<svg xmlns="http://www.w3.org/2000/svg" viewBox="0 0 100 25" enable-background="new 0 0 100 25"><g fill="#E31837"><path d="M10.96 16.325c4.965.917 8.6-3.893 10.928-8.055.932-1.668 2.347-6.034.762-7.684-1.45-1.596-2.573.5-3.433 1.198l.664.786c1.327 1.675.174 4.857-.613 6.558-1.18 2.093-3.408 5.26-6.01 4.82-.565-.133-1.033-.68-1.23-1.257 1.402-1.386 3.062-3.823 3.995-5.445.78-1.32 2.136-3.867.886-4.918-1.038-.72-3.115.316-4.228 1.256-.677.61-1.134 1.11-1.66 1.82-1.433 1.942-2.797 5.272-2.654 7.836-.688.497-1.473.994-2.407.707-.927-.206-1.093-.994-1.224-1.612-.59-3.715 3.132-8.405 5.22-11.1 0 0-1.647.447-2.85.498-2.763.118-4.816-1.168-6.31.68C.343 3.07.083 3.76 0 4.583c.613-.525 1.52-.4 2.388-.35 1.5.132 2.24.313 3.59-.05-1.204 1.7-3.21 5.05-3.58 7.142-.196 1.386-.18 3.575 1.007 4.556 1.966 1.31 3.918.395 5.662-.81.518.6 1.157 1.124 1.893 1.255zM14.295 4.72c.523-.255.366.522.366.522-.074.88-.713 1.93-1.168 2.735-.468.824-2.105 2.765-2.82 3.183.032-1.175 1.29-3.74 1.932-4.72.33-.574 1.168-1.463 1.69-1.72zM93.374 7.017c-.273.36-1.204 1.373-1.507 1.69l-.155.148c-2.515 2.523-4.436 3.987-5.55 4.222-.76.167-1.106.21-1.46-.474-.007-.013-.015-.038-.015-.038l-.037-.32c0-.91 1.182-2.948 2.762-4.312.604-.527.675-.76.684-.818-.225-.354-.362-.52-.67-.648-.44-.023-1.112.443-1.556.755-.314.215-1.207 1.035-2.153 1.9-.79.723-1.603 1.47-2.058 1.845 0 0-.636.52-.77.633.005-.133.02-.4.02-.4.018-.47.512-1.252 1.216-2.305.255-.388.886-1.488.96-1.683l.01-.02-.01-.018c-.204-.335-.596-.596-.91-.612-.03.013-.28.216-.28.216-.53.433-1.664 1.455-2.758 2.445-1.006.91-1.955 1.766-2.19 1.937-1.847 1.37-3.448 2.265-5.025 2.82-.283.082-1.247.313-1.724-.224 0 0-.11-.12-.166-.19.07-.033.227-.098.227-.098 1.38-.588 3.118-1.395 4.38-2.475.018-.017 1.934-1.66 1.934-3.28 0-.072-.005-.14-.01-.21-.12-.583-.617-.76-1.326-.85-2.32.013-4.402 1.44-5.484 2.657l-.194.21c-.503.545-2.028 2.204-2.65 3.678 0 0-.026.066-.035.078-.004-.003-.057.02-.057.02-1.046.44-2.182.865-3.444.998-.68.085-1.647.143-2.187-.35 0 0-.133-.117-.19-.173.105-.055 2.636-1.41 2.636-1.41 2.086-1.266 3.484-3.193 3.484-4.197-.044-1.166-1.133-1.43-2.042-1.44-1.35.007-2.595.504-4.168 1.662-.91.672-2.818 2.85-3.328 5.088 0 0-.015.073-.025.106l-.2.048c-.997.248-2.675.655-2.984-.32-.496-1.584 1.09-3.108 2.362-4.332l.716-.703c.1-.112.222-.373.187-.58-.013-.097-.062-.17-.15-.224-.68-.3-1.334-.07-2.025.178-.52.183-1.057.37-1.626.33l-.178-.016.016-.182c.03-.334.224-.535.4-.71.003 0 .055-.06.055-.06.03-.036.047-.106.047-.185 0-.07-.012-.15-.044-.218-.045-.106-.113-.17-.197-.177-.4-.05-1.086.344-1.712.974-.6.612-.976 1.27-.976 1.724l.005.093c.003.013.002.038.002.038-.074 1.027-.97 2.01-2.21 3.376l-.54.595c.002 0-.207.213-.207.213-.746.76-1.216 1.33-1.362 1.643l-.043.092.102-.027c.527-.158 2.045-.89 4.76-4.31 0 0 .04-.048.06-.08l.1.016c.127.016.282-.05.447-.114.275-.11.592-.233.89-.036 0 0 .115.073.164.11-.052.063-.533.677-.533.677-.757.95-1.535 1.925-1.535 3.094 0 .224.028.456.094.695.142.685.845 1.01 1.402 1.082 1.128.195 2.543-.428 3.793-.977l.633-.276c.353-.096.455.12.528.275.088.187.212.45.757.687 1.823.826 4.5.418 7.957-1.212l.167-.08c.026.06.07.18.07.18.25.67.718 1.084 1.483 1.306 2.978.396 5.432-1.307 7.806-2.954.002 0 1.083-.823 1.26-.96.044.045.24.255.265.29-.038.057-1.043 1.47-1.043 1.47-.35.513-.678.994-.883 1.536l-.06.228.026.12c.052.092.18.155.364.182 1.808-.25 3.55-1.725 4.698-2.697l.344-.29c.494-.43.967-.834 1.155-.875l.11-.03.082.094c.006.006.006.017.006.027 0 .09-.133.298-.23.443l-.18.293c-.155.323-.46.956-.46 1.517 0 .203.04.402.153.57.542.838 1.014.865 1.524.894l.18.01c2.133-.137 4.227-1.987 6.254-3.78l1.51-1.305s1.22-1.068 1.466-1.288c.033.076.085.22.085.22.15.39.184.745.184.974l-.037.424c-.023.188-.36 1.502-.82 1.874l-.096.053-.293.074c-1.116.287-2.378.608-2.848 1.72-.004.004-.044.253-.044.253 0 .15.057.365.31.533.786.203 1.602.008 2.32-.165l.925-.196c.755.004 1.49.094 2.198.178.988.117 1.917.23 2.903.13 1.277-.334 2.296-1.783 2.61-2.982l.03-.098-.095.047c-1.585.783-3.415.817-4.898.09 0 0-.104-.052-.15-.077l.066-.164c.01-.024.915-2.232.915-5.093 0-.13-.002-.263-.006-.395h.006c-.018-.07-.026-.134-.026-.198 0-.263.133-.48.255-.676.123-.196.228-.366.228-.57 0-.03-.002-.058-.004-.09-.005-.003-.005-.012-.005-.018 0-.024.007-.057.007-.057.002-.004.002-.008.002-.013 0-.07-.11-.107-.164-.12-1.24-.312-1.946.61-2.756 1.677zm-32.662 4.937c.08-.676 1.092-1.986 1.632-2.534.49-.494 1.13-.896 1.748-1.1.326-.077.587-.014.724.176.053.08.083.172.083.27 0 .122-.045.25-.124.38-.676 1.06-2.418 2.554-3.84 3.003 0 0-.165.052-.26.086l.036-.282zm9.556-.257c.143-1.01 1.618-2.515 1.632-2.53.49-.493 1.13-.894 1.75-1.1.254-.11.5-.087.65.058.057.06.136.172.136.356 0 .106-.025.23-.09.387-.156.392-1.344 1.543-1.683 1.838-.376.357-1.404 1.072-2.194 1.2l-.24.037.038-.245zM41.29 2.294h-.003c-1.605.148-3.114 1.042-4.897 2.896-.728.69-4.094 4.877-4.65 8.06 0 0-.008.062-.014.088-.023.01-.077.04-.077.04-.49.262-1.957.892-2.888.658-.28-.07-.487-.213-.612-.427-.143-.278-.212-.56-.212-.86 0-.694.384-1.313.716-1.87.003 0 .178-.292.19-.313.007.006.064-.012.064-.012.86-.246 2.21-1.89 2.553-2.892l.01-.03-.025-.015c-1.004-.616-2.352-.6-3.304-.483-1.568.182-3.353.873-4.777 1.845-1.714 1.17-3.195 3.554-3.505 5.045-.168.852-.278 1.717.312 2.118 1.226.712 3.635-.58 5.28-2.156l.343-.327c-.013.174-.053.642-.053.642-.02.204-.04.437-.04.668 0 .435.073.872.36 1.143 1.356 1.076 4.15-.103 5.69-1.156 0 0 .09-.063.137-.093l.105.13c.49.608 1.068 1.26 1.727 1.37 1.72.24 3.067-.75 4.265-1.858l.234-.218c.023.127.116.554.116.554.088.443.168.863.512 1.14.87.672 2.816-.243 3.913-1.022 0 0 .254-.177.4-.283-.037.154-.122.472-.122.472-.187.723-.533 1.417-.87 2.087l-.3.614-.05.08-.09.146c-.466.747-1.332 2.148-2.175 2.27l-.06.01c-.216-.08-.354-.2-.427-.363l-.062-.313c0-.378.2-.808.373-1.188l.036-.075-.082.005c-.39.06-.74.226-1.125.422-.78.46-1.582 1.504-1.582 2.443 0 .194.03.378.098.55.162.357.586.368.764.358 5.343-.5 8.34-6.56 10.53-10.987l.43-.874c.133-.175.155-.28.155-.34l-.005-.053c-.01-.006-.082-.1-.082-.1.006.008-.053-.317-.053-.317.09-.428 1.125-1.328 1.136-1.338 0 .002.13-.098.13-.098.108-.07.173-.14.176-.196 0-.06-.07-.142-.175-.21-.21-.135-.438-.23-1.306-.473-1.605-.45-4.366-.11-6.87 2.313-.263.252-.747.863-1.14 1.353l-.508.63c-1.22 1.425-2.478 2.902-4.558 2.49-.272-.113-.56-.34-.672-.623-.06-.16-.055-.323.013-.47l.026-.05c1.155-.81 2.34-1.86 3.556-3.134 2.044-2.184 4.547-5.86 4.22-6.77-.246-.64-.976-.662-1.197-.652zM24.395 9.47c1.133-.552 2.55-.513 3.604.104l.182.107-.778 1.085c-1.198 1.456-3.51 2.9-4.5 2.81v-.003c-.46-.04-.782-.266-.862-.61l-.016-.29c0-.985 1.31-2.508 1.997-2.973l.373-.23zM37.8 5.948c.55-.675 1.452-1.27 1.722-1.396.207-.097.318.02.347.057.045.056.06.132.06.208 0 .09-.027.178-.058.216l.01.003c-.48 1.677-3.52 5.233-5.266 6.48l-.335.238c.02-.132.055-.402.055-.402.148-1.194 2.408-4.102 3.466-5.4zm3.418 7.61l-.03-.018c-.47-.343-.62-.824-.424-1.39.177-.657 2.003-2.676 3.448-2.957 1.312-.254 1.836.19 2.09.4 0 .004.136.112.202.17l-.71.76c-.963 1.36-3.376 3.593-4.576 3.035z"/></g></svg>