<?xml version="1.0" encoding="iso-8859-1"?>
<!-- Generator: Adobe Illustrator 19.2.1, SVG Export Plug-In . SVG Version: 6.00 Build 0)  -->
<svg version="1.1" xmlns="http://www.w3.org/2000/svg" xmlns:xlink="http://www.w3.org/1999/xlink" x="0px" y="0px"
	 viewBox="0 0 100 40" style="enable-background:new 0 0 100 40;" xml:space="preserve">
<g id="LOGO_x5F_BSPS_x5F_nueva">
	<g>
		<path d="M16.604,33.517h0.502v4.542h1.935v0.485h-2.437V33.517z"/>
		<path d="M23.512,34.825v3.719h-0.472v-0.639c-0.201,0.243-0.426,0.427-0.675,0.55c-0.25,0.123-0.522,0.185-0.819,0.185
			c-0.526,0-0.976-0.19-1.348-0.572c-0.373-0.382-0.559-0.846-0.559-1.393c0-0.536,0.188-0.994,0.564-1.375
			c0.376-0.38,0.828-0.57,1.357-0.57c0.305,0,0.582,0.064,0.829,0.195c0.248,0.129,0.464,0.324,0.651,0.584v-0.684H23.512z
			 M21.6,35.19c-0.267,0-0.512,0.066-0.738,0.197c-0.225,0.131-0.404,0.314-0.538,0.551c-0.133,0.237-0.2,0.487-0.2,0.751
			c0,0.262,0.067,0.513,0.201,0.751c0.134,0.239,0.315,0.426,0.542,0.559c0.226,0.133,0.469,0.199,0.729,0.199
			c0.262,0,0.51-0.065,0.745-0.197s0.415-0.311,0.541-0.536s0.189-0.479,0.189-0.762c0-0.43-0.142-0.789-0.425-1.078
			C22.363,35.336,22.014,35.19,21.6,35.19z"/>
		<path d="M26.625,34.825h0.479v0.666c0.191-0.255,0.403-0.445,0.636-0.572c0.232-0.126,0.485-0.189,0.759-0.189
			c0.278,0,0.524,0.07,0.74,0.212c0.215,0.142,0.374,0.331,0.477,0.571c0.103,0.238,0.154,0.611,0.154,1.117v1.914H29.39v-1.773
			c0-0.429-0.018-0.715-0.053-0.858c-0.056-0.246-0.162-0.432-0.319-0.556s-0.363-0.186-0.616-0.186
			c-0.289,0-0.548,0.096-0.777,0.287c-0.229,0.191-0.38,0.428-0.453,0.711c-0.045,0.184-0.068,0.521-0.068,1.012v1.363h-0.479
			V34.825z"/>
		<path d="M30.881,34.825h0.479v1.736c0,0.424,0.023,0.716,0.068,0.875c0.068,0.228,0.199,0.408,0.392,0.54s0.423,0.198,0.69,0.198
			c0.267,0,0.493-0.064,0.679-0.193s0.314-0.298,0.385-0.508c0.048-0.143,0.072-0.447,0.072-0.912v-1.736h0.489v1.825
			c0,0.513-0.06,0.899-0.18,1.159c-0.119,0.26-0.299,0.463-0.54,0.609c-0.24,0.147-0.542,0.221-0.904,0.221
			s-0.665-0.073-0.908-0.221c-0.242-0.146-0.424-0.352-0.543-0.615c-0.12-0.263-0.18-0.659-0.18-1.188V34.825z"/>
		<path d="M38.378,37.31l0.403,0.213c-0.132,0.26-0.285,0.469-0.458,0.629c-0.173,0.159-0.368,0.28-0.585,0.363
			s-0.462,0.125-0.735,0.125c-0.607,0-1.081-0.199-1.423-0.597s-0.513-0.847-0.513-1.349c0-0.471,0.145-0.892,0.435-1.261
			c0.367-0.47,0.858-0.704,1.474-0.704c0.634,0,1.141,0.24,1.519,0.721c0.269,0.34,0.406,0.764,0.411,1.271h-3.346
			c0.009,0.433,0.147,0.786,0.414,1.062s0.597,0.414,0.989,0.414c0.189,0,0.374-0.032,0.553-0.099
			c0.179-0.065,0.332-0.153,0.457-0.262C38.097,37.729,38.232,37.553,38.378,37.31z M38.378,36.309
			c-0.064-0.255-0.157-0.459-0.279-0.612c-0.122-0.152-0.284-0.275-0.484-0.369c-0.201-0.093-0.412-0.14-0.633-0.14
			c-0.365,0-0.679,0.117-0.941,0.353c-0.191,0.17-0.336,0.427-0.435,0.769H38.378z"/>
		<path d="M39.494,34.825h0.509l1.248,2.711l1.233-2.711h0.513l-1.702,3.719h-0.089L39.494,34.825z"/>
		<path d="M47.479,34.825v3.719h-0.472v-0.639c-0.201,0.243-0.426,0.427-0.675,0.55c-0.25,0.123-0.522,0.185-0.819,0.185
			c-0.526,0-0.976-0.19-1.348-0.572c-0.373-0.382-0.559-0.846-0.559-1.393c0-0.536,0.188-0.994,0.564-1.375
			c0.376-0.38,0.828-0.57,1.357-0.57c0.305,0,0.582,0.064,0.829,0.195c0.248,0.129,0.464,0.324,0.651,0.584v-0.684H47.479z
			 M45.567,35.19c-0.267,0-0.512,0.066-0.738,0.197c-0.225,0.131-0.404,0.314-0.538,0.551c-0.133,0.237-0.2,0.487-0.2,0.751
			c0,0.262,0.067,0.513,0.201,0.751c0.134,0.239,0.315,0.426,0.542,0.559c0.226,0.133,0.469,0.199,0.729,0.199
			c0.262,0,0.51-0.065,0.745-0.197s0.415-0.311,0.541-0.536s0.189-0.479,0.189-0.762c0-0.43-0.142-0.789-0.425-1.078
			C46.33,35.336,45.981,35.19,45.567,35.19z"/>
		<path d="M52.123,33.39v0.469c-0.175-0.076-0.326-0.113-0.451-0.113c-0.093,0-0.171,0.019-0.232,0.057
			c-0.062,0.037-0.1,0.081-0.116,0.13s-0.024,0.179-0.024,0.392l0,0.502h0.776v0.414h-0.777l-0.002,3.305h-0.479v-3.305h-0.489
			v-0.414h0.489v-0.581c0-0.267,0.024-0.457,0.073-0.571c0.049-0.113,0.132-0.205,0.25-0.274c0.117-0.069,0.259-0.104,0.425-0.104
			C51.721,33.294,51.907,33.326,52.123,33.39z"/>
		<path d="M52.658,34.825h0.489v0.543c0.146-0.214,0.3-0.374,0.461-0.479c0.162-0.106,0.331-0.159,0.506-0.159
			c0.132,0,0.273,0.042,0.424,0.127l-0.25,0.402c-0.1-0.043-0.185-0.064-0.253-0.064c-0.16,0-0.313,0.065-0.461,0.196
			s-0.261,0.335-0.338,0.61c-0.059,0.212-0.089,0.641-0.089,1.285v1.258h-0.489V34.825z"/>
		<path d="M58.698,34.825v3.719h-0.472v-0.639c-0.201,0.243-0.426,0.427-0.675,0.55c-0.25,0.123-0.522,0.185-0.819,0.185
			c-0.526,0-0.976-0.19-1.348-0.572c-0.373-0.382-0.559-0.846-0.559-1.393c0-0.536,0.188-0.994,0.564-1.375
			c0.376-0.38,0.828-0.57,1.357-0.57c0.305,0,0.582,0.064,0.829,0.195c0.248,0.129,0.464,0.324,0.651,0.584v-0.684H58.698z
			 M56.786,35.19c-0.267,0-0.512,0.066-0.738,0.197c-0.225,0.131-0.404,0.314-0.538,0.551c-0.133,0.237-0.2,0.487-0.2,0.751
			c0,0.262,0.067,0.513,0.201,0.751c0.134,0.239,0.315,0.426,0.542,0.559c0.226,0.133,0.469,0.199,0.729,0.199
			c0.262,0,0.51-0.065,0.745-0.197s0.415-0.311,0.541-0.536s0.189-0.479,0.189-0.762c0-0.43-0.142-0.789-0.425-1.078
			C57.549,35.336,57.2,35.19,56.786,35.19z"/>
		<path d="M63.03,34.825h0.479v2.963c0,0.522-0.045,0.904-0.137,1.146c-0.125,0.342-0.343,0.604-0.653,0.79
			C62.409,39.907,62.036,40,61.601,40c-0.319,0-0.605-0.045-0.859-0.136c-0.254-0.09-0.461-0.211-0.621-0.363
			c-0.16-0.151-0.307-0.374-0.441-0.666h0.52c0.142,0.246,0.324,0.428,0.547,0.547c0.224,0.118,0.501,0.178,0.832,0.178
			c0.326,0,0.602-0.062,0.827-0.183c0.225-0.122,0.385-0.274,0.481-0.458c0.096-0.185,0.144-0.481,0.144-0.891v-0.191
			c-0.18,0.228-0.4,0.402-0.66,0.524c-0.26,0.122-0.536,0.183-0.828,0.183c-0.342,0-0.664-0.085-0.965-0.255
			s-0.534-0.397-0.698-0.685c-0.164-0.287-0.246-0.604-0.246-0.947s0.085-0.665,0.257-0.962c0.171-0.298,0.408-0.533,0.709-0.706
			c0.302-0.173,0.621-0.26,0.957-0.26c0.278,0,0.538,0.058,0.778,0.173s0.473,0.305,0.696,0.569V34.825z M61.618,35.19
			c-0.271,0-0.523,0.066-0.755,0.197s-0.415,0.312-0.547,0.543s-0.198,0.481-0.198,0.75c0,0.408,0.137,0.746,0.41,1.012
			c0.273,0.268,0.628,0.4,1.063,0.4c0.44,0,0.793-0.132,1.061-0.396c0.268-0.265,0.402-0.611,0.402-1.043
			c0-0.279-0.062-0.53-0.185-0.75s-0.297-0.394-0.523-0.521C62.121,35.255,61.878,35.19,61.618,35.19z"/>
		<path d="M68.288,34.825v3.719h-0.472v-0.639c-0.201,0.243-0.426,0.427-0.675,0.55c-0.25,0.123-0.522,0.185-0.819,0.185
			c-0.526,0-0.976-0.19-1.348-0.572c-0.373-0.382-0.559-0.846-0.559-1.393c0-0.536,0.188-0.994,0.564-1.375
			c0.376-0.38,0.828-0.57,1.357-0.57c0.305,0,0.582,0.064,0.829,0.195c0.248,0.129,0.464,0.324,0.651,0.584v-0.684H68.288z
			 M66.376,35.19c-0.267,0-0.512,0.066-0.738,0.197c-0.225,0.131-0.404,0.314-0.538,0.551c-0.133,0.237-0.2,0.487-0.2,0.751
			c0,0.262,0.067,0.513,0.201,0.751c0.134,0.239,0.315,0.426,0.542,0.559c0.226,0.133,0.469,0.199,0.729,0.199
			c0.262,0,0.51-0.065,0.745-0.197s0.415-0.311,0.541-0.536s0.189-0.479,0.189-0.762c0-0.43-0.142-0.789-0.425-1.078
			C67.139,35.336,66.79,35.19,66.376,35.19z"/>
		<path d="M69.414,34.825h0.479v0.666c0.191-0.255,0.403-0.445,0.636-0.572c0.232-0.126,0.485-0.189,0.759-0.189
			c0.278,0,0.524,0.07,0.74,0.212c0.215,0.142,0.374,0.331,0.477,0.571c0.103,0.238,0.154,0.611,0.154,1.117v1.914h-0.479v-1.773
			c0-0.429-0.018-0.715-0.053-0.858c-0.056-0.246-0.162-0.432-0.319-0.556s-0.363-0.186-0.616-0.186
			c-0.289,0-0.548,0.096-0.777,0.287c-0.229,0.191-0.38,0.428-0.453,0.711c-0.045,0.184-0.068,0.521-0.068,1.012v1.363h-0.479
			V34.825z"/>
		<path d="M77.341,35.598l-0.379,0.235c-0.328-0.435-0.775-0.652-1.342-0.652c-0.453,0-0.829,0.146-1.128,0.438
			c-0.299,0.291-0.449,0.645-0.449,1.062c0,0.271,0.069,0.525,0.207,0.765s0.327,0.425,0.567,0.557
			c0.24,0.132,0.509,0.197,0.807,0.197c0.546,0,0.992-0.217,1.338-0.652l0.379,0.25c-0.178,0.268-0.417,0.475-0.716,0.622
			c-0.3,0.147-0.641,0.222-1.024,0.222c-0.588,0-1.076-0.187-1.463-0.561s-0.581-0.828-0.581-1.363c0-0.36,0.09-0.695,0.272-1.004
			c0.181-0.309,0.43-0.55,0.747-0.723s0.671-0.26,1.063-0.26c0.246,0,0.483,0.037,0.713,0.113c0.229,0.074,0.423,0.173,0.583,0.293
			C77.094,35.257,77.229,35.411,77.341,35.598z"/>
		<path d="M78.476,33.294c0.109,0,0.202,0.039,0.279,0.116s0.116,0.171,0.116,0.28c0,0.107-0.039,0.199-0.116,0.277
			c-0.077,0.077-0.17,0.115-0.279,0.115c-0.107,0-0.199-0.038-0.276-0.115c-0.077-0.078-0.116-0.17-0.116-0.277
			c0-0.109,0.039-0.203,0.116-0.28S78.369,33.294,78.476,33.294z M78.238,34.825h0.479v3.719h-0.479V34.825z"/>
		<path d="M83.465,34.825v3.719h-0.472v-0.639c-0.201,0.243-0.426,0.427-0.675,0.55c-0.25,0.123-0.522,0.185-0.819,0.185
			c-0.526,0-0.976-0.19-1.348-0.572c-0.373-0.382-0.559-0.846-0.559-1.393c0-0.536,0.188-0.994,0.564-1.375
			c0.376-0.38,0.828-0.57,1.357-0.57c0.305,0,0.582,0.064,0.829,0.195c0.248,0.129,0.464,0.324,0.651,0.584v-0.684H83.465z
			 M81.553,35.19c-0.267,0-0.512,0.066-0.738,0.197c-0.225,0.131-0.404,0.314-0.538,0.551c-0.133,0.237-0.2,0.487-0.2,0.751
			c0,0.262,0.067,0.513,0.201,0.751c0.134,0.239,0.315,0.426,0.542,0.559c0.226,0.133,0.469,0.199,0.729,0.199
			c0.262,0,0.51-0.065,0.745-0.197s0.415-0.311,0.541-0.536s0.189-0.479,0.189-0.762c0-0.43-0.142-0.789-0.425-1.078
			C82.315,35.336,81.967,35.19,81.553,35.19z"/>
	</g>
</g>
<g id="Layer_1">
</g>
</svg>
