<?xml version="1.0" encoding="iso-8859-1"?>
<!-- Generator: Adobe Illustrator 19.2.1, SVG Export Plug-In . SVG Version: 6.00 Build 0)  -->
<svg version="1.1" xmlns="http://www.w3.org/2000/svg" xmlns:xlink="http://www.w3.org/1999/xlink" x="0px" y="0px"
	 viewBox="0 0 100 40" style="enable-background:new 0 0 100 40;" xml:space="preserve">
<g id="LOGO_x5F_BSPS_x5F_show_x5F_ko">
	<g>
		<path style="fill:#FFFFFF;" d="M66.259,7.247c-0.779-0.822-1.741-1.239-2.951-1.615c-0.73-0.219-1.704-0.644-2.104-1.044
			c-0.336-0.365-0.404-0.8-0.404-1.384c0-0.45,0.415-1.437,1.646-1.437c0.719,0,1.204,0.192,1.627,0.648
			c0.588,0.62,0.874,1.281,1.072,1.835c0.092,0.279,0.322,0.453,0.601,0.453c0.055,0,0.111-0.007,0.194-0.029l0.293-0.092
			c0.283-0.077,0.465-0.309,0.465-0.598c0-0.095-0.029-0.385-0.128-1.333c-0.07-0.668-0.176-1.677-0.176-1.825
			c0-0.75-0.53-0.788-0.636-0.788c-0.238,0-0.437,0.083-0.609,0.256l-0.176,0.176C64.555,0.305,63.739,0,62.446,0
			c-1.249,0-2.178,0.317-3.001,1.018c-1.02,0.807-1.515,1.802-1.515,3.042c0,1.331,0.382,2.394,1.108,3.077
			c0.955,0.876,2.248,1.438,2.933,1.694c2.057,0.777,2.502,1.244,2.502,2.629c0,1.428-1.435,1.741-1.988,1.741
			c-0.856,0-1.661-0.438-2.103-1.145c-0.524-0.824-0.62-1.5-0.647-1.908c0-0.422-0.289-0.622-0.569-0.636l-0.404-0.037l-0.045-0.002
			c-0.149,0-0.507,0.054-0.592,0.558c-0.019,0.117-0.069,0.654-0.172,1.769c-0.068,0.737-0.152,1.653-0.17,1.768l-0.006,0.08
			c0,0.542,0.37,0.788,0.713,0.788c0.422,0,0.62-0.234,0.758-0.465l0.004-0.007c0.017,0.011,0.034,0.023,0.049,0.033
			c0.944,0.708,1.998,1.01,3.525,1.01c2.617,0,4.517-1.98,4.517-4.707C67.343,8.984,67.009,8.043,66.259,7.247z"/>
		<path style="fill:#FFFFFF;" d="M76.996,13.106h-0.342c-0.069,0-0.122-0.003-0.163-0.006V9.504c0.002-1.06,0.003-2.157-1.004-3.033
			c-0.609-0.528-1.22-0.879-2.219-0.879c-0.74,0-1.491,0.24-2.084,0.638V6.058c0-4.27,0.024-4.963,0.034-5.057
			c0.033-0.265,0.04-0.567-0.159-0.792C70.941,0.074,70.772,0,70.586,0c-0.226,0-0.388,0.064-0.532,0.12
			c-0.045,0.017-0.095,0.037-0.154,0.057l-0.064,0.026c-0.507,0.254-1.852,0.928-2.381,1.069l-0.092,0.035
			c-0.212,0.107-0.534,0.267-0.534,0.661v0.19c0,0.169,0.063,0.473,0.483,0.611l0.326,0.109c0.368,0.153,0.56,0.29,0.56,1.26
			l0.038,6.788c0,1.049-0.027,1.846-0.068,2.164c-0.035,0.007-0.089,0.014-0.17,0.014h-0.475c-0.374,0-0.655,0.265-0.655,0.618
			v0.418c0,0.375,0.262,0.636,0.636,0.636c0.044,0,0.133-0.004,0.262-0.011c0.327-0.016,0.937-0.046,1.792-0.046
			c0.7,0,1.311,0.028,1.676,0.045c0.151,0.007,0.257,0.012,0.303,0.012c0.307,0,0.636-0.211,0.636-0.674v-0.343
			c0-0.386-0.277-0.656-0.675-0.656h-0.303c-0.006-0.067-0.011-0.166-0.011-0.314V8.683c0-0.22,0.125-0.48,0.221-0.61
			C71.749,7.735,72.12,7.55,72.45,7.55c0.301,0,0.49,0.083,0.723,0.314c0.353,0.354,0.353,1.381,0.353,2.208v1.274
			c0,0.478,0,1.443-0.029,1.757c-0.015,0.002-0.034,0.003-0.057,0.003h-0.324c-0.357,0-0.617,0.252-0.617,0.599v0.456
			c0,0.369,0.256,0.617,0.636,0.617c0.06,0,0.165-0.005,0.313-0.012c0.338-0.017,0.905-0.045,1.703-0.045
			c0.87,0,1.423,0.032,1.688,0.048c0.098,0.005,0.163,0.009,0.195,0.009c0.375,0,0.637-0.262,0.637-0.636v-0.418
			C77.671,13.439,77.494,13.106,76.996,13.106z"/>
		<path style="fill:#FFFFFF;" d="M99.363,5.764c-0.07,0-0.16,0.006-0.279,0.016c-0.215,0.016-0.541,0.041-1.09,0.041
			c-0.659,0-1.133-0.03-1.387-0.046c-0.105-0.007-0.176-0.011-0.211-0.011c-0.375,0-0.637,0.262-0.637,0.636v0.418
			c0,0.352,0.257,0.618,0.599,0.618h0.266c0.011,0,0.02,0,0.028,0.001c0.011,0.054,0.024,0.218-0.102,0.566l-0.826,2.263
			L94.793,7.55h0.043c0.375,0,0.637-0.262,0.637-0.636V6.514c0-0.317-0.208-0.636-0.674-0.636c-0.052,0-0.132,0.005-0.244,0.013
			c-0.225,0.017-0.603,0.044-1.202,0.044c-0.901,0-1.469-0.032-1.742-0.047c-0.108-0.006-0.179-0.009-0.217-0.009
			c-0.386,0-0.656,0.261-0.656,0.636v0.418c0,0.364,0.254,0.617,0.617,0.617h0.21c0.03,0,0.054,0.002,0.071,0.003
			c0.026,0.002,0.039,0.004,0.041,0.001c0.086,0.12,0.119,0.298,0.085,0.379l-1.04,2.613l-0.96-3.121
			c0.304-0.053,0.499-0.283,0.499-0.606V6.4c0-0.38-0.256-0.636-0.637-0.636c-0.101,0-0.227,0.007-0.391,0.017
			c-0.281,0.017-0.667,0.04-1.245,0.04c-0.958,0-1.417-0.028-1.691-0.045c-0.125-0.007-0.213-0.012-0.286-0.012
			c-0.381,0-0.636,0.256-0.636,0.636v0.418c0,0.065,0.012,0.124,0.028,0.182c-0.046-0.05-0.088-0.1-0.137-0.149
			c-0.592-0.574-1.629-1.258-3.21-1.258c-1.181,0-2.165,0.334-3.003,1.019c-1.314,1.052-1.78,2.562-1.78,3.536
			c0,1.21,0.187,2.132,1.139,3.258c0.877,1.053,1.975,1.544,3.454,1.544c1.413,0,2.676-0.544,3.554-1.528
			c0.841-0.93,1.304-2.072,1.304-3.216c0-1.051-0.329-1.978-0.994-2.824c0.079,0.035,0.166,0.056,0.262,0.056h0.323
			c0.148,0,0.209,0.027,0.272,0.186l2.605,6.675c0.182,0.471,0.456,0.71,0.813,0.71c0.281,0,0.665-0.105,0.903-0.619l1.791-4.232
			l1.536,4.147c0.098,0.246,0.282,0.704,0.83,0.704c0.494,0,0.729-0.289,0.842-0.536c0.113-0.256,0.546-1.31,1.047-2.532
			c0.687-1.674,1.725-4.203,1.84-4.423c0.019-0.021,0.128-0.079,0.303-0.079h0.285C99.74,7.436,100,7.169,100,6.8V6.381
			C100,6.023,99.732,5.764,99.363,5.764z M80.409,10.204c0-1.273,0.189-1.959,0.695-2.531c0.223-0.25,0.466-0.352,0.837-0.352
			c0.536,0,1.494,0.944,1.494,2.826c0,1.511-0.439,3.035-1.418,3.035c-0.6,0-0.863-0.227-1.093-0.591
			C80.483,11.888,80.409,11.287,80.409,10.204z"/>
	</g>
</g>
<g id="Layer_1">
</g>
</svg>
