<svg xmlns="http://www.w3.org/2000/svg" viewBox="0 0 100 190" enable-background="new 0 0 100 190"><path d="M47.242 184.905c-.558-.287-1.08-.7-1.565-1.238.798-.66 1.42-1.248 1.862-1.764.22-.254.358-.495.42-.718.053-.17.08-.513.08-1.028v-4.147l1.05-.86.11 10.332c-.75-.096-1.403-.29-1.958-.577m5.13.198c-.72.3-1.52.452-2.392.452l-.346-.01-.108-10.38c1.26.618 2.395.984 3.4 1.09l1.52-1.393-.162-.344h-.207c-.7 0-1.306-.055-1.825-.167-.518-.11-1.227-.357-2.13-.735l-3.925 3.22v4.1c0 .916-.037 1.477-.11 1.68-.072.205-.29.457-.654.755-.843-1.087-1.263-2.272-1.263-3.553 0-1.056.288-2.034.86-2.932.446-.7 1.125-1.354 2.034-1.968l-.235-.252c-1.383.83-2.382 1.688-2.998 2.568-.788 1.124-1.182 2.345-1.182 3.664 0 1.07.28 2.107.84 3.115.56 1.01 1.33 1.784 2.32 2.324.988.54 2.04.81 3.16.81.754 0 1.514-.128 2.28-.386.765-.26 1.42-.604 1.966-1.037.543-.43 1.1-1.036 1.664-1.814l-.272-.272c-.77.674-1.52 1.164-2.237 1.465m17.867.523c-.12 0-.23-.083-.33-.247-.156-.238-.233-.632-.233-1.186v-4.79l.725-.67-1.648-1.32-1.61 1.32.688.67v4.983l-1.654 1.244c-.354-.253-.58-.463-.67-.63-.09-.164-.137-.427-.137-.784v-4.813l.687-.67-1.684-1.32-2.152 1.772.235.29c.257-.218.45-.326.577-.326.172 0 .307.085.407.256.056.097.084.305.084.62v4.516c0 .573.09 1.034.273 1.383.18.352.566.758 1.156 1.22.98-.855 1.94-1.603 2.876-2.242.01.6.09 1.037.237 1.312.146.275.46.586.938.93l1.973-1.483-.237-.29c-.246.17-.417.254-.503.254m3.843-10.347h-.262l-2.525 3.143v.402h.87v5.266c0 .432-.053.76-.158.986-.082.178-.245.35-.493.514v.18c.88.243 1.673.7 2.37 1.376l1.936-1.59-.217-.29-.578.47-1.014-.797v-6.115h1.846v-1.013h-1.846l.072-2.533zm20.148 3.24l.128-.04 2.304 2.488-2.432 1.698v-4.147zm4.124 1.874l-2.57-2.98c-1.022.525-1.676.85-1.953.98-.386.173-.867.365-1.447.574v5.25c0 .6-.034.99-.1 1.17-.07.182-.206.333-.407.456v.182c.714.144 1.266.287 1.652.427.386.14.88.37 1.48.694l2.985-2.1-.22-.287-1.43 1.012-2.114-.796v-1.7l4.122-2.882zm-9.285-1.526l1.14 1.404 1.393-1.212-1.393-1.646-2.045 1.772c0-.32-.062-.57-.183-.75-.19-.29-.546-.63-1.066-1.022l-1.9 1.664.237.29c.24-.29.428-.436.565-.436.125 0 .24.08.345.238.106.156.158.473.158.947v3.78c0 .548-.04.92-.123 1.113-.083.196-.26.39-.527.58v.18c.4.106.77.255 1.11.444.337.19.758.5 1.256.93l2.372-1.88-.218-.29-.94.76-1.086-.76v-5.323l.905-.782zm-4.806 6.758c-.12 0-.228-.083-.328-.247-.156-.238-.234-.632-.234-1.186v-4.79l.725-.67-1.646-1.32-1.61 1.32.69.67v4.983L80.2 185.63c-.353-.253-.578-.463-.67-.63-.09-.164-.136-.427-.136-.784v-4.813l.688-.67-1.683-1.32-2.154 1.772.235.29c.257-.218.45-.326.578-.326.172 0 .306.085.407.256.056.097.084.305.084.62v4.516c0 .573.09 1.034.272 1.383.18.352.566.758 1.155 1.22.982-.855 1.942-1.603 2.88-2.242.008.6.088 1.037.235 1.312.146.275.46.586.94.93l1.97-1.483-.235-.29c-.25.17-.42.254-.506.254m-24.346.036l-2.39-.977v-5.717c.313.058.578.124.797.206.31.112.842.344 1.593.7v5.788zm-4.234-6.694v5.037c0 .494-.042.846-.127 1.053-.062.16-.206.337-.435.532l.09.18c.553 0 1.048.082 1.486.243.576.21 1.307.588 2.187 1.133.288-.258.585-.476.896-.65.408-.236 1.068-.538 1.982-.906v-6.8c-1.278-.328-2.344-.787-3.203-1.376-.796.668-1.755 1.188-2.875 1.554m-34.916 6.658c-.12 0-.23-.083-.33-.247-.155-.238-.233-.632-.233-1.186v-4.79l.725-.67-1.647-1.32-1.61 1.32.688.67v4.983l-1.654 1.244c-.354-.253-.578-.463-.668-.63-.092-.164-.14-.427-.14-.784v-4.813l.69-.67-1.684-1.32-2.153 1.772.235.29c.256-.218.448-.326.577-.326.17 0 .305.085.404.256.057.097.085.305.085.62v4.516c0 .573.09 1.034.272 1.383.183.352.568.758 1.157 1.22.98-.855 1.94-1.603 2.876-2.242.01.6.09 1.037.238 1.312.146.275.46.586.938.93l1.972-1.483-.236-.29c-.25.17-.418.254-.504.254m-10.354-8.902c-.416.952-.624 2.05-.624 3.29l.038 4.153c0 .79-.117 1.445-.35 1.962-.234.513-.554.933-.96 1.255-.295.23-.772.488-1.436.767.567-.456.937-.886 1.11-1.288.246-.554.37-1.33.37-2.323l-.038-4.05c0-1.206.136-2.16.406-2.856.27-.698.673-1.313 1.21-1.843.403-.39 1.03-.795 1.886-1.216-.79.776-1.33 1.49-1.612 2.15m-3.28 5.114c.145 1.307.45 3.42.45 4.097 0 .492-.146.892-.44 1.193-.296.302-.68.452-1.154.452-.243 0-.618-.085-1.122-.255-.353-.12-.672-.18-.957-.18-.68 0-1.228.226-1.642.677-.254.286-.46.73-.62 1.333l.343.164c.104-.26.214-.433.33-.513.172-.118.392-.176.66-.176.316 0 .73.104 1.236.313.372.144.643.237.81.278.168.04.362.063.582.063.793 0 1.712-.344 2.757-1.033 1.228-.828 2.114-1.79 2.655-2.885.41-.834.614-2.093.614-3.78 0-.55-.004-1.078-.01-1.59-.017-.968-.026-1.642-.026-2.02 0-.754.146-1.452.437-2.095.293-.643.833-1.393 1.626-2.25l-.345-.302c-.44.314-.86.538-1.257.67-.394.132-.875.197-1.437.197-.598 0-1.42-.113-2.474-.342-1.312-.278-2.243-.417-2.792-.417-.877 0-1.617.275-2.222.83-.604.55-.906 1.16-.906 1.82 0 .454.123.82.365 1.097.246.275.527.414.848.414.248 0 .452-.08.61-.245.16-.164.24-.368.24-.61 0-.217-.074-.4-.22-.55-.145-.15-.32-.224-.526-.224-.097 0-.208.032-.332.09-.125.06-.218.09-.28.09-.066 0-.122-.023-.166-.073-.046-.05-.07-.115-.07-.195 0-.26.15-.515.447-.765.298-.25.704-.377 1.218-.377.394 0 .958.126 1.69.38.734.255 1.4.38 2 .38.583 0 1.308-.137 2.174-.413-.944.62-1.627 1.154-2.047 1.597-.42.445-.71.875-.866 1.29-.158.413-.25.967-.272 1.664l.092 2.202zm17.632 3.813c-.056.033-.116.05-.182.05-.094 0-.185-.08-.274-.24-.087-.158-.133-.5-.133-1.026v-4.994l.688-.706-1.608-1.32-1.61 1.32.688.706v5.108c0 .768.07 1.308.213 1.615.143.308.464.636.962.983l1.972-1.59-.236-.29c-.24.21-.402.34-.478.385m.352-11.348h-1.156l-.47 1.953h.397l1.23-1.953zm11.41 9.012c-.367.675-.98 1.32-1.843 1.94v-5.144l1.405-1.137c.655.787.985 1.59.985 2.415 0 .61-.183 1.253-.547 1.926m-1.842-3.657v-.205c0-.465-.077-.83-.232-1.1-.157-.266-.498-.58-1.025-.938l-1.926 1.592.253.288c.056-.05.095-.088.118-.113.164-.164.3-.247.402-.247.128 0 .246.086.356.257.14.22.21.636.21 1.246v4.382c0 .362-.025.64-.076.84-.05.2-.147.414-.286.645-.05.087-.18.232-.39.44-.44.43-.66.87-.66 1.32 0 .458.19.855.572 1.19.38.33.922.498 1.628.498.674 0 1.232-.145 1.674-.438.288-.18.433-.363.433-.55 0-.106-.036-.19-.108-.254-.073-.065-.17-.098-.294-.098-.11 0-.206.03-.285.09-.08.057-.175.18-.284.37-.112.19-.225.312-.34.37-.24.123-.542.184-.91.184-.506 0-.915-.132-1.223-.395-.31-.268-.463-.554-.463-.863 0-.183.043-.347.13-.493.115-.2.31-.407.587-.62.13-.102.518-.35 1.168-.74 1.487-.876 2.565-1.587 3.232-2.13.67-.542 1.158-1.117 1.47-1.728.313-.61.47-1.22.47-1.834 0-1.14-.477-2.21-1.43-3.21l-2.77 2.245zm-4.513 6.13l-1.846-.813v-5.825l1.828 1.013.96-1.394-2.407-1.357c-.732.7-1.474 1.217-2.225 1.554v5.265c0 .513-.05.888-.148 1.13-.07.172-.212.333-.43.48v.183c.603.12 1.11.257 1.525.41.412.152.913.39 1.496.71l2.262-1.663-.067-.39-.946.694z" fill="#fff"/></svg>