<svg xmlns="http://www.w3.org/2000/svg" viewBox="0 0 100 190" enable-background="new 0 0 100 190"><g fill="#EA118C"><path d="M25.56 1.158S24.933.96 23.81.893c-1.556-.09-3.59 1.225-4.137 4.79-.867 5.65-1.838 15.47-2.816 17.756 0 0-.378 1.016-.77.982-.393-.037-.52-5.94-1.334-8.923-.813-2.982-3.2-7.413-3.362-7.666-.162-.252-.05-.623-.198-.924-.15-.3-2.506-5.198-6.795-5.45 0 0-2.122.104-3.97 2.25-1.845 2.15 2.84 10.835 3.204 12.323.365 1.49 4.104 10.607 4.493 15.52.39 4.914 2.263 12.775 6.913 14.327 4.65 1.55 6.608-3.984 7.068-7.946 0 0 .13-1.1.426-1.522.756-.86 3.487-10.886 3.586-14.493.097-3.607 2.054-12.147 2.492-13.852.44-1.704 1.332-5.798-3.048-6.91M35.14 6.677c-3.11.227-4.435 3.392-4.524 5.917-.09 2.524.838 27.95.763 30.24-.077 2.292 2.234 4.076 3.996 4.12 1.762.044 4.446-.565 4.603-12.27.153-11.703.688-20.856-.31-23.916-1-3.06-2.284-4.254-4.53-4.09M44.918 1.54c-3.132.48-4.558 2.442-3.77 5.076.787 2.635 2.79 4.637 4.165 12.312C46.69 26.6 49.757 37.55 49.757 39.61c-.003 2.06 2.002 4.005 4.343 4.2 2.345.194 4.863-.6 8.687-13.62 3.82-13.02 5.068-15.245 6.134-17.36 1.067-2.114 2.95-7.125-.257-8.667-3.206-1.54-6.9-1.757-8.284 2.753-1.383 4.51-2.427 13.278-4.01 15.188-1.58 1.908-1.63.73-1.644-1.04-.016-1.765-1.945-8-2.35-11.143-.407-3.143-1.34-9.318-7.458-8.38M81.024 11.408c-.657.034-.982.197-1.16 1.71-.18 1.516-1.387 5.05-1.765 5.85-.374.8-.65 2.443.51 2.496 1.167.054 4.036.042 4.493-.05.453-.093 1.65-.352 1.007-2.154-.643-1.803-1.89-4.24-1.96-5.08-.073-.84-.045-2.828-1.126-2.772M66.05 33.498c1.692-4.258 5.365-15.174 7.068-20.52 1.704-5.35 2.187-7.377 3.767-9.584 1.585-2.208 3.233-3.563 6.17-3.03 2.932.535 4.334 6.608 6.43 13.206 2.094 6.598 4.145 15.01 4.674 19.396.53 4.39 2.584 13.77 1.775 16.204-.808 2.43-1.412 2.396-1.843 3.58-.432 1.187-4.58.704-5.753.09-1.178-.614-3.99-2.17-2.258-5.943 1.734-3.772 3.316-5.978.12-16.514 0 0 .113-1.82-3.614-1.598-3.502.21-5.65-.654-5.988 2.698-.336 3.352-1.198 6.45-2.79 7.258-1.59.81-3.657 2.724-6.875-.814.002 0-1.898-1.88-.884-4.427M28.79 48.516c-2.952.007-4.83 1.736-4.862 4.79-.03 3.055 1.92 2.577 2.296 5.408.376 2.832 2.535 17.35 3.145 19.554.608 2.205.497 3.28 3.07 3.974 2.572.692 10.04 1.87 17.172.464 0 0 2.828-.158 2.56-4.3 0 0 .092-2.187-5.4-4.163-5.49-1.98-8.922-3.158-9.456-6.235-.535-3.08-2.12-12.333-2.573-15.52-.452-3.19-4.537-3.976-5.952-3.972M70.1 62.498s-2.12-5.76-4.028-6.49c-1.905-.734-2.358 3.2-2.958 4.343-.602 1.144-1.01 3.305.89 3.452 1.904.15 4.98.168 5.49-.086.51-.258.745-.64.606-1.218m-.008-13.23c3.194 3.29 5.188 8.768 6.538 11.782 1.346 3.013 3.897 1.863 6.91 2.435 3.015.57 3.49 2.122 2.117 4.356-1.372 2.236-3.265.825-4.968 1.91-1.7 1.088-.215 3.656.908 5.7 1.123 2.04 2.648 2.976 1.707 6.532-.943 3.558-5.26 3.08-7.482 2.498-2.225-.582-3.473-3.362-2.5-5.507.97-2.145 1.364-4.04.22-6.648-1.147-2.604-5.63-2.192-7.552-2.133-1.922.057-4.374-.482-4.985 3.206-.61 3.688-3.184 4.274-4.916 4.002-1.735-.27-2.63-2.354-2.346-4.313.283-1.957.11-2.872-2.282-3.463-2.394-.593-3.133-2.385-3.08-3.284.052-.9-.586-3.534 3.31-3.53 3.895 0 4.235-2.914 4.235-2.914 3.365-8.326 3.43-14.06 8.106-14.144 1.47-.026 2.866.225 6.06 3.515M17.813 83.728c-4.932-.08-5.74 3.865-5.234 5.997.503 2.13 1.753 8.61 1.945 12.56.186 3.95 3.664 12.764 3.206 15.21-.456 2.44-1.827 5.197-4.685 3.77-2.857-1.428-1.368-4.44-1.783-6.304-.418-1.86-1.83-2.89-4.027-3.018-2.196-.127-4.21.172-4.19 5.164.026 4.99 1.318 10.74 5.838 12.474 4.52 1.736 12.31 3.24 17-5.152 0 0 1.223-2.922.647-6.525-.578-3.607-1.924-11.142-2.227-13.104-.308-1.962-1.997-5.423-1.897-7.097.098-1.676.234-6.71.766-8.62.532-1.913-1.332-5.293-5.36-5.355M29.874 90.428c-5.415-.013-4.86 6.185-3.616 12.36 1.24 6.174 1.336 12.96 4.206 16.58 2.87 3.62 4.966 5.713 10.104 5.333 5.137-.375 6.564-4.727 6.26-13.25-.303-8.525-.556-11.558-.467-13.093.092-1.537-.752-3.99-3.462-4.025-2.71-.037-3.36.543-3.423 10.09-.045 6.736.388 8.473.587 8.98.083.21.03.316.01.357-.132.29-.195.963-.445 1.17-.287.236-1.59 1.416-2.877-2.384-1.286-3.8-1.916-11.414-1.878-13.953.033-2.536.563-8.154-4.998-8.165M51.12 89.53c-4.537.78-2.43 4.736-1.936 10.34.496 5.604.868 20.894-.067 24.956-.933 4.065 1.634 6.748 5.61 5.904 3.98-.845 4.278-3.803 2.892-10.41-1.39-6.61-1.532-20.426-1.596-21.508-.064-1.082-.233-10.088-4.905-9.282M78.3 100.296c-.178-4.654-6.237-6.535-10.147-6.612-3.91-.078-10.524 2.395-9.815 10.863.71 8.47 1.49 20.856 12.42 23.152 10.926 2.293 12.253-7.563 10.52-10.07-1.734-2.512-3.575-3.22-5.797-1.243-2.22 1.976-5.983 4.543-8.937-1.576-2.952-6.117-1.396-10.842 1.067-11.826 2.468-.986 4.54-.41 5.934.196 1.395.608 4.88.208 4.757-2.884M89.413 96.883s1.01-5.662 3.17-7.868c2.16-2.205 7.52.064 7.416 3.145-.106 3.077-2.83 9.767-4.415 12.457-1.59 2.694-1.455 6.838-.676 10.272.778 3.43 1.138 12.706.997 15.105-.14 2.402-1.43 2.552-3.043 3.134-1.616.582-3.828 1.13-5.974-.803-2.143-1.93.103-12.034.192-17.447.093-5.41-2.534-10.682-4.85-13.603-2.31-2.92-3.913-7.678-3.443-9.304.47-1.63 3.282-2.068 4.843-1.75C85.195 90.54 86.82 93.3 87.39 95c.57 1.7.933 2.544 1.39 2.593.454.05.633-.71.633-.71"/></g></svg>