<?xml version="1.0" encoding="iso-8859-1"?>
<!-- Generator: Adobe Illustrator 19.2.1, SVG Export Plug-In . SVG Version: 6.00 Build 0)  -->
<svg version="1.1" xmlns="http://www.w3.org/2000/svg" xmlns:xlink="http://www.w3.org/1999/xlink" x="0px" y="0px"
	 viewBox="0 0 100 25" style="enable-background:new 0 0 100 25;" xml:space="preserve">
<g id="logo_x5F_walgreens">
	<g>
		<path style="fill:#E31837;" d="M10.96,16.325c4.965,0.917,8.599-3.893,10.928-8.055c0.932-1.668,2.347-6.034,0.762-7.684
			c-1.451-1.596-2.573,0.499-3.433,1.198l0.664,0.786c1.326,1.675,0.173,4.857-0.614,6.558c-1.18,2.093-3.408,5.261-6.01,4.819
			c-0.565-0.132-1.033-0.68-1.23-1.256c1.402-1.387,3.062-3.824,3.995-5.446c0.781-1.319,2.136-3.867,0.886-4.918
			c-1.038-0.719-3.115,0.316-4.228,1.256c-0.677,0.61-1.134,1.11-1.66,1.821c-1.433,1.941-2.797,5.271-2.654,7.835
			c-0.688,0.498-1.473,0.995-2.407,0.708c-0.926-0.206-1.092-0.994-1.223-1.612C4.145,8.62,7.868,3.93,9.957,1.236
			c0,0-1.648,0.446-2.85,0.497c-2.764,0.118-4.817-1.168-6.312,0.68C0.344,3.07,0.084,3.761,0,4.582
			c0.613-0.524,1.521-0.398,2.388-0.348c1.5,0.131,2.239,0.312,3.591-0.051c-1.205,1.699-3.212,5.05-3.582,7.142
			c-0.195,1.386-0.178,3.575,1.008,4.556c1.966,1.308,3.918,0.394,5.662-0.811C9.585,15.67,10.224,16.194,10.96,16.325z
			 M14.295,4.721c0.523-0.256,0.366,0.521,0.366,0.521c-0.075,0.88-0.714,1.93-1.169,2.735c-0.468,0.824-2.105,2.765-2.819,3.183
			c0.031-1.175,1.288-3.74,1.931-4.719C12.933,5.866,13.772,4.977,14.295,4.721z"/>
		<path style="fill:#E31837;" d="M93.374,7.017L93.374,7.017c-0.273,0.36-1.204,1.373-1.507,1.69
			c-0.014,0.012-0.155,0.148-0.155,0.148c-2.515,2.523-4.436,3.987-5.55,4.222c-0.759,0.167-1.106,0.21-1.461-0.474
			c-0.006-0.013-0.014-0.038-0.014-0.038c0-0.005-0.037-0.32-0.037-0.32c0-0.91,1.182-2.948,2.762-4.312
			c0.604-0.527,0.675-0.76,0.684-0.818c-0.225-0.354-0.362-0.521-0.669-0.648c-0.44-0.023-1.113,0.443-1.557,0.755
			c-0.314,0.215-1.207,1.035-2.153,1.9c-0.789,0.723-1.603,1.471-2.058,1.845c0,0-0.635,0.519-0.77,0.633
			c0.006-0.133,0.022-0.401,0.022-0.401c0.017-0.469,0.511-1.251,1.215-2.304c0.255-0.388,0.886-1.488,0.961-1.683l0.01-0.019
			l-0.011-0.019c-0.204-0.335-0.596-0.596-0.909-0.612c-0.032,0.013-0.28,0.216-0.28,0.216c-0.531,0.433-1.665,1.455-2.759,2.445
			c-1.006,0.91-1.955,1.766-2.191,1.937c-1.846,1.371-3.447,2.265-5.024,2.82c-0.283,0.082-1.247,0.313-1.724-0.224
			c0,0-0.109-0.121-0.165-0.19c0.071-0.033,0.227-0.098,0.227-0.098c1.38-0.588,3.117-1.395,4.379-2.475
			c0.018-0.017,1.934-1.66,1.934-3.281c0-0.071-0.005-0.14-0.01-0.21c-0.119-0.582-0.617-0.76-1.326-0.85
			c-2.319,0.014-4.402,1.441-5.484,2.658L69.56,9.519c-0.503,0.546-2.028,2.205-2.649,3.679c0,0-0.027,0.066-0.036,0.078
			c-0.004-0.003-0.057,0.019-0.057,0.019c-1.046,0.442-2.182,0.866-3.444,0.999c-0.68,0.085-1.647,0.143-2.187-0.351
			c0,0-0.133-0.116-0.191-0.172c0.106-0.056,2.637-1.41,2.637-1.41c2.086-1.267,3.484-3.194,3.484-4.198l0,0
			c-0.044-1.166-1.133-1.429-2.042-1.441c-1.35,0.008-2.595,0.505-4.168,1.663c-0.911,0.672-2.818,2.851-3.328,5.088
			c0,0-0.014,0.073-0.024,0.106c-0.042,0.012-0.199,0.049-0.199,0.049c-0.998,0.248-2.676,0.655-2.985-0.319
			c-0.497-1.585,1.09-3.109,2.361-4.333c0-0.001,0.716-0.703,0.716-0.703c0.1-0.112,0.222-0.373,0.187-0.58
			c-0.013-0.097-0.062-0.171-0.15-0.224c-0.68-0.299-1.334-0.068-2.025,0.179c-0.519,0.183-1.057,0.371-1.626,0.331
			c0,0-0.111-0.012-0.178-0.017c0.006-0.06,0.016-0.182,0.016-0.182c0.03-0.334,0.224-0.535,0.399-0.71
			c0.004-0.001,0.056-0.06,0.056-0.06c0.03-0.036,0.047-0.106,0.047-0.185c0-0.071-0.012-0.149-0.044-0.218
			c-0.045-0.106-0.113-0.17-0.197-0.177c-0.399-0.05-1.086,0.344-1.712,0.974c-0.601,0.612-0.977,1.271-0.977,1.724l0.005,0.093
			c0.004,0.012,0.003,0.037,0.003,0.037c-0.074,1.027-0.969,2.011-2.21,3.376l-0.54,0.595c0.002,0-0.207,0.214-0.207,0.214
			c-0.746,0.76-1.216,1.329-1.362,1.643l-0.043,0.092l0.102-0.027c0.527-0.159,2.045-0.891,4.761-4.311c0,0,0.04-0.048,0.058-0.079
			c0.035,0.004,0.101,0.015,0.101,0.015c0.127,0.016,0.282-0.05,0.447-0.114c0.276-0.11,0.593-0.233,0.891-0.036
			c0,0,0.115,0.073,0.164,0.109c-0.052,0.064-0.533,0.678-0.533,0.678c-0.758,0.95-1.536,1.925-1.536,3.094
			c0,0.224,0.028,0.456,0.094,0.695c0.143,0.685,0.846,1.01,1.403,1.082c1.128,0.195,2.543-0.428,3.793-0.977l0.633-0.276
			c0.353-0.097,0.455,0.119,0.528,0.274c0.088,0.187,0.212,0.451,0.757,0.687c1.823,0.826,4.499,0.418,7.957-1.212
			c0,0,0.104-0.049,0.167-0.08c0.026,0.061,0.071,0.181,0.071,0.181c0.249,0.67,0.717,1.083,1.482,1.305
			c2.978,0.396,5.432-1.307,7.806-2.954c0.002-0.001,1.083-0.823,1.261-0.959c0.043,0.044,0.238,0.254,0.264,0.288
			c-0.039,0.058-1.044,1.47-1.044,1.47c-0.351,0.514-0.678,0.995-0.883,1.537c0-0.003-0.06,0.228-0.06,0.228l0.026,0.119
			c0.052,0.093,0.179,0.156,0.364,0.183c1.808-0.25,3.549-1.725,4.698-2.697l0.344-0.291c0.494-0.431,0.967-0.834,1.155-0.875
			c0,0,0.072-0.021,0.108-0.03c0.027,0.03,0.083,0.094,0.083,0.094c0.006,0.007,0.006,0.018,0.006,0.028
			c0,0.089-0.133,0.298-0.23,0.443l-0.181,0.293c-0.154,0.323-0.46,0.956-0.46,1.517c0,0.203,0.042,0.402,0.154,0.571
			c0.541,0.837,1.013,0.864,1.523,0.893l0.181,0.01c2.132-0.137,4.226-1.987,6.253-3.779l1.51-1.306c0,0,1.219-1.067,1.466-1.287
			c0.033,0.076,0.085,0.22,0.085,0.22c0.152,0.39,0.185,0.745,0.185,0.974l-0.037,0.424c-0.023,0.188-0.36,1.502-0.82,1.874
			c-0.002,0-0.096,0.053-0.096,0.053c-0.004,0-0.294,0.074-0.294,0.074c-1.116,0.286-2.378,0.607-2.848,1.719
			c-0.003,0.004-0.043,0.253-0.043,0.253c0,0.15,0.057,0.365,0.309,0.533c0.787,0.203,1.603,0.008,2.321-0.165l0.925-0.197
			c0.754,0.004,1.488,0.094,2.197,0.178c0.988,0.117,1.917,0.231,2.903,0.13c1.276-0.334,2.295-1.783,2.61-2.982L100,12.672
			l-0.095,0.047c-1.585,0.784-3.415,0.818-4.898,0.091c0,0-0.104-0.052-0.151-0.077c0.022-0.049,0.067-0.164,0.067-0.164
			c0.011-0.023,0.915-2.231,0.915-5.092c0-0.129-0.002-0.263-0.006-0.395h0.006c-0.018-0.069-0.026-0.134-0.026-0.198
			c0-0.263,0.133-0.479,0.255-0.676c0.123-0.196,0.228-0.366,0.228-0.569c0-0.03-0.002-0.059-0.004-0.092
			c-0.006-0.002-0.006-0.011-0.006-0.017c0-0.024,0.007-0.057,0.007-0.057c0.002-0.004,0.002-0.008,0.002-0.013
			c0-0.071-0.111-0.107-0.164-0.121C94.889,5.028,94.184,5.949,93.374,7.017z M60.712,11.954L60.712,11.954
			c0.08-0.676,1.092-1.986,1.632-2.534c0.491-0.494,1.13-0.896,1.748-1.1c0.326-0.077,0.587-0.014,0.724,0.176
			c0.053,0.079,0.083,0.172,0.083,0.27c0,0.122-0.044,0.251-0.123,0.379c-0.676,1.061-2.418,2.555-3.839,3.004
			c0,0-0.166,0.053-0.26,0.087C60.688,12.144,60.712,11.954,60.712,11.954z M70.268,11.697L70.268,11.697
			c0.143-1.01,1.618-2.515,1.632-2.529c0.491-0.494,1.13-0.895,1.75-1.102c0.254-0.109,0.499-0.086,0.65,0.059
			c0.057,0.061,0.136,0.172,0.136,0.356c0,0.105-0.025,0.229-0.089,0.386c-0.157,0.392-1.345,1.543-1.684,1.838
			c-0.376,0.357-1.404,1.072-2.194,1.2c0,0-0.148,0.024-0.239,0.037C70.242,11.864,70.268,11.697,70.268,11.697z"/>
		<path style="fill:#E31837;" d="M41.289,2.294h-0.002c-1.605,0.148-3.114,1.042-4.897,2.896c-0.728,0.689-4.094,4.877-4.649,8.061
			c0,0-0.009,0.061-0.015,0.087c-0.023,0.011-0.077,0.04-0.077,0.04c-0.488,0.262-1.956,0.892-2.887,0.658
			c-0.279-0.07-0.487-0.213-0.612-0.427c-0.143-0.277-0.212-0.559-0.212-0.858c0-0.695,0.384-1.314,0.716-1.87
			c0.003-0.002,0.178-0.293,0.191-0.314c0.006,0.006,0.063-0.012,0.063-0.012c0.861-0.246,2.21-1.889,2.553-2.892l0.01-0.029
			l-0.026-0.016c-1.004-0.616-2.352-0.601-3.304-0.483c-1.569,0.182-3.354,0.873-4.778,1.845c-1.714,1.17-3.195,3.554-3.505,5.045
			c-0.168,0.852-0.278,1.717,0.312,2.118c1.226,0.712,3.635-0.581,5.28-2.156c0,0,0.215-0.204,0.343-0.327
			c-0.013,0.174-0.053,0.642-0.053,0.642c-0.021,0.204-0.04,0.437-0.04,0.668c0,0.435,0.073,0.872,0.36,1.143
			c1.356,1.076,4.149-0.103,5.69-1.156c0,0,0.09-0.063,0.137-0.093c0.037,0.045,0.105,0.131,0.105,0.131
			c0.49,0.607,1.068,1.259,1.727,1.369c1.721,0.241,3.068-0.751,4.266-1.858c0,0,0.156-0.144,0.234-0.218
			c0.024,0.127,0.117,0.554,0.117,0.554c0.088,0.443,0.168,0.863,0.512,1.139c0.869,0.673,2.816-0.242,3.913-1.021
			c0,0,0.253-0.177,0.398-0.283c-0.036,0.154-0.121,0.472-0.121,0.472c-0.187,0.724-0.533,1.418-0.869,2.088l-0.301,0.614
			l-0.05,0.08l-0.089,0.145c-0.467,0.747-1.333,2.148-2.176,2.271l-0.059,0.009c-0.217-0.079-0.355-0.201-0.428-0.363l-0.062-0.313
			c0-0.378,0.199-0.808,0.373-1.188l0.036-0.075l-0.082,0.005c-0.392,0.06-0.741,0.226-1.126,0.422
			c-0.78,0.461-1.582,1.504-1.582,2.443c0,0.194,0.031,0.378,0.098,0.549c0.161,0.358,0.585,0.369,0.763,0.359
			c5.343-0.5,8.341-6.56,10.531-10.987l0.43-0.874c0.132-0.175,0.154-0.28,0.154-0.341l-0.004-0.052
			c-0.009-0.007-0.082-0.1-0.082-0.1c0.006,0.007-0.053-0.318-0.053-0.318c0.089-0.428,1.125-1.328,1.136-1.338
			c0,0.002,0.131-0.098,0.131-0.098c0.107-0.069,0.172-0.14,0.175-0.196c0-0.062-0.069-0.143-0.175-0.21
			c-0.211-0.136-0.438-0.232-1.306-0.474c-1.606-0.45-4.367-0.111-6.871,2.313c-0.263,0.252-0.747,0.863-1.141,1.353l-0.507,0.631
			c-1.22,1.424-2.478,2.901-4.558,2.489c-0.272-0.113-0.561-0.341-0.672-0.623c-0.059-0.161-0.055-0.323,0.013-0.469l0.026-0.052
			c1.154-0.809,2.339-1.859,3.555-3.133c2.044-2.184,4.547-5.859,4.219-6.771C42.24,2.306,41.51,2.284,41.289,2.294z M24.396,9.471
			C25.529,8.918,26.945,8.957,28,9.574c0,0,0.121,0.07,0.182,0.107c-0.049,0.07-0.778,1.084-0.778,1.084
			c-1.198,1.456-3.511,2.899-4.499,2.809v-0.002c-0.461-0.04-0.783-0.266-0.863-0.609l-0.016-0.291c0-0.985,1.31-2.508,1.997-2.973
			C24.017,9.703,24.396,9.471,24.396,9.471z M37.801,5.947c0.55-0.675,1.451-1.269,1.721-1.396c0.207-0.098,0.318,0.019,0.347,0.056
			c0.046,0.056,0.061,0.132,0.061,0.208c0,0.089-0.027,0.178-0.058,0.216l0.01,0.002c-0.48,1.677-3.519,5.233-5.266,6.481
			c0,0-0.21,0.147-0.335,0.237c0.018-0.133,0.054-0.403,0.054-0.403l0,0C34.483,10.154,36.743,7.246,37.801,5.947z M41.218,13.558
			l-0.029-0.019c-0.472-0.342-0.621-0.823-0.425-1.388c0.177-0.658,2.003-2.677,3.448-2.958c1.312-0.254,1.836,0.19,2.089,0.4
			c0,0.004,0.137,0.112,0.203,0.169c-0.056,0.06-0.709,0.761-0.709,0.761C44.831,11.883,42.418,14.116,41.218,13.558z"/>
	</g>
</g>
<g id="Layer_1">
</g>
</svg>
