<svg xmlns="http://www.w3.org/2000/svg" viewBox="0 0 100 190" enable-background="new 0 0 100 190"><g fill="#fff"><path d="M48.546 161.552c.16-1.805 1.38-3.345 2.6-4.405 1.7-1.54 4.62-2.707 6.37-2.813.264-.053.69-.053.795.21 0 .108-.37.215-.582.32-1.274.584-2.495 1.645-3.822 2.92-1.433 1.433-2.92 3.61-3.08 4.67-.05.53.16.902.746.902 1.167 0 3.29-1.432 4.935-3.24.054-.528.267-1.325.955-2.228.585-.795 1.33-1.22 1.7-1.38.16-.37.16-1.06.16-1.325-.108-.532-.267-.69-.054-.744.16-.107.53.104.743.318.48.425.744 1.06.64 1.857-.16 1.273-1.382 2.812-3.027 4.298.213.106.69.053 1.008 0 .373-.052 1.063-.318 1.805-.902.69-.477 1.327-1.113 1.86-1.54.21-.21.528-.475.636-.316.16.105-.107.37-.424.69-.478.478-1.168 1.114-1.857 1.593-.85.636-1.54.847-2.02.955-.37.105-1.114.105-1.432-.108-1.38 1.062-3.875 2.602-6.052 2.602-1.645 0-2.707-.85-2.6-2.334"/><path d="M74.34 148.655c-.637.848-1.964 1.433-2.495 1.433-.266-.32-.318-1.116-.054-1.804.374-.798 1.117-1.008 2.124-1.008.745 0 1.063.582.425 1.38m-7.856 7.11c-.37.212-1.327.903-2.123 1.54-.742.636-1.433 1.167-2.334 2.017-.213.16-.425.318-.532.21-.16-.104.054-.37.267-.635.426-.372 2.815-2.442 4.088-3.29 1.38-.956 2.07-1.168 3.08-1.115 1.113-.053 1.273.106.582.796-.956 1.06-1.75 2.12-2.812 3.395-.903 1.115-1.592 2.07-1.91 2.6-.32.584-.372 1.01-.16 1.168.265.32.796.054 1.274-.158.584-.266 1.54-.956 2.335-1.645 1.115-.903 1.966-1.592 2.55-2.177.263-.16.582-.476.742-.317.158.158-.266.53-.426.69-.638.636-2.176 2.016-3.183 2.758-1.062.85-2.867 2.177-4.618 2.177-1.114 0-1.646-.583-1.592-1.378 0-.69.37-1.38.795-2.018 1.062-1.644 3.13-3.82 3.98-4.564v-.053zM77.416 158.952c-.848 1.007-1.54 1.962-1.803 2.494-.267.478-.213.85-.054 1.007.21.16.743 0 1.167-.212.584-.316 1.54-.9 2.39-1.59 1.166-.902 1.908-1.54 2.6-2.177.158-.212.53-.477.636-.37.16.158-.266.583-.425.742-.637.637-1.857 1.752-3.185 2.76-1.114.85-2.972 2.124-4.725 2.124-1.112 0-1.696-.586-1.645-1.383.055-1.166 1.382-2.653 2.548-3.767 1.274-1.222 3.292-2.655 3.45-3.025.214-.583-.794-.48-2.122-.426-.636.053-.956 0-1.22-.107-.424.477-1.273 1.273-2.018 2.018-.85.85-1.75 1.646-2.336 2.176-.37.318-.583.372-.69.265-.105-.105.16-.423.373-.582.69-.637 1.432-1.327 2.334-2.23.692-.69 1.54-1.54 1.914-1.857-.478-.317-.587-1.06 0-1.697.423-.53 1.166-.9 2.016-.9.426 0 .85.21.956.528-.37.266-.584.426-.902.69-.69.795-.53 1.17.16 1.222 1.485.052 3.024.106 3.024 1.06 0 .744-1.22 1.86-2.442 3.24M65.295 139.743c1.76 0 2.897.626 3.238 1.535.113.228.17.568.285.568.17 0 .17-.284.17-.568 0-1.42-1.137-3.182-3.523-3.182-3.468 0-7.273 2.955-11.08 6.99-3.807 4.034-8.92 10.682-12.557 15.967h-.056c.68-1.65 1.248-4.206 1.59-8.58.228-2.615.398-5.17.795-6.933.282-1.25.738-2.386 1.306-3.183.284-.455.115-.795-.568-.737-.852.055-1.875 1.25-2.27 1.76-.343.512-.853 1.364-1.082 1.817-2.898 5.513-7.16 10.23-12.33 14.15-4.922 3.784-9.724 6.33-14.244 6.56 0 0-2.207.33-3.2-.33 0 0-.135.667 2.305.995 4.647.627 10.352-2.87 15.477-6.713 4.433-3.354 9.32-8.41 11.593-12.786h.055c-.625 1.705-.625 4.433-.964 8.068-.284 3.58-.74 6.08-1.817 9.09-.286.57-.458 1.252.056 1.536.567.342 1.022-.284 1.363-.795 4.032-5.796 9.544-13.92 14.94-19.432 2.73-2.842 6.536-5.797 10.515-5.797"/></g></svg>