<?xml version="1.0" encoding="iso-8859-1"?>
<!-- Generator: Adobe Illustrator 19.0.0, SVG Export Plug-In . SVG Version: 6.00 Build 0)  -->
<svg version="1.1" xmlns="http://www.w3.org/2000/svg" xmlns:xlink="http://www.w3.org/1999/xlink" x="0px" y="0px"
	 viewBox="0 0 100 65" style="enable-background:new 0 0 100 65;" xml:space="preserve">
<g id="LOGO_x5F_RED_x5F_always_x5F_r">
	<g>
		<path style="fill:#C32033;" d="M11.651,32.382L9.26,26.416c-0.479-1.127-0.958-2.844-0.958-2.844s-0.45,1.717-0.93,2.844
			l-2.391,5.966H11.651z M8.19,18.254h0.335l8.386,19.331h-3.094l-1.097-2.7H3.969l-1.099,2.7H0L8.19,18.254z"/>
		<path style="fill:#C32033;" d="M29.347,18.452h3.124l3.376,10.188c0.369,1.068,0.734,2.73,0.734,2.73s0.478-1.634,0.927-2.73
			l4.389-10.384h0.369l4.416,10.384c0.452,1.068,0.902,2.73,0.902,2.73s0.392-1.663,0.761-2.73l3.377-10.188h2.897l-6.615,19.332
			h-0.363l-4.757-11.396c-0.393-0.93-0.786-2.337-0.786-2.337s-0.453,1.406-0.848,2.337l-4.867,11.396h-0.365L29.347,18.452z"/>
		<path style="fill:#C32033;" d="M65.746,32.382l-2.391-5.966c-0.478-1.127-0.959-2.844-0.959-2.844s-0.449,1.717-0.926,2.844
			l-2.393,5.966H65.746z M62.285,18.254h0.337l8.386,19.331h-3.097l-1.096-2.7h-8.754l-1.095,2.7h-2.871L62.285,18.254z"/>
		<path style="fill:#C32033;" d="M76.329,31.538l-7.262-13.087h3.295l4.332,7.88c0.591,1.067,1.154,2.759,1.154,2.759
			s0.59-1.692,1.153-2.759l4.195-7.88h3.071l-6.953,12.916v6.218h-2.984V31.538z"/>
		<polygon style="fill:#C32033;" points="19.534,18.452 22.513,18.452 22.513,34.969 31.352,34.969 31.352,37.586 19.534,37.586 		
			"/>
		<path style="fill:#C32033;" d="M86.888,33.874l2.444-1.352c0.902,1.491,2.056,2.674,4.39,2.674c1.943,0,3.324-1.04,3.324-2.619
			c0-1.66-1.126-2.389-3.21-3.319l-1.266-0.561c-2.785-1.24-4.47-2.647-4.47-5.601c0-2.842,2.191-4.868,5.372-4.868
			c2.531,0,4.248,0.956,5.4,3.011l-2.336,1.434c-0.731-1.265-1.574-1.858-3.064-1.858c-1.521,0-2.479,0.93-2.479,2.225
			c0,1.435,0.817,2.083,2.755,2.925l1.243,0.564c3.263,1.435,5.01,2.955,5.01,6.022c0,3.348-2.617,5.291-6.22,5.291
			C90.148,37.842,87.954,36.038,86.888,33.874"/>
	</g>
</g>
<g id="Layer_1">
</g>
</svg>
