<?xml version="1.0" encoding="iso-8859-1"?>
<!-- Generator: Adobe Illustrator 19.2.1, SVG Export Plug-In . SVG Version: 6.00 Build 0)  -->
<svg version="1.1" xmlns="http://www.w3.org/2000/svg" xmlns:xlink="http://www.w3.org/1999/xlink" x="0px" y="0px"
	 viewBox="0 0 100 40" style="enable-background:new 0 0 100 40;" xml:space="preserve">
<g id="LOGO_x5F_BSPS_x5F_private_x5F_ko">
	<g>
		<path style="fill:#FFFFFF;" d="M22.41,13.106h-0.576c-0.004-0.025-0.008-0.054-0.012-0.089c-0.031-0.189-0.031-0.948-0.031-1.557
			V9.406c0-1.484,0-2.767,0.034-3.04c0.036-0.283-0.063-0.463-0.152-0.564c-0.232-0.262-0.603-0.268-1.121-0.058
			c-0.146,0.06-0.673,0.251-1.183,0.436c-0.713,0.258-1.157,0.42-1.287,0.476c-0.013,0.005-0.024,0.012-0.036,0.018
			c-0.108-0.703-0.682-1.195-1.451-1.195c-0.704,0-1.399,0.359-2.017,1.029l-0.036-0.28c-0.097-0.605-0.558-0.635-0.649-0.635
			c-0.175,0-0.301,0.045-0.403,0.082l-2.106,0.983c0.351-0.596,0.54-1.294,0.54-2.083c0-1.295-0.614-2.521-1.655-3.29
			C9.111,0.485,7.954,0.229,5.506,0.229c-0.383,0-0.904,0.019-1.363,0.036C3.827,0.275,3.554,0.286,3.413,0.286
			c-1.403,0-2.126-0.031-2.515-0.047c-0.141-0.006-0.237-0.01-0.3-0.01C0.31,0.229,0,0.428,0,0.865V1.34
			c0,0.358,0.252,0.618,0.599,0.618h0.989c0.092,0,0.15,0.005,0.186,0.011c0.015,0.35,0.015,2.398,0.015,3.404V7.58
			c0,2.253-0.038,5.105-0.054,5.31c-0.008,0.069-0.016,0.113-0.022,0.141c-0.052,0.009-0.153,0.018-0.353,0.018H0.751
			c-0.14,0-0.599,0.046-0.599,0.636v0.476c0,0.369,0.256,0.617,0.637,0.617c0.052,0,0.143-0.004,0.278-0.01
			c0.359-0.016,1.105-0.047,2.346-0.047c1.501,0,2.22,0.03,2.605,0.046c0.148,0.006,0.249,0.011,0.324,0.011
			c0.106,0,0.636-0.033,0.636-0.674v-0.438c0-0.369-0.256-0.618-0.636-0.618H5.278c-0.034,0-0.051-0.002-0.057-0.003
			c-0.007-0.01-0.035-0.055-0.05-0.159c-0.008-0.107-0.018-0.837-0.018-3.71v-0.3c0.377,0.024,0.782,0.024,1.227,0.024
			c1.847,0,3.311-0.487,4.272-1.352c0.006,0.165,0.076,0.429,0.434,0.568l0.315,0.176c0.354,0.189,0.467,0.286,0.467,1.057v3.728
			c0,0.011,0,0.021-0.001,0.029h-0.009h-0.666c-0.398,0-0.655,0.25-0.655,0.637v0.418c0,0.363,0.254,0.617,0.618,0.617
			c0.042,0,0.126-0.004,0.251-0.01c0.322-0.016,0.991-0.047,1.974-0.047c1.05,0,1.778,0.032,2.127,0.048
			c0.119,0.005,0.198,0.008,0.232,0.008c0.364,0,0.618-0.254,0.618-0.617v-0.437c0-0.364-0.262-0.618-0.637-0.618h-0.836
			c-0.008,0-0.016,0-0.022,0c-0.012-0.047-0.026-0.141-0.026-0.314V9.12c0-0.191,0.068-0.522,0.164-0.692
			c0.144-0.251,0.326-0.308,0.379-0.308c0.077,0,0.182,0.009,0.241,0.054l0.075,0.046c0.152,0.076,0.466,0.203,0.864,0.203
			c0.455,0,0.891-0.256,1.178-0.62c0.077,0.128,0.215,0.245,0.462,0.301c0.627,0.164,0.627,0.324,0.627,0.711v2.683
			c0,0.504,0,1.073-0.033,1.607H18.13c-0.464,0-0.675,0.33-0.675,0.637v0.362c0,0.465,0.32,0.674,0.637,0.674
			c0.076,0,0.203-0.006,0.378-0.014c0.37-0.017,0.929-0.043,1.676-0.043c0.937,0,1.645,0.031,2.026,0.047
			c0.139,0.006,0.233,0.01,0.275,0.01c0.307,0,0.637-0.211,0.637-0.674v-0.381C23.084,13.439,22.908,13.106,22.41,13.106z
			 M5.154,1.86c0.15-0.017,0.311-0.017,0.4-0.017l0.219,0c0.025,0,2.521,0.031,2.521,2.693c0,0.533-0.042,1.209-0.368,1.699
			C7.555,6.761,6.708,7.323,6.039,7.323c-0.341,0-0.646-0.019-0.885-0.055V1.86z"/>
		<path style="fill:#FFFFFF;" d="M19.804,4.069c1.217,0,1.853-0.875,1.853-1.739c0-0.78-0.651-1.587-1.739-1.587
			c-1.061,0-1.892,0.731-1.892,1.663C18.026,3.447,18.93,4.069,19.804,4.069z"/>
		<path style="fill:#FFFFFF;" d="M39.404,12.648l-0.215-0.145l-0.055-0.032c-0.063-0.031-0.161-0.073-0.286-0.073
			c-0.206,0-0.382,0.105-0.52,0.313l-0.018,0.027c-0.024,0.018-0.072,0.043-0.126,0.055c-0.03-0.096-0.073-0.322-0.073-0.84
			l-0.038-3.919c0-0.429,0-1.227-0.619-1.788c-0.478-0.425-0.949-0.655-2.071-0.655c-1.093,0-2.112,0.313-3.034,0.924V6.381
			c0-0.285-0.177-0.617-0.674-0.617c-0.052,0-0.134,0.005-0.25,0.013c-0.237,0.016-0.633,0.044-1.234,0.044
			c-0.683,0-1.086-0.026-1.352-0.042c-0.139-0.009-0.241-0.015-0.322-0.015c-0.381,0-0.636,0.248-0.636,0.617V6.8
			c0,0.418,0.301,0.636,0.598,0.636h0.281c0.008,0.033,0.012,0.103-0.022,0.214c-0.178,0.597-0.78,2.096-1.214,3.148
			c-0.25-0.649-0.535-1.393-0.564-1.47l-0.056-0.165c-0.34-1.001-0.485-1.493-0.539-1.728h0.211c0.306,0,0.636-0.211,0.636-0.674
			V6.4c0-0.308-0.177-0.636-0.674-0.636c-0.076,0-0.18,0.005-0.323,0.014c-0.29,0.016-0.774,0.043-1.58,0.043
			c-1.113,0-1.579-0.029-1.83-0.045c-0.113-0.007-0.19-0.012-0.262-0.012c-0.498,0-0.675,0.328-0.675,0.636v0.4
			c0,0.381,0.248,0.636,0.617,0.636h0.362c0.081,0,0.126,0,0.385,0.452c0.129,0.222,0.829,2.034,0.991,2.496
			c0.122,0.304,1.553,3.691,1.697,3.929c0.129,0.242,0.37,0.694,0.922,0.694c0.547,0,0.786-0.441,0.908-0.667
			c0.044-0.088,0.272-0.601,0.67-1.5c0.43-0.97,0.965-2.177,1.103-2.465l0.078-0.163c0.288-0.605,1.164-2.447,1.407-2.691
			c0.032-0.029,0.143-0.074,0.346-0.082c-0.263,0.39-0.414,0.831-0.414,1.263c0,0.644,0.486,1.131,1.131,1.131
			c1.018,0,1.625-0.594,1.625-1.587c0-0.188-0.025-0.346-0.045-0.473c-0.005-0.034-0.012-0.076-0.016-0.11
			c0.217-0.136,0.534-0.207,0.756-0.207c0.455,0,0.574,0.106,0.608,0.142c0.098,0.098,0.139,0.51,0.162,0.731l0.002,0.72
			c-0.285,0.169-0.694,0.362-1.22,0.611c-0.247,0.116-0.522,0.246-0.814,0.387c-1.352,0.602-2.037,1.537-2.037,2.783
			c0,1.456,0.931,2.12,1.796,2.12c0.399,0,0.852,0,1.37-0.158c0.563-0.187,1.015-0.422,1.407-0.735
			c0.387,0.574,1.005,0.893,1.769,0.893c0.943,0,1.674-0.455,2.173-1.352l0.027-0.056C39.855,12.991,39.542,12.731,39.404,12.648z
			 M35.163,10.839v1.631c-0.074,0.141-0.451,0.432-0.749,0.464c-0.232-0.011-0.375-0.268-0.375-0.675
			C34.039,11.536,34.462,11.223,35.163,10.839z"/>
		<path style="fill:#FFFFFF;" d="M45.292,13.007c-0.099-0.225-0.296-0.358-0.533-0.358c-0.127,0-0.236,0.039-0.353,0.09
			c-0.175,0.088-0.518,0.177-0.886,0.177c-0.261,0-0.524-0.404-0.524-1.304V9.9c0-0.695,0.013-1.412,0.038-2.065h1.837
			c0.398,0,0.602-0.248,0.662-0.486l0.189-0.794c0.046-0.186,0.007-0.376-0.107-0.522c-0.115-0.147-0.296-0.232-0.497-0.232h-2.007
			l0.056-1.399c0-0.435-0.3-0.751-0.712-0.751c-0.323,0-0.592,0.167-0.734,0.45c-0.371,0.709-1.943,2.024-2.351,2.169
			C38.817,6.485,38.7,6.832,38.7,7.085c0,0.442,0.309,0.75,0.75,0.75h0.62v1.989c0,0.363-0.015,0.929-0.029,1.488
			c-0.015,0.553-0.028,1.1-0.028,1.441c0,1.036,1.062,2.196,2.482,2.196c1.486,0,2.383-0.64,2.678-0.85l0.061-0.052
			c0.293-0.292,0.246-0.604,0.193-0.763L45.292,13.007z"/>
		<path style="fill:#FFFFFF;" d="M53.109,11.653l-0.285-0.171l-0.03-0.017c-0.098-0.049-0.198-0.075-0.298-0.075
			c-0.136,0-0.391,0.047-0.555,0.336c-0.379,0.579-1.035,0.884-1.896,0.884c-0.813,0-1.989-0.925-1.989-2.597V9.909h4.119
			c0.252,0,1.017,0,1.017-0.788c0-1.192-1.014-3.527-3.357-3.527c-1.788,0-2.788,0.432-3.694,1.597
			c-0.873,1.136-1.032,1.939-1.032,3.11c0,1.256,0.201,2.324,1.185,3.457c0.721,0.825,1.679,1.193,3.103,1.193
			c1.698,0,3.079-0.805,3.888-2.27C53.624,12.052,53.275,11.753,53.109,11.653z M49.931,8.256h-1.675
			c0.344-0.99,0.895-0.99,1.123-0.99c0.519,0,0.652,0.62,0.684,0.984C50.027,8.253,49.983,8.256,49.931,8.256z"/>
	</g>
</g>
<g id="Layer_1">
</g>
</svg>
