<?xml version="1.0" encoding="iso-8859-1"?>
<!-- Generator: Adobe Illustrator 19.2.1, SVG Export Plug-In . SVG Version: 6.00 Build 0)  -->
<svg version="1.1" xmlns="http://www.w3.org/2000/svg" xmlns:xlink="http://www.w3.org/1999/xlink" x="0px" y="0px"
	 viewBox="0 0 100 40" style="enable-background:new 0 0 100 40;" xml:space="preserve">
<g id="LOGO_x5F_BSPS_x5F_private">
	<g>
		<g>
			
				<linearGradient id="SVGID_1_" gradientUnits="userSpaceOnUse" x1="-344.6947" y1="324.9883" x2="-344.3719" y2="324.9883" gradientTransform="matrix(0 -45.0654 -45.0654 0 14659.1816 -15519.0381)">
				<stop  offset="0" style="stop-color:#DFD09D"/>
				<stop  offset="0.0017" style="stop-color:#DFD09D"/>
				<stop  offset="0.5188" style="stop-color:#8B774D"/>
				<stop  offset="0.5384" style="stop-color:#8F7C51"/>
				<stop  offset="0.6767" style="stop-color:#AC9A6E"/>
				<stop  offset="0.8043" style="stop-color:#C3B385"/>
				<stop  offset="0.9161" style="stop-color:#D2C395"/>
				<stop  offset="1" style="stop-color:#D8CA9B"/>
			</linearGradient>
			<path style="fill:url(#SVGID_1_);" d="M13.38,14.721c-0.983,0-1.652,0.032-1.974,0.047c-0.125,0.006-0.209,0.01-0.251,0.01h4.584
				c-0.035,0-0.113-0.003-0.232-0.008C15.157,14.754,14.43,14.721,13.38,14.721z"/>
			
				<linearGradient id="SVGID_2_" gradientUnits="userSpaceOnUse" x1="-344.6947" y1="325.2075" x2="-344.3719" y2="325.2075" gradientTransform="matrix(0 -45.0654 -45.0654 0 14659.1816 -15519.0381)">
				<stop  offset="0" style="stop-color:#DFD09D"/>
				<stop  offset="0.0017" style="stop-color:#DFD09D"/>
				<stop  offset="0.5188" style="stop-color:#8B774D"/>
				<stop  offset="0.5384" style="stop-color:#8F7C51"/>
				<stop  offset="0.6767" style="stop-color:#AC9A6E"/>
				<stop  offset="0.8043" style="stop-color:#C3B385"/>
				<stop  offset="0.9161" style="stop-color:#D2C395"/>
				<stop  offset="1" style="stop-color:#D8CA9B"/>
			</linearGradient>
			<path style="fill:url(#SVGID_2_);" d="M3.413,14.721c-1.241,0-1.987,0.032-2.346,0.047c-0.136,0.006-0.227,0.01-0.278,0.01h5.554
				c-0.076,0-0.176-0.004-0.324-0.011C5.633,14.752,4.914,14.721,3.413,14.721z"/>
			
				<linearGradient id="SVGID_3_" gradientUnits="userSpaceOnUse" x1="-344.6947" y1="325.2189" x2="-344.3719" y2="325.2189" gradientTransform="matrix(0 -45.0654 -45.0654 0 14659.1816 -15519.0381)">
				<stop  offset="0" style="stop-color:#DFD09D"/>
				<stop  offset="0.0017" style="stop-color:#DFD09D"/>
				<stop  offset="0.5188" style="stop-color:#8B774D"/>
				<stop  offset="0.5384" style="stop-color:#8F7C51"/>
				<stop  offset="0.6767" style="stop-color:#AC9A6E"/>
				<stop  offset="0.8043" style="stop-color:#C3B385"/>
				<stop  offset="0.9161" style="stop-color:#D2C395"/>
				<stop  offset="1" style="stop-color:#D8CA9B"/>
			</linearGradient>
			<path style="fill:url(#SVGID_3_);" d="M3.413,0.286c0.141,0,0.414-0.01,0.729-0.022c0.459-0.016,0.981-0.036,1.363-0.036H0.599
				c0.063,0,0.159,0.004,0.3,0.01C1.288,0.255,2.011,0.286,3.413,0.286z"/>
			
				<linearGradient id="SVGID_4_" gradientUnits="userSpaceOnUse" x1="-344.6947" y1="325.0305" x2="-344.3719" y2="325.0305" gradientTransform="matrix(0 -45.0654 -45.0654 0 14659.1816 -15519.0381)">
				<stop  offset="0" style="stop-color:#DFD09D"/>
				<stop  offset="0.0017" style="stop-color:#DFD09D"/>
				<stop  offset="0.5188" style="stop-color:#8B774D"/>
				<stop  offset="0.5384" style="stop-color:#8F7C51"/>
				<stop  offset="0.6767" style="stop-color:#AC9A6E"/>
				<stop  offset="0.8043" style="stop-color:#C3B385"/>
				<stop  offset="0.9161" style="stop-color:#D2C395"/>
				<stop  offset="1" style="stop-color:#D8CA9B"/>
			</linearGradient>
			<path style="fill:url(#SVGID_4_);" d="M22.41,13.106h-0.576c-0.004-0.025-0.008-0.054-0.012-0.089
				c-0.031-0.189-0.031-0.948-0.031-1.557V9.406c0-1.484,0-2.767,0.034-3.04c0.036-0.283-0.063-0.463-0.152-0.564
				c-0.232-0.262-0.603-0.268-1.121-0.058c-0.146,0.06-0.673,0.251-1.183,0.436c-0.713,0.258-1.157,0.42-1.287,0.476
				c-0.013,0.005-0.024,0.012-0.036,0.018c-0.108-0.703-0.682-1.195-1.451-1.195c-0.704,0-1.399,0.359-2.017,1.029l-0.036-0.28
				c-0.097-0.605-0.558-0.635-0.649-0.635c-0.175,0-0.301,0.045-0.403,0.082l-2.106,0.983c0.351-0.596,0.54-1.294,0.54-2.083
				c0-1.295-0.614-2.521-1.655-3.29C9.111,0.485,7.954,0.229,5.506,0.229c-0.383,0-0.904,0.019-1.363,0.036
				C3.827,0.275,3.554,0.286,3.413,0.286c-1.403,0-2.126-0.031-2.515-0.047c-0.141-0.006-0.237-0.01-0.3-0.01
				C0.31,0.229,0,0.428,0,0.865V1.34c0,0.358,0.252,0.618,0.599,0.618h0.989c0.092,0,0.15,0.005,0.186,0.011
				c0.015,0.35,0.015,2.398,0.015,3.404V7.58c0,2.253-0.038,5.105-0.054,5.31c-0.008,0.069-0.016,0.113-0.022,0.141
				c-0.052,0.009-0.153,0.018-0.353,0.018H0.751c-0.14,0-0.599,0.046-0.599,0.636v0.476c0,0.369,0.256,0.617,0.637,0.617
				c0.052,0,0.143-0.004,0.278-0.01c0.359-0.016,1.105-0.047,2.346-0.047c1.501,0,2.22,0.03,2.605,0.046
				c0.148,0.006,0.249,0.011,0.324,0.011c0.106,0,0.636-0.033,0.636-0.674v-0.438c0-0.369-0.256-0.618-0.636-0.618H5.278
				c-0.034,0-0.051-0.002-0.057-0.003c-0.007-0.01-0.035-0.055-0.05-0.159c-0.008-0.107-0.018-0.837-0.018-3.71v-0.3
				c0.377,0.024,0.782,0.024,1.227,0.024c1.847,0,3.311-0.487,4.272-1.352c0.006,0.165,0.076,0.429,0.434,0.568l0.315,0.176
				c0.354,0.189,0.467,0.286,0.467,1.057v3.728c0,0.011,0,0.021-0.001,0.029h-0.009h-0.666c-0.398,0-0.655,0.25-0.655,0.637v0.418
				c0,0.363,0.254,0.617,0.618,0.617c0.042,0,0.126-0.004,0.251-0.01c0.322-0.016,0.991-0.047,1.974-0.047
				c1.05,0,1.778,0.032,2.127,0.048c0.119,0.005,0.198,0.008,0.232,0.008c0.364,0,0.618-0.254,0.618-0.617v-0.437
				c0-0.364-0.262-0.618-0.637-0.618h-0.836c-0.008,0-0.016,0-0.022,0c-0.012-0.047-0.026-0.141-0.026-0.314V9.12
				c0-0.191,0.068-0.522,0.164-0.692c0.144-0.251,0.326-0.308,0.379-0.308c0.077,0,0.182,0.009,0.241,0.054l0.075,0.046
				c0.152,0.076,0.466,0.203,0.864,0.203c0.455,0,0.891-0.256,1.178-0.62c0.077,0.128,0.215,0.245,0.462,0.301
				c0.627,0.164,0.627,0.324,0.627,0.711v2.683c0,0.504,0,1.073-0.033,1.607H18.13c-0.464,0-0.675,0.33-0.675,0.637v0.362
				c0,0.465,0.32,0.674,0.637,0.674c0.076,0,0.203-0.006,0.378-0.014c0.37-0.017,0.929-0.043,1.676-0.043
				c0.937,0,1.645,0.031,2.026,0.047c0.139,0.006,0.233,0.01,0.275,0.01c0.307,0,0.637-0.211,0.637-0.674v-0.381
				C23.084,13.439,22.908,13.106,22.41,13.106z M7.926,6.235C7.555,6.761,6.708,7.323,6.039,7.323c-0.341,0-0.646-0.019-0.885-0.055
				V1.86c0.15-0.017,0.311-0.017,0.4-0.017l0.219,0c0.025,0,2.521,0.031,2.521,2.693C8.294,5.069,8.252,5.745,7.926,6.235z"/>
			
				<linearGradient id="SVGID_5_" gradientUnits="userSpaceOnUse" x1="-344.6947" y1="324.8369" x2="-344.3719" y2="324.8369" gradientTransform="matrix(0 -45.0654 -45.0654 0 14659.1816 -15519.0381)">
				<stop  offset="0" style="stop-color:#DFD09D"/>
				<stop  offset="0.0017" style="stop-color:#DFD09D"/>
				<stop  offset="0.5188" style="stop-color:#8B774D"/>
				<stop  offset="0.5384" style="stop-color:#8F7C51"/>
				<stop  offset="0.6767" style="stop-color:#AC9A6E"/>
				<stop  offset="0.8043" style="stop-color:#C3B385"/>
				<stop  offset="0.9161" style="stop-color:#D2C395"/>
				<stop  offset="1" style="stop-color:#D8CA9B"/>
			</linearGradient>
			<path style="fill:url(#SVGID_5_);" d="M20.146,14.721c-0.747,0-1.307,0.026-1.676,0.043c-0.175,0.008-0.302,0.014-0.378,0.014
				h4.355c-0.042,0-0.136-0.004-0.275-0.01C21.791,14.752,21.083,14.721,20.146,14.721z"/>
		</g>
		<g>
			<polygon style="fill:none;" points="19.918,0.742 19.917,0.742 19.919,0.742 			"/>
			
				<linearGradient id="SVGID_6_" gradientUnits="userSpaceOnUse" x1="-345.8448" y1="320.1599" x2="-345.522" y2="320.1599" gradientTransform="matrix(0 -10.3037 -10.3037 0 3317.8066 -3559.4165)">
				<stop  offset="0" style="stop-color:#DFD09D"/>
				<stop  offset="0.0017" style="stop-color:#DFD09D"/>
				<stop  offset="0.5188" style="stop-color:#8B774D"/>
				<stop  offset="0.5384" style="stop-color:#8F7C51"/>
				<stop  offset="0.6767" style="stop-color:#AC9A6E"/>
				<stop  offset="0.8043" style="stop-color:#C3B385"/>
				<stop  offset="0.9161" style="stop-color:#D2C395"/>
				<stop  offset="1" style="stop-color:#D8CA9B"/>
			</linearGradient>
			<path style="fill:url(#SVGID_6_);" d="M18.026,2.406c0-0.932,0.83-1.663,1.891-1.663"/>
			
				<linearGradient id="SVGID_7_" gradientUnits="userSpaceOnUse" x1="-345.8448" y1="320.1654" x2="-345.522" y2="320.1654" gradientTransform="matrix(0 -10.3037 -10.3037 0 3317.8066 -3559.4165)">
				<stop  offset="0" style="stop-color:#DFD09D"/>
				<stop  offset="0.0017" style="stop-color:#DFD09D"/>
				<stop  offset="0.5188" style="stop-color:#8B774D"/>
				<stop  offset="0.5384" style="stop-color:#8F7C51"/>
				<stop  offset="0.6767" style="stop-color:#AC9A6E"/>
				<stop  offset="0.8043" style="stop-color:#C3B385"/>
				<stop  offset="0.9161" style="stop-color:#D2C395"/>
				<stop  offset="1" style="stop-color:#D8CA9B"/>
			</linearGradient>
			<path style="fill:url(#SVGID_7_);" d="M19.804,4.069c-0.874,0-1.778-0.622-1.778-1.663"/>
			
				<linearGradient id="SVGID_8_" gradientUnits="userSpaceOnUse" x1="-345.8448" y1="319.9892" x2="-345.522" y2="319.9892" gradientTransform="matrix(0 -10.3037 -10.3037 0 3317.8066 -3559.4165)">
				<stop  offset="0" style="stop-color:#DFD09D"/>
				<stop  offset="0.0017" style="stop-color:#DFD09D"/>
				<stop  offset="0.5188" style="stop-color:#8B774D"/>
				<stop  offset="0.5384" style="stop-color:#8F7C51"/>
				<stop  offset="0.6767" style="stop-color:#AC9A6E"/>
				<stop  offset="0.8043" style="stop-color:#C3B385"/>
				<stop  offset="0.9161" style="stop-color:#D2C395"/>
				<stop  offset="1" style="stop-color:#D8CA9B"/>
			</linearGradient>
			<path style="fill:url(#SVGID_8_);" d="M21.657,2.329c0,0.865-0.637,1.739-1.853,1.739"/>
			
				<linearGradient id="SVGID_9_" gradientUnits="userSpaceOnUse" x1="-345.8448" y1="319.9836" x2="-345.522" y2="319.9836" gradientTransform="matrix(0 -10.3037 -10.3037 0 3317.8066 -3559.4165)">
				<stop  offset="0" style="stop-color:#DFD09D"/>
				<stop  offset="0.0017" style="stop-color:#DFD09D"/>
				<stop  offset="0.5188" style="stop-color:#8B774D"/>
				<stop  offset="0.5384" style="stop-color:#8F7C51"/>
				<stop  offset="0.6767" style="stop-color:#AC9A6E"/>
				<stop  offset="0.8043" style="stop-color:#C3B385"/>
				<stop  offset="0.9161" style="stop-color:#D2C395"/>
				<stop  offset="1" style="stop-color:#D8CA9B"/>
			</linearGradient>
			<path style="fill:url(#SVGID_9_);" d="M19.919,0.742c1.088,0,1.738,0.808,1.738,1.587"/>
			
				<linearGradient id="SVGID_10_" gradientUnits="userSpaceOnUse" x1="-345.8448" y1="320.0754" x2="-345.522" y2="320.0754" gradientTransform="matrix(0 -10.3037 -10.3037 0 3317.8066 -3559.4165)">
				<stop  offset="0" style="stop-color:#DFD09D"/>
				<stop  offset="0.0017" style="stop-color:#DFD09D"/>
				<stop  offset="0.5188" style="stop-color:#8B774D"/>
				<stop  offset="0.5384" style="stop-color:#8F7C51"/>
				<stop  offset="0.6767" style="stop-color:#AC9A6E"/>
				<stop  offset="0.8043" style="stop-color:#C3B385"/>
				<stop  offset="0.9161" style="stop-color:#D2C395"/>
				<stop  offset="1" style="stop-color:#D8CA9B"/>
			</linearGradient>
			<path style="fill:url(#SVGID_10_);" d="M19.919,0.742h-0.001c-1.061,0-1.891,0.731-1.891,1.663c0,1.042,0.904,1.663,1.778,1.663
				c1.217,0,1.853-0.875,1.853-1.739C21.657,1.55,21.007,0.743,19.919,0.742z"/>
		</g>
		<g>
			
				<linearGradient id="SVGID_11_" gradientUnits="userSpaceOnUse" x1="-344.5118" y1="325.3407" x2="-344.1889" y2="325.3407" gradientTransform="matrix(0 -29.1602 -29.1602 0 9517.7744 -10031.0098)">
				<stop  offset="0" style="stop-color:#DFD09D"/>
				<stop  offset="0.0017" style="stop-color:#DFD09D"/>
				<stop  offset="0.5188" style="stop-color:#8B774D"/>
				<stop  offset="0.5384" style="stop-color:#8F7C51"/>
				<stop  offset="0.6767" style="stop-color:#AC9A6E"/>
				<stop  offset="0.8043" style="stop-color:#C3B385"/>
				<stop  offset="0.9161" style="stop-color:#D2C395"/>
				<stop  offset="1" style="stop-color:#D8CA9B"/>
			</linearGradient>
			<path style="fill:url(#SVGID_11_);" d="M27.75,14.34c0.044-0.088,0.272-0.601,0.67-1.5c0.43-0.97,0.965-2.177,1.103-2.465
				l0.078-0.163c0.288-0.605,1.164-2.447,1.407-2.691c0.032-0.029,0.143-0.074,0.346-0.082c-0.263,0.39-0.414,0.831-0.414,1.263
				c0,0.644,0.486,1.131,1.131,1.131c1.018,0,1.625-0.594,1.625-1.587c0-0.188-0.025-0.346-0.045-0.473
				c-0.005-0.034-0.012-0.076-0.016-0.11c0.217-0.136,0.534-0.207,0.756-0.207c0.455,0,0.574,0.106,0.608,0.142
				c0.098,0.098,0.139,0.51,0.162,0.731l0.002,0.72c-0.285,0.169-0.694,0.362-1.22,0.611c-0.247,0.116-0.522,0.246-0.814,0.387
				c-1.352,0.602-2.037,1.537-2.037,2.783c0,1.456,0.931,2.12,1.796,2.12c0.399,0,0.852,0,1.37-0.158
				c0.563-0.187,1.015-0.422,1.407-0.735c0.387,0.574,1.005,0.893,1.769,0.893c0.943,0,1.674-0.455,2.173-1.352l0.027-0.056
				c0.22-0.55-0.094-0.81-0.231-0.894l-0.215-0.145l-0.055-0.032c-0.063-0.031-0.161-0.073-0.286-0.073
				c-0.206,0-0.382,0.105-0.52,0.313l-0.018,0.027c-0.024,0.018-0.072,0.043-0.126,0.055c-0.03-0.096-0.073-0.322-0.073-0.84
				l-0.038-3.919c0-0.429,0-1.227-0.619-1.788c-0.478-0.425-0.949-0.655-2.071-0.655c-1.093,0-2.112,0.313-3.034,0.924V6.381
				c0-0.285-0.177-0.617-0.674-0.617c-0.052,0-0.134,0.005-0.25,0.013c-0.237,0.016-0.633,0.044-1.234,0.044
				c-0.683,0-1.086-0.026-1.352-0.042c-0.139-0.009-0.241-0.015-0.322-0.015c-0.381,0-0.636,0.248-0.636,0.617V6.8
				c0,0.418,0.301,0.636,0.598,0.636h0.281c0.008,0.033,0.012,0.103-0.022,0.214c-0.178,0.597-0.78,2.096-1.214,3.148
				c-0.25-0.649-0.535-1.393-0.564-1.47l-0.056-0.165c-0.34-1.001-0.485-1.493-0.539-1.728h0.211c0.306,0,0.636-0.211,0.636-0.674
				V6.4c0-0.308-0.177-0.636-0.674-0.636c-0.076,0-0.18,0.005-0.323,0.014c-0.29,0.016-0.774,0.043-1.58,0.043
				c-1.113,0-1.579-0.029-1.83-0.045c-0.113-0.007-0.19-0.012-0.262-0.012c-0.498,0-0.675,0.328-0.675,0.636v0.4
				c0,0.381,0.248,0.636,0.617,0.636h0.362c0.081,0,0.126,0,0.385,0.452c0.129,0.222,0.829,2.034,0.991,2.496
				c0.122,0.304,1.553,3.691,1.697,3.929c0.129,0.242,0.37,0.694,0.922,0.694C27.388,15.007,27.628,14.566,27.75,14.34z
				 M35.163,12.47c-0.074,0.141-0.451,0.432-0.749,0.464c-0.232-0.011-0.375-0.268-0.375-0.675c0-0.723,0.423-1.036,1.124-1.42
				V12.47z"/>
		</g>
		<g>
			
				<linearGradient id="SVGID_12_" gradientUnits="userSpaceOnUse" x1="-344.5966" y1="326.3024" x2="-344.2737" y2="326.3024" gradientTransform="matrix(0 -34.9922 -34.9922 0 11460.2568 -12043.2393)">
				<stop  offset="0" style="stop-color:#DFD09D"/>
				<stop  offset="0.0017" style="stop-color:#DFD09D"/>
				<stop  offset="0.5188" style="stop-color:#8B774D"/>
				<stop  offset="0.5384" style="stop-color:#8F7C51"/>
				<stop  offset="0.6767" style="stop-color:#AC9A6E"/>
				<stop  offset="0.8043" style="stop-color:#C3B385"/>
				<stop  offset="0.9161" style="stop-color:#D2C395"/>
				<stop  offset="1" style="stop-color:#D8CA9B"/>
			</linearGradient>
			<path style="fill:url(#SVGID_12_);" d="M45.233,14.047c0.293-0.292,0.246-0.604,0.193-0.763l-0.134-0.277
				c-0.099-0.225-0.296-0.358-0.533-0.358c-0.127,0-0.236,0.039-0.353,0.09c-0.175,0.088-0.518,0.177-0.886,0.177
				c-0.261,0-0.524-0.404-0.524-1.304V9.9c0-0.695,0.013-1.412,0.038-2.065h1.837c0.398,0,0.602-0.248,0.662-0.486l0.189-0.794
				c0.046-0.186,0.007-0.376-0.107-0.522c-0.115-0.147-0.296-0.232-0.497-0.232h-2.007l0.056-1.399c0-0.435-0.3-0.751-0.712-0.751
				c-0.323,0-0.592,0.167-0.734,0.45c-0.371,0.709-1.943,2.024-2.351,2.169C38.817,6.485,38.7,6.832,38.7,7.085
				c0,0.442,0.309,0.75,0.75,0.75h0.62v1.989c0,0.363-0.015,0.929-0.029,1.488c-0.015,0.553-0.028,1.1-0.028,1.441
				c0,1.036,1.062,2.196,2.482,2.196c1.486,0,2.383-0.64,2.678-0.85L45.233,14.047z"/>
		</g>
		<g>
			
				<linearGradient id="SVGID_13_" gradientUnits="userSpaceOnUse" x1="-344.5129" y1="326.6678" x2="-344.1901" y2="326.6678" gradientTransform="matrix(0 -28.9814 -28.9814 0 9516.5752 -9969.5332)">
				<stop  offset="0" style="stop-color:#DFD09D"/>
				<stop  offset="0.0017" style="stop-color:#DFD09D"/>
				<stop  offset="0.5188" style="stop-color:#8B774D"/>
				<stop  offset="0.5384" style="stop-color:#8F7C51"/>
				<stop  offset="0.6767" style="stop-color:#AC9A6E"/>
				<stop  offset="0.8043" style="stop-color:#C3B385"/>
				<stop  offset="0.9161" style="stop-color:#D2C395"/>
				<stop  offset="1" style="stop-color:#D8CA9B"/>
			</linearGradient>
			<path style="fill:url(#SVGID_13_);" d="M53.286,12.679c0.338-0.628-0.011-0.927-0.177-1.026l-0.285-0.171l-0.03-0.017
				c-0.098-0.049-0.198-0.075-0.298-0.075c-0.136,0-0.391,0.047-0.555,0.336c-0.379,0.579-1.035,0.884-1.896,0.884
				c-0.813,0-1.989-0.925-1.989-2.597V9.909h4.119c0.252,0,1.017,0,1.017-0.788c0-1.192-1.014-3.527-3.357-3.527
				c-1.788,0-2.788,0.432-3.694,1.597c-0.873,1.136-1.032,1.939-1.032,3.11c0,1.256,0.201,2.324,1.185,3.457
				c0.721,0.825,1.679,1.193,3.103,1.193C51.097,14.949,52.477,14.145,53.286,12.679z M49.379,7.265c0.519,0,0.652,0.62,0.684,0.984
				c-0.036,0.004-0.08,0.006-0.132,0.006h-1.675C48.6,7.265,49.151,7.265,49.379,7.265z"/>
		</g>
	</g>
	<g>
		<path d="M2.272,5.293c0-1.256,0-3.271-0.018-3.481C2.215,1.489,2.006,1.394,1.587,1.394H0.599c-0.076,0-0.114-0.038-0.114-0.133
			V0.785c0-0.114,0.038-0.152,0.114-0.152c0.228,0,0.913,0.057,2.815,0.057c0.343,0,1.446-0.057,2.093-0.057
			c2.283,0,3.386,0.209,4.49,0.97c0.875,0.647,1.445,1.712,1.445,2.891c0,2.359-1.826,3.843-5.06,3.843
			c-0.646,0-1.217,0-1.712-0.076v0.837c0,0.914,0,3.5,0.019,3.748c0.057,0.418,0.247,0.609,0.59,0.609h1.065
			c0.152,0,0.152,0.076,0.152,0.134v0.437c0,0.114,0,0.19-0.152,0.19c-0.266,0-0.875-0.057-2.93-0.057
			c-1.673,0-2.435,0.057-2.624,0.057c-0.153,0-0.153-0.076-0.153-0.133v-0.476c0-0.114,0-0.152,0.115-0.152h0.609
			c0.647,0,0.799-0.076,0.856-0.59c0.019-0.19,0.057-3.158,0.057-5.364V5.293z M4.669,7.576c0.342,0.114,0.875,0.152,1.37,0.152
			c0.837,0,1.826-0.647,2.283-1.293c0.38-0.571,0.457-1.294,0.457-1.978c0-2.588-2.092-3.177-3.006-3.177
			c-0.343,0-0.799-0.019-1.103,0.134V7.576z"/>
		<path d="M12.353,9.268c0-0.875-0.152-1.179-0.723-1.484l-0.342-0.19c-0.114-0.038-0.152-0.076-0.152-0.152V7.329
			c0-0.077,0.038-0.114,0.152-0.172l2.302-1.084c0.114-0.038,0.19-0.076,0.304-0.076c0.114,0,0.153,0.114,0.171,0.228l0.171,1.37
			h0.077c0.646-1.065,1.445-1.712,2.282-1.712c0.609,0,0.99,0.418,0.99,0.951s-0.533,1.027-1.027,1.027
			c-0.266,0-0.495-0.076-0.647-0.152c-0.152-0.114-0.343-0.152-0.533-0.152c-0.228,0-0.57,0.152-0.799,0.552
			C14.426,8.374,14.35,8.793,14.35,9.04v3.671c0,0.609,0.152,0.798,0.533,0.798h0.837c0.114,0,0.153,0.038,0.153,0.134v0.437
			c0,0.095-0.038,0.133-0.134,0.133c-0.133,0-0.97-0.057-2.359-0.057c-1.331,0-2.073,0.057-2.225,0.057
			c-0.095,0-0.134-0.038-0.134-0.133v-0.418c0-0.114,0.038-0.153,0.171-0.153h0.666c0.304,0,0.494-0.152,0.494-0.513V9.268z"/>
		<path d="M19.309,8.736c0-0.57-0.114-0.951-0.99-1.179c-0.171-0.038-0.19-0.095-0.19-0.171v-0.21c0-0.076,0.038-0.114,0.133-0.152
			c0.266-0.114,2.149-0.78,2.472-0.913c0.19-0.077,0.343-0.114,0.457-0.114c0.114,0,0.171,0.076,0.152,0.228
			c-0.038,0.305-0.038,1.522-0.038,3.101v2.054c0,0.723,0,1.408,0.038,1.636c0.038,0.343,0.114,0.494,0.305,0.494h0.761
			c0.152,0,0.19,0.038,0.19,0.134v0.381c0,0.114-0.038,0.19-0.153,0.19c-0.152,0-1.027-0.057-2.301-0.057
			c-1.103,0-1.826,0.057-2.054,0.057c-0.095,0-0.153-0.038-0.153-0.19v-0.362c0-0.114,0.076-0.153,0.19-0.153h0.837
			c0.19,0,0.305-0.076,0.305-0.38c0.038-0.571,0.038-1.18,0.038-1.712V8.736z M19.804,3.505c-0.647,0-1.293-0.456-1.293-1.179
			c0-0.609,0.57-1.179,1.408-1.179c0.837,0,1.255,0.609,1.255,1.103C21.173,2.858,20.755,3.505,19.804,3.505"/>
		<path d="M26.347,14.005c-0.114-0.19-1.484-3.405-1.674-3.881c-0.133-0.38-0.875-2.32-1.027-2.568
			c-0.304-0.533-0.457-0.685-0.799-0.685h-0.361c-0.095,0-0.133-0.038-0.133-0.152v-0.4c0-0.114,0.038-0.152,0.19-0.152
			c0.228,0,0.532,0.057,2.092,0.057c1.18,0,1.674-0.057,1.903-0.057c0.152,0,0.19,0.038,0.19,0.152v0.362
			c0,0.114-0.038,0.19-0.152,0.19h-0.304c-0.229,0-0.419,0.114-0.419,0.323c0,0.343,0.533,1.864,0.647,2.207
			c0.057,0.152,0.875,2.282,0.951,2.472h0.114c0.228-0.533,1.369-3.271,1.636-4.166c0.152-0.494-0.076-0.837-0.418-0.837h-0.305
			c-0.076,0-0.114-0.057-0.114-0.152V6.301c0-0.095,0.037-0.133,0.152-0.133c0.228,0,0.646,0.057,1.674,0.057
			c0.875,0,1.331-0.057,1.484-0.057c0.152,0,0.19,0.038,0.19,0.133V6.72c0,0.094-0.037,0.152-0.133,0.152h-0.323
			c-0.229,0-0.533,0.038-0.723,0.209c-0.342,0.343-1.217,2.207-1.598,3.006c-0.247,0.513-1.673,3.766-1.769,3.956
			c-0.133,0.247-0.248,0.4-0.476,0.4C26.613,14.443,26.499,14.29,26.347,14.005"/>
		<path d="M35.761,13.225c-0.418,0.456-0.913,0.78-1.655,1.027c-0.437,0.133-0.837,0.133-1.217,0.133
			c-0.704,0-1.312-0.57-1.312-1.636c0-0.875,0.381-1.731,1.75-2.34c1.18-0.57,1.902-0.875,2.321-1.179v-0.99
			c-0.038-0.381-0.077-0.837-0.305-1.065c-0.19-0.209-0.533-0.285-0.951-0.285c-0.342,0-0.799,0.114-1.103,0.342
			c-0.266,0.19-0.076,0.475-0.076,0.932c0,0.685-0.342,1.103-1.141,1.103c-0.342,0-0.647-0.228-0.647-0.646
			c0-0.533,0.305-1.141,0.875-1.56c0.799-0.609,1.826-1.065,3.082-1.065c1.065,0,1.407,0.228,1.75,0.533
			c0.419,0.38,0.457,0.913,0.457,1.426l0.038,3.006v0.913c0,1.027,0.152,1.332,0.494,1.332c0.266,0,0.533-0.152,0.609-0.305
			c0.076-0.114,0.114-0.114,0.19-0.076l0.228,0.153c0.076,0.038,0.115,0.114,0.038,0.304c-0.19,0.342-0.647,1.103-1.75,1.103
			c-0.723,0-1.332-0.342-1.598-1.16H35.761z M35.647,9.935c-0.837,0.532-2.092,0.856-2.092,2.244c0,0.78,0.418,1.16,0.875,1.16
			c0.532-0.038,1.217-0.57,1.217-0.913V9.935z"/>
		<path d="M39.45,7.271c-0.152,0-0.266-0.076-0.266-0.266c0-0.152,0.114-0.266,0.361-0.362c0.533-0.19,2.188-1.597,2.606-2.397
			c0.076-0.152,0.19-0.19,0.304-0.19c0.152,0,0.228,0.114,0.228,0.266l-0.076,1.883h2.511c0.114,0,0.153,0.077,0.134,0.153
			l-0.19,0.798c-0.019,0.077-0.076,0.114-0.19,0.114h-2.301c-0.038,0.799-0.058,1.712-0.058,2.549v1.712
			c0,1.484,0.628,1.788,1.009,1.788c0.418,0,0.837-0.095,1.103-0.229c0.133-0.057,0.19-0.057,0.228,0.038l0.114,0.228
			c0.038,0.114,0,0.19-0.076,0.266c-0.266,0.19-1.065,0.761-2.397,0.761c-1.141,0-1.997-0.913-1.997-1.712
			c0-0.685,0.057-2.207,0.057-2.929V7.271H39.45z"/>
		<path d="M47.572,9.935c0,1.94,1.389,3.081,2.473,3.081c1.179,0,1.902-0.495,2.301-1.103c0.076-0.134,0.153-0.134,0.229-0.095
			l0.285,0.171c0.095,0.057,0.133,0.133,0,0.381c-0.399,0.722-1.37,2.016-3.462,2.016c-1.217,0-2.073-0.266-2.739-1.027
			c-0.875-1.008-1.065-1.959-1.065-3.139c0-1.046,0.114-1.75,0.932-2.815c0.799-1.028,1.655-1.408,3.31-1.408
			c2.169,0,2.872,2.264,2.872,3.043c0,0.286-0.19,0.304-0.533,0.304h-4.603V9.935z M49.931,8.66c0.4,0,0.628-0.114,0.628-0.266
			c0-0.57-0.19-1.693-1.18-1.693c-0.932,0-1.502,0.685-1.75,1.959H49.931z"/>
	</g>
</g>
<g id="Layer_1">
</g>
</svg>
