<?xml version="1.0" encoding="iso-8859-1"?>
<!-- Generator: Adobe Illustrator 19.2.1, SVG Export Plug-In . SVG Version: 6.00 Build 0)  -->
<svg version="1.1" xmlns="http://www.w3.org/2000/svg" xmlns:xlink="http://www.w3.org/1999/xlink" x="0px" y="0px"
	 viewBox="0 0 100 40" style="enable-background:new 0 0 100 40;" xml:space="preserve">
<g id="LOGO_x5F_BSPS_x5F_britney_x5F_ko">
	<g>
		<path style="fill:#FFFFFF;" d="M10.073,22.823C9.842,22.63,9.522,22.468,9.1,22.321c0.346-0.187,0.598-0.423,0.774-0.711
			c0.175-0.315,0.264-0.637,0.264-1.001c0-0.38-0.102-0.738-0.305-1.052c-0.187-0.311-0.469-0.542-0.814-0.697
			c-0.346-0.151-0.844-0.223-1.486-0.223H5.932v8.113h2.225c0.803,0,1.442-0.23,1.929-0.675c0.472-0.465,0.708-1.01,0.708-1.662
			c0-0.318-0.058-0.617-0.197-0.892C10.481,23.24,10.306,23.012,10.073,22.823 M6.735,19.422h0.938c0.569,0,0.988,0.111,1.237,0.323
			c0.265,0.213,0.392,0.498,0.392,0.87c0,0.275-0.085,0.53-0.222,0.755c-0.163,0.24-0.379,0.397-0.644,0.504
			c-0.261,0.109-0.681,0.163-1.233,0.163H6.735V19.422z M9.708,25.227c-0.172,0.251-0.391,0.432-0.666,0.54
			c-0.274,0.12-0.71,0.185-1.301,0.185H6.735v-3.134h0.454c0.693,0,1.17,0.032,1.44,0.102c0.42,0.092,0.74,0.285,0.97,0.559
			c0.243,0.268,0.356,0.581,0.356,0.944C9.955,24.71,9.873,24.977,9.708,25.227"/>
		<path style="fill:#FFFFFF;" d="M16.72,22.707c0.389-0.173,0.689-0.416,0.904-0.756c0.212-0.336,0.321-0.726,0.321-1.167
			c0-0.526-0.149-0.973-0.471-1.34c-0.296-0.356-0.692-0.594-1.167-0.703c-0.318-0.076-0.935-0.105-1.836-0.105h-1.623v8.114h0.81
			v-3.778h0.462l2.919,3.778h1.001l-2.925-3.778C15.8,22.967,16.328,22.875,16.72,22.707 M13.656,22.183v-2.761H15.1
			c0.546,0,0.944,0.049,1.19,0.139c0.244,0.093,0.43,0.26,0.585,0.479c0.143,0.223,0.219,0.472,0.219,0.741
			c0,0.27-0.076,0.528-0.218,0.765c-0.151,0.228-0.349,0.387-0.612,0.493c-0.264,0.1-0.667,0.148-1.205,0.148L13.656,22.183z"/>
		<rect x="19.93" y="18.636" style="fill:#FFFFFF;" width="0.807" height="8.114"/>
		<polygon style="fill:#FFFFFF;" points="22.644,19.422 24.443,19.422 24.443,26.75 25.251,26.75 25.251,19.422 27.074,19.422 
			27.074,18.636 22.644,18.636 		"/>
		<polygon style="fill:#FFFFFF;" points="34.435,24.846 29.044,18.636 28.869,18.636 28.869,26.75 29.71,26.75 29.71,20.593 
			35.059,26.75 35.245,26.75 35.245,18.636 34.435,18.636 		"/>
		<polygon style="fill:#FFFFFF;" points="37.843,26.75 42.458,26.75 42.458,25.952 38.649,25.952 38.649,22.751 42.458,22.751 
			42.458,21.962 38.649,21.962 38.649,19.422 42.479,19.422 42.479,18.636 37.843,18.636 		"/>
		<polygon style="fill:#FFFFFF;" points="46.461,22.019 44.363,18.636 43.436,18.636 46.055,22.864 46.055,26.748 46.867,26.748 
			46.867,22.864 49.427,18.636 48.512,18.636 		"/>
	</g>
</g>
<g id="Layer_1">
</g>
</svg>
